<svg xmlns="http://www.w3.org/2000/svg" version="1.1" width="456" height="144">
<path d="M 86.878906 52.319336 L 86.878906 45.412109 L 90.729980 45.412109 L 90.729980 46.335938 L 87.738281 46.335938 L 87.738281 52.319336 Z " fill="rgb(0, 0, 0)" fill-opacity="1.000000" />
<path d="M 86.878906 65.319336 L 86.878906 51.300781 L 87.738281 51.300781 L 87.738281 65.319336 Z " fill="rgb(0, 0, 0)" fill-opacity="1.000000" />
<path d="M 86.878906 78.319336 L 86.878906 64.300781 L 87.738281 64.300781 L 87.738281 78.319336 Z " fill="rgb(0, 0, 0)" fill-opacity="1.000000" />
<path d="M 86.878906 91.319336 L 86.878906 77.300781 L 87.738281 77.300781 L 87.738281 91.319336 Z " fill="rgb(0, 0, 0)" fill-opacity="1.000000" />
<path d="M 86.878906 98.335938 L 86.878906 90.300781 L 87.738281 90.300781 L 87.738281 97.412109 L 90.729980 97.412109 L 90.729980 98.335938 Z " fill="rgb(0, 0, 0)" fill-opacity="1.000000" />
<path d="M 121.878906 117.319336 L 121.878906 103.300781 L 122.738281 103.300781 L 122.738281 117.319336 Z " fill="rgb(0, 0, 0)" fill-opacity="1.000000" />
<path d="M 121.878906 124.335938 L 121.878906 116.300781 L 122.738281 116.300781 L 122.738281 123.412109 L 125.729980 123.412109 L 125.729980 124.335938 Z " fill="rgb(0, 0, 0)" fill-opacity="1.000000" />
<path d="M 126.102051 132.007812 L 127.584473 132.007812 L 130.721191 138.587402 L 130.721191 132.007812 L 131.875977 132.007812 L 131.875977 140.000000 L 130.393555 140.000000 L 127.256836 133.420410 L 127.256836 140.000000 L 126.102051 140.000000 Z " fill="rgb(0, 0, 0)" fill-opacity="1.000000" />
<path d="M 136.308594 134.677246 Q 135.556641 134.677246 135.169922 135.262695 Q 134.783203 135.848145 134.783203 136.997559 Q 134.783203 138.141602 135.169922 138.729736 Q 135.556641 139.317871 136.308594 139.317871 Q 137.065918 139.317871 137.452637 138.729736 Q 137.839355 138.141602 137.839355 136.997559 Q 137.839355 135.848145 137.452637 135.262695 Q 137.065918 134.677246 136.308594 134.677246 Z M 136.308594 133.839355 Q 137.560059 133.839355 138.223389 134.650391 Q 138.886719 135.461426 138.886719 136.997559 Q 138.886719 138.539062 138.226074 139.347412 Q 137.565430 140.155762 136.308594 140.155762 Q 135.057129 140.155762 134.396484 139.347412 Q 133.735840 138.539062 133.735840 136.997559 Q 133.735840 135.461426 134.396484 134.650391 Q 135.057129 133.839355 136.308594 133.839355 Z " fill="rgb(0, 0, 0)" fill-opacity="1.000000" />
<path d="M 143.297852 132.276367 L 143.297852 133.984375 L 145.542969 133.984375 L 145.542969 134.752441 L 143.297852 134.752441 L 143.297852 138.018066 Q 143.297852 138.684082 143.550293 138.947266 Q 143.802734 139.210449 144.431152 139.210449 L 145.542969 139.210449 L 145.542969 140.000000 L 144.334473 140.000000 Q 143.222656 140.000000 142.766113 139.554199 Q 142.309570 139.108398 142.309570 138.018066 L 142.309570 134.752441 L 140.703613 134.752441 L 140.703613 133.984375 L 142.309570 133.984375 L 142.309570 132.276367 Z " fill="rgb(0, 0, 0)" fill-opacity="1.000000" />
<path d="M 157.770508 136.976074 L 157.442871 136.976074 Q 156.578125 136.976074 156.140381 137.279541 Q 155.702637 137.583008 155.702637 138.184570 Q 155.702637 138.727051 156.030273 139.027832 Q 156.357910 139.328613 156.937988 139.328613 Q 157.754395 139.328613 158.221680 138.761963 Q 158.688965 138.195312 158.694336 137.196289 L 158.694336 136.976074 Z M 159.687988 136.567871 L 159.687988 140.000000 L 158.694336 140.000000 L 158.694336 139.108398 Q 158.377441 139.645508 157.896729 139.900635 Q 157.416016 140.155762 156.728516 140.155762 Q 155.810059 140.155762 155.262207 139.637451 Q 154.714355 139.119141 154.714355 138.249023 Q 154.714355 137.244629 155.388428 136.723633 Q 156.062500 136.202637 157.367676 136.202637 L 158.694336 136.202637 L 158.694336 136.046875 Q 158.688965 135.327148 158.329102 135.002197 Q 157.969238 134.677246 157.179688 134.677246 Q 156.674805 134.677246 156.159180 134.822266 Q 155.643555 134.967285 155.154785 135.246582 L 155.154785 134.258301 Q 155.702637 134.048828 156.204834 133.944092 Q 156.707031 133.839355 157.179688 133.839355 Q 157.926270 133.839355 158.455322 134.059570 Q 158.984375 134.279785 159.312012 134.720215 Q 159.516113 134.988770 159.602051 135.383545 Q 159.687988 135.778320 159.687988 136.567871 Z " fill="rgb(0, 0, 0)" fill-opacity="1.000000" />
<path d="M 169.783203 137.019043 Q 169.783203 138.168457 170.145752 138.753906 Q 170.508301 139.339355 171.222656 139.339355 Q 171.937012 139.339355 172.304932 138.751221 Q 172.672852 138.163086 172.672852 137.019043 Q 172.672852 135.875000 172.304932 135.286865 Q 171.937012 134.698730 171.222656 134.698730 Q 170.508301 134.698730 170.145752 135.284180 Q 169.783203 135.869629 169.783203 137.019043 Z M 172.672852 139.253418 Q 172.431152 139.699219 172.020264 139.938232 Q 171.609375 140.177246 171.066895 140.177246 Q 169.987305 140.177246 169.361572 139.342041 Q 168.735840 138.506836 168.735840 137.040527 Q 168.735840 135.547363 169.358887 134.704102 Q 169.981934 133.860840 171.066895 133.860840 Q 171.604004 133.860840 172.014893 134.094482 Q 172.425781 134.328125 172.672852 134.773926 L 172.672852 134.005859 L 173.666504 134.005859 L 173.666504 142.309570 L 172.672852 142.309570 Z " fill="rgb(0, 0, 0)" fill-opacity="1.000000" />
<path d="M 176.047363 137.722656 L 176.047363 133.995117 L 177.035645 133.995117 L 177.035645 137.722656 Q 177.035645 138.533691 177.322998 138.915039 Q 177.610352 139.296387 178.211914 139.296387 Q 178.910156 139.296387 179.280762 138.804932 Q 179.651367 138.313477 179.651367 137.395020 L 179.651367 133.995117 L 180.645020 133.995117 L 180.645020 140.000000 L 179.651367 140.000000 L 179.651367 139.097656 Q 179.388184 139.618652 178.934326 139.887207 Q 178.480469 140.155762 177.873535 140.155762 Q 176.949707 140.155762 176.498535 139.551514 Q 176.047363 138.947266 176.047363 137.722656 Z " fill="rgb(0, 0, 0)" fill-opacity="1.000000" />
<path d="M 185.308594 134.677246 Q 184.556641 134.677246 184.169922 135.262695 Q 183.783203 135.848145 183.783203 136.997559 Q 183.783203 138.141602 184.169922 138.729736 Q 184.556641 139.317871 185.308594 139.317871 Q 186.065918 139.317871 186.452637 138.729736 Q 186.839355 138.141602 186.839355 136.997559 Q 186.839355 135.848145 186.452637 135.262695 Q 186.065918 134.677246 185.308594 134.677246 Z M 185.308594 133.839355 Q 186.560059 133.839355 187.223389 134.650391 Q 187.886719 135.461426 187.886719 136.997559 Q 187.886719 138.539062 187.226074 139.347412 Q 186.565430 140.155762 185.308594 140.155762 Q 184.057129 140.155762 183.396484 139.347412 Q 182.735840 138.539062 182.735840 136.997559 Q 182.735840 135.461426 183.396484 134.650391 Q 184.057129 133.839355 185.308594 133.839355 Z " fill="rgb(0, 0, 0)" fill-opacity="1.000000" />
<path d="M 195.203613 135.225098 Q 194.886719 134.978027 194.559082 134.865234 Q 194.231445 134.752441 193.839355 134.752441 Q 192.915527 134.752441 192.426758 135.332520 Q 191.937988 135.912598 191.937988 137.008301 L 191.937988 140.000000 L 190.944336 140.000000 L 190.944336 133.984375 L 191.937988 133.984375 L 191.937988 135.160645 Q 192.185059 134.521484 192.697998 134.180420 Q 193.210938 133.839355 193.914551 133.839355 Q 194.279785 133.839355 194.596680 133.930664 Q 194.913574 134.021973 195.203613 134.215332 Z " fill="rgb(0, 0, 0)" fill-opacity="1.000000" />
<path d="M 197.047363 137.722656 L 197.047363 133.995117 L 198.035645 133.995117 L 198.035645 137.722656 Q 198.035645 138.533691 198.322998 138.915039 Q 198.610352 139.296387 199.211914 139.296387 Q 199.910156 139.296387 200.280762 138.804932 Q 200.651367 138.313477 200.651367 137.395020 L 200.651367 133.995117 L 201.645020 133.995117 L 201.645020 140.000000 L 200.651367 140.000000 L 200.651367 139.097656 Q 200.388184 139.618652 199.934326 139.887207 Q 199.480469 140.155762 198.873535 140.155762 Q 197.949707 140.155762 197.498535 139.551514 Q 197.047363 138.947266 197.047363 137.722656 Z " fill="rgb(0, 0, 0)" fill-opacity="1.000000" />
<path d="M 206.630859 134.596680 Q 206.813477 134.209961 207.095459 134.024658 Q 207.377441 133.839355 207.774902 133.839355 Q 208.500000 133.839355 208.798096 134.400635 Q 209.096191 134.961914 209.096191 136.514160 L 209.096191 140.000000 L 208.193848 140.000000 L 208.193848 136.557129 Q 208.193848 135.284180 208.051514 134.975342 Q 207.909180 134.666504 207.533203 134.666504 Q 207.103516 134.666504 206.945068 134.996826 Q 206.786621 135.327148 206.786621 136.557129 L 206.786621 140.000000 L 205.884277 140.000000 L 205.884277 136.557129 Q 205.884277 135.268066 205.731201 134.967285 Q 205.578125 134.666504 205.180664 134.666504 Q 204.788574 134.666504 204.635498 134.996826 Q 204.482422 135.327148 204.482422 136.557129 L 204.482422 140.000000 L 203.585449 140.000000 L 203.585449 133.984375 L 204.482422 133.984375 L 204.482422 134.500000 Q 204.659668 134.177734 204.925537 134.008545 Q 205.191406 133.839355 205.529785 133.839355 Q 205.937988 133.839355 206.209229 134.027344 Q 206.480469 134.215332 206.630859 134.596680 Z " fill="rgb(0, 0, 0)" fill-opacity="1.000000" />
<path d="M 125.892578 124.335938 L 125.892578 123.412109 L 132.729980 123.412109 L 132.729980 124.335938 Z " fill="rgb(0, 0, 0)" fill-opacity="1.000000" />
<path d="M 132.892578 124.335938 L 132.892578 123.412109 L 139.729980 123.412109 L 139.729980 124.335938 Z " fill="rgb(0, 0, 0)" fill-opacity="1.000000" />
<path d="M 139.892578 124.335938 L 139.892578 123.412109 L 146.729980 123.412109 L 146.729980 124.335938 Z " fill="rgb(0, 0, 0)" fill-opacity="1.000000" />
<path d="M 146.892578 124.335938 L 146.892578 123.412109 L 153.729980 123.412109 L 153.729980 124.335938 Z " fill="rgb(0, 0, 0)" fill-opacity="1.000000" />
<path d="M 153.892578 124.335938 L 153.892578 123.412109 L 160.729980 123.412109 L 160.729980 124.335938 Z " fill="rgb(0, 0, 0)" fill-opacity="1.000000" />
<path d="M 160.892578 124.335938 L 160.892578 123.412109 L 167.729980 123.412109 L 167.729980 124.335938 Z " fill="rgb(0, 0, 0)" fill-opacity="1.000000" />
<path d="M 167.892578 124.335938 L 167.892578 123.412109 L 174.729980 123.412109 L 174.729980 124.335938 Z " fill="rgb(0, 0, 0)" fill-opacity="1.000000" />
<path d="M 174.892578 124.335938 L 174.892578 123.412109 L 181.729980 123.412109 L 181.729980 124.335938 Z " fill="rgb(0, 0, 0)" fill-opacity="1.000000" />
<path d="M 181.892578 124.335938 L 181.892578 123.412109 L 188.729980 123.412109 L 188.729980 124.335938 Z " fill="rgb(0, 0, 0)" fill-opacity="1.000000" />
<path d="M 188.892578 124.335938 L 188.892578 123.412109 L 195.729980 123.412109 L 195.729980 124.335938 Z " fill="rgb(0, 0, 0)" fill-opacity="1.000000" />
<path d="M 195.892578 124.335938 L 195.892578 123.412109 L 202.729980 123.412109 L 202.729980 124.335938 Z " fill="rgb(0, 0, 0)" fill-opacity="1.000000" />
<path d="M 202.892578 124.335938 L 202.892578 123.412109 L 209.729980 123.412109 L 209.729980 124.335938 Z " fill="rgb(0, 0, 0)" fill-opacity="1.000000" />
<path d="M 209.892578 124.335938 L 209.892578 123.412109 L 216.729980 123.412109 L 216.729980 124.335938 Z " fill="rgb(0, 0, 0)" fill-opacity="1.000000" />
<path d="M 216.892578 124.335938 L 216.892578 123.412109 L 219.878906 123.412109 L 219.878906 116.300781 L 220.738281 116.300781 L 220.738281 124.335938 Z " fill="rgb(0, 0, 0)" fill-opacity="1.000000" />
<path d="M 219.878906 117.319336 L 219.878906 103.300781 L 220.738281 103.300781 L 220.738281 117.319336 Z " fill="rgb(0, 0, 0)" fill-opacity="1.000000" />
<path d="M 90.892578 98.335938 L 90.892578 97.412109 L 97.729980 97.412109 L 97.729980 98.335938 Z " fill="rgb(0, 0, 0)" fill-opacity="1.000000" />
<path d="M 97.892578 98.335938 L 97.892578 97.412109 L 104.729980 97.412109 L 104.729980 98.335938 Z " fill="rgb(0, 0, 0)" fill-opacity="1.000000" />
<path d="M 104.892578 98.335938 L 104.892578 97.412109 L 111.729980 97.412109 L 111.729980 98.335938 Z " fill="rgb(0, 0, 0)" fill-opacity="1.000000" />
<path d="M 111.892578 98.335938 L 111.892578 97.412109 L 118.729980 97.412109 L 118.729980 98.335938 Z " fill="rgb(0, 0, 0)" fill-opacity="1.000000" />
<path d="M 118.892578 98.335938 L 118.892578 97.412109 L 125.729980 97.412109 L 125.729980 98.335938 Z " fill="rgb(0, 0, 0)" fill-opacity="1.000000" />
<path d="M 125.892578 98.335938 L 125.892578 97.412109 L 132.729980 97.412109 L 132.729980 98.335938 Z " fill="rgb(0, 0, 0)" fill-opacity="1.000000" />
<path d="M 132.892578 98.335938 L 132.892578 97.412109 L 135.878906 97.412109 L 135.878906 90.300781 L 136.738281 90.300781 L 136.738281 98.335938 Z " fill="rgb(0, 0, 0)" fill-opacity="1.000000" />
<path d="M 205.878906 98.335938 L 205.878906 90.300781 L 206.738281 90.300781 L 206.738281 97.412109 L 209.729980 97.412109 L 209.729980 98.335938 Z " fill="rgb(0, 0, 0)" fill-opacity="1.000000" />
<path d="M 209.892578 98.335938 L 209.892578 97.412109 L 216.729980 97.412109 L 216.729980 98.335938 Z " fill="rgb(0, 0, 0)" fill-opacity="1.000000" />
<path d="M 216.892578 98.335938 L 216.892578 97.412109 L 223.729980 97.412109 L 223.729980 98.335938 Z " fill="rgb(0, 0, 0)" fill-opacity="1.000000" />
<path d="M 223.892578 98.335938 L 223.892578 97.412109 L 230.729980 97.412109 L 230.729980 98.335938 Z " fill="rgb(0, 0, 0)" fill-opacity="1.000000" />
<path d="M 230.892578 98.335938 L 230.892578 97.412109 L 237.729980 97.412109 L 237.729980 98.335938 Z " fill="rgb(0, 0, 0)" fill-opacity="1.000000" />
<path d="M 237.892578 98.335938 L 237.892578 97.412109 L 244.729980 97.412109 L 244.729980 98.335938 Z " fill="rgb(0, 0, 0)" fill-opacity="1.000000" />
<path d="M 244.892578 98.335938 L 244.892578 97.412109 L 251.729980 97.412109 L 251.729980 98.335938 Z " fill="rgb(0, 0, 0)" fill-opacity="1.000000" />
<path d="M 251.892578 98.335938 L 251.892578 97.412109 L 254.878906 97.412109 L 254.878906 90.300781 L 255.738281 90.300781 L 255.738281 98.335938 Z " fill="rgb(0, 0, 0)" fill-opacity="1.000000" />
<path d="M 324.878906 98.335938 L 324.878906 90.300781 L 325.738281 90.300781 L 325.738281 97.412109 L 328.729980 97.412109 L 328.729980 98.335938 Z " fill="rgb(0, 0, 0)" fill-opacity="1.000000" />
<path d="M 328.892578 98.335938 L 328.892578 97.412109 L 335.729980 97.412109 L 335.729980 98.335938 Z " fill="rgb(0, 0, 0)" fill-opacity="1.000000" />
<path d="M 335.892578 98.335938 L 335.892578 97.412109 L 342.729980 97.412109 L 342.729980 98.335938 Z " fill="rgb(0, 0, 0)" fill-opacity="1.000000" />
<path d="M 342.892578 98.335938 L 342.892578 97.412109 L 349.729980 97.412109 L 349.729980 98.335938 Z " fill="rgb(0, 0, 0)" fill-opacity="1.000000" />
<path d="M 349.892578 98.335938 L 349.892578 97.412109 L 356.729980 97.412109 L 356.729980 98.335938 Z " fill="rgb(0, 0, 0)" fill-opacity="1.000000" />
<path d="M 356.892578 98.335938 L 356.892578 97.412109 L 363.729980 97.412109 L 363.729980 98.335938 Z " fill="rgb(0, 0, 0)" fill-opacity="1.000000" />
<path d="M 363.892578 98.335938 L 363.892578 97.412109 L 370.729980 97.412109 L 370.729980 98.335938 Z " fill="rgb(0, 0, 0)" fill-opacity="1.000000" />
<path d="M 370.892578 98.335938 L 370.892578 97.412109 L 373.878906 97.412109 L 373.878906 90.300781 L 374.738281 90.300781 L 374.738281 98.335938 Z " fill="rgb(0, 0, 0)" fill-opacity="1.000000" />
<path d="M 110.645020 71.272461 L 110.645020 75.000000 L 109.651367 75.000000 L 109.651367 71.272461 Q 109.651367 70.461426 109.366699 70.080078 Q 109.082031 69.698730 108.475098 69.698730 Q 107.782227 69.698730 107.408936 70.190186 Q 107.035645 70.681641 107.035645 71.600098 L 107.035645 75.000000 L 106.047363 75.000000 L 106.047363 68.984375 L 107.035645 68.984375 L 107.035645 69.886719 Q 107.298828 69.371094 107.750000 69.105225 Q 108.201172 68.839355 108.818848 68.839355 Q 109.737305 68.839355 110.191162 69.443604 Q 110.645020 70.047852 110.645020 71.272461 Z " fill="rgb(0, 0, 0)" fill-opacity="1.000000" />
<path d="M 135.878906 91.319336 L 135.878906 77.300781 L 136.738281 77.300781 L 136.738281 91.319336 Z " fill="rgb(0, 0, 0)" fill-opacity="1.000000" />
<path d="M 205.878906 91.319336 L 205.878906 77.300781 L 206.738281 77.300781 L 206.738281 91.319336 Z " fill="rgb(0, 0, 0)" fill-opacity="1.000000" />
<path d="M 252.032227 85.142578 L 258.590332 81.866211 L 258.590332 88.418945 Z " fill="rgb(0, 0, 0)" fill-opacity="1.000000" />
<path d="M 258.892578 85.335938 L 258.892578 84.412109 L 265.729980 84.412109 L 265.729980 85.335938 Z " fill="rgb(0, 0, 0)" fill-opacity="1.000000" />
<path d="M 265.892578 85.335938 L 265.892578 84.412109 L 272.729980 84.412109 L 272.729980 85.335938 Z " fill="rgb(0, 0, 0)" fill-opacity="1.000000" />
<path d="M 272.892578 85.335938 L 272.892578 84.412109 L 279.729980 84.412109 L 279.729980 85.335938 Z " fill="rgb(0, 0, 0)" fill-opacity="1.000000" />
<path d="M 279.892578 85.335938 L 279.892578 84.412109 L 286.729980 84.412109 L 286.729980 85.335938 Z " fill="rgb(0, 0, 0)" fill-opacity="1.000000" />
<path d="M 286.892578 85.335938 L 286.892578 84.412109 L 293.729980 84.412109 L 293.729980 85.335938 Z " fill="rgb(0, 0, 0)" fill-opacity="1.000000" />
<path d="M 293.892578 85.335938 L 293.892578 84.412109 L 300.729980 84.412109 L 300.729980 85.335938 Z " fill="rgb(0, 0, 0)" fill-opacity="1.000000" />
<path d="M 300.892578 85.335938 L 300.892578 84.412109 L 307.729980 84.412109 L 307.729980 85.335938 Z " fill="rgb(0, 0, 0)" fill-opacity="1.000000" />
<path d="M 307.892578 85.335938 L 307.892578 84.412109 L 314.729980 84.412109 L 314.729980 85.335938 Z " fill="rgb(0, 0, 0)" fill-opacity="1.000000" />
<path d="M 314.892578 85.335938 L 314.892578 84.412109 L 321.729980 84.412109 L 321.729980 85.335938 Z " fill="rgb(0, 0, 0)" fill-opacity="1.000000" />
<path d="M 324.878906 91.319336 L 324.878906 85.335938 L 321.892578 85.335938 L 321.892578 84.412109 L 324.878906 84.412109 L 324.878906 77.300781 L 325.738281 77.300781 L 325.738281 91.319336 Z " fill="rgb(0, 0, 0)" fill-opacity="1.000000" />
<path d="M 373.878906 91.319336 L 373.878906 77.300781 L 374.738281 77.300781 L 374.738281 91.319336 Z " fill="rgb(0, 0, 0)" fill-opacity="1.000000" />
<path d="M 113.450195 74.092285 L 115.136719 74.092285 L 115.136719 68.033691 L 113.117188 69.005859 L 113.117188 67.963867 L 115.125977 67.007812 L 116.210938 67.007812 L 116.210938 74.092285 L 117.875977 74.092285 L 117.875977 75.000000 L 113.450195 75.000000 Z " fill="rgb(0, 0, 0)" fill-opacity="1.000000" />
<path d="M 135.878906 78.319336 L 135.878906 64.300781 L 136.738281 64.300781 L 136.738281 71.412109 L 139.729980 71.412109 L 139.729980 72.335938 L 136.738281 72.335938 L 136.738281 78.319336 Z " fill="rgb(0, 0, 0)" fill-opacity="1.000000" />
<path d="M 139.892578 72.335938 L 139.892578 71.412109 L 146.729980 71.412109 L 146.729980 72.335938 Z " fill="rgb(0, 0, 0)" fill-opacity="1.000000" />
<path d="M 146.892578 72.335938 L 146.892578 71.412109 L 153.729980 71.412109 L 153.729980 72.335938 Z " fill="rgb(0, 0, 0)" fill-opacity="1.000000" />
<path d="M 153.892578 72.335938 L 153.892578 71.412109 L 160.729980 71.412109 L 160.729980 72.335938 Z " fill="rgb(0, 0, 0)" fill-opacity="1.000000" />
<path d="M 160.892578 72.335938 L 160.892578 71.412109 L 167.729980 71.412109 L 167.729980 72.335938 Z " fill="rgb(0, 0, 0)" fill-opacity="1.000000" />
<path d="M 167.892578 72.335938 L 167.892578 71.412109 L 174.729980 71.412109 L 174.729980 72.335938 Z " fill="rgb(0, 0, 0)" fill-opacity="1.000000" />
<path d="M 174.892578 72.335938 L 174.892578 71.412109 L 181.729980 71.412109 L 181.729980 72.335938 Z " fill="rgb(0, 0, 0)" fill-opacity="1.000000" />
<path d="M 181.892578 72.335938 L 181.892578 71.412109 L 188.729980 71.412109 L 188.729980 72.335938 Z " fill="rgb(0, 0, 0)" fill-opacity="1.000000" />
<path d="M 188.892578 72.335938 L 188.892578 71.412109 L 195.729980 71.412109 L 195.729980 72.335938 Z " fill="rgb(0, 0, 0)" fill-opacity="1.000000" />
<path d="M 195.892578 72.335938 L 195.892578 71.412109 L 202.729980 71.412109 L 202.729980 72.335938 Z " fill="rgb(0, 0, 0)" fill-opacity="1.000000" />
<path d="M 203.032227 75.418945 L 203.032227 68.866211 L 209.590332 72.142578 Z " fill="rgb(0, 0, 0)" fill-opacity="1.000000" />
<path d="M 229.645020 71.272461 L 229.645020 75.000000 L 228.651367 75.000000 L 228.651367 71.272461 Q 228.651367 70.461426 228.366699 70.080078 Q 228.082031 69.698730 227.475098 69.698730 Q 226.782227 69.698730 226.408936 70.190186 Q 226.035645 70.681641 226.035645 71.600098 L 226.035645 75.000000 L 225.047363 75.000000 L 225.047363 68.984375 L 226.035645 68.984375 L 226.035645 69.886719 Q 226.298828 69.371094 226.750000 69.105225 Q 227.201172 68.839355 227.818848 68.839355 Q 228.737305 68.839355 229.191162 69.443604 Q 229.645020 70.047852 229.645020 71.272461 Z " fill="rgb(0, 0, 0)" fill-opacity="1.000000" />
<path d="M 233.003418 74.086914 L 236.687988 74.086914 L 236.687988 75.000000 L 231.816406 75.000000 L 231.816406 74.086914 Q 232.820801 73.028809 233.572754 72.217773 Q 234.324707 71.406738 234.609375 71.073730 Q 235.146484 70.418457 235.334473 70.012939 Q 235.522461 69.607422 235.522461 69.183105 Q 235.522461 68.511719 235.127686 68.130371 Q 234.732910 67.749023 234.045410 67.749023 Q 233.556641 67.749023 233.019531 67.926270 Q 232.482422 68.103516 231.880859 68.463379 L 231.880859 67.367676 Q 232.434082 67.104492 232.968506 66.970215 Q 233.502930 66.835938 234.023926 66.835938 Q 235.200195 66.835938 235.917236 67.461670 Q 236.634277 68.087402 236.634277 69.102539 Q 236.634277 69.618164 236.395264 70.133789 Q 236.156250 70.649414 235.619141 71.272461 Q 235.318359 71.621582 234.746338 72.239258 Q 234.174316 72.856934 233.003418 74.086914 Z " fill="rgb(0, 0, 0)" fill-opacity="1.000000" />
<path d="M 254.878906 78.319336 L 254.878906 64.300781 L 255.738281 64.300781 L 255.738281 78.319336 Z " fill="rgb(0, 0, 0)" fill-opacity="1.000000" />
<path d="M 324.878906 78.319336 L 324.878906 64.300781 L 325.738281 64.300781 L 325.738281 78.319336 Z " fill="rgb(0, 0, 0)" fill-opacity="1.000000" />
<path d="M 348.645020 71.272461 L 348.645020 75.000000 L 347.651367 75.000000 L 347.651367 71.272461 Q 347.651367 70.461426 347.366699 70.080078 Q 347.082031 69.698730 346.475098 69.698730 Q 345.782227 69.698730 345.408936 70.190186 Q 345.035645 70.681641 345.035645 71.600098 L 345.035645 75.000000 L 344.047363 75.000000 L 344.047363 68.984375 L 345.035645 68.984375 L 345.035645 69.886719 Q 345.298828 69.371094 345.750000 69.105225 Q 346.201172 68.839355 346.818848 68.839355 Q 347.737305 68.839355 348.191162 69.443604 Q 348.645020 70.047852 348.645020 71.272461 Z " fill="rgb(0, 0, 0)" fill-opacity="1.000000" />
<path d="M 354.167969 70.708496 Q 354.957520 70.917969 355.376465 71.452393 Q 355.795410 71.986816 355.795410 72.787109 Q 355.795410 73.893555 355.051514 74.524658 Q 354.307617 75.155762 352.991699 75.155762 Q 352.438477 75.155762 351.863770 75.053711 Q 351.289062 74.951660 350.735840 74.758301 L 350.735840 73.678711 Q 351.283691 73.963379 351.815430 74.103027 Q 352.347168 74.242676 352.873535 74.242676 Q 353.765137 74.242676 354.243164 73.839844 Q 354.721191 73.437012 354.721191 72.679688 Q 354.721191 71.981445 354.243164 71.570557 Q 353.765137 71.159668 352.948730 71.159668 L 352.121582 71.159668 L 352.121582 70.268066 L 352.948730 70.268066 Q 353.695312 70.268066 354.114258 69.940430 Q 354.533203 69.612793 354.533203 69.027344 Q 354.533203 68.409668 354.143799 68.079346 Q 353.754395 67.749023 353.034668 67.749023 Q 352.556641 67.749023 352.046387 67.856445 Q 351.536133 67.963867 350.977539 68.178711 L 350.977539 67.179688 Q 351.627441 67.007812 352.135010 66.921875 Q 352.642578 66.835938 353.034668 66.835938 Q 354.205566 66.835938 354.906494 67.424072 Q 355.607422 68.012207 355.607422 68.984375 Q 355.607422 69.645020 355.239502 70.085449 Q 354.871582 70.525879 354.167969 70.708496 Z " fill="rgb(0, 0, 0)" fill-opacity="1.000000" />
<path d="M 373.878906 78.319336 L 373.878906 64.300781 L 374.738281 64.300781 L 374.738281 78.319336 Z " fill="rgb(0, 0, 0)" fill-opacity="1.000000" />
<path d="M 135.878906 65.319336 L 135.878906 51.300781 L 136.738281 51.300781 L 136.738281 65.319336 Z " fill="rgb(0, 0, 0)" fill-opacity="1.000000" />
<path d="M 205.878906 65.319336 L 205.878906 51.300781 L 206.738281 51.300781 L 206.738281 65.319336 Z " fill="rgb(0, 0, 0)" fill-opacity="1.000000" />
<path d="M 254.878906 65.319336 L 254.878906 51.300781 L 255.738281 51.300781 L 255.738281 58.412109 L 258.729980 58.412109 L 258.729980 59.335938 L 255.738281 59.335938 L 255.738281 65.319336 Z " fill="rgb(0, 0, 0)" fill-opacity="1.000000" />
<path d="M 258.892578 59.335938 L 258.892578 58.412109 L 265.729980 58.412109 L 265.729980 59.335938 Z " fill="rgb(0, 0, 0)" fill-opacity="1.000000" />
<path d="M 265.892578 59.335938 L 265.892578 58.412109 L 272.729980 58.412109 L 272.729980 59.335938 Z " fill="rgb(0, 0, 0)" fill-opacity="1.000000" />
<path d="M 272.892578 59.335938 L 272.892578 58.412109 L 279.729980 58.412109 L 279.729980 59.335938 Z " fill="rgb(0, 0, 0)" fill-opacity="1.000000" />
<path d="M 279.892578 59.335938 L 279.892578 58.412109 L 286.729980 58.412109 L 286.729980 59.335938 Z " fill="rgb(0, 0, 0)" fill-opacity="1.000000" />
<path d="M 286.892578 59.335938 L 286.892578 58.412109 L 293.729980 58.412109 L 293.729980 59.335938 Z " fill="rgb(0, 0, 0)" fill-opacity="1.000000" />
<path d="M 293.892578 59.335938 L 293.892578 58.412109 L 300.729980 58.412109 L 300.729980 59.335938 Z " fill="rgb(0, 0, 0)" fill-opacity="1.000000" />
<path d="M 300.892578 59.335938 L 300.892578 58.412109 L 307.729980 58.412109 L 307.729980 59.335938 Z " fill="rgb(0, 0, 0)" fill-opacity="1.000000" />
<path d="M 307.892578 59.335938 L 307.892578 58.412109 L 314.729980 58.412109 L 314.729980 59.335938 Z " fill="rgb(0, 0, 0)" fill-opacity="1.000000" />
<path d="M 314.892578 59.335938 L 314.892578 58.412109 L 321.729980 58.412109 L 321.729980 59.335938 Z " fill="rgb(0, 0, 0)" fill-opacity="1.000000" />
<path d="M 322.032227 62.418945 L 322.032227 55.866211 L 328.590332 59.142578 Z " fill="rgb(0, 0, 0)" fill-opacity="1.000000" />
<path d="M 373.878906 65.319336 L 373.878906 51.300781 L 374.738281 51.300781 L 374.738281 65.319336 Z " fill="rgb(0, 0, 0)" fill-opacity="1.000000" />
<path d="M 90.892578 46.335938 L 90.892578 45.412109 L 97.729980 45.412109 L 97.729980 46.335938 Z " fill="rgb(0, 0, 0)" fill-opacity="1.000000" />
<path d="M 97.892578 46.335938 L 97.892578 45.412109 L 104.729980 45.412109 L 104.729980 46.335938 Z " fill="rgb(0, 0, 0)" fill-opacity="1.000000" />
<path d="M 104.892578 46.335938 L 104.892578 45.412109 L 111.729980 45.412109 L 111.729980 46.335938 Z " fill="rgb(0, 0, 0)" fill-opacity="1.000000" />
<path d="M 111.892578 46.335938 L 111.892578 45.412109 L 118.729980 45.412109 L 118.729980 46.335938 Z " fill="rgb(0, 0, 0)" fill-opacity="1.000000" />
<path d="M 118.892578 46.335938 L 118.892578 45.412109 L 125.729980 45.412109 L 125.729980 46.335938 Z " fill="rgb(0, 0, 0)" fill-opacity="1.000000" />
<path d="M 125.892578 46.335938 L 125.892578 45.412109 L 132.729980 45.412109 L 132.729980 46.335938 Z " fill="rgb(0, 0, 0)" fill-opacity="1.000000" />
<path d="M 135.878906 52.319336 L 135.878906 46.335938 L 132.892578 46.335938 L 132.892578 45.412109 L 136.738281 45.412109 L 136.738281 52.319336 Z " fill="rgb(0, 0, 0)" fill-opacity="1.000000" />
<path d="M 205.878906 52.319336 L 205.878906 45.412109 L 209.729980 45.412109 L 209.729980 46.335938 L 206.738281 46.335938 L 206.738281 52.319336 Z " fill="rgb(0, 0, 0)" fill-opacity="1.000000" />
<path d="M 209.892578 46.335938 L 209.892578 45.412109 L 216.729980 45.412109 L 216.729980 46.335938 Z " fill="rgb(0, 0, 0)" fill-opacity="1.000000" />
<path d="M 216.892578 46.335938 L 216.892578 45.412109 L 223.729980 45.412109 L 223.729980 46.335938 Z " fill="rgb(0, 0, 0)" fill-opacity="1.000000" />
<path d="M 223.892578 46.335938 L 223.892578 45.412109 L 230.729980 45.412109 L 230.729980 46.335938 Z " fill="rgb(0, 0, 0)" fill-opacity="1.000000" />
<path d="M 230.892578 46.335938 L 230.892578 45.412109 L 237.729980 45.412109 L 237.729980 46.335938 Z " fill="rgb(0, 0, 0)" fill-opacity="1.000000" />
<path d="M 237.892578 46.335938 L 237.892578 45.412109 L 244.729980 45.412109 L 244.729980 46.335938 Z " fill="rgb(0, 0, 0)" fill-opacity="1.000000" />
<path d="M 244.892578 46.335938 L 244.892578 45.412109 L 251.729980 45.412109 L 251.729980 46.335938 Z " fill="rgb(0, 0, 0)" fill-opacity="1.000000" />
<path d="M 254.878906 52.319336 L 254.878906 46.335938 L 251.892578 46.335938 L 251.892578 45.412109 L 255.738281 45.412109 L 255.738281 52.319336 Z " fill="rgb(0, 0, 0)" fill-opacity="1.000000" />
<path d="M 324.878906 52.319336 L 324.878906 45.412109 L 328.729980 45.412109 L 328.729980 46.335938 L 325.738281 46.335938 L 325.738281 52.319336 Z " fill="rgb(0, 0, 0)" fill-opacity="1.000000" />
<path d="M 328.892578 46.335938 L 328.892578 45.412109 L 335.729980 45.412109 L 335.729980 46.335938 Z " fill="rgb(0, 0, 0)" fill-opacity="1.000000" />
<path d="M 335.892578 46.335938 L 335.892578 45.412109 L 342.729980 45.412109 L 342.729980 46.335938 Z " fill="rgb(0, 0, 0)" fill-opacity="1.000000" />
<path d="M 342.892578 46.335938 L 342.892578 45.412109 L 349.729980 45.412109 L 349.729980 46.335938 Z " fill="rgb(0, 0, 0)" fill-opacity="1.000000" />
<path d="M 349.892578 46.335938 L 349.892578 45.412109 L 356.729980 45.412109 L 356.729980 46.335938 Z " fill="rgb(0, 0, 0)" fill-opacity="1.000000" />
<path d="M 356.892578 46.335938 L 356.892578 45.412109 L 363.729980 45.412109 L 363.729980 46.335938 Z " fill="rgb(0, 0, 0)" fill-opacity="1.000000" />
<path d="M 363.892578 46.335938 L 363.892578 45.412109 L 370.729980 45.412109 L 370.729980 46.335938 Z " fill="rgb(0, 0, 0)" fill-opacity="1.000000" />
<path d="M 373.878906 52.319336 L 373.878906 46.335938 L 370.892578 46.335938 L 370.892578 45.412109 L 374.738281 45.412109 L 374.738281 52.319336 Z " fill="rgb(0, 0, 0)" fill-opacity="1.000000" />
<path d="M 240.878906 26.319336 L 240.878906 19.412109 L 244.729980 19.412109 L 244.729980 20.335938 L 241.738281 20.335938 L 241.738281 26.319336 Z " fill="rgb(0, 0, 0)" fill-opacity="1.000000" />
<path d="M 240.878906 39.319336 L 240.878906 25.300781 L 241.738281 25.300781 L 241.738281 39.319336 Z " fill="rgb(0, 0, 0)" fill-opacity="1.000000" />
<path d="M 338.878906 39.319336 L 338.878906 25.300781 L 339.738281 25.300781 L 339.738281 39.319336 Z " fill="rgb(0, 0, 0)" fill-opacity="1.000000" />
<path d="M 244.892578 20.335938 L 244.892578 19.412109 L 251.729980 19.412109 L 251.729980 20.335938 Z " fill="rgb(0, 0, 0)" fill-opacity="1.000000" />
<path d="M 251.892578 20.335938 L 251.892578 19.412109 L 258.729980 19.412109 L 258.729980 20.335938 Z " fill="rgb(0, 0, 0)" fill-opacity="1.000000" />
<path d="M 258.892578 20.335938 L 258.892578 19.412109 L 265.729980 19.412109 L 265.729980 20.335938 Z " fill="rgb(0, 0, 0)" fill-opacity="1.000000" />
<path d="M 265.892578 20.335938 L 265.892578 19.412109 L 272.729980 19.412109 L 272.729980 20.335938 Z " fill="rgb(0, 0, 0)" fill-opacity="1.000000" />
<path d="M 272.892578 20.335938 L 272.892578 19.412109 L 279.729980 19.412109 L 279.729980 20.335938 Z " fill="rgb(0, 0, 0)" fill-opacity="1.000000" />
<path d="M 279.892578 20.335938 L 279.892578 19.412109 L 286.729980 19.412109 L 286.729980 20.335938 Z " fill="rgb(0, 0, 0)" fill-opacity="1.000000" />
<path d="M 286.892578 20.335938 L 286.892578 19.412109 L 293.729980 19.412109 L 293.729980 20.335938 Z " fill="rgb(0, 0, 0)" fill-opacity="1.000000" />
<path d="M 293.892578 20.335938 L 293.892578 19.412109 L 300.729980 19.412109 L 300.729980 20.335938 Z " fill="rgb(0, 0, 0)" fill-opacity="1.000000" />
<path d="M 300.892578 20.335938 L 300.892578 19.412109 L 307.729980 19.412109 L 307.729980 20.335938 Z " fill="rgb(0, 0, 0)" fill-opacity="1.000000" />
<path d="M 307.892578 20.335938 L 307.892578 19.412109 L 314.729980 19.412109 L 314.729980 20.335938 Z " fill="rgb(0, 0, 0)" fill-opacity="1.000000" />
<path d="M 314.892578 20.335938 L 314.892578 19.412109 L 321.729980 19.412109 L 321.729980 20.335938 Z " fill="rgb(0, 0, 0)" fill-opacity="1.000000" />
<path d="M 321.892578 20.335938 L 321.892578 19.412109 L 328.729980 19.412109 L 328.729980 20.335938 Z " fill="rgb(0, 0, 0)" fill-opacity="1.000000" />
<path d="M 328.892578 20.335938 L 328.892578 19.412109 L 335.729980 19.412109 L 335.729980 20.335938 Z " fill="rgb(0, 0, 0)" fill-opacity="1.000000" />
<path d="M 338.878906 26.319336 L 338.878906 20.335938 L 335.892578 20.335938 L 335.892578 19.412109 L 339.738281 19.412109 L 339.738281 26.319336 Z " fill="rgb(0, 0, 0)" fill-opacity="1.000000" />
<path d="M 262.308594 2.937012 L 261.164551 7.040527 L 263.452637 7.040527 Z M 261.653320 1.980957 L 262.969238 1.980957 L 265.423828 10.000000 L 264.301270 10.000000 L 263.710449 7.910645 L 260.901367 7.910645 L 260.321289 10.000000 L 259.198730 10.000000 Z " fill="rgb(0, 0, 0)" fill-opacity="1.000000" />
<path d="M 274.783203 7.019043 Q 274.783203 8.168457 275.145752 8.753906 Q 275.508301 9.339355 276.222656 9.339355 Q 276.937012 9.339355 277.304932 8.751221 Q 277.672852 8.163086 277.672852 7.019043 Q 277.672852 5.875000 277.304932 5.286865 Q 276.937012 4.698730 276.222656 4.698730 Q 275.508301 4.698730 275.145752 5.284180 Q 274.783203 5.869629 274.783203 7.019043 Z M 277.672852 9.253418 Q 277.431152 9.699219 277.020264 9.938232 Q 276.609375 10.177246 276.066895 10.177246 Q 274.987305 10.177246 274.361572 9.342041 Q 273.735840 8.506836 273.735840 7.040527 Q 273.735840 5.547363 274.358887 4.704102 Q 274.981934 3.860840 276.066895 3.860840 Q 276.604004 3.860840 277.014893 4.094482 Q 277.425781 4.328125 277.672852 4.773926 L 277.672852 4.005859 L 278.666504 4.005859 L 278.666504 12.309570 L 277.672852 12.309570 Z " fill="rgb(0, 0, 0)" fill-opacity="1.000000" />
<path d="M 281.047363 7.722656 L 281.047363 3.995117 L 282.035645 3.995117 L 282.035645 7.722656 Q 282.035645 8.533691 282.322998 8.915039 Q 282.610352 9.296387 283.211914 9.296387 Q 283.910156 9.296387 284.280762 8.804932 Q 284.651367 8.313477 284.651367 7.395020 L 284.651367 3.995117 L 285.645020 3.995117 L 285.645020 10.000000 L 284.651367 10.000000 L 284.651367 9.097656 Q 284.388184 9.618652 283.934326 9.887207 Q 283.480469 10.155762 282.873535 10.155762 Q 281.949707 10.155762 281.498535 9.551514 Q 281.047363 8.947266 281.047363 7.722656 Z " fill="rgb(0, 0, 0)" fill-opacity="1.000000" />
<path d="M 290.308594 4.677246 Q 289.556641 4.677246 289.169922 5.262695 Q 288.783203 5.848145 288.783203 6.997559 Q 288.783203 8.141602 289.169922 8.729736 Q 289.556641 9.317871 290.308594 9.317871 Q 291.065918 9.317871 291.452637 8.729736 Q 291.839355 8.141602 291.839355 6.997559 Q 291.839355 5.848145 291.452637 5.262695 Q 291.065918 4.677246 290.308594 4.677246 Z M 290.308594 3.839355 Q 291.560059 3.839355 292.223389 4.650391 Q 292.886719 5.461426 292.886719 6.997559 Q 292.886719 8.539062 292.226074 9.347412 Q 291.565430 10.155762 290.308594 10.155762 Q 289.057129 10.155762 288.396484 9.347412 Q 287.735840 8.539062 287.735840 6.997559 Q 287.735840 5.461426 288.396484 4.650391 Q 289.057129 3.839355 290.308594 3.839355 Z " fill="rgb(0, 0, 0)" fill-opacity="1.000000" />
<path d="M 300.203613 5.225098 Q 299.886719 4.978027 299.559082 4.865234 Q 299.231445 4.752441 298.839355 4.752441 Q 297.915527 4.752441 297.426758 5.332520 Q 296.937988 5.912598 296.937988 7.008301 L 296.937988 10.000000 L 295.944336 10.000000 L 295.944336 3.984375 L 296.937988 3.984375 L 296.937988 5.160645 Q 297.185059 4.521484 297.697998 4.180420 Q 298.210938 3.839355 298.914551 3.839355 Q 299.279785 3.839355 299.596680 3.930664 Q 299.913574 4.021973 300.203613 4.215332 Z " fill="rgb(0, 0, 0)" fill-opacity="1.000000" />
<path d="M 302.047363 7.722656 L 302.047363 3.995117 L 303.035645 3.995117 L 303.035645 7.722656 Q 303.035645 8.533691 303.322998 8.915039 Q 303.610352 9.296387 304.211914 9.296387 Q 304.910156 9.296387 305.280762 8.804932 Q 305.651367 8.313477 305.651367 7.395020 L 305.651367 3.995117 L 306.645020 3.995117 L 306.645020 10.000000 L 305.651367 10.000000 L 305.651367 9.097656 Q 305.388184 9.618652 304.934326 9.887207 Q 304.480469 10.155762 303.873535 10.155762 Q 302.949707 10.155762 302.498535 9.551514 Q 302.047363 8.947266 302.047363 7.722656 Z " fill="rgb(0, 0, 0)" fill-opacity="1.000000" />
<path d="M 311.630859 4.596680 Q 311.813477 4.209961 312.095459 4.024658 Q 312.377441 3.839355 312.774902 3.839355 Q 313.500000 3.839355 313.798096 4.400635 Q 314.096191 4.961914 314.096191 6.514160 L 314.096191 10.000000 L 313.193848 10.000000 L 313.193848 6.557129 Q 313.193848 5.284180 313.051514 4.975342 Q 312.909180 4.666504 312.533203 4.666504 Q 312.103516 4.666504 311.945068 4.996826 Q 311.786621 5.327148 311.786621 6.557129 L 311.786621 10.000000 L 310.884277 10.000000 L 310.884277 6.557129 Q 310.884277 5.268066 310.731201 4.967285 Q 310.578125 4.666504 310.180664 4.666504 Q 309.788574 4.666504 309.635498 4.996826 Q 309.482422 5.327148 309.482422 6.557129 L 309.482422 10.000000 L 308.585449 10.000000 L 308.585449 3.984375 L 309.482422 3.984375 L 309.482422 4.500000 Q 309.659668 4.177734 309.925537 4.008545 Q 310.191406 3.839355 310.529785 3.839355 Q 310.937988 3.839355 311.209229 4.027344 Q 311.480469 4.215332 311.630859 4.596680 Z " fill="rgb(0, 0, 0)" fill-opacity="1.000000" />
</svg>