<svg xmlns="http://www.w3.org/2000/svg" version="1.1" width="463" height="92">
<path d="M -0.107422 46.335938 L -0.107422 45.412109 L 6.729980 45.412109 L 6.729980 46.335938 Z " fill="rgb(0, 0, 0)" fill-opacity="1.000000" />
<path d="M 6.892578 46.335938 L 6.892578 45.412109 L 13.729980 45.412109 L 13.729980 46.335938 Z " fill="rgb(0, 0, 0)" fill-opacity="1.000000" />
<path d="M 13.892578 46.335938 L 13.892578 45.412109 L 20.729980 45.412109 L 20.729980 46.335938 Z " fill="rgb(0, 0, 0)" fill-opacity="1.000000" />
<path d="M 20.892578 46.335938 L 20.892578 45.412109 L 27.729980 45.412109 L 27.729980 46.335938 Z " fill="rgb(0, 0, 0)" fill-opacity="1.000000" />
<path d="M 30.878906 65.319336 L 30.878906 51.300781 L 31.738281 51.300781 L 31.738281 65.319336 Z " fill="rgb(0, 0, 0)" fill-opacity="1.000000" />
<path d="M 30.878906 72.335938 L 30.878906 64.300781 L 31.738281 64.300781 L 31.738281 71.412109 L 34.729980 71.412109 L 34.729980 72.335938 Z " fill="rgb(0, 0, 0)" fill-opacity="1.000000" />
<path d="M 58.878906 85.335938 L 58.878906 77.300781 L 59.738281 77.300781 L 59.738281 84.412109 L 62.729980 84.412109 L 62.729980 85.335938 Z " fill="rgb(0, 0, 0)" fill-opacity="1.000000" />
<path d="M 62.892578 85.335938 L 62.892578 84.412109 L 69.729980 84.412109 L 69.729980 85.335938 Z " fill="rgb(0, 0, 0)" fill-opacity="1.000000" />
<path d="M 69.892578 85.335938 L 69.892578 84.412109 L 76.729980 84.412109 L 76.729980 85.335938 Z " fill="rgb(0, 0, 0)" fill-opacity="1.000000" />
<path d="M 76.892578 85.335938 L 76.892578 84.412109 L 83.729980 84.412109 L 83.729980 85.335938 Z " fill="rgb(0, 0, 0)" fill-opacity="1.000000" />
<path d="M 83.892578 85.335938 L 83.892578 84.412109 L 90.729980 84.412109 L 90.729980 85.335938 Z " fill="rgb(0, 0, 0)" fill-opacity="1.000000" />
<path d="M 90.892578 85.335938 L 90.892578 84.412109 L 97.729980 84.412109 L 97.729980 85.335938 Z " fill="rgb(0, 0, 0)" fill-opacity="1.000000" />
<path d="M 97.892578 85.335938 L 97.892578 84.412109 L 104.729980 84.412109 L 104.729980 85.335938 Z " fill="rgb(0, 0, 0)" fill-opacity="1.000000" />
<path d="M 104.892578 85.335938 L 104.892578 84.412109 L 111.729980 84.412109 L 111.729980 85.335938 Z " fill="rgb(0, 0, 0)" fill-opacity="1.000000" />
<path d="M 111.892578 85.335938 L 111.892578 84.412109 L 118.729980 84.412109 L 118.729980 85.335938 Z " fill="rgb(0, 0, 0)" fill-opacity="1.000000" />
<path d="M 118.892578 85.335938 L 118.892578 84.412109 L 125.729980 84.412109 L 125.729980 85.335938 Z " fill="rgb(0, 0, 0)" fill-opacity="1.000000" />
<path d="M 125.892578 85.335938 L 125.892578 84.412109 L 132.729980 84.412109 L 132.729980 85.335938 Z " fill="rgb(0, 0, 0)" fill-opacity="1.000000" />
<path d="M 132.892578 85.335938 L 132.892578 84.412109 L 139.729980 84.412109 L 139.729980 85.335938 Z " fill="rgb(0, 0, 0)" fill-opacity="1.000000" />
<path d="M 139.892578 85.335938 L 139.892578 84.412109 L 146.729980 84.412109 L 146.729980 85.335938 Z " fill="rgb(0, 0, 0)" fill-opacity="1.000000" />
<path d="M 146.892578 85.335938 L 146.892578 84.412109 L 153.729980 84.412109 L 153.729980 85.335938 Z " fill="rgb(0, 0, 0)" fill-opacity="1.000000" />
<path d="M 153.892578 85.335938 L 153.892578 84.412109 L 160.729980 84.412109 L 160.729980 85.335938 Z " fill="rgb(0, 0, 0)" fill-opacity="1.000000" />
<path d="M 160.892578 85.335938 L 160.892578 84.412109 L 163.878906 84.412109 L 163.878906 77.300781 L 164.738281 77.300781 L 164.738281 85.335938 Z " fill="rgb(0, 0, 0)" fill-opacity="1.000000" />
<path d="M 205.878906 85.335938 L 205.878906 77.300781 L 206.738281 77.300781 L 206.738281 84.412109 L 209.729980 84.412109 L 209.729980 85.335938 Z " fill="rgb(0, 0, 0)" fill-opacity="1.000000" />
<path d="M 209.892578 85.335938 L 209.892578 84.412109 L 216.729980 84.412109 L 216.729980 85.335938 Z " fill="rgb(0, 0, 0)" fill-opacity="1.000000" />
<path d="M 216.892578 85.335938 L 216.892578 84.412109 L 223.729980 84.412109 L 223.729980 85.335938 Z " fill="rgb(0, 0, 0)" fill-opacity="1.000000" />
<path d="M 223.892578 85.335938 L 223.892578 84.412109 L 230.729980 84.412109 L 230.729980 85.335938 Z " fill="rgb(0, 0, 0)" fill-opacity="1.000000" />
<path d="M 230.892578 85.335938 L 230.892578 84.412109 L 237.729980 84.412109 L 237.729980 85.335938 Z " fill="rgb(0, 0, 0)" fill-opacity="1.000000" />
<path d="M 237.892578 85.335938 L 237.892578 84.412109 L 244.729980 84.412109 L 244.729980 85.335938 Z " fill="rgb(0, 0, 0)" fill-opacity="1.000000" />
<path d="M 244.892578 85.335938 L 244.892578 84.412109 L 251.729980 84.412109 L 251.729980 85.335938 Z " fill="rgb(0, 0, 0)" fill-opacity="1.000000" />
<path d="M 251.892578 85.335938 L 251.892578 84.412109 L 258.729980 84.412109 L 258.729980 85.335938 Z " fill="rgb(0, 0, 0)" fill-opacity="1.000000" />
<path d="M 258.892578 85.335938 L 258.892578 84.412109 L 265.729980 84.412109 L 265.729980 85.335938 Z " fill="rgb(0, 0, 0)" fill-opacity="1.000000" />
<path d="M 265.892578 85.335938 L 265.892578 84.412109 L 272.729980 84.412109 L 272.729980 85.335938 Z " fill="rgb(0, 0, 0)" fill-opacity="1.000000" />
<path d="M 272.892578 85.335938 L 272.892578 84.412109 L 279.729980 84.412109 L 279.729980 85.335938 Z " fill="rgb(0, 0, 0)" fill-opacity="1.000000" />
<path d="M 279.892578 85.335938 L 279.892578 84.412109 L 286.729980 84.412109 L 286.729980 85.335938 Z " fill="rgb(0, 0, 0)" fill-opacity="1.000000" />
<path d="M 286.892578 85.335938 L 286.892578 84.412109 L 293.729980 84.412109 L 293.729980 85.335938 Z " fill="rgb(0, 0, 0)" fill-opacity="1.000000" />
<path d="M 293.892578 85.335938 L 293.892578 84.412109 L 300.729980 84.412109 L 300.729980 85.335938 Z " fill="rgb(0, 0, 0)" fill-opacity="1.000000" />
<path d="M 300.892578 85.335938 L 300.892578 84.412109 L 307.729980 84.412109 L 307.729980 85.335938 Z " fill="rgb(0, 0, 0)" fill-opacity="1.000000" />
<path d="M 307.892578 85.335938 L 307.892578 84.412109 L 310.878906 84.412109 L 310.878906 77.300781 L 311.738281 77.300781 L 311.738281 85.335938 Z " fill="rgb(0, 0, 0)" fill-opacity="1.000000" />
<path d="M 352.878906 85.335938 L 352.878906 77.300781 L 353.738281 77.300781 L 353.738281 84.412109 L 356.729980 84.412109 L 356.729980 85.335938 Z " fill="rgb(0, 0, 0)" fill-opacity="1.000000" />
<path d="M 356.892578 85.335938 L 356.892578 84.412109 L 363.729980 84.412109 L 363.729980 85.335938 Z " fill="rgb(0, 0, 0)" fill-opacity="1.000000" />
<path d="M 363.892578 85.335938 L 363.892578 84.412109 L 370.729980 84.412109 L 370.729980 85.335938 Z " fill="rgb(0, 0, 0)" fill-opacity="1.000000" />
<path d="M 370.892578 85.335938 L 370.892578 84.412109 L 377.729980 84.412109 L 377.729980 85.335938 Z " fill="rgb(0, 0, 0)" fill-opacity="1.000000" />
<path d="M 377.892578 85.335938 L 377.892578 84.412109 L 384.729980 84.412109 L 384.729980 85.335938 Z " fill="rgb(0, 0, 0)" fill-opacity="1.000000" />
<path d="M 384.892578 85.335938 L 384.892578 84.412109 L 391.729980 84.412109 L 391.729980 85.335938 Z " fill="rgb(0, 0, 0)" fill-opacity="1.000000" />
<path d="M 391.892578 85.335938 L 391.892578 84.412109 L 398.729980 84.412109 L 398.729980 85.335938 Z " fill="rgb(0, 0, 0)" fill-opacity="1.000000" />
<path d="M 398.892578 85.335938 L 398.892578 84.412109 L 405.729980 84.412109 L 405.729980 85.335938 Z " fill="rgb(0, 0, 0)" fill-opacity="1.000000" />
<path d="M 405.892578 85.335938 L 405.892578 84.412109 L 412.729980 84.412109 L 412.729980 85.335938 Z " fill="rgb(0, 0, 0)" fill-opacity="1.000000" />
<path d="M 412.892578 85.335938 L 412.892578 84.412109 L 419.729980 84.412109 L 419.729980 85.335938 Z " fill="rgb(0, 0, 0)" fill-opacity="1.000000" />
<path d="M 419.892578 85.335938 L 419.892578 84.412109 L 426.729980 84.412109 L 426.729980 85.335938 Z " fill="rgb(0, 0, 0)" fill-opacity="1.000000" />
<path d="M 426.892578 85.335938 L 426.892578 84.412109 L 433.729980 84.412109 L 433.729980 85.335938 Z " fill="rgb(0, 0, 0)" fill-opacity="1.000000" />
<path d="M 433.892578 85.335938 L 433.892578 84.412109 L 440.729980 84.412109 L 440.729980 85.335938 Z " fill="rgb(0, 0, 0)" fill-opacity="1.000000" />
<path d="M 440.892578 85.335938 L 440.892578 84.412109 L 447.729980 84.412109 L 447.729980 85.335938 Z " fill="rgb(0, 0, 0)" fill-opacity="1.000000" />
<path d="M 447.892578 85.335938 L 447.892578 84.412109 L 454.729980 84.412109 L 454.729980 85.335938 Z " fill="rgb(0, 0, 0)" fill-opacity="1.000000" />
<path d="M 454.892578 85.335938 L 454.892578 84.412109 L 457.878906 84.412109 L 457.878906 77.300781 L 458.738281 77.300781 L 458.738281 85.335938 Z " fill="rgb(0, 0, 0)" fill-opacity="1.000000" />
<path d="M 34.892578 72.335938 L 34.892578 71.412109 L 41.729980 71.412109 L 41.729980 72.335938 Z " fill="rgb(0, 0, 0)" fill-opacity="1.000000" />
<path d="M 41.892578 72.335938 L 41.892578 71.412109 L 48.729980 71.412109 L 48.729980 72.335938 Z " fill="rgb(0, 0, 0)" fill-opacity="1.000000" />
<path d="M 48.892578 72.335938 L 48.892578 71.412109 L 55.729980 71.412109 L 55.729980 72.335938 Z " fill="rgb(0, 0, 0)" fill-opacity="1.000000" />
<path d="M 56.032227 75.418945 L 56.032227 68.866211 L 62.590332 72.142578 Z " fill="rgb(0, 0, 0)" fill-opacity="1.000000" />
<path d="M 78.981934 70.955566 L 78.981934 74.108398 L 80.265625 74.108398 Q 81.210938 74.108398 81.613770 73.778076 Q 82.016602 73.447754 82.016602 72.690430 Q 82.016602 71.691406 81.592285 71.323486 Q 81.167969 70.955566 80.265625 70.955566 Z M 78.981934 67.872559 L 78.981934 70.074707 L 80.244141 70.074707 Q 81.028320 70.074707 81.380127 69.773926 Q 81.731934 69.473145 81.731934 69.016602 Q 81.731934 68.409668 81.385498 68.141113 Q 81.039062 67.872559 80.244141 67.872559 Z M 77.891602 66.980957 L 80.265625 66.980957 Q 81.495605 66.980957 82.161621 67.512695 Q 82.827637 68.044434 82.827637 69.016602 Q 82.827637 69.537598 82.475830 69.961914 Q 82.124023 70.386230 81.420410 70.493652 Q 82.209961 70.611816 82.658447 71.167725 Q 83.106934 71.723633 83.106934 72.797852 Q 83.106934 73.888184 82.392578 74.444092 Q 81.678223 75.000000 80.265625 75.000000 L 77.891602 75.000000 Z " fill="rgb(0, 0, 0)" fill-opacity="1.000000" />
<path d="M 87.861816 72.824707 Q 87.861816 73.490723 88.106201 73.829102 Q 88.350586 74.167480 88.828613 74.167480 L 89.983398 74.167480 L 89.983398 75.000000 L 88.731934 75.000000 Q 87.845703 75.000000 87.359619 74.433350 Q 86.873535 73.866699 86.873535 72.824707 L 86.873535 67.383789 L 85.289062 67.383789 L 85.289062 66.610352 L 87.861816 66.610352 Z " fill="rgb(0, 0, 0)" fill-opacity="1.000000" />
<path d="M 94.308594 69.677246 Q 93.556641 69.677246 93.169922 70.262695 Q 92.783203 70.848145 92.783203 71.997559 Q 92.783203 73.141602 93.169922 73.729736 Q 93.556641 74.317871 94.308594 74.317871 Q 95.065918 74.317871 95.452637 73.729736 Q 95.839355 73.141602 95.839355 71.997559 Q 95.839355 70.848145 95.452637 70.262695 Q 95.065918 69.677246 94.308594 69.677246 Z M 94.308594 68.839355 Q 95.560059 68.839355 96.223389 69.650391 Q 96.886719 70.461426 96.886719 71.997559 Q 96.886719 73.539062 96.226074 74.347412 Q 95.565430 75.155762 94.308594 75.155762 Q 93.057129 75.155762 92.396484 74.347412 Q 91.735840 73.539062 91.735840 71.997559 Q 91.735840 70.461426 92.396484 69.650391 Q 93.057129 68.839355 94.308594 68.839355 Z " fill="rgb(0, 0, 0)" fill-opacity="1.000000" />
<path d="M 103.698730 74.693848 Q 103.301270 74.924805 102.879639 75.040283 Q 102.458008 75.155762 102.017578 75.155762 Q 100.621094 75.155762 99.834229 74.317871 Q 99.047363 73.479980 99.047363 71.997559 Q 99.047363 70.515137 99.834229 69.677246 Q 100.621094 68.839355 102.017578 68.839355 Q 102.452637 68.839355 102.866211 68.952148 Q 103.279785 69.064941 103.698730 69.301270 L 103.698730 70.337891 Q 103.306641 69.988770 102.911865 69.833008 Q 102.517090 69.677246 102.017578 69.677246 Q 101.088379 69.677246 100.588867 70.278809 Q 100.089355 70.880371 100.089355 71.997559 Q 100.089355 73.109375 100.591553 73.713623 Q 101.093750 74.317871 102.017578 74.317871 Q 102.533203 74.317871 102.941406 74.159424 Q 103.349609 74.000977 103.698730 73.667969 Z " fill="rgb(0, 0, 0)" fill-opacity="1.000000" />
<path d="M 106.267578 66.642578 L 107.288086 66.642578 L 107.288086 71.481934 L 109.882324 68.984375 L 111.085449 68.984375 L 108.716797 71.250977 L 111.456055 75.000000 L 110.247559 75.000000 L 108.023926 71.895508 L 107.288086 72.588379 L 107.288086 75.000000 L 106.267578 75.000000 Z " fill="rgb(0, 0, 0)" fill-opacity="1.000000" />
<path d="M 120.267578 66.642578 L 121.288086 66.642578 L 121.288086 71.481934 L 123.882324 68.984375 L 125.085449 68.984375 L 122.716797 71.250977 L 125.456055 75.000000 L 124.247559 75.000000 L 122.023926 71.895508 L 121.288086 72.588379 L 121.288086 75.000000 L 120.267578 75.000000 Z " fill="rgb(0, 0, 0)" fill-opacity="1.000000" />
<path d="M 129.867188 68.672852 L 129.867188 71.052246 L 132.257324 71.052246 L 132.257324 71.959961 L 129.867188 71.959961 L 129.867188 74.339355 L 128.964844 74.339355 L 128.964844 71.959961 L 126.580078 71.959961 L 126.580078 71.052246 L 128.964844 71.052246 L 128.964844 68.672852 Z " fill="rgb(0, 0, 0)" fill-opacity="1.000000" />
<path d="M 134.450195 74.092285 L 136.136719 74.092285 L 136.136719 68.033691 L 134.117188 69.005859 L 134.117188 67.963867 L 136.125977 67.007812 L 137.210938 67.007812 L 137.210938 74.092285 L 138.875977 74.092285 L 138.875977 75.000000 L 134.450195 75.000000 Z " fill="rgb(0, 0, 0)" fill-opacity="1.000000" />
<path d="M 143.985352 66.631836 L 143.985352 69.978027 L 142.782227 69.978027 L 142.782227 66.631836 Z " fill="rgb(0, 0, 0)" fill-opacity="1.000000" />
<path d="M 163.878906 78.319336 L 163.878906 64.300781 L 164.738281 64.300781 L 164.738281 71.412109 L 167.729980 71.412109 L 167.729980 72.335938 L 164.738281 72.335938 L 164.738281 78.319336 Z " fill="rgb(0, 0, 0)" fill-opacity="1.000000" />
<path d="M 167.892578 72.335938 L 167.892578 71.412109 L 174.729980 71.412109 L 174.729980 72.335938 Z " fill="rgb(0, 0, 0)" fill-opacity="1.000000" />
<path d="M 174.892578 72.335938 L 174.892578 71.412109 L 181.729980 71.412109 L 181.729980 72.335938 Z " fill="rgb(0, 0, 0)" fill-opacity="1.000000" />
<path d="M 181.892578 72.335938 L 181.892578 71.412109 L 188.729980 71.412109 L 188.729980 72.335938 Z " fill="rgb(0, 0, 0)" fill-opacity="1.000000" />
<path d="M 188.892578 72.335938 L 188.892578 71.412109 L 195.729980 71.412109 L 195.729980 72.335938 Z " fill="rgb(0, 0, 0)" fill-opacity="1.000000" />
<path d="M 195.892578 72.335938 L 195.892578 71.412109 L 202.729980 71.412109 L 202.729980 72.335938 Z " fill="rgb(0, 0, 0)" fill-opacity="1.000000" />
<path d="M 203.032227 75.418945 L 203.032227 68.866211 L 209.590332 72.142578 Z " fill="rgb(0, 0, 0)" fill-opacity="1.000000" />
<path d="M 225.981934 70.955566 L 225.981934 74.108398 L 227.265625 74.108398 Q 228.210938 74.108398 228.613770 73.778076 Q 229.016602 73.447754 229.016602 72.690430 Q 229.016602 71.691406 228.592285 71.323486 Q 228.167969 70.955566 227.265625 70.955566 Z M 225.981934 67.872559 L 225.981934 70.074707 L 227.244141 70.074707 Q 228.028320 70.074707 228.380127 69.773926 Q 228.731934 69.473145 228.731934 69.016602 Q 228.731934 68.409668 228.385498 68.141113 Q 228.039062 67.872559 227.244141 67.872559 Z M 224.891602 66.980957 L 227.265625 66.980957 Q 228.495605 66.980957 229.161621 67.512695 Q 229.827637 68.044434 229.827637 69.016602 Q 229.827637 69.537598 229.475830 69.961914 Q 229.124023 70.386230 228.420410 70.493652 Q 229.209961 70.611816 229.658447 71.167725 Q 230.106934 71.723633 230.106934 72.797852 Q 230.106934 73.888184 229.392578 74.444092 Q 228.678223 75.000000 227.265625 75.000000 L 224.891602 75.000000 Z " fill="rgb(0, 0, 0)" fill-opacity="1.000000" />
<path d="M 234.861816 72.824707 Q 234.861816 73.490723 235.106201 73.829102 Q 235.350586 74.167480 235.828613 74.167480 L 236.983398 74.167480 L 236.983398 75.000000 L 235.731934 75.000000 Q 234.845703 75.000000 234.359619 74.433350 Q 233.873535 73.866699 233.873535 72.824707 L 233.873535 67.383789 L 232.289062 67.383789 L 232.289062 66.610352 L 234.861816 66.610352 Z " fill="rgb(0, 0, 0)" fill-opacity="1.000000" />
<path d="M 241.308594 69.677246 Q 240.556641 69.677246 240.169922 70.262695 Q 239.783203 70.848145 239.783203 71.997559 Q 239.783203 73.141602 240.169922 73.729736 Q 240.556641 74.317871 241.308594 74.317871 Q 242.065918 74.317871 242.452637 73.729736 Q 242.839355 73.141602 242.839355 71.997559 Q 242.839355 70.848145 242.452637 70.262695 Q 242.065918 69.677246 241.308594 69.677246 Z M 241.308594 68.839355 Q 242.560059 68.839355 243.223389 69.650391 Q 243.886719 70.461426 243.886719 71.997559 Q 243.886719 73.539062 243.226074 74.347412 Q 242.565430 75.155762 241.308594 75.155762 Q 240.057129 75.155762 239.396484 74.347412 Q 238.735840 73.539062 238.735840 71.997559 Q 238.735840 70.461426 239.396484 69.650391 Q 240.057129 68.839355 241.308594 68.839355 Z " fill="rgb(0, 0, 0)" fill-opacity="1.000000" />
<path d="M 250.698730 74.693848 Q 250.301270 74.924805 249.879639 75.040283 Q 249.458008 75.155762 249.017578 75.155762 Q 247.621094 75.155762 246.834229 74.317871 Q 246.047363 73.479980 246.047363 71.997559 Q 246.047363 70.515137 246.834229 69.677246 Q 247.621094 68.839355 249.017578 68.839355 Q 249.452637 68.839355 249.866211 68.952148 Q 250.279785 69.064941 250.698730 69.301270 L 250.698730 70.337891 Q 250.306641 69.988770 249.911865 69.833008 Q 249.517090 69.677246 249.017578 69.677246 Q 248.088379 69.677246 247.588867 70.278809 Q 247.089355 70.880371 247.089355 71.997559 Q 247.089355 73.109375 247.591553 73.713623 Q 248.093750 74.317871 249.017578 74.317871 Q 249.533203 74.317871 249.941406 74.159424 Q 250.349609 74.000977 250.698730 73.667969 Z " fill="rgb(0, 0, 0)" fill-opacity="1.000000" />
<path d="M 253.267578 66.642578 L 254.288086 66.642578 L 254.288086 71.481934 L 256.882324 68.984375 L 258.085449 68.984375 L 255.716797 71.250977 L 258.456055 75.000000 L 257.247559 75.000000 L 255.023926 71.895508 L 254.288086 72.588379 L 254.288086 75.000000 L 253.267578 75.000000 Z " fill="rgb(0, 0, 0)" fill-opacity="1.000000" />
<path d="M 267.267578 66.642578 L 268.288086 66.642578 L 268.288086 71.481934 L 270.882324 68.984375 L 272.085449 68.984375 L 269.716797 71.250977 L 272.456055 75.000000 L 271.247559 75.000000 L 269.023926 71.895508 L 268.288086 72.588379 L 268.288086 75.000000 L 267.267578 75.000000 Z " fill="rgb(0, 0, 0)" fill-opacity="1.000000" />
<path d="M 276.867188 68.672852 L 276.867188 71.052246 L 279.257324 71.052246 L 279.257324 71.959961 L 276.867188 71.959961 L 276.867188 74.339355 L 275.964844 74.339355 L 275.964844 71.959961 L 273.580078 71.959961 L 273.580078 71.052246 L 275.964844 71.052246 L 275.964844 68.672852 Z " fill="rgb(0, 0, 0)" fill-opacity="1.000000" />
<path d="M 282.003418 74.086914 L 285.687988 74.086914 L 285.687988 75.000000 L 280.816406 75.000000 L 280.816406 74.086914 Q 281.820801 73.028809 282.572754 72.217773 Q 283.324707 71.406738 283.609375 71.073730 Q 284.146484 70.418457 284.334473 70.012939 Q 284.522461 69.607422 284.522461 69.183105 Q 284.522461 68.511719 284.127686 68.130371 Q 283.732910 67.749023 283.045410 67.749023 Q 282.556641 67.749023 282.019531 67.926270 Q 281.482422 68.103516 280.880859 68.463379 L 280.880859 67.367676 Q 281.434082 67.104492 281.968506 66.970215 Q 282.502930 66.835938 283.023926 66.835938 Q 284.200195 66.835938 284.917236 67.461670 Q 285.634277 68.087402 285.634277 69.102539 Q 285.634277 69.618164 285.395264 70.133789 Q 285.156250 70.649414 284.619141 71.272461 Q 284.318359 71.621582 283.746338 72.239258 Q 283.174316 72.856934 282.003418 74.086914 Z " fill="rgb(0, 0, 0)" fill-opacity="1.000000" />
<path d="M 290.985352 66.631836 L 290.985352 69.978027 L 289.782227 69.978027 L 289.782227 66.631836 Z " fill="rgb(0, 0, 0)" fill-opacity="1.000000" />
<path d="M 310.878906 78.319336 L 310.878906 64.300781 L 311.738281 64.300781 L 311.738281 71.412109 L 314.729980 71.412109 L 314.729980 72.335938 L 311.738281 72.335938 L 311.738281 78.319336 Z " fill="rgb(0, 0, 0)" fill-opacity="1.000000" />
<path d="M 314.892578 72.335938 L 314.892578 71.412109 L 321.729980 71.412109 L 321.729980 72.335938 Z " fill="rgb(0, 0, 0)" fill-opacity="1.000000" />
<path d="M 321.892578 72.335938 L 321.892578 71.412109 L 328.729980 71.412109 L 328.729980 72.335938 Z " fill="rgb(0, 0, 0)" fill-opacity="1.000000" />
<path d="M 328.892578 72.335938 L 328.892578 71.412109 L 335.729980 71.412109 L 335.729980 72.335938 Z " fill="rgb(0, 0, 0)" fill-opacity="1.000000" />
<path d="M 335.892578 72.335938 L 335.892578 71.412109 L 342.729980 71.412109 L 342.729980 72.335938 Z " fill="rgb(0, 0, 0)" fill-opacity="1.000000" />
<path d="M 342.892578 72.335938 L 342.892578 71.412109 L 349.729980 71.412109 L 349.729980 72.335938 Z " fill="rgb(0, 0, 0)" fill-opacity="1.000000" />
<path d="M 350.032227 75.418945 L 350.032227 68.866211 L 356.590332 72.142578 Z " fill="rgb(0, 0, 0)" fill-opacity="1.000000" />
<path d="M 372.981934 70.955566 L 372.981934 74.108398 L 374.265625 74.108398 Q 375.210938 74.108398 375.613770 73.778076 Q 376.016602 73.447754 376.016602 72.690430 Q 376.016602 71.691406 375.592285 71.323486 Q 375.167969 70.955566 374.265625 70.955566 Z M 372.981934 67.872559 L 372.981934 70.074707 L 374.244141 70.074707 Q 375.028320 70.074707 375.380127 69.773926 Q 375.731934 69.473145 375.731934 69.016602 Q 375.731934 68.409668 375.385498 68.141113 Q 375.039062 67.872559 374.244141 67.872559 Z M 371.891602 66.980957 L 374.265625 66.980957 Q 375.495605 66.980957 376.161621 67.512695 Q 376.827637 68.044434 376.827637 69.016602 Q 376.827637 69.537598 376.475830 69.961914 Q 376.124023 70.386230 375.420410 70.493652 Q 376.209961 70.611816 376.658447 71.167725 Q 377.106934 71.723633 377.106934 72.797852 Q 377.106934 73.888184 376.392578 74.444092 Q 375.678223 75.000000 374.265625 75.000000 L 371.891602 75.000000 Z " fill="rgb(0, 0, 0)" fill-opacity="1.000000" />
<path d="M 381.861816 72.824707 Q 381.861816 73.490723 382.106201 73.829102 Q 382.350586 74.167480 382.828613 74.167480 L 383.983398 74.167480 L 383.983398 75.000000 L 382.731934 75.000000 Q 381.845703 75.000000 381.359619 74.433350 Q 380.873535 73.866699 380.873535 72.824707 L 380.873535 67.383789 L 379.289062 67.383789 L 379.289062 66.610352 L 381.861816 66.610352 Z " fill="rgb(0, 0, 0)" fill-opacity="1.000000" />
<path d="M 388.308594 69.677246 Q 387.556641 69.677246 387.169922 70.262695 Q 386.783203 70.848145 386.783203 71.997559 Q 386.783203 73.141602 387.169922 73.729736 Q 387.556641 74.317871 388.308594 74.317871 Q 389.065918 74.317871 389.452637 73.729736 Q 389.839355 73.141602 389.839355 71.997559 Q 389.839355 70.848145 389.452637 70.262695 Q 389.065918 69.677246 388.308594 69.677246 Z M 388.308594 68.839355 Q 389.560059 68.839355 390.223389 69.650391 Q 390.886719 70.461426 390.886719 71.997559 Q 390.886719 73.539062 390.226074 74.347412 Q 389.565430 75.155762 388.308594 75.155762 Q 387.057129 75.155762 386.396484 74.347412 Q 385.735840 73.539062 385.735840 71.997559 Q 385.735840 70.461426 386.396484 69.650391 Q 387.057129 68.839355 388.308594 68.839355 Z " fill="rgb(0, 0, 0)" fill-opacity="1.000000" />
<path d="M 397.698730 74.693848 Q 397.301270 74.924805 396.879639 75.040283 Q 396.458008 75.155762 396.017578 75.155762 Q 394.621094 75.155762 393.834229 74.317871 Q 393.047363 73.479980 393.047363 71.997559 Q 393.047363 70.515137 393.834229 69.677246 Q 394.621094 68.839355 396.017578 68.839355 Q 396.452637 68.839355 396.866211 68.952148 Q 397.279785 69.064941 397.698730 69.301270 L 397.698730 70.337891 Q 397.306641 69.988770 396.911865 69.833008 Q 396.517090 69.677246 396.017578 69.677246 Q 395.088379 69.677246 394.588867 70.278809 Q 394.089355 70.880371 394.089355 71.997559 Q 394.089355 73.109375 394.591553 73.713623 Q 395.093750 74.317871 396.017578 74.317871 Q 396.533203 74.317871 396.941406 74.159424 Q 397.349609 74.000977 397.698730 73.667969 Z " fill="rgb(0, 0, 0)" fill-opacity="1.000000" />
<path d="M 400.267578 66.642578 L 401.288086 66.642578 L 401.288086 71.481934 L 403.882324 68.984375 L 405.085449 68.984375 L 402.716797 71.250977 L 405.456055 75.000000 L 404.247559 75.000000 L 402.023926 71.895508 L 401.288086 72.588379 L 401.288086 75.000000 L 400.267578 75.000000 Z " fill="rgb(0, 0, 0)" fill-opacity="1.000000" />
<path d="M 414.267578 66.642578 L 415.288086 66.642578 L 415.288086 71.481934 L 417.882324 68.984375 L 419.085449 68.984375 L 416.716797 71.250977 L 419.456055 75.000000 L 418.247559 75.000000 L 416.023926 71.895508 L 415.288086 72.588379 L 415.288086 75.000000 L 414.267578 75.000000 Z " fill="rgb(0, 0, 0)" fill-opacity="1.000000" />
<path d="M 423.867188 68.672852 L 423.867188 71.052246 L 426.257324 71.052246 L 426.257324 71.959961 L 423.867188 71.959961 L 423.867188 74.339355 L 422.964844 74.339355 L 422.964844 71.959961 L 420.580078 71.959961 L 420.580078 71.052246 L 422.964844 71.052246 L 422.964844 68.672852 Z " fill="rgb(0, 0, 0)" fill-opacity="1.000000" />
<path d="M 431.167969 70.708496 Q 431.957520 70.917969 432.376465 71.452393 Q 432.795410 71.986816 432.795410 72.787109 Q 432.795410 73.893555 432.051514 74.524658 Q 431.307617 75.155762 429.991699 75.155762 Q 429.438477 75.155762 428.863770 75.053711 Q 428.289062 74.951660 427.735840 74.758301 L 427.735840 73.678711 Q 428.283691 73.963379 428.815430 74.103027 Q 429.347168 74.242676 429.873535 74.242676 Q 430.765137 74.242676 431.243164 73.839844 Q 431.721191 73.437012 431.721191 72.679688 Q 431.721191 71.981445 431.243164 71.570557 Q 430.765137 71.159668 429.948730 71.159668 L 429.121582 71.159668 L 429.121582 70.268066 L 429.948730 70.268066 Q 430.695312 70.268066 431.114258 69.940430 Q 431.533203 69.612793 431.533203 69.027344 Q 431.533203 68.409668 431.143799 68.079346 Q 430.754395 67.749023 430.034668 67.749023 Q 429.556641 67.749023 429.046387 67.856445 Q 428.536133 67.963867 427.977539 68.178711 L 427.977539 67.179688 Q 428.627441 67.007812 429.135010 66.921875 Q 429.642578 66.835938 430.034668 66.835938 Q 431.205566 66.835938 431.906494 67.424072 Q 432.607422 68.012207 432.607422 68.984375 Q 432.607422 69.645020 432.239502 70.085449 Q 431.871582 70.525879 431.167969 70.708496 Z " fill="rgb(0, 0, 0)" fill-opacity="1.000000" />
<path d="M 437.985352 66.631836 L 437.985352 69.978027 L 436.782227 69.978027 L 436.782227 66.631836 Z " fill="rgb(0, 0, 0)" fill-opacity="1.000000" />
<path d="M 457.878906 78.319336 L 457.878906 64.300781 L 458.738281 64.300781 L 458.738281 78.319336 Z " fill="rgb(0, 0, 0)" fill-opacity="1.000000" />
<path d="M 58.878906 65.319336 L 58.878906 58.412109 L 62.729980 58.412109 L 62.729980 59.335938 L 59.738281 59.335938 L 59.738281 65.319336 Z " fill="rgb(0, 0, 0)" fill-opacity="1.000000" />
<path d="M 62.892578 59.335938 L 62.892578 58.412109 L 69.729980 58.412109 L 69.729980 59.335938 Z " fill="rgb(0, 0, 0)" fill-opacity="1.000000" />
<path d="M 69.892578 59.335938 L 69.892578 58.412109 L 76.729980 58.412109 L 76.729980 59.335938 Z " fill="rgb(0, 0, 0)" fill-opacity="1.000000" />
<path d="M 76.892578 59.335938 L 76.892578 58.412109 L 83.729980 58.412109 L 83.729980 59.335938 Z " fill="rgb(0, 0, 0)" fill-opacity="1.000000" />
<path d="M 83.892578 59.335938 L 83.892578 58.412109 L 90.729980 58.412109 L 90.729980 59.335938 Z " fill="rgb(0, 0, 0)" fill-opacity="1.000000" />
<path d="M 90.892578 59.335938 L 90.892578 58.412109 L 97.729980 58.412109 L 97.729980 59.335938 Z " fill="rgb(0, 0, 0)" fill-opacity="1.000000" />
<path d="M 97.892578 59.335938 L 97.892578 58.412109 L 104.729980 58.412109 L 104.729980 59.335938 Z " fill="rgb(0, 0, 0)" fill-opacity="1.000000" />
<path d="M 104.892578 59.335938 L 104.892578 58.412109 L 111.729980 58.412109 L 111.729980 59.335938 Z " fill="rgb(0, 0, 0)" fill-opacity="1.000000" />
<path d="M 111.892578 59.335938 L 111.892578 58.412109 L 118.729980 58.412109 L 118.729980 59.335938 Z " fill="rgb(0, 0, 0)" fill-opacity="1.000000" />
<path d="M 118.892578 59.335938 L 118.892578 58.412109 L 125.729980 58.412109 L 125.729980 59.335938 Z " fill="rgb(0, 0, 0)" fill-opacity="1.000000" />
<path d="M 125.892578 59.335938 L 125.892578 58.412109 L 132.729980 58.412109 L 132.729980 59.335938 Z " fill="rgb(0, 0, 0)" fill-opacity="1.000000" />
<path d="M 132.892578 59.335938 L 132.892578 58.412109 L 139.729980 58.412109 L 139.729980 59.335938 Z " fill="rgb(0, 0, 0)" fill-opacity="1.000000" />
<path d="M 139.892578 59.335938 L 139.892578 58.412109 L 146.729980 58.412109 L 146.729980 59.335938 Z " fill="rgb(0, 0, 0)" fill-opacity="1.000000" />
<path d="M 146.892578 59.335938 L 146.892578 58.412109 L 153.729980 58.412109 L 153.729980 59.335938 Z " fill="rgb(0, 0, 0)" fill-opacity="1.000000" />
<path d="M 153.892578 59.335938 L 153.892578 58.412109 L 160.729980 58.412109 L 160.729980 59.335938 Z " fill="rgb(0, 0, 0)" fill-opacity="1.000000" />
<path d="M 163.878906 65.319336 L 163.878906 59.335938 L 160.892578 59.335938 L 160.892578 58.412109 L 164.738281 58.412109 L 164.738281 65.319336 Z " fill="rgb(0, 0, 0)" fill-opacity="1.000000" />
<path d="M 205.878906 65.319336 L 205.878906 58.412109 L 209.729980 58.412109 L 209.729980 59.335938 L 206.738281 59.335938 L 206.738281 65.319336 Z " fill="rgb(0, 0, 0)" fill-opacity="1.000000" />
<path d="M 209.892578 59.335938 L 209.892578 58.412109 L 216.729980 58.412109 L 216.729980 59.335938 Z " fill="rgb(0, 0, 0)" fill-opacity="1.000000" />
<path d="M 216.892578 59.335938 L 216.892578 58.412109 L 223.729980 58.412109 L 223.729980 59.335938 Z " fill="rgb(0, 0, 0)" fill-opacity="1.000000" />
<path d="M 223.892578 59.335938 L 223.892578 58.412109 L 230.729980 58.412109 L 230.729980 59.335938 Z " fill="rgb(0, 0, 0)" fill-opacity="1.000000" />
<path d="M 230.892578 59.335938 L 230.892578 58.412109 L 237.729980 58.412109 L 237.729980 59.335938 Z " fill="rgb(0, 0, 0)" fill-opacity="1.000000" />
<path d="M 237.892578 59.335938 L 237.892578 58.412109 L 244.729980 58.412109 L 244.729980 59.335938 Z " fill="rgb(0, 0, 0)" fill-opacity="1.000000" />
<path d="M 244.892578 59.335938 L 244.892578 58.412109 L 251.729980 58.412109 L 251.729980 59.335938 Z " fill="rgb(0, 0, 0)" fill-opacity="1.000000" />
<path d="M 251.892578 59.335938 L 251.892578 58.412109 L 258.729980 58.412109 L 258.729980 59.335938 Z " fill="rgb(0, 0, 0)" fill-opacity="1.000000" />
<path d="M 258.892578 59.335938 L 258.892578 58.412109 L 265.729980 58.412109 L 265.729980 59.335938 Z " fill="rgb(0, 0, 0)" fill-opacity="1.000000" />
<path d="M 265.892578 59.335938 L 265.892578 58.412109 L 272.729980 58.412109 L 272.729980 59.335938 Z " fill="rgb(0, 0, 0)" fill-opacity="1.000000" />
<path d="M 272.892578 59.335938 L 272.892578 58.412109 L 279.729980 58.412109 L 279.729980 59.335938 Z " fill="rgb(0, 0, 0)" fill-opacity="1.000000" />
<path d="M 279.892578 59.335938 L 279.892578 58.412109 L 286.729980 58.412109 L 286.729980 59.335938 Z " fill="rgb(0, 0, 0)" fill-opacity="1.000000" />
<path d="M 286.892578 59.335938 L 286.892578 58.412109 L 293.729980 58.412109 L 293.729980 59.335938 Z " fill="rgb(0, 0, 0)" fill-opacity="1.000000" />
<path d="M 293.892578 59.335938 L 293.892578 58.412109 L 300.729980 58.412109 L 300.729980 59.335938 Z " fill="rgb(0, 0, 0)" fill-opacity="1.000000" />
<path d="M 300.892578 59.335938 L 300.892578 58.412109 L 307.729980 58.412109 L 307.729980 59.335938 Z " fill="rgb(0, 0, 0)" fill-opacity="1.000000" />
<path d="M 310.878906 65.319336 L 310.878906 59.335938 L 307.892578 59.335938 L 307.892578 58.412109 L 311.738281 58.412109 L 311.738281 65.319336 Z " fill="rgb(0, 0, 0)" fill-opacity="1.000000" />
<path d="M 352.878906 65.319336 L 352.878906 58.412109 L 356.729980 58.412109 L 356.729980 59.335938 L 353.738281 59.335938 L 353.738281 65.319336 Z " fill="rgb(0, 0, 0)" fill-opacity="1.000000" />
<path d="M 356.892578 59.335938 L 356.892578 58.412109 L 363.729980 58.412109 L 363.729980 59.335938 Z " fill="rgb(0, 0, 0)" fill-opacity="1.000000" />
<path d="M 363.892578 59.335938 L 363.892578 58.412109 L 370.729980 58.412109 L 370.729980 59.335938 Z " fill="rgb(0, 0, 0)" fill-opacity="1.000000" />
<path d="M 370.892578 59.335938 L 370.892578 58.412109 L 377.729980 58.412109 L 377.729980 59.335938 Z " fill="rgb(0, 0, 0)" fill-opacity="1.000000" />
<path d="M 377.892578 59.335938 L 377.892578 58.412109 L 384.729980 58.412109 L 384.729980 59.335938 Z " fill="rgb(0, 0, 0)" fill-opacity="1.000000" />
<path d="M 384.892578 59.335938 L 384.892578 58.412109 L 391.729980 58.412109 L 391.729980 59.335938 Z " fill="rgb(0, 0, 0)" fill-opacity="1.000000" />
<path d="M 391.892578 59.335938 L 391.892578 58.412109 L 398.729980 58.412109 L 398.729980 59.335938 Z " fill="rgb(0, 0, 0)" fill-opacity="1.000000" />
<path d="M 398.892578 59.335938 L 398.892578 58.412109 L 405.729980 58.412109 L 405.729980 59.335938 Z " fill="rgb(0, 0, 0)" fill-opacity="1.000000" />
<path d="M 405.892578 59.335938 L 405.892578 58.412109 L 412.729980 58.412109 L 412.729980 59.335938 Z " fill="rgb(0, 0, 0)" fill-opacity="1.000000" />
<path d="M 412.892578 59.335938 L 412.892578 58.412109 L 419.729980 58.412109 L 419.729980 59.335938 Z " fill="rgb(0, 0, 0)" fill-opacity="1.000000" />
<path d="M 419.892578 59.335938 L 419.892578 58.412109 L 426.729980 58.412109 L 426.729980 59.335938 Z " fill="rgb(0, 0, 0)" fill-opacity="1.000000" />
<path d="M 426.892578 59.335938 L 426.892578 58.412109 L 433.729980 58.412109 L 433.729980 59.335938 Z " fill="rgb(0, 0, 0)" fill-opacity="1.000000" />
<path d="M 433.892578 59.335938 L 433.892578 58.412109 L 440.729980 58.412109 L 440.729980 59.335938 Z " fill="rgb(0, 0, 0)" fill-opacity="1.000000" />
<path d="M 440.892578 59.335938 L 440.892578 58.412109 L 447.729980 58.412109 L 447.729980 59.335938 Z " fill="rgb(0, 0, 0)" fill-opacity="1.000000" />
<path d="M 447.892578 59.335938 L 447.892578 58.412109 L 454.729980 58.412109 L 454.729980 59.335938 Z " fill="rgb(0, 0, 0)" fill-opacity="1.000000" />
<path d="M 457.878906 65.319336 L 457.878906 59.335938 L 454.892578 59.335938 L 454.892578 58.412109 L 458.738281 58.412109 L 458.738281 65.319336 Z " fill="rgb(0, 0, 0)" fill-opacity="1.000000" />
<path d="M 30.878906 52.319336 L 30.878906 46.335938 L 27.892578 46.335938 L 27.892578 45.412109 L 30.878906 45.412109 L 30.878906 38.300781 L 31.738281 38.300781 L 31.738281 52.319336 Z " fill="rgb(0, 0, 0)" fill-opacity="1.000000" />
<path d="M 30.878906 26.319336 L 30.878906 19.412109 L 34.729980 19.412109 L 34.729980 20.335938 L 31.738281 20.335938 L 31.738281 26.319336 Z " fill="rgb(0, 0, 0)" fill-opacity="1.000000" />
<path d="M 30.878906 39.319336 L 30.878906 25.300781 L 31.738281 25.300781 L 31.738281 39.319336 Z " fill="rgb(0, 0, 0)" fill-opacity="1.000000" />
<path d="M 58.878906 33.335938 L 58.878906 25.300781 L 59.738281 25.300781 L 59.738281 32.412109 L 62.729980 32.412109 L 62.729980 33.335938 Z " fill="rgb(0, 0, 0)" fill-opacity="1.000000" />
<path d="M 62.892578 33.335938 L 62.892578 32.412109 L 69.729980 32.412109 L 69.729980 33.335938 Z " fill="rgb(0, 0, 0)" fill-opacity="1.000000" />
<path d="M 69.892578 33.335938 L 69.892578 32.412109 L 76.729980 32.412109 L 76.729980 33.335938 Z " fill="rgb(0, 0, 0)" fill-opacity="1.000000" />
<path d="M 76.892578 33.335938 L 76.892578 32.412109 L 83.729980 32.412109 L 83.729980 33.335938 Z " fill="rgb(0, 0, 0)" fill-opacity="1.000000" />
<path d="M 83.892578 33.335938 L 83.892578 32.412109 L 90.729980 32.412109 L 90.729980 33.335938 Z " fill="rgb(0, 0, 0)" fill-opacity="1.000000" />
<path d="M 90.892578 33.335938 L 90.892578 32.412109 L 97.729980 32.412109 L 97.729980 33.335938 Z " fill="rgb(0, 0, 0)" fill-opacity="1.000000" />
<path d="M 97.892578 33.335938 L 97.892578 32.412109 L 104.729980 32.412109 L 104.729980 33.335938 Z " fill="rgb(0, 0, 0)" fill-opacity="1.000000" />
<path d="M 104.892578 33.335938 L 104.892578 32.412109 L 111.729980 32.412109 L 111.729980 33.335938 Z " fill="rgb(0, 0, 0)" fill-opacity="1.000000" />
<path d="M 111.892578 33.335938 L 111.892578 32.412109 L 118.729980 32.412109 L 118.729980 33.335938 Z " fill="rgb(0, 0, 0)" fill-opacity="1.000000" />
<path d="M 118.892578 33.335938 L 118.892578 32.412109 L 125.729980 32.412109 L 125.729980 33.335938 Z " fill="rgb(0, 0, 0)" fill-opacity="1.000000" />
<path d="M 125.892578 33.335938 L 125.892578 32.412109 L 132.729980 32.412109 L 132.729980 33.335938 Z " fill="rgb(0, 0, 0)" fill-opacity="1.000000" />
<path d="M 132.892578 33.335938 L 132.892578 32.412109 L 139.729980 32.412109 L 139.729980 33.335938 Z " fill="rgb(0, 0, 0)" fill-opacity="1.000000" />
<path d="M 139.892578 33.335938 L 139.892578 32.412109 L 146.729980 32.412109 L 146.729980 33.335938 Z " fill="rgb(0, 0, 0)" fill-opacity="1.000000" />
<path d="M 146.892578 33.335938 L 146.892578 32.412109 L 153.729980 32.412109 L 153.729980 33.335938 Z " fill="rgb(0, 0, 0)" fill-opacity="1.000000" />
<path d="M 153.892578 33.335938 L 153.892578 32.412109 L 160.729980 32.412109 L 160.729980 33.335938 Z " fill="rgb(0, 0, 0)" fill-opacity="1.000000" />
<path d="M 160.892578 33.335938 L 160.892578 32.412109 L 163.878906 32.412109 L 163.878906 25.300781 L 164.738281 25.300781 L 164.738281 33.335938 Z " fill="rgb(0, 0, 0)" fill-opacity="1.000000" />
<path d="M 205.878906 33.335938 L 205.878906 25.300781 L 206.738281 25.300781 L 206.738281 32.412109 L 209.729980 32.412109 L 209.729980 33.335938 Z " fill="rgb(0, 0, 0)" fill-opacity="1.000000" />
<path d="M 209.892578 33.335938 L 209.892578 32.412109 L 216.729980 32.412109 L 216.729980 33.335938 Z " fill="rgb(0, 0, 0)" fill-opacity="1.000000" />
<path d="M 216.892578 33.335938 L 216.892578 32.412109 L 223.729980 32.412109 L 223.729980 33.335938 Z " fill="rgb(0, 0, 0)" fill-opacity="1.000000" />
<path d="M 223.892578 33.335938 L 223.892578 32.412109 L 230.729980 32.412109 L 230.729980 33.335938 Z " fill="rgb(0, 0, 0)" fill-opacity="1.000000" />
<path d="M 230.892578 33.335938 L 230.892578 32.412109 L 237.729980 32.412109 L 237.729980 33.335938 Z " fill="rgb(0, 0, 0)" fill-opacity="1.000000" />
<path d="M 237.892578 33.335938 L 237.892578 32.412109 L 244.729980 32.412109 L 244.729980 33.335938 Z " fill="rgb(0, 0, 0)" fill-opacity="1.000000" />
<path d="M 244.892578 33.335938 L 244.892578 32.412109 L 251.729980 32.412109 L 251.729980 33.335938 Z " fill="rgb(0, 0, 0)" fill-opacity="1.000000" />
<path d="M 251.892578 33.335938 L 251.892578 32.412109 L 258.729980 32.412109 L 258.729980 33.335938 Z " fill="rgb(0, 0, 0)" fill-opacity="1.000000" />
<path d="M 258.892578 33.335938 L 258.892578 32.412109 L 265.729980 32.412109 L 265.729980 33.335938 Z " fill="rgb(0, 0, 0)" fill-opacity="1.000000" />
<path d="M 265.892578 33.335938 L 265.892578 32.412109 L 272.729980 32.412109 L 272.729980 33.335938 Z " fill="rgb(0, 0, 0)" fill-opacity="1.000000" />
<path d="M 272.892578 33.335938 L 272.892578 32.412109 L 279.729980 32.412109 L 279.729980 33.335938 Z " fill="rgb(0, 0, 0)" fill-opacity="1.000000" />
<path d="M 279.892578 33.335938 L 279.892578 32.412109 L 286.729980 32.412109 L 286.729980 33.335938 Z " fill="rgb(0, 0, 0)" fill-opacity="1.000000" />
<path d="M 286.892578 33.335938 L 286.892578 32.412109 L 293.729980 32.412109 L 293.729980 33.335938 Z " fill="rgb(0, 0, 0)" fill-opacity="1.000000" />
<path d="M 293.892578 33.335938 L 293.892578 32.412109 L 300.729980 32.412109 L 300.729980 33.335938 Z " fill="rgb(0, 0, 0)" fill-opacity="1.000000" />
<path d="M 300.892578 33.335938 L 300.892578 32.412109 L 307.729980 32.412109 L 307.729980 33.335938 Z " fill="rgb(0, 0, 0)" fill-opacity="1.000000" />
<path d="M 307.892578 33.335938 L 307.892578 32.412109 L 310.878906 32.412109 L 310.878906 25.300781 L 311.738281 25.300781 L 311.738281 33.335938 Z " fill="rgb(0, 0, 0)" fill-opacity="1.000000" />
<path d="M 34.892578 20.335938 L 34.892578 19.412109 L 41.729980 19.412109 L 41.729980 20.335938 Z " fill="rgb(0, 0, 0)" fill-opacity="1.000000" />
<path d="M 41.892578 20.335938 L 41.892578 19.412109 L 48.729980 19.412109 L 48.729980 20.335938 Z " fill="rgb(0, 0, 0)" fill-opacity="1.000000" />
<path d="M 48.892578 20.335938 L 48.892578 19.412109 L 55.729980 19.412109 L 55.729980 20.335938 Z " fill="rgb(0, 0, 0)" fill-opacity="1.000000" />
<path d="M 56.032227 23.418945 L 56.032227 16.866211 L 62.590332 20.142578 Z " fill="rgb(0, 0, 0)" fill-opacity="1.000000" />
<path d="M 78.981934 18.955566 L 78.981934 22.108398 L 80.265625 22.108398 Q 81.210938 22.108398 81.613770 21.778076 Q 82.016602 21.447754 82.016602 20.690430 Q 82.016602 19.691406 81.592285 19.323486 Q 81.167969 18.955566 80.265625 18.955566 Z M 78.981934 15.872559 L 78.981934 18.074707 L 80.244141 18.074707 Q 81.028320 18.074707 81.380127 17.773926 Q 81.731934 17.473145 81.731934 17.016602 Q 81.731934 16.409668 81.385498 16.141113 Q 81.039062 15.872559 80.244141 15.872559 Z M 77.891602 14.980957 L 80.265625 14.980957 Q 81.495605 14.980957 82.161621 15.512695 Q 82.827637 16.044434 82.827637 17.016602 Q 82.827637 17.537598 82.475830 17.961914 Q 82.124023 18.386230 81.420410 18.493652 Q 82.209961 18.611816 82.658447 19.167725 Q 83.106934 19.723633 83.106934 20.797852 Q 83.106934 21.888184 82.392578 22.444092 Q 81.678223 23.000000 80.265625 23.000000 L 77.891602 23.000000 Z " fill="rgb(0, 0, 0)" fill-opacity="1.000000" />
<path d="M 87.861816 20.824707 Q 87.861816 21.490723 88.106201 21.829102 Q 88.350586 22.167480 88.828613 22.167480 L 89.983398 22.167480 L 89.983398 23.000000 L 88.731934 23.000000 Q 87.845703 23.000000 87.359619 22.433350 Q 86.873535 21.866699 86.873535 20.824707 L 86.873535 15.383789 L 85.289062 15.383789 L 85.289062 14.610352 L 87.861816 14.610352 Z " fill="rgb(0, 0, 0)" fill-opacity="1.000000" />
<path d="M 94.308594 17.677246 Q 93.556641 17.677246 93.169922 18.262695 Q 92.783203 18.848145 92.783203 19.997559 Q 92.783203 21.141602 93.169922 21.729736 Q 93.556641 22.317871 94.308594 22.317871 Q 95.065918 22.317871 95.452637 21.729736 Q 95.839355 21.141602 95.839355 19.997559 Q 95.839355 18.848145 95.452637 18.262695 Q 95.065918 17.677246 94.308594 17.677246 Z M 94.308594 16.839355 Q 95.560059 16.839355 96.223389 17.650391 Q 96.886719 18.461426 96.886719 19.997559 Q 96.886719 21.539062 96.226074 22.347412 Q 95.565430 23.155762 94.308594 23.155762 Q 93.057129 23.155762 92.396484 22.347412 Q 91.735840 21.539062 91.735840 19.997559 Q 91.735840 18.461426 92.396484 17.650391 Q 93.057129 16.839355 94.308594 16.839355 Z " fill="rgb(0, 0, 0)" fill-opacity="1.000000" />
<path d="M 103.698730 22.693848 Q 103.301270 22.924805 102.879639 23.040283 Q 102.458008 23.155762 102.017578 23.155762 Q 100.621094 23.155762 99.834229 22.317871 Q 99.047363 21.479980 99.047363 19.997559 Q 99.047363 18.515137 99.834229 17.677246 Q 100.621094 16.839355 102.017578 16.839355 Q 102.452637 16.839355 102.866211 16.952148 Q 103.279785 17.064941 103.698730 17.301270 L 103.698730 18.337891 Q 103.306641 17.988770 102.911865 17.833008 Q 102.517090 17.677246 102.017578 17.677246 Q 101.088379 17.677246 100.588867 18.278809 Q 100.089355 18.880371 100.089355 19.997559 Q 100.089355 21.109375 100.591553 21.713623 Q 101.093750 22.317871 102.017578 22.317871 Q 102.533203 22.317871 102.941406 22.159424 Q 103.349609 22.000977 103.698730 21.667969 Z " fill="rgb(0, 0, 0)" fill-opacity="1.000000" />
<path d="M 106.267578 14.642578 L 107.288086 14.642578 L 107.288086 19.481934 L 109.882324 16.984375 L 111.085449 16.984375 L 108.716797 19.250977 L 111.456055 23.000000 L 110.247559 23.000000 L 108.023926 19.895508 L 107.288086 20.588379 L 107.288086 23.000000 L 106.267578 23.000000 Z " fill="rgb(0, 0, 0)" fill-opacity="1.000000" />
<path d="M 120.267578 14.642578 L 121.288086 14.642578 L 121.288086 19.481934 L 123.882324 16.984375 L 125.085449 16.984375 L 122.716797 19.250977 L 125.456055 23.000000 L 124.247559 23.000000 L 122.023926 19.895508 L 121.288086 20.588379 L 121.288086 23.000000 L 120.267578 23.000000 Z " fill="rgb(0, 0, 0)" fill-opacity="1.000000" />
<path d="M 129.867188 16.672852 L 129.867188 19.052246 L 132.257324 19.052246 L 132.257324 19.959961 L 129.867188 19.959961 L 129.867188 22.339355 L 128.964844 22.339355 L 128.964844 19.959961 L 126.580078 19.959961 L 126.580078 19.052246 L 128.964844 19.052246 L 128.964844 16.672852 Z " fill="rgb(0, 0, 0)" fill-opacity="1.000000" />
<path d="M 134.450195 22.092285 L 136.136719 22.092285 L 136.136719 16.033691 L 134.117188 17.005859 L 134.117188 15.963867 L 136.125977 15.007812 L 137.210938 15.007812 L 137.210938 22.092285 L 138.875977 22.092285 L 138.875977 23.000000 L 134.450195 23.000000 Z " fill="rgb(0, 0, 0)" fill-opacity="1.000000" />
<path d="M 163.878906 26.319336 L 163.878906 12.300781 L 164.738281 12.300781 L 164.738281 19.412109 L 167.729980 19.412109 L 167.729980 20.335938 L 164.738281 20.335938 L 164.738281 26.319336 Z " fill="rgb(0, 0, 0)" fill-opacity="1.000000" />
<path d="M 167.892578 20.335938 L 167.892578 19.412109 L 174.729980 19.412109 L 174.729980 20.335938 Z " fill="rgb(0, 0, 0)" fill-opacity="1.000000" />
<path d="M 174.892578 20.335938 L 174.892578 19.412109 L 181.729980 19.412109 L 181.729980 20.335938 Z " fill="rgb(0, 0, 0)" fill-opacity="1.000000" />
<path d="M 181.892578 20.335938 L 181.892578 19.412109 L 188.729980 19.412109 L 188.729980 20.335938 Z " fill="rgb(0, 0, 0)" fill-opacity="1.000000" />
<path d="M 188.892578 20.335938 L 188.892578 19.412109 L 195.729980 19.412109 L 195.729980 20.335938 Z " fill="rgb(0, 0, 0)" fill-opacity="1.000000" />
<path d="M 195.892578 20.335938 L 195.892578 19.412109 L 202.729980 19.412109 L 202.729980 20.335938 Z " fill="rgb(0, 0, 0)" fill-opacity="1.000000" />
<path d="M 203.032227 23.418945 L 203.032227 16.866211 L 209.590332 20.142578 Z " fill="rgb(0, 0, 0)" fill-opacity="1.000000" />
<path d="M 225.981934 18.955566 L 225.981934 22.108398 L 227.265625 22.108398 Q 228.210938 22.108398 228.613770 21.778076 Q 229.016602 21.447754 229.016602 20.690430 Q 229.016602 19.691406 228.592285 19.323486 Q 228.167969 18.955566 227.265625 18.955566 Z M 225.981934 15.872559 L 225.981934 18.074707 L 227.244141 18.074707 Q 228.028320 18.074707 228.380127 17.773926 Q 228.731934 17.473145 228.731934 17.016602 Q 228.731934 16.409668 228.385498 16.141113 Q 228.039062 15.872559 227.244141 15.872559 Z M 224.891602 14.980957 L 227.265625 14.980957 Q 228.495605 14.980957 229.161621 15.512695 Q 229.827637 16.044434 229.827637 17.016602 Q 229.827637 17.537598 229.475830 17.961914 Q 229.124023 18.386230 228.420410 18.493652 Q 229.209961 18.611816 229.658447 19.167725 Q 230.106934 19.723633 230.106934 20.797852 Q 230.106934 21.888184 229.392578 22.444092 Q 228.678223 23.000000 227.265625 23.000000 L 224.891602 23.000000 Z " fill="rgb(0, 0, 0)" fill-opacity="1.000000" />
<path d="M 234.861816 20.824707 Q 234.861816 21.490723 235.106201 21.829102 Q 235.350586 22.167480 235.828613 22.167480 L 236.983398 22.167480 L 236.983398 23.000000 L 235.731934 23.000000 Q 234.845703 23.000000 234.359619 22.433350 Q 233.873535 21.866699 233.873535 20.824707 L 233.873535 15.383789 L 232.289062 15.383789 L 232.289062 14.610352 L 234.861816 14.610352 Z " fill="rgb(0, 0, 0)" fill-opacity="1.000000" />
<path d="M 241.308594 17.677246 Q 240.556641 17.677246 240.169922 18.262695 Q 239.783203 18.848145 239.783203 19.997559 Q 239.783203 21.141602 240.169922 21.729736 Q 240.556641 22.317871 241.308594 22.317871 Q 242.065918 22.317871 242.452637 21.729736 Q 242.839355 21.141602 242.839355 19.997559 Q 242.839355 18.848145 242.452637 18.262695 Q 242.065918 17.677246 241.308594 17.677246 Z M 241.308594 16.839355 Q 242.560059 16.839355 243.223389 17.650391 Q 243.886719 18.461426 243.886719 19.997559 Q 243.886719 21.539062 243.226074 22.347412 Q 242.565430 23.155762 241.308594 23.155762 Q 240.057129 23.155762 239.396484 22.347412 Q 238.735840 21.539062 238.735840 19.997559 Q 238.735840 18.461426 239.396484 17.650391 Q 240.057129 16.839355 241.308594 16.839355 Z " fill="rgb(0, 0, 0)" fill-opacity="1.000000" />
<path d="M 250.698730 22.693848 Q 250.301270 22.924805 249.879639 23.040283 Q 249.458008 23.155762 249.017578 23.155762 Q 247.621094 23.155762 246.834229 22.317871 Q 246.047363 21.479980 246.047363 19.997559 Q 246.047363 18.515137 246.834229 17.677246 Q 247.621094 16.839355 249.017578 16.839355 Q 249.452637 16.839355 249.866211 16.952148 Q 250.279785 17.064941 250.698730 17.301270 L 250.698730 18.337891 Q 250.306641 17.988770 249.911865 17.833008 Q 249.517090 17.677246 249.017578 17.677246 Q 248.088379 17.677246 247.588867 18.278809 Q 247.089355 18.880371 247.089355 19.997559 Q 247.089355 21.109375 247.591553 21.713623 Q 248.093750 22.317871 249.017578 22.317871 Q 249.533203 22.317871 249.941406 22.159424 Q 250.349609 22.000977 250.698730 21.667969 Z " fill="rgb(0, 0, 0)" fill-opacity="1.000000" />
<path d="M 253.267578 14.642578 L 254.288086 14.642578 L 254.288086 19.481934 L 256.882324 16.984375 L 258.085449 16.984375 L 255.716797 19.250977 L 258.456055 23.000000 L 257.247559 23.000000 L 255.023926 19.895508 L 254.288086 20.588379 L 254.288086 23.000000 L 253.267578 23.000000 Z " fill="rgb(0, 0, 0)" fill-opacity="1.000000" />
<path d="M 267.267578 14.642578 L 268.288086 14.642578 L 268.288086 19.481934 L 270.882324 16.984375 L 272.085449 16.984375 L 269.716797 19.250977 L 272.456055 23.000000 L 271.247559 23.000000 L 269.023926 19.895508 L 268.288086 20.588379 L 268.288086 23.000000 L 267.267578 23.000000 Z " fill="rgb(0, 0, 0)" fill-opacity="1.000000" />
<path d="M 276.867188 16.672852 L 276.867188 19.052246 L 279.257324 19.052246 L 279.257324 19.959961 L 276.867188 19.959961 L 276.867188 22.339355 L 275.964844 22.339355 L 275.964844 19.959961 L 273.580078 19.959961 L 273.580078 19.052246 L 275.964844 19.052246 L 275.964844 16.672852 Z " fill="rgb(0, 0, 0)" fill-opacity="1.000000" />
<path d="M 282.003418 22.086914 L 285.687988 22.086914 L 285.687988 23.000000 L 280.816406 23.000000 L 280.816406 22.086914 Q 281.820801 21.028809 282.572754 20.217773 Q 283.324707 19.406738 283.609375 19.073730 Q 284.146484 18.418457 284.334473 18.012939 Q 284.522461 17.607422 284.522461 17.183105 Q 284.522461 16.511719 284.127686 16.130371 Q 283.732910 15.749023 283.045410 15.749023 Q 282.556641 15.749023 282.019531 15.926270 Q 281.482422 16.103516 280.880859 16.463379 L 280.880859 15.367676 Q 281.434082 15.104492 281.968506 14.970215 Q 282.502930 14.835938 283.023926 14.835938 Q 284.200195 14.835938 284.917236 15.461670 Q 285.634277 16.087402 285.634277 17.102539 Q 285.634277 17.618164 285.395264 18.133789 Q 285.156250 18.649414 284.619141 19.272461 Q 284.318359 19.621582 283.746338 20.239258 Q 283.174316 20.856934 282.003418 22.086914 Z " fill="rgb(0, 0, 0)" fill-opacity="1.000000" />
<path d="M 310.878906 26.319336 L 310.878906 12.300781 L 311.738281 12.300781 L 311.738281 26.319336 Z " fill="rgb(0, 0, 0)" fill-opacity="1.000000" />
<path d="M 58.878906 13.319336 L 58.878906 6.412109 L 62.729980 6.412109 L 62.729980 7.335938 L 59.738281 7.335938 L 59.738281 13.319336 Z " fill="rgb(0, 0, 0)" fill-opacity="1.000000" />
<path d="M 62.892578 7.335938 L 62.892578 6.412109 L 69.729980 6.412109 L 69.729980 7.335938 Z " fill="rgb(0, 0, 0)" fill-opacity="1.000000" />
<path d="M 69.892578 7.335938 L 69.892578 6.412109 L 76.729980 6.412109 L 76.729980 7.335938 Z " fill="rgb(0, 0, 0)" fill-opacity="1.000000" />
<path d="M 76.892578 7.335938 L 76.892578 6.412109 L 83.729980 6.412109 L 83.729980 7.335938 Z " fill="rgb(0, 0, 0)" fill-opacity="1.000000" />
<path d="M 83.892578 7.335938 L 83.892578 6.412109 L 90.729980 6.412109 L 90.729980 7.335938 Z " fill="rgb(0, 0, 0)" fill-opacity="1.000000" />
<path d="M 90.892578 7.335938 L 90.892578 6.412109 L 97.729980 6.412109 L 97.729980 7.335938 Z " fill="rgb(0, 0, 0)" fill-opacity="1.000000" />
<path d="M 97.892578 7.335938 L 97.892578 6.412109 L 104.729980 6.412109 L 104.729980 7.335938 Z " fill="rgb(0, 0, 0)" fill-opacity="1.000000" />
<path d="M 104.892578 7.335938 L 104.892578 6.412109 L 111.729980 6.412109 L 111.729980 7.335938 Z " fill="rgb(0, 0, 0)" fill-opacity="1.000000" />
<path d="M 111.892578 7.335938 L 111.892578 6.412109 L 118.729980 6.412109 L 118.729980 7.335938 Z " fill="rgb(0, 0, 0)" fill-opacity="1.000000" />
<path d="M 118.892578 7.335938 L 118.892578 6.412109 L 125.729980 6.412109 L 125.729980 7.335938 Z " fill="rgb(0, 0, 0)" fill-opacity="1.000000" />
<path d="M 125.892578 7.335938 L 125.892578 6.412109 L 132.729980 6.412109 L 132.729980 7.335938 Z " fill="rgb(0, 0, 0)" fill-opacity="1.000000" />
<path d="M 132.892578 7.335938 L 132.892578 6.412109 L 139.729980 6.412109 L 139.729980 7.335938 Z " fill="rgb(0, 0, 0)" fill-opacity="1.000000" />
<path d="M 139.892578 7.335938 L 139.892578 6.412109 L 146.729980 6.412109 L 146.729980 7.335938 Z " fill="rgb(0, 0, 0)" fill-opacity="1.000000" />
<path d="M 146.892578 7.335938 L 146.892578 6.412109 L 153.729980 6.412109 L 153.729980 7.335938 Z " fill="rgb(0, 0, 0)" fill-opacity="1.000000" />
<path d="M 153.892578 7.335938 L 153.892578 6.412109 L 160.729980 6.412109 L 160.729980 7.335938 Z " fill="rgb(0, 0, 0)" fill-opacity="1.000000" />
<path d="M 163.878906 13.319336 L 163.878906 7.335938 L 160.892578 7.335938 L 160.892578 6.412109 L 164.738281 6.412109 L 164.738281 13.319336 Z " fill="rgb(0, 0, 0)" fill-opacity="1.000000" />
<path d="M 205.878906 13.319336 L 205.878906 6.412109 L 209.729980 6.412109 L 209.729980 7.335938 L 206.738281 7.335938 L 206.738281 13.319336 Z " fill="rgb(0, 0, 0)" fill-opacity="1.000000" />
<path d="M 209.892578 7.335938 L 209.892578 6.412109 L 216.729980 6.412109 L 216.729980 7.335938 Z " fill="rgb(0, 0, 0)" fill-opacity="1.000000" />
<path d="M 216.892578 7.335938 L 216.892578 6.412109 L 223.729980 6.412109 L 223.729980 7.335938 Z " fill="rgb(0, 0, 0)" fill-opacity="1.000000" />
<path d="M 223.892578 7.335938 L 223.892578 6.412109 L 230.729980 6.412109 L 230.729980 7.335938 Z " fill="rgb(0, 0, 0)" fill-opacity="1.000000" />
<path d="M 230.892578 7.335938 L 230.892578 6.412109 L 237.729980 6.412109 L 237.729980 7.335938 Z " fill="rgb(0, 0, 0)" fill-opacity="1.000000" />
<path d="M 237.892578 7.335938 L 237.892578 6.412109 L 244.729980 6.412109 L 244.729980 7.335938 Z " fill="rgb(0, 0, 0)" fill-opacity="1.000000" />
<path d="M 244.892578 7.335938 L 244.892578 6.412109 L 251.729980 6.412109 L 251.729980 7.335938 Z " fill="rgb(0, 0, 0)" fill-opacity="1.000000" />
<path d="M 251.892578 7.335938 L 251.892578 6.412109 L 258.729980 6.412109 L 258.729980 7.335938 Z " fill="rgb(0, 0, 0)" fill-opacity="1.000000" />
<path d="M 258.892578 7.335938 L 258.892578 6.412109 L 265.729980 6.412109 L 265.729980 7.335938 Z " fill="rgb(0, 0, 0)" fill-opacity="1.000000" />
<path d="M 265.892578 7.335938 L 265.892578 6.412109 L 272.729980 6.412109 L 272.729980 7.335938 Z " fill="rgb(0, 0, 0)" fill-opacity="1.000000" />
<path d="M 272.892578 7.335938 L 272.892578 6.412109 L 279.729980 6.412109 L 279.729980 7.335938 Z " fill="rgb(0, 0, 0)" fill-opacity="1.000000" />
<path d="M 279.892578 7.335938 L 279.892578 6.412109 L 286.729980 6.412109 L 286.729980 7.335938 Z " fill="rgb(0, 0, 0)" fill-opacity="1.000000" />
<path d="M 286.892578 7.335938 L 286.892578 6.412109 L 293.729980 6.412109 L 293.729980 7.335938 Z " fill="rgb(0, 0, 0)" fill-opacity="1.000000" />
<path d="M 293.892578 7.335938 L 293.892578 6.412109 L 300.729980 6.412109 L 300.729980 7.335938 Z " fill="rgb(0, 0, 0)" fill-opacity="1.000000" />
<path d="M 300.892578 7.335938 L 300.892578 6.412109 L 307.729980 6.412109 L 307.729980 7.335938 Z " fill="rgb(0, 0, 0)" fill-opacity="1.000000" />
<path d="M 310.878906 13.319336 L 310.878906 7.335938 L 307.892578 7.335938 L 307.892578 6.412109 L 311.738281 6.412109 L 311.738281 13.319336 Z " fill="rgb(0, 0, 0)" fill-opacity="1.000000" />
</svg>