<svg xmlns="http://www.w3.org/2000/svg" version="1.1" width="456" height="144">
<path d="M 0.789551 19.922363 L 0.789551 14.980957 L 1.879883 14.980957 L 1.879883 20.416504 Q 1.879883 21.001953 1.912109 21.251709 Q 1.944336 21.501465 2.024902 21.635742 Q 2.196777 21.952637 2.521729 22.113770 Q 2.846680 22.274902 3.308594 22.274902 Q 3.775879 22.274902 4.098145 22.113770 Q 4.420410 21.952637 4.597656 21.635742 Q 4.678223 21.501465 4.710449 21.254395 Q 4.742676 21.007324 4.742676 20.427246 L 4.742676 14.980957 L 5.827637 14.980957 L 5.827637 19.922363 Q 5.827637 21.152344 5.674561 21.670654 Q 5.521484 22.188965 5.145508 22.527344 Q 4.791016 22.844238 4.334473 23.000000 Q 3.877930 23.155762 3.308594 23.155762 Q 2.744629 23.155762 2.288086 23.000000 Q 1.831543 22.844238 1.471680 22.527344 Q 1.101074 22.194336 0.945312 21.665283 Q 0.789551 21.136230 0.789551 19.922363 Z " fill="rgb(0, 0, 0)" fill-opacity="1.000000" />
<path d="M 0.102051 41.007812 L 1.584473 41.007812 L 4.721191 47.587402 L 4.721191 41.007812 L 5.875977 41.007812 L 5.875977 49.000000 L 4.393555 49.000000 L 1.256836 42.420410 L 1.256836 49.000000 L 0.102051 49.000000 Z " fill="rgb(0, 0, 0)" fill-opacity="1.000000" />
<path d="M 1.981934 83.955566 L 1.981934 87.108398 L 3.265625 87.108398 Q 4.210938 87.108398 4.613770 86.778076 Q 5.016602 86.447754 5.016602 85.690430 Q 5.016602 84.691406 4.592285 84.323486 Q 4.167969 83.955566 3.265625 83.955566 Z M 1.981934 80.872559 L 1.981934 83.074707 L 3.244141 83.074707 Q 4.028320 83.074707 4.380127 82.773926 Q 4.731934 82.473145 4.731934 82.016602 Q 4.731934 81.409668 4.385498 81.141113 Q 4.039062 80.872559 3.244141 80.872559 Z M 0.891602 79.980957 L 3.265625 79.980957 Q 4.495605 79.980957 5.161621 80.512695 Q 5.827637 81.044434 5.827637 82.016602 Q 5.827637 82.537598 5.475830 82.961914 Q 5.124023 83.386230 4.420410 83.493652 Q 5.209961 83.611816 5.658447 84.167725 Q 6.106934 84.723633 6.106934 85.797852 Q 6.106934 86.888184 5.392578 87.444092 Q 4.678223 88.000000 3.265625 88.000000 L 0.891602 88.000000 Z " fill="rgb(0, 0, 0)" fill-opacity="1.000000" />
<path d="M 5.763184 126.715332 Q 5.349609 126.935547 4.914551 127.045654 Q 4.479492 127.155762 3.990723 127.155762 Q 2.449219 127.155762 1.597900 126.065430 Q 0.746582 124.975098 0.746582 122.998535 Q 0.746582 121.032715 1.603271 119.934326 Q 2.459961 118.835938 3.990723 118.835938 Q 4.479492 118.835938 4.914551 118.946045 Q 5.349609 119.056152 5.763184 119.276367 L 5.763184 120.388184 Q 5.365723 120.060547 4.909180 119.888672 Q 4.452637 119.716797 3.990723 119.716797 Q 2.932617 119.716797 2.406250 120.533203 Q 1.879883 121.349609 1.879883 122.998535 Q 1.879883 124.642090 2.406250 125.458496 Q 2.932617 126.274902 3.990723 126.274902 Q 4.463379 126.274902 4.917236 126.103027 Q 5.371094 125.931152 5.763184 125.603516 Z " fill="rgb(0, 0, 0)" fill-opacity="1.000000" />
<path d="M 310.878906 137.335938 L 310.878906 129.300781 L 311.738281 129.300781 L 311.738281 136.412109 L 314.729980 136.412109 L 314.729980 137.335938 Z " fill="rgb(0, 0, 0)" fill-opacity="1.000000" />
<path d="M 314.892578 137.335938 L 314.892578 136.412109 L 321.729980 136.412109 L 321.729980 137.335938 Z " fill="rgb(0, 0, 0)" fill-opacity="1.000000" />
<path d="M 321.892578 137.335938 L 321.892578 136.412109 L 328.729980 136.412109 L 328.729980 137.335938 Z " fill="rgb(0, 0, 0)" fill-opacity="1.000000" />
<path d="M 328.892578 137.335938 L 328.892578 136.412109 L 335.729980 136.412109 L 335.729980 137.335938 Z " fill="rgb(0, 0, 0)" fill-opacity="1.000000" />
<path d="M 335.892578 137.335938 L 335.892578 136.412109 L 342.729980 136.412109 L 342.729980 137.335938 Z " fill="rgb(0, 0, 0)" fill-opacity="1.000000" />
<path d="M 342.892578 137.335938 L 342.892578 136.412109 L 349.729980 136.412109 L 349.729980 137.335938 Z " fill="rgb(0, 0, 0)" fill-opacity="1.000000" />
<path d="M 349.892578 137.335938 L 349.892578 136.412109 L 356.729980 136.412109 L 356.729980 137.335938 Z " fill="rgb(0, 0, 0)" fill-opacity="1.000000" />
<path d="M 356.892578 137.335938 L 356.892578 136.412109 L 363.729980 136.412109 L 363.729980 137.335938 Z " fill="rgb(0, 0, 0)" fill-opacity="1.000000" />
<path d="M 363.892578 137.335938 L 363.892578 136.412109 L 370.729980 136.412109 L 370.729980 137.335938 Z " fill="rgb(0, 0, 0)" fill-opacity="1.000000" />
<path d="M 370.892578 137.335938 L 370.892578 136.412109 L 377.729980 136.412109 L 377.729980 137.335938 Z " fill="rgb(0, 0, 0)" fill-opacity="1.000000" />
<path d="M 377.892578 137.335938 L 377.892578 136.412109 L 384.729980 136.412109 L 384.729980 137.335938 Z " fill="rgb(0, 0, 0)" fill-opacity="1.000000" />
<path d="M 384.892578 137.335938 L 384.892578 136.412109 L 391.729980 136.412109 L 391.729980 137.335938 Z " fill="rgb(0, 0, 0)" fill-opacity="1.000000" />
<path d="M 391.892578 137.335938 L 391.892578 136.412109 L 394.878906 136.412109 L 394.878906 129.300781 L 395.738281 129.300781 L 395.738281 137.335938 Z " fill="rgb(0, 0, 0)" fill-opacity="1.000000" />
<path d="M 10.861816 124.824707 Q 10.861816 125.490723 11.106201 125.829102 Q 11.350586 126.167480 11.828613 126.167480 L 12.983398 126.167480 L 12.983398 127.000000 L 11.731934 127.000000 Q 10.845703 127.000000 10.359619 126.433350 Q 9.873535 125.866699 9.873535 124.824707 L 9.873535 119.383789 L 8.289062 119.383789 L 8.289062 118.610352 L 10.861816 118.610352 Z " fill="rgb(0, 0, 0)" fill-opacity="1.000000" />
<path d="M 17.308594 121.677246 Q 16.556641 121.677246 16.169922 122.262695 Q 15.783203 122.848145 15.783203 123.997559 Q 15.783203 125.141602 16.169922 125.729736 Q 16.556641 126.317871 17.308594 126.317871 Q 18.065918 126.317871 18.452637 125.729736 Q 18.839355 125.141602 18.839355 123.997559 Q 18.839355 122.848145 18.452637 122.262695 Q 18.065918 121.677246 17.308594 121.677246 Z M 17.308594 120.839355 Q 18.560059 120.839355 19.223389 121.650391 Q 19.886719 122.461426 19.886719 123.997559 Q 19.886719 125.539062 19.226074 126.347412 Q 18.565430 127.155762 17.308594 127.155762 Q 16.057129 127.155762 15.396484 126.347412 Q 14.735840 125.539062 14.735840 123.997559 Q 14.735840 122.461426 15.396484 121.650391 Q 16.057129 120.839355 17.308594 120.839355 Z " fill="rgb(0, 0, 0)" fill-opacity="1.000000" />
<path d="M 26.226074 121.193848 L 26.226074 122.160645 Q 25.801758 121.913574 25.372070 121.790039 Q 24.942383 121.666504 24.496582 121.666504 Q 23.825195 121.666504 23.494873 121.884033 Q 23.164551 122.101562 23.164551 122.547363 Q 23.164551 122.950195 23.411621 123.148926 Q 23.658691 123.347656 24.641602 123.535645 L 25.039062 123.610840 Q 25.774902 123.750488 26.153564 124.169434 Q 26.532227 124.588379 26.532227 125.259766 Q 26.532227 126.151367 25.898438 126.653564 Q 25.264648 127.155762 24.136719 127.155762 Q 23.690918 127.155762 23.202148 127.061768 Q 22.713379 126.967773 22.144043 126.779785 L 22.144043 125.759277 Q 22.697266 126.043945 23.202148 126.186279 Q 23.707031 126.328613 24.158203 126.328613 Q 24.813477 126.328613 25.173340 126.062744 Q 25.533203 125.796875 25.533203 125.318848 Q 25.533203 124.631348 24.217285 124.368164 L 24.174316 124.357422 L 23.803711 124.282227 Q 22.949707 124.115723 22.557617 123.720947 Q 22.165527 123.326172 22.165527 122.644043 Q 22.165527 121.779297 22.750977 121.309326 Q 23.336426 120.839355 24.421387 120.839355 Q 24.904785 120.839355 25.350586 120.927979 Q 25.796387 121.016602 26.226074 121.193848 Z " fill="rgb(0, 0, 0)" fill-opacity="1.000000" />
<path d="M 34.015625 123.498047 L 34.015625 123.981445 L 29.734863 123.981445 L 29.734863 124.013672 Q 29.691895 125.243652 30.204834 125.780762 Q 30.717773 126.317871 31.652344 126.317871 Q 32.125000 126.317871 32.640625 126.167480 Q 33.156250 126.017090 33.741699 125.710938 L 33.741699 126.693848 Q 33.177734 126.924805 32.654053 127.040283 Q 32.130371 127.155762 31.641602 127.155762 Q 30.239746 127.155762 29.450195 126.315186 Q 28.660645 125.474609 28.660645 123.997559 Q 28.660645 122.558105 29.434082 121.698730 Q 30.207520 120.839355 31.496582 120.839355 Q 32.645996 120.839355 33.309326 121.618164 Q 33.972656 122.396973 34.015625 123.498047 Z M 33.027344 123.208008 Q 32.962891 122.584961 32.573486 122.131104 Q 32.184082 121.677246 31.453613 121.677246 Q 30.739258 121.677246 30.277344 122.149902 Q 29.815430 122.622559 29.772461 123.213379 Z " fill="rgb(0, 0, 0)" fill-opacity="1.000000" />
<path d="M 39.608398 121.752441 L 39.608398 118.642578 L 40.596680 118.642578 L 40.596680 127.000000 L 39.608398 127.000000 L 39.608398 126.242676 Q 39.361328 126.688477 38.950439 126.922119 Q 38.539551 127.155762 38.002441 127.155762 Q 36.912109 127.155762 36.286377 126.309814 Q 35.660645 125.463867 35.660645 123.976074 Q 35.660645 122.509766 36.289062 121.674561 Q 36.917480 120.839355 38.002441 120.839355 Q 38.544922 120.839355 38.958496 121.072998 Q 39.372070 121.306641 39.608398 121.752441 Z M 36.702637 123.997559 Q 36.702637 125.146973 37.067871 125.732422 Q 37.433105 126.317871 38.147461 126.317871 Q 38.861816 126.317871 39.235107 125.727051 Q 39.608398 125.136230 39.608398 123.997559 Q 39.608398 122.853516 39.235107 122.265381 Q 38.861816 121.677246 38.147461 121.677246 Q 37.433105 121.677246 37.067871 122.262695 Q 36.702637 122.848145 36.702637 123.997559 Z " fill="rgb(0, 0, 0)" fill-opacity="1.000000" />
<path d="M 83.892578 124.335938 L 83.892578 123.412109 L 90.729980 123.412109 L 90.729980 124.335938 Z " fill="rgb(0, 0, 0)" fill-opacity="1.000000" />
<path d="M 90.892578 124.335938 L 90.892578 123.412109 L 97.729980 123.412109 L 97.729980 124.335938 Z " fill="rgb(0, 0, 0)" fill-opacity="1.000000" />
<path d="M 97.892578 124.335938 L 97.892578 123.412109 L 104.729980 123.412109 L 104.729980 124.335938 Z " fill="rgb(0, 0, 0)" fill-opacity="1.000000" />
<path d="M 104.892578 124.335938 L 104.892578 123.412109 L 111.729980 123.412109 L 111.729980 124.335938 Z " fill="rgb(0, 0, 0)" fill-opacity="1.000000" />
<path d="M 111.892578 124.335938 L 111.892578 123.412109 L 118.729980 123.412109 L 118.729980 124.335938 Z " fill="rgb(0, 0, 0)" fill-opacity="1.000000" />
<path d="M 118.892578 124.335938 L 118.892578 123.412109 L 125.729980 123.412109 L 125.729980 124.335938 Z " fill="rgb(0, 0, 0)" fill-opacity="1.000000" />
<path d="M 125.892578 124.335938 L 125.892578 123.412109 L 132.729980 123.412109 L 132.729980 124.335938 Z " fill="rgb(0, 0, 0)" fill-opacity="1.000000" />
<path d="M 132.892578 124.335938 L 132.892578 123.412109 L 139.729980 123.412109 L 139.729980 124.335938 Z " fill="rgb(0, 0, 0)" fill-opacity="1.000000" />
<path d="M 139.892578 124.335938 L 139.892578 123.412109 L 146.729980 123.412109 L 146.729980 124.335938 Z " fill="rgb(0, 0, 0)" fill-opacity="1.000000" />
<path d="M 146.892578 124.335938 L 146.892578 123.412109 L 153.729980 123.412109 L 153.729980 124.335938 Z " fill="rgb(0, 0, 0)" fill-opacity="1.000000" />
<path d="M 153.892578 124.335938 L 153.892578 123.412109 L 160.729980 123.412109 L 160.729980 124.335938 Z " fill="rgb(0, 0, 0)" fill-opacity="1.000000" />
<path d="M 160.892578 124.335938 L 160.892578 123.412109 L 167.729980 123.412109 L 167.729980 124.335938 Z " fill="rgb(0, 0, 0)" fill-opacity="1.000000" />
<path d="M 167.892578 124.335938 L 167.892578 123.412109 L 174.729980 123.412109 L 174.729980 124.335938 Z " fill="rgb(0, 0, 0)" fill-opacity="1.000000" />
<path d="M 174.892578 124.335938 L 174.892578 123.412109 L 181.729980 123.412109 L 181.729980 124.335938 Z " fill="rgb(0, 0, 0)" fill-opacity="1.000000" />
<path d="M 181.892578 124.335938 L 181.892578 123.412109 L 188.729980 123.412109 L 188.729980 124.335938 Z " fill="rgb(0, 0, 0)" fill-opacity="1.000000" />
<path d="M 188.892578 124.335938 L 188.892578 123.412109 L 195.729980 123.412109 L 195.729980 124.335938 Z " fill="rgb(0, 0, 0)" fill-opacity="1.000000" />
<path d="M 195.892578 124.335938 L 195.892578 123.412109 L 202.729980 123.412109 L 202.729980 124.335938 Z " fill="rgb(0, 0, 0)" fill-opacity="1.000000" />
<path d="M 202.892578 124.335938 L 202.892578 123.412109 L 209.729980 123.412109 L 209.729980 124.335938 Z " fill="rgb(0, 0, 0)" fill-opacity="1.000000" />
<path d="M 209.892578 124.335938 L 209.892578 123.412109 L 216.729980 123.412109 L 216.729980 124.335938 Z " fill="rgb(0, 0, 0)" fill-opacity="1.000000" />
<path d="M 216.892578 124.335938 L 216.892578 123.412109 L 223.729980 123.412109 L 223.729980 124.335938 Z " fill="rgb(0, 0, 0)" fill-opacity="1.000000" />
<path d="M 223.892578 124.335938 L 223.892578 123.412109 L 230.729980 123.412109 L 230.729980 124.335938 Z " fill="rgb(0, 0, 0)" fill-opacity="1.000000" />
<path d="M 230.892578 124.335938 L 230.892578 123.412109 L 237.729980 123.412109 L 237.729980 124.335938 Z " fill="rgb(0, 0, 0)" fill-opacity="1.000000" />
<path d="M 238.032227 127.418945 L 238.032227 120.866211 L 244.590332 124.142578 Z " fill="rgb(0, 0, 0)" fill-opacity="1.000000" />
<path d="M 310.878906 130.319336 L 310.878906 116.300781 L 311.738281 116.300781 L 311.738281 130.319336 Z " fill="rgb(0, 0, 0)" fill-opacity="1.000000" />
<path d="M 351.450195 126.092285 L 353.136719 126.092285 L 353.136719 120.033691 L 351.117188 121.005859 L 351.117188 119.963867 L 353.125977 119.007812 L 354.210938 119.007812 L 354.210938 126.092285 L 355.875977 126.092285 L 355.875977 127.000000 L 351.450195 127.000000 Z " fill="rgb(0, 0, 0)" fill-opacity="1.000000" />
<path d="M 394.878906 130.319336 L 394.878906 116.300781 L 395.738281 116.300781 L 395.738281 130.319336 Z " fill="rgb(0, 0, 0)" fill-opacity="1.000000" />
<path d="M 107.878906 98.335938 L 107.878906 90.300781 L 108.738281 90.300781 L 108.738281 97.412109 L 111.729980 97.412109 L 111.729980 98.335938 Z " fill="rgb(0, 0, 0)" fill-opacity="1.000000" />
<path d="M 296.878906 111.335938 L 296.878906 103.300781 L 297.738281 103.300781 L 297.738281 110.412109 L 300.729980 110.412109 L 300.729980 111.335938 Z " fill="rgb(0, 0, 0)" fill-opacity="1.000000" />
<path d="M 300.892578 111.335938 L 300.892578 110.412109 L 307.729980 110.412109 L 307.729980 111.335938 Z " fill="rgb(0, 0, 0)" fill-opacity="1.000000" />
<path d="M 310.878906 117.319336 L 310.878906 111.335938 L 307.892578 111.335938 L 307.892578 110.412109 L 314.729980 110.412109 L 314.729980 111.335938 L 311.738281 111.335938 L 311.738281 117.319336 Z " fill="rgb(0, 0, 0)" fill-opacity="1.000000" />
<path d="M 314.892578 111.335938 L 314.892578 110.412109 L 321.729980 110.412109 L 321.729980 111.335938 Z " fill="rgb(0, 0, 0)" fill-opacity="1.000000" />
<path d="M 321.892578 111.335938 L 321.892578 110.412109 L 328.729980 110.412109 L 328.729980 111.335938 Z " fill="rgb(0, 0, 0)" fill-opacity="1.000000" />
<path d="M 328.892578 111.335938 L 328.892578 110.412109 L 335.729980 110.412109 L 335.729980 111.335938 Z " fill="rgb(0, 0, 0)" fill-opacity="1.000000" />
<path d="M 335.892578 111.335938 L 335.892578 110.412109 L 342.729980 110.412109 L 342.729980 111.335938 Z " fill="rgb(0, 0, 0)" fill-opacity="1.000000" />
<path d="M 342.892578 111.335938 L 342.892578 110.412109 L 349.729980 110.412109 L 349.729980 111.335938 Z " fill="rgb(0, 0, 0)" fill-opacity="1.000000" />
<path d="M 349.892578 111.335938 L 349.892578 110.412109 L 356.729980 110.412109 L 356.729980 111.335938 Z " fill="rgb(0, 0, 0)" fill-opacity="1.000000" />
<path d="M 356.892578 111.335938 L 356.892578 110.412109 L 363.729980 110.412109 L 363.729980 111.335938 Z " fill="rgb(0, 0, 0)" fill-opacity="1.000000" />
<path d="M 363.892578 111.335938 L 363.892578 110.412109 L 370.729980 110.412109 L 370.729980 111.335938 Z " fill="rgb(0, 0, 0)" fill-opacity="1.000000" />
<path d="M 370.892578 111.335938 L 370.892578 110.412109 L 377.729980 110.412109 L 377.729980 111.335938 Z " fill="rgb(0, 0, 0)" fill-opacity="1.000000" />
<path d="M 377.892578 111.335938 L 377.892578 110.412109 L 384.729980 110.412109 L 384.729980 111.335938 Z " fill="rgb(0, 0, 0)" fill-opacity="1.000000" />
<path d="M 384.892578 111.335938 L 384.892578 110.412109 L 391.729980 110.412109 L 391.729980 111.335938 Z " fill="rgb(0, 0, 0)" fill-opacity="1.000000" />
<path d="M 394.878906 117.319336 L 394.878906 111.335938 L 391.892578 111.335938 L 391.892578 110.412109 L 398.729980 110.412109 L 398.729980 111.335938 L 395.738281 111.335938 L 395.738281 117.319336 Z " fill="rgb(0, 0, 0)" fill-opacity="1.000000" />
<path d="M 398.892578 111.335938 L 398.892578 110.412109 L 405.729980 110.412109 L 405.729980 111.335938 Z " fill="rgb(0, 0, 0)" fill-opacity="1.000000" />
<path d="M 405.892578 111.335938 L 405.892578 110.412109 L 408.878906 110.412109 L 408.878906 103.300781 L 409.738281 103.300781 L 409.738281 111.335938 Z " fill="rgb(0, 0, 0)" fill-opacity="1.000000" />
<path d="M 111.892578 98.335938 L 111.892578 97.412109 L 118.729980 97.412109 L 118.729980 98.335938 Z " fill="rgb(0, 0, 0)" fill-opacity="1.000000" />
<path d="M 118.892578 98.335938 L 118.892578 97.412109 L 125.729980 97.412109 L 125.729980 98.335938 Z " fill="rgb(0, 0, 0)" fill-opacity="1.000000" />
<path d="M 126.032227 101.418945 L 126.032227 94.866211 L 132.590332 98.142578 Z " fill="rgb(0, 0, 0)" fill-opacity="1.000000" />
<path d="M 145.763184 100.715332 Q 145.349609 100.935547 144.914551 101.045654 Q 144.479492 101.155762 143.990723 101.155762 Q 142.449219 101.155762 141.597900 100.065430 Q 140.746582 98.975098 140.746582 96.998535 Q 140.746582 95.032715 141.603271 93.934326 Q 142.459961 92.835938 143.990723 92.835938 Q 144.479492 92.835938 144.914551 92.946045 Q 145.349609 93.056152 145.763184 93.276367 L 145.763184 94.388184 Q 145.365723 94.060547 144.909180 93.888672 Q 144.452637 93.716797 143.990723 93.716797 Q 142.932617 93.716797 142.406250 94.533203 Q 141.879883 95.349609 141.879883 96.998535 Q 141.879883 98.642090 142.406250 99.458496 Q 142.932617 100.274902 143.990723 100.274902 Q 144.463379 100.274902 144.917236 100.103027 Q 145.371094 99.931152 145.763184 99.603516 Z " fill="rgb(0, 0, 0)" fill-opacity="1.000000" />
<path d="M 150.308594 95.677246 Q 149.556641 95.677246 149.169922 96.262695 Q 148.783203 96.848145 148.783203 97.997559 Q 148.783203 99.141602 149.169922 99.729736 Q 149.556641 100.317871 150.308594 100.317871 Q 151.065918 100.317871 151.452637 99.729736 Q 151.839355 99.141602 151.839355 97.997559 Q 151.839355 96.848145 151.452637 96.262695 Q 151.065918 95.677246 150.308594 95.677246 Z M 150.308594 94.839355 Q 151.560059 94.839355 152.223389 95.650391 Q 152.886719 96.461426 152.886719 97.997559 Q 152.886719 99.539062 152.226074 100.347412 Q 151.565430 101.155762 150.308594 101.155762 Q 149.057129 101.155762 148.396484 100.347412 Q 147.735840 99.539062 147.735840 97.997559 Q 147.735840 96.461426 148.396484 95.650391 Q 149.057129 94.839355 150.308594 94.839355 Z " fill="rgb(0, 0, 0)" fill-opacity="1.000000" />
<path d="M 157.630859 95.596680 Q 157.813477 95.209961 158.095459 95.024658 Q 158.377441 94.839355 158.774902 94.839355 Q 159.500000 94.839355 159.798096 95.400635 Q 160.096191 95.961914 160.096191 97.514160 L 160.096191 101.000000 L 159.193848 101.000000 L 159.193848 97.557129 Q 159.193848 96.284180 159.051514 95.975342 Q 158.909180 95.666504 158.533203 95.666504 Q 158.103516 95.666504 157.945068 95.996826 Q 157.786621 96.327148 157.786621 97.557129 L 157.786621 101.000000 L 156.884277 101.000000 L 156.884277 97.557129 Q 156.884277 96.268066 156.731201 95.967285 Q 156.578125 95.666504 156.180664 95.666504 Q 155.788574 95.666504 155.635498 95.996826 Q 155.482422 96.327148 155.482422 97.557129 L 155.482422 101.000000 L 154.585449 101.000000 L 154.585449 94.984375 L 155.482422 94.984375 L 155.482422 95.500000 Q 155.659668 95.177734 155.925537 95.008545 Q 156.191406 94.839355 156.529785 94.839355 Q 156.937988 94.839355 157.209229 95.027344 Q 157.480469 95.215332 157.630859 95.596680 Z " fill="rgb(0, 0, 0)" fill-opacity="1.000000" />
<path d="M 164.630859 95.596680 Q 164.813477 95.209961 165.095459 95.024658 Q 165.377441 94.839355 165.774902 94.839355 Q 166.500000 94.839355 166.798096 95.400635 Q 167.096191 95.961914 167.096191 97.514160 L 167.096191 101.000000 L 166.193848 101.000000 L 166.193848 97.557129 Q 166.193848 96.284180 166.051514 95.975342 Q 165.909180 95.666504 165.533203 95.666504 Q 165.103516 95.666504 164.945068 95.996826 Q 164.786621 96.327148 164.786621 97.557129 L 164.786621 101.000000 L 163.884277 101.000000 L 163.884277 97.557129 Q 163.884277 96.268066 163.731201 95.967285 Q 163.578125 95.666504 163.180664 95.666504 Q 162.788574 95.666504 162.635498 95.996826 Q 162.482422 96.327148 162.482422 97.557129 L 162.482422 101.000000 L 161.585449 101.000000 L 161.585449 94.984375 L 162.482422 94.984375 L 162.482422 95.500000 Q 162.659668 95.177734 162.925537 95.008545 Q 163.191406 94.839355 163.529785 94.839355 Q 163.937988 94.839355 164.209229 95.027344 Q 164.480469 95.215332 164.630859 95.596680 Z " fill="rgb(0, 0, 0)" fill-opacity="1.000000" />
<path d="M 169.697266 95.005859 L 172.227051 95.005859 L 172.227051 100.231934 L 174.187500 100.231934 L 174.187500 101.000000 L 169.278320 101.000000 L 169.278320 100.231934 L 171.238770 100.231934 L 171.238770 95.773926 L 169.697266 95.773926 Z M 171.238770 92.669434 L 172.227051 92.669434 L 172.227051 93.915527 L 171.238770 93.915527 Z " fill="rgb(0, 0, 0)" fill-opacity="1.000000" />
<path d="M 178.297852 93.276367 L 178.297852 94.984375 L 180.542969 94.984375 L 180.542969 95.752441 L 178.297852 95.752441 L 178.297852 99.018066 Q 178.297852 99.684082 178.550293 99.947266 Q 178.802734 100.210449 179.431152 100.210449 L 180.542969 100.210449 L 180.542969 101.000000 L 179.334473 101.000000 Q 178.222656 101.000000 177.766113 100.554199 Q 177.309570 100.108398 177.309570 99.018066 L 177.309570 95.752441 L 175.703613 95.752441 L 175.703613 94.984375 L 177.309570 94.984375 L 177.309570 93.276367 Z " fill="rgb(0, 0, 0)" fill-opacity="1.000000" />
<path d="M 195.892578 98.335938 L 195.892578 97.412109 L 202.729980 97.412109 L 202.729980 98.335938 Z " fill="rgb(0, 0, 0)" fill-opacity="1.000000" />
<path d="M 202.892578 98.335938 L 202.892578 97.412109 L 209.729980 97.412109 L 209.729980 98.335938 Z " fill="rgb(0, 0, 0)" fill-opacity="1.000000" />
<path d="M 209.892578 98.335938 L 209.892578 97.412109 L 216.729980 97.412109 L 216.729980 98.335938 Z " fill="rgb(0, 0, 0)" fill-opacity="1.000000" />
<path d="M 216.892578 98.335938 L 216.892578 97.412109 L 223.729980 97.412109 L 223.729980 98.335938 Z " fill="rgb(0, 0, 0)" fill-opacity="1.000000" />
<path d="M 223.892578 98.335938 L 223.892578 97.412109 L 230.729980 97.412109 L 230.729980 98.335938 Z " fill="rgb(0, 0, 0)" fill-opacity="1.000000" />
<path d="M 230.892578 98.335938 L 230.892578 97.412109 L 237.729980 97.412109 L 237.729980 98.335938 Z " fill="rgb(0, 0, 0)" fill-opacity="1.000000" />
<path d="M 238.032227 101.418945 L 238.032227 94.866211 L 244.590332 98.142578 Z " fill="rgb(0, 0, 0)" fill-opacity="1.000000" />
<path d="M 296.878906 104.319336 L 296.878906 90.300781 L 297.738281 90.300781 L 297.738281 104.319336 Z " fill="rgb(0, 0, 0)" fill-opacity="1.000000" />
<path d="M 352.003418 100.086914 L 355.687988 100.086914 L 355.687988 101.000000 L 350.816406 101.000000 L 350.816406 100.086914 Q 351.820801 99.028809 352.572754 98.217773 Q 353.324707 97.406738 353.609375 97.073730 Q 354.146484 96.418457 354.334473 96.012939 Q 354.522461 95.607422 354.522461 95.183105 Q 354.522461 94.511719 354.127686 94.130371 Q 353.732910 93.749023 353.045410 93.749023 Q 352.556641 93.749023 352.019531 93.926270 Q 351.482422 94.103516 350.880859 94.463379 L 350.880859 93.367676 Q 351.434082 93.104492 351.968506 92.970215 Q 352.502930 92.835938 353.023926 92.835938 Q 354.200195 92.835938 354.917236 93.461670 Q 355.634277 94.087402 355.634277 95.102539 Q 355.634277 95.618164 355.395264 96.133789 Q 355.156250 96.649414 354.619141 97.272461 Q 354.318359 97.621582 353.746338 98.239258 Q 353.174316 98.856934 352.003418 100.086914 Z " fill="rgb(0, 0, 0)" fill-opacity="1.000000" />
<path d="M 408.878906 104.319336 L 408.878906 90.300781 L 409.738281 90.300781 L 409.738281 104.319336 Z " fill="rgb(0, 0, 0)" fill-opacity="1.000000" />
<path d="M 10.770508 84.976074 L 10.442871 84.976074 Q 9.578125 84.976074 9.140381 85.279541 Q 8.702637 85.583008 8.702637 86.184570 Q 8.702637 86.727051 9.030273 87.027832 Q 9.357910 87.328613 9.937988 87.328613 Q 10.754395 87.328613 11.221680 86.761963 Q 11.688965 86.195312 11.694336 85.196289 L 11.694336 84.976074 Z M 12.687988 84.567871 L 12.687988 88.000000 L 11.694336 88.000000 L 11.694336 87.108398 Q 11.377441 87.645508 10.896729 87.900635 Q 10.416016 88.155762 9.728516 88.155762 Q 8.810059 88.155762 8.262207 87.637451 Q 7.714355 87.119141 7.714355 86.249023 Q 7.714355 85.244629 8.388428 84.723633 Q 9.062500 84.202637 10.367676 84.202637 L 11.694336 84.202637 L 11.694336 84.046875 Q 11.688965 83.327148 11.329102 83.002197 Q 10.969238 82.677246 10.179688 82.677246 Q 9.674805 82.677246 9.159180 82.822266 Q 8.643555 82.967285 8.154785 83.246582 L 8.154785 82.258301 Q 8.702637 82.048828 9.204834 81.944092 Q 9.707031 81.839355 10.179688 81.839355 Q 10.926270 81.839355 11.455322 82.059570 Q 11.984375 82.279785 12.312012 82.720215 Q 12.516113 82.988770 12.602051 83.383545 Q 12.687988 83.778320 12.687988 84.567871 Z " fill="rgb(0, 0, 0)" fill-opacity="1.000000" />
<path d="M 17.861816 85.824707 Q 17.861816 86.490723 18.106201 86.829102 Q 18.350586 87.167480 18.828613 87.167480 L 19.983398 87.167480 L 19.983398 88.000000 L 18.731934 88.000000 Q 17.845703 88.000000 17.359619 87.433350 Q 16.873535 86.866699 16.873535 85.824707 L 16.873535 80.383789 L 15.289062 80.383789 L 15.289062 79.610352 L 17.861816 79.610352 Z " fill="rgb(0, 0, 0)" fill-opacity="1.000000" />
<path d="M 24.861816 85.824707 Q 24.861816 86.490723 25.106201 86.829102 Q 25.350586 87.167480 25.828613 87.167480 L 26.983398 87.167480 L 26.983398 88.000000 L 25.731934 88.000000 Q 24.845703 88.000000 24.359619 87.433350 Q 23.873535 86.866699 23.873535 85.824707 L 23.873535 80.383789 L 22.289062 80.383789 L 22.289062 79.610352 L 24.861816 79.610352 Z " fill="rgb(0, 0, 0)" fill-opacity="1.000000" />
<path d="M 31.308594 82.677246 Q 30.556641 82.677246 30.169922 83.262695 Q 29.783203 83.848145 29.783203 84.997559 Q 29.783203 86.141602 30.169922 86.729736 Q 30.556641 87.317871 31.308594 87.317871 Q 32.065918 87.317871 32.452637 86.729736 Q 32.839355 86.141602 32.839355 84.997559 Q 32.839355 83.848145 32.452637 83.262695 Q 32.065918 82.677246 31.308594 82.677246 Z M 31.308594 81.839355 Q 32.560059 81.839355 33.223389 82.650391 Q 33.886719 83.461426 33.886719 84.997559 Q 33.886719 86.539062 33.226074 87.347412 Q 32.565430 88.155762 31.308594 88.155762 Q 30.057129 88.155762 29.396484 87.347412 Q 28.735840 86.539062 28.735840 84.997559 Q 28.735840 83.461426 29.396484 82.650391 Q 30.057129 81.839355 31.308594 81.839355 Z " fill="rgb(0, 0, 0)" fill-opacity="1.000000" />
<path d="M 38.297852 80.276367 L 38.297852 81.984375 L 40.542969 81.984375 L 40.542969 82.752441 L 38.297852 82.752441 L 38.297852 86.018066 Q 38.297852 86.684082 38.550293 86.947266 Q 38.802734 87.210449 39.431152 87.210449 L 40.542969 87.210449 L 40.542969 88.000000 L 39.334473 88.000000 Q 38.222656 88.000000 37.766113 87.554199 Q 37.309570 87.108398 37.309570 86.018066 L 37.309570 82.752441 L 35.703613 82.752441 L 35.703613 81.984375 L 37.309570 81.984375 L 37.309570 80.276367 Z " fill="rgb(0, 0, 0)" fill-opacity="1.000000" />
<path d="M 43.697266 82.005859 L 46.227051 82.005859 L 46.227051 87.231934 L 48.187500 87.231934 L 48.187500 88.000000 L 43.278320 88.000000 L 43.278320 87.231934 L 45.238770 87.231934 L 45.238770 82.773926 L 43.697266 82.773926 Z M 45.238770 79.669434 L 46.227051 79.669434 L 46.227051 80.915527 L 45.238770 80.915527 Z " fill="rgb(0, 0, 0)" fill-opacity="1.000000" />
<path d="M 54.645020 84.272461 L 54.645020 88.000000 L 53.651367 88.000000 L 53.651367 84.272461 Q 53.651367 83.461426 53.366699 83.080078 Q 53.082031 82.698730 52.475098 82.698730 Q 51.782227 82.698730 51.408936 83.190186 Q 51.035645 83.681641 51.035645 84.600098 L 51.035645 88.000000 L 50.047363 88.000000 L 50.047363 81.984375 L 51.035645 81.984375 L 51.035645 82.886719 Q 51.298828 82.371094 51.750000 82.105225 Q 52.201172 81.839355 52.818848 81.839355 Q 53.737305 81.839355 54.191162 82.443604 Q 54.645020 83.047852 54.645020 84.272461 Z " fill="rgb(0, 0, 0)" fill-opacity="1.000000" />
<path d="M 60.608398 84.943848 Q 60.608398 83.832031 60.245850 83.254639 Q 59.883301 82.677246 59.190430 82.677246 Q 58.465332 82.677246 58.083984 83.254639 Q 57.702637 83.832031 57.702637 84.943848 Q 57.702637 86.055664 58.086670 86.638428 Q 58.470703 87.221191 59.201172 87.221191 Q 59.883301 87.221191 60.245850 86.635742 Q 60.608398 86.050293 60.608398 84.943848 Z M 61.596680 87.613281 Q 61.596680 88.966797 60.957520 89.665039 Q 60.318359 90.363281 59.077637 90.363281 Q 58.669434 90.363281 58.223633 90.288086 Q 57.777832 90.212891 57.332031 90.067871 L 57.332031 89.090332 Q 57.858398 89.337402 58.288086 89.455566 Q 58.717773 89.573730 59.077637 89.573730 Q 59.877930 89.573730 60.243164 89.138672 Q 60.608398 88.703613 60.608398 87.758301 L 60.608398 87.715332 L 60.608398 87.043945 Q 60.372070 87.548828 59.963867 87.795898 Q 59.555664 88.042969 58.970215 88.042969 Q 57.917480 88.042969 57.289062 87.199707 Q 56.660645 86.356445 56.660645 84.943848 Q 56.660645 83.525879 57.289062 82.682617 Q 57.917480 81.839355 58.970215 81.839355 Q 59.550293 81.839355 59.953125 82.070312 Q 60.355957 82.301270 60.608398 82.784668 L 60.608398 82.005859 L 61.596680 82.005859 Z " fill="rgb(0, 0, 0)" fill-opacity="1.000000" />
<path d="M 83.892578 85.335938 L 83.892578 84.412109 L 90.729980 84.412109 L 90.729980 85.335938 Z " fill="rgb(0, 0, 0)" fill-opacity="1.000000" />
<path d="M 90.892578 85.335938 L 90.892578 84.412109 L 97.729980 84.412109 L 97.729980 85.335938 Z " fill="rgb(0, 0, 0)" fill-opacity="1.000000" />
<path d="M 97.892578 85.335938 L 97.892578 84.412109 L 104.729980 84.412109 L 104.729980 85.335938 Z " fill="rgb(0, 0, 0)" fill-opacity="1.000000" />
<path d="M 107.878906 91.319336 L 107.878906 85.335938 L 104.892578 85.335938 L 104.892578 84.412109 L 107.878906 84.412109 L 107.878906 77.300781 L 108.738281 77.300781 L 108.738281 91.319336 Z " fill="rgb(0, 0, 0)" fill-opacity="1.000000" />
<path d="M 282.878906 85.335938 L 282.878906 77.300781 L 283.738281 77.300781 L 283.738281 84.412109 L 286.729980 84.412109 L 286.729980 85.335938 Z " fill="rgb(0, 0, 0)" fill-opacity="1.000000" />
<path d="M 286.892578 85.335938 L 286.892578 84.412109 L 293.729980 84.412109 L 293.729980 85.335938 Z " fill="rgb(0, 0, 0)" fill-opacity="1.000000" />
<path d="M 296.878906 91.319336 L 296.878906 85.335938 L 293.892578 85.335938 L 293.892578 84.412109 L 300.729980 84.412109 L 300.729980 85.335938 L 297.738281 85.335938 L 297.738281 91.319336 Z " fill="rgb(0, 0, 0)" fill-opacity="1.000000" />
<path d="M 300.892578 85.335938 L 300.892578 84.412109 L 307.729980 84.412109 L 307.729980 85.335938 Z " fill="rgb(0, 0, 0)" fill-opacity="1.000000" />
<path d="M 307.892578 85.335938 L 307.892578 84.412109 L 314.729980 84.412109 L 314.729980 85.335938 Z " fill="rgb(0, 0, 0)" fill-opacity="1.000000" />
<path d="M 314.892578 85.335938 L 314.892578 84.412109 L 321.729980 84.412109 L 321.729980 85.335938 Z " fill="rgb(0, 0, 0)" fill-opacity="1.000000" />
<path d="M 321.892578 85.335938 L 321.892578 84.412109 L 328.729980 84.412109 L 328.729980 85.335938 Z " fill="rgb(0, 0, 0)" fill-opacity="1.000000" />
<path d="M 328.892578 85.335938 L 328.892578 84.412109 L 335.729980 84.412109 L 335.729980 85.335938 Z " fill="rgb(0, 0, 0)" fill-opacity="1.000000" />
<path d="M 335.892578 85.335938 L 335.892578 84.412109 L 342.729980 84.412109 L 342.729980 85.335938 Z " fill="rgb(0, 0, 0)" fill-opacity="1.000000" />
<path d="M 342.892578 85.335938 L 342.892578 84.412109 L 349.729980 84.412109 L 349.729980 85.335938 Z " fill="rgb(0, 0, 0)" fill-opacity="1.000000" />
<path d="M 349.892578 85.335938 L 349.892578 84.412109 L 356.729980 84.412109 L 356.729980 85.335938 Z " fill="rgb(0, 0, 0)" fill-opacity="1.000000" />
<path d="M 356.892578 85.335938 L 356.892578 84.412109 L 363.729980 84.412109 L 363.729980 85.335938 Z " fill="rgb(0, 0, 0)" fill-opacity="1.000000" />
<path d="M 363.892578 85.335938 L 363.892578 84.412109 L 370.729980 84.412109 L 370.729980 85.335938 Z " fill="rgb(0, 0, 0)" fill-opacity="1.000000" />
<path d="M 370.892578 85.335938 L 370.892578 84.412109 L 377.729980 84.412109 L 377.729980 85.335938 Z " fill="rgb(0, 0, 0)" fill-opacity="1.000000" />
<path d="M 377.892578 85.335938 L 377.892578 84.412109 L 384.729980 84.412109 L 384.729980 85.335938 Z " fill="rgb(0, 0, 0)" fill-opacity="1.000000" />
<path d="M 384.892578 85.335938 L 384.892578 84.412109 L 391.729980 84.412109 L 391.729980 85.335938 Z " fill="rgb(0, 0, 0)" fill-opacity="1.000000" />
<path d="M 391.892578 85.335938 L 391.892578 84.412109 L 398.729980 84.412109 L 398.729980 85.335938 Z " fill="rgb(0, 0, 0)" fill-opacity="1.000000" />
<path d="M 398.892578 85.335938 L 398.892578 84.412109 L 405.729980 84.412109 L 405.729980 85.335938 Z " fill="rgb(0, 0, 0)" fill-opacity="1.000000" />
<path d="M 408.878906 91.319336 L 408.878906 85.335938 L 405.892578 85.335938 L 405.892578 84.412109 L 412.729980 84.412109 L 412.729980 85.335938 L 409.738281 85.335938 L 409.738281 91.319336 Z " fill="rgb(0, 0, 0)" fill-opacity="1.000000" />
<path d="M 412.892578 85.335938 L 412.892578 84.412109 L 419.729980 84.412109 L 419.729980 85.335938 Z " fill="rgb(0, 0, 0)" fill-opacity="1.000000" />
<path d="M 419.892578 85.335938 L 419.892578 84.412109 L 422.878906 84.412109 L 422.878906 77.300781 L 423.738281 77.300781 L 423.738281 85.335938 Z " fill="rgb(0, 0, 0)" fill-opacity="1.000000" />
<path d="M 107.878906 78.319336 L 107.878906 71.412109 L 111.729980 71.412109 L 111.729980 72.335938 L 108.738281 72.335938 L 108.738281 78.319336 Z " fill="rgb(0, 0, 0)" fill-opacity="1.000000" />
<path d="M 111.892578 72.335938 L 111.892578 71.412109 L 118.729980 71.412109 L 118.729980 72.335938 Z " fill="rgb(0, 0, 0)" fill-opacity="1.000000" />
<path d="M 118.892578 72.335938 L 118.892578 71.412109 L 125.729980 71.412109 L 125.729980 72.335938 Z " fill="rgb(0, 0, 0)" fill-opacity="1.000000" />
<path d="M 126.032227 75.418945 L 126.032227 68.866211 L 132.590332 72.142578 Z " fill="rgb(0, 0, 0)" fill-opacity="1.000000" />
<path d="M 142.143066 67.872559 L 142.143066 70.885742 L 143.399902 70.885742 Q 144.151855 70.885742 144.573486 70.488281 Q 144.995117 70.090820 144.995117 69.376465 Q 144.995117 68.662109 144.576172 68.267334 Q 144.157227 67.872559 143.399902 67.872559 Z M 141.058105 66.980957 L 143.399902 66.980957 Q 144.742676 66.980957 145.435547 67.590576 Q 146.128418 68.200195 146.128418 69.376465 Q 146.128418 70.563477 145.438232 71.170410 Q 144.748047 71.777344 143.399902 71.777344 L 142.143066 71.777344 L 142.143066 75.000000 L 141.058105 75.000000 Z " fill="rgb(0, 0, 0)" fill-opacity="1.000000" />
<path d="M 153.203613 70.225098 Q 152.886719 69.978027 152.559082 69.865234 Q 152.231445 69.752441 151.839355 69.752441 Q 150.915527 69.752441 150.426758 70.332520 Q 149.937988 70.912598 149.937988 72.008301 L 149.937988 75.000000 L 148.944336 75.000000 L 148.944336 68.984375 L 149.937988 68.984375 L 149.937988 70.160645 Q 150.185059 69.521484 150.697998 69.180420 Q 151.210938 68.839355 151.914551 68.839355 Q 152.279785 68.839355 152.596680 68.930664 Q 152.913574 69.021973 153.203613 69.215332 Z " fill="rgb(0, 0, 0)" fill-opacity="1.000000" />
<path d="M 160.015625 71.498047 L 160.015625 71.981445 L 155.734863 71.981445 L 155.734863 72.013672 Q 155.691895 73.243652 156.204834 73.780762 Q 156.717773 74.317871 157.652344 74.317871 Q 158.125000 74.317871 158.640625 74.167480 Q 159.156250 74.017090 159.741699 73.710938 L 159.741699 74.693848 Q 159.177734 74.924805 158.654053 75.040283 Q 158.130371 75.155762 157.641602 75.155762 Q 156.239746 75.155762 155.450195 74.315186 Q 154.660645 73.474609 154.660645 71.997559 Q 154.660645 70.558105 155.434082 69.698730 Q 156.207520 68.839355 157.496582 68.839355 Q 158.645996 68.839355 159.309326 69.618164 Q 159.972656 70.396973 160.015625 71.498047 Z M 159.027344 71.208008 Q 158.962891 70.584961 158.573486 70.131104 Q 158.184082 69.677246 157.453613 69.677246 Q 156.739258 69.677246 156.277344 70.149902 Q 155.815430 70.622559 155.772461 71.213379 Z " fill="rgb(0, 0, 0)" fill-opacity="1.000000" />
<path d="M 163.014160 74.242676 L 163.014160 77.288086 L 162.020508 77.288086 L 162.020508 68.984375 L 163.014160 68.984375 L 163.014160 69.752441 Q 163.261230 69.306641 163.672119 69.072998 Q 164.083008 68.839355 164.620117 68.839355 Q 165.710449 68.839355 166.330811 69.682617 Q 166.951172 70.525879 166.951172 72.019043 Q 166.951172 73.485352 166.328125 74.320557 Q 165.705078 75.155762 164.620117 75.155762 Q 164.072266 75.155762 163.661377 74.922119 Q 163.250488 74.688477 163.014160 74.242676 Z M 165.914551 71.997559 Q 165.914551 70.848145 165.552002 70.262695 Q 165.189453 69.677246 164.475098 69.677246 Q 163.755371 69.677246 163.384766 70.265381 Q 163.014160 70.853516 163.014160 71.997559 Q 163.014160 73.136230 163.384766 73.727051 Q 163.755371 74.317871 164.475098 74.317871 Q 165.189453 74.317871 165.552002 73.732422 Q 165.914551 73.146973 165.914551 71.997559 Z " fill="rgb(0, 0, 0)" fill-opacity="1.000000" />
<path d="M 171.770508 71.976074 L 171.442871 71.976074 Q 170.578125 71.976074 170.140381 72.279541 Q 169.702637 72.583008 169.702637 73.184570 Q 169.702637 73.727051 170.030273 74.027832 Q 170.357910 74.328613 170.937988 74.328613 Q 171.754395 74.328613 172.221680 73.761963 Q 172.688965 73.195312 172.694336 72.196289 L 172.694336 71.976074 Z M 173.687988 71.567871 L 173.687988 75.000000 L 172.694336 75.000000 L 172.694336 74.108398 Q 172.377441 74.645508 171.896729 74.900635 Q 171.416016 75.155762 170.728516 75.155762 Q 169.810059 75.155762 169.262207 74.637451 Q 168.714355 74.119141 168.714355 73.249023 Q 168.714355 72.244629 169.388428 71.723633 Q 170.062500 71.202637 171.367676 71.202637 L 172.694336 71.202637 L 172.694336 71.046875 Q 172.688965 70.327148 172.329102 70.002197 Q 171.969238 69.677246 171.179688 69.677246 Q 170.674805 69.677246 170.159180 69.822266 Q 169.643555 69.967285 169.154785 70.246582 L 169.154785 69.258301 Q 169.702637 69.048828 170.204834 68.944092 Q 170.707031 68.839355 171.179688 68.839355 Q 171.926270 68.839355 172.455322 69.059570 Q 172.984375 69.279785 173.312012 69.720215 Q 173.516113 69.988770 173.602051 70.383545 Q 173.687988 70.778320 173.687988 71.567871 Z " fill="rgb(0, 0, 0)" fill-opacity="1.000000" />
<path d="M 181.203613 70.225098 Q 180.886719 69.978027 180.559082 69.865234 Q 180.231445 69.752441 179.839355 69.752441 Q 178.915527 69.752441 178.426758 70.332520 Q 177.937988 70.912598 177.937988 72.008301 L 177.937988 75.000000 L 176.944336 75.000000 L 176.944336 68.984375 L 177.937988 68.984375 L 177.937988 70.160645 Q 178.185059 69.521484 178.697998 69.180420 Q 179.210938 68.839355 179.914551 68.839355 Q 180.279785 68.839355 180.596680 68.930664 Q 180.913574 69.021973 181.203613 69.215332 Z " fill="rgb(0, 0, 0)" fill-opacity="1.000000" />
<path d="M 188.015625 71.498047 L 188.015625 71.981445 L 183.734863 71.981445 L 183.734863 72.013672 Q 183.691895 73.243652 184.204834 73.780762 Q 184.717773 74.317871 185.652344 74.317871 Q 186.125000 74.317871 186.640625 74.167480 Q 187.156250 74.017090 187.741699 73.710938 L 187.741699 74.693848 Q 187.177734 74.924805 186.654053 75.040283 Q 186.130371 75.155762 185.641602 75.155762 Q 184.239746 75.155762 183.450195 74.315186 Q 182.660645 73.474609 182.660645 71.997559 Q 182.660645 70.558105 183.434082 69.698730 Q 184.207520 68.839355 185.496582 68.839355 Q 186.645996 68.839355 187.309326 69.618164 Q 187.972656 70.396973 188.015625 71.498047 Z M 187.027344 71.208008 Q 186.962891 70.584961 186.573486 70.131104 Q 186.184082 69.677246 185.453613 69.677246 Q 184.739258 69.677246 184.277344 70.149902 Q 183.815430 70.622559 183.772461 71.213379 Z " fill="rgb(0, 0, 0)" fill-opacity="1.000000" />
<path d="M 195.892578 72.335938 L 195.892578 71.412109 L 202.729980 71.412109 L 202.729980 72.335938 Z " fill="rgb(0, 0, 0)" fill-opacity="1.000000" />
<path d="M 202.892578 72.335938 L 202.892578 71.412109 L 209.729980 71.412109 L 209.729980 72.335938 Z " fill="rgb(0, 0, 0)" fill-opacity="1.000000" />
<path d="M 209.892578 72.335938 L 209.892578 71.412109 L 216.729980 71.412109 L 216.729980 72.335938 Z " fill="rgb(0, 0, 0)" fill-opacity="1.000000" />
<path d="M 216.892578 72.335938 L 216.892578 71.412109 L 223.729980 71.412109 L 223.729980 72.335938 Z " fill="rgb(0, 0, 0)" fill-opacity="1.000000" />
<path d="M 223.892578 72.335938 L 223.892578 71.412109 L 230.729980 71.412109 L 230.729980 72.335938 Z " fill="rgb(0, 0, 0)" fill-opacity="1.000000" />
<path d="M 230.892578 72.335938 L 230.892578 71.412109 L 237.729980 71.412109 L 237.729980 72.335938 Z " fill="rgb(0, 0, 0)" fill-opacity="1.000000" />
<path d="M 238.032227 75.418945 L 238.032227 68.866211 L 244.590332 72.142578 Z " fill="rgb(0, 0, 0)" fill-opacity="1.000000" />
<path d="M 282.878906 78.319336 L 282.878906 64.300781 L 283.738281 64.300781 L 283.738281 78.319336 Z " fill="rgb(0, 0, 0)" fill-opacity="1.000000" />
<path d="M 350.193359 67.007812 L 351.643555 67.007812 L 353.029297 71.079102 L 354.425781 67.007812 L 355.881348 67.007812 L 355.881348 75.000000 L 354.876953 75.000000 L 354.876953 67.937012 L 353.448242 72.147949 L 352.626465 72.147949 L 351.192383 67.937012 L 351.192383 75.000000 L 350.193359 75.000000 Z " fill="rgb(0, 0, 0)" fill-opacity="1.000000" />
<path d="M 422.878906 78.319336 L 422.878906 64.300781 L 423.738281 64.300781 L 423.738281 78.319336 Z " fill="rgb(0, 0, 0)" fill-opacity="1.000000" />
<path d="M 268.878906 59.335938 L 268.878906 51.300781 L 269.738281 51.300781 L 269.738281 58.412109 L 272.729980 58.412109 L 272.729980 59.335938 Z " fill="rgb(0, 0, 0)" fill-opacity="1.000000" />
<path d="M 272.892578 59.335938 L 272.892578 58.412109 L 279.729980 58.412109 L 279.729980 59.335938 Z " fill="rgb(0, 0, 0)" fill-opacity="1.000000" />
<path d="M 282.878906 65.319336 L 282.878906 59.335938 L 279.892578 59.335938 L 279.892578 58.412109 L 286.729980 58.412109 L 286.729980 59.335938 L 283.738281 59.335938 L 283.738281 65.319336 Z " fill="rgb(0, 0, 0)" fill-opacity="1.000000" />
<path d="M 286.892578 59.335938 L 286.892578 58.412109 L 293.729980 58.412109 L 293.729980 59.335938 Z " fill="rgb(0, 0, 0)" fill-opacity="1.000000" />
<path d="M 293.892578 59.335938 L 293.892578 58.412109 L 300.729980 58.412109 L 300.729980 59.335938 Z " fill="rgb(0, 0, 0)" fill-opacity="1.000000" />
<path d="M 300.892578 59.335938 L 300.892578 58.412109 L 307.729980 58.412109 L 307.729980 59.335938 Z " fill="rgb(0, 0, 0)" fill-opacity="1.000000" />
<path d="M 307.892578 59.335938 L 307.892578 58.412109 L 314.729980 58.412109 L 314.729980 59.335938 Z " fill="rgb(0, 0, 0)" fill-opacity="1.000000" />
<path d="M 314.892578 59.335938 L 314.892578 58.412109 L 321.729980 58.412109 L 321.729980 59.335938 Z " fill="rgb(0, 0, 0)" fill-opacity="1.000000" />
<path d="M 321.892578 59.335938 L 321.892578 58.412109 L 328.729980 58.412109 L 328.729980 59.335938 Z " fill="rgb(0, 0, 0)" fill-opacity="1.000000" />
<path d="M 328.892578 59.335938 L 328.892578 58.412109 L 335.729980 58.412109 L 335.729980 59.335938 Z " fill="rgb(0, 0, 0)" fill-opacity="1.000000" />
<path d="M 335.892578 59.335938 L 335.892578 58.412109 L 342.729980 58.412109 L 342.729980 59.335938 Z " fill="rgb(0, 0, 0)" fill-opacity="1.000000" />
<path d="M 342.892578 59.335938 L 342.892578 58.412109 L 349.729980 58.412109 L 349.729980 59.335938 Z " fill="rgb(0, 0, 0)" fill-opacity="1.000000" />
<path d="M 349.892578 59.335938 L 349.892578 58.412109 L 356.729980 58.412109 L 356.729980 59.335938 Z " fill="rgb(0, 0, 0)" fill-opacity="1.000000" />
<path d="M 356.892578 59.335938 L 356.892578 58.412109 L 363.729980 58.412109 L 363.729980 59.335938 Z " fill="rgb(0, 0, 0)" fill-opacity="1.000000" />
<path d="M 363.892578 59.335938 L 363.892578 58.412109 L 370.729980 58.412109 L 370.729980 59.335938 Z " fill="rgb(0, 0, 0)" fill-opacity="1.000000" />
<path d="M 370.892578 59.335938 L 370.892578 58.412109 L 377.729980 58.412109 L 377.729980 59.335938 Z " fill="rgb(0, 0, 0)" fill-opacity="1.000000" />
<path d="M 377.892578 59.335938 L 377.892578 58.412109 L 384.729980 58.412109 L 384.729980 59.335938 Z " fill="rgb(0, 0, 0)" fill-opacity="1.000000" />
<path d="M 384.892578 59.335938 L 384.892578 58.412109 L 391.729980 58.412109 L 391.729980 59.335938 Z " fill="rgb(0, 0, 0)" fill-opacity="1.000000" />
<path d="M 391.892578 59.335938 L 391.892578 58.412109 L 398.729980 58.412109 L 398.729980 59.335938 Z " fill="rgb(0, 0, 0)" fill-opacity="1.000000" />
<path d="M 398.892578 59.335938 L 398.892578 58.412109 L 405.729980 58.412109 L 405.729980 59.335938 Z " fill="rgb(0, 0, 0)" fill-opacity="1.000000" />
<path d="M 405.892578 59.335938 L 405.892578 58.412109 L 412.729980 58.412109 L 412.729980 59.335938 Z " fill="rgb(0, 0, 0)" fill-opacity="1.000000" />
<path d="M 412.892578 59.335938 L 412.892578 58.412109 L 419.729980 58.412109 L 419.729980 59.335938 Z " fill="rgb(0, 0, 0)" fill-opacity="1.000000" />
<path d="M 422.878906 65.319336 L 422.878906 59.335938 L 419.892578 59.335938 L 419.892578 58.412109 L 426.729980 58.412109 L 426.729980 59.335938 L 423.738281 59.335938 L 423.738281 65.319336 Z " fill="rgb(0, 0, 0)" fill-opacity="1.000000" />
<path d="M 426.892578 59.335938 L 426.892578 58.412109 L 433.729980 58.412109 L 433.729980 59.335938 Z " fill="rgb(0, 0, 0)" fill-opacity="1.000000" />
<path d="M 433.892578 59.335938 L 433.892578 58.412109 L 436.878906 58.412109 L 436.878906 51.300781 L 437.738281 51.300781 L 437.738281 59.335938 Z " fill="rgb(0, 0, 0)" fill-opacity="1.000000" />
<path d="M 10.308594 43.677246 Q 9.556641 43.677246 9.169922 44.262695 Q 8.783203 44.848145 8.783203 45.997559 Q 8.783203 47.141602 9.169922 47.729736 Q 9.556641 48.317871 10.308594 48.317871 Q 11.065918 48.317871 11.452637 47.729736 Q 11.839355 47.141602 11.839355 45.997559 Q 11.839355 44.848145 11.452637 44.262695 Q 11.065918 43.677246 10.308594 43.677246 Z M 10.308594 42.839355 Q 11.560059 42.839355 12.223389 43.650391 Q 12.886719 44.461426 12.886719 45.997559 Q 12.886719 47.539062 12.226074 48.347412 Q 11.565430 49.155762 10.308594 49.155762 Q 9.057129 49.155762 8.396484 48.347412 Q 7.735840 47.539062 7.735840 45.997559 Q 7.735840 44.461426 8.396484 43.650391 Q 9.057129 42.839355 10.308594 42.839355 Z " fill="rgb(0, 0, 0)" fill-opacity="1.000000" />
<path d="M 17.630859 43.596680 Q 17.813477 43.209961 18.095459 43.024658 Q 18.377441 42.839355 18.774902 42.839355 Q 19.500000 42.839355 19.798096 43.400635 Q 20.096191 43.961914 20.096191 45.514160 L 20.096191 49.000000 L 19.193848 49.000000 L 19.193848 45.557129 Q 19.193848 44.284180 19.051514 43.975342 Q 18.909180 43.666504 18.533203 43.666504 Q 18.103516 43.666504 17.945068 43.996826 Q 17.786621 44.327148 17.786621 45.557129 L 17.786621 49.000000 L 16.884277 49.000000 L 16.884277 45.557129 Q 16.884277 44.268066 16.731201 43.967285 Q 16.578125 43.666504 16.180664 43.666504 Q 15.788574 43.666504 15.635498 43.996826 Q 15.482422 44.327148 15.482422 45.557129 L 15.482422 49.000000 L 14.585449 49.000000 L 14.585449 42.984375 L 15.482422 42.984375 L 15.482422 43.500000 Q 15.659668 43.177734 15.925537 43.008545 Q 16.191406 42.839355 16.529785 42.839355 Q 16.937988 42.839355 17.209229 43.027344 Q 17.480469 43.215332 17.630859 43.596680 Z " fill="rgb(0, 0, 0)" fill-opacity="1.000000" />
<path d="M 22.697266 43.005859 L 25.227051 43.005859 L 25.227051 48.231934 L 27.187500 48.231934 L 27.187500 49.000000 L 22.278320 49.000000 L 22.278320 48.231934 L 24.238770 48.231934 L 24.238770 43.773926 L 22.697266 43.773926 Z M 24.238770 40.669434 L 25.227051 40.669434 L 25.227051 41.915527 L 24.238770 41.915527 Z " fill="rgb(0, 0, 0)" fill-opacity="1.000000" />
<path d="M 33.645020 45.272461 L 33.645020 49.000000 L 32.651367 49.000000 L 32.651367 45.272461 Q 32.651367 44.461426 32.366699 44.080078 Q 32.082031 43.698730 31.475098 43.698730 Q 30.782227 43.698730 30.408936 44.190186 Q 30.035645 44.681641 30.035645 45.600098 L 30.035645 49.000000 L 29.047363 49.000000 L 29.047363 42.984375 L 30.035645 42.984375 L 30.035645 43.886719 Q 30.298828 43.371094 30.750000 43.105225 Q 31.201172 42.839355 31.818848 42.839355 Q 32.737305 42.839355 33.191162 43.443604 Q 33.645020 44.047852 33.645020 45.272461 Z " fill="rgb(0, 0, 0)" fill-opacity="1.000000" />
<path d="M 38.770508 45.976074 L 38.442871 45.976074 Q 37.578125 45.976074 37.140381 46.279541 Q 36.702637 46.583008 36.702637 47.184570 Q 36.702637 47.727051 37.030273 48.027832 Q 37.357910 48.328613 37.937988 48.328613 Q 38.754395 48.328613 39.221680 47.761963 Q 39.688965 47.195312 39.694336 46.196289 L 39.694336 45.976074 Z M 40.687988 45.567871 L 40.687988 49.000000 L 39.694336 49.000000 L 39.694336 48.108398 Q 39.377441 48.645508 38.896729 48.900635 Q 38.416016 49.155762 37.728516 49.155762 Q 36.810059 49.155762 36.262207 48.637451 Q 35.714355 48.119141 35.714355 47.249023 Q 35.714355 46.244629 36.388428 45.723633 Q 37.062500 45.202637 38.367676 45.202637 L 39.694336 45.202637 L 39.694336 45.046875 Q 39.688965 44.327148 39.329102 44.002197 Q 38.969238 43.677246 38.179688 43.677246 Q 37.674805 43.677246 37.159180 43.822266 Q 36.643555 43.967285 36.154785 44.246582 L 36.154785 43.258301 Q 36.702637 43.048828 37.204834 42.944092 Q 37.707031 42.839355 38.179688 42.839355 Q 38.926270 42.839355 39.455322 43.059570 Q 39.984375 43.279785 40.312012 43.720215 Q 40.516113 43.988770 40.602051 44.383545 Q 40.687988 44.778320 40.687988 45.567871 Z " fill="rgb(0, 0, 0)" fill-opacity="1.000000" />
<path d="M 45.297852 41.276367 L 45.297852 42.984375 L 47.542969 42.984375 L 47.542969 43.752441 L 45.297852 43.752441 L 45.297852 47.018066 Q 45.297852 47.684082 45.550293 47.947266 Q 45.802734 48.210449 46.431152 48.210449 L 47.542969 48.210449 L 47.542969 49.000000 L 46.334473 49.000000 Q 45.222656 49.000000 44.766113 48.554199 Q 44.309570 48.108398 44.309570 47.018066 L 44.309570 43.752441 L 42.703613 43.752441 L 42.703613 42.984375 L 44.309570 42.984375 L 44.309570 41.276367 Z " fill="rgb(0, 0, 0)" fill-opacity="1.000000" />
<path d="M 55.015625 45.498047 L 55.015625 45.981445 L 50.734863 45.981445 L 50.734863 46.013672 Q 50.691895 47.243652 51.204834 47.780762 Q 51.717773 48.317871 52.652344 48.317871 Q 53.125000 48.317871 53.640625 48.167480 Q 54.156250 48.017090 54.741699 47.710938 L 54.741699 48.693848 Q 54.177734 48.924805 53.654053 49.040283 Q 53.130371 49.155762 52.641602 49.155762 Q 51.239746 49.155762 50.450195 48.315186 Q 49.660645 47.474609 49.660645 45.997559 Q 49.660645 44.558105 50.434082 43.698730 Q 51.207520 42.839355 52.496582 42.839355 Q 53.645996 42.839355 54.309326 43.618164 Q 54.972656 44.396973 55.015625 45.498047 Z M 54.027344 45.208008 Q 53.962891 44.584961 53.573486 44.131104 Q 53.184082 43.677246 52.453613 43.677246 Q 51.739258 43.677246 51.277344 44.149902 Q 50.815430 44.622559 50.772461 45.213379 Z " fill="rgb(0, 0, 0)" fill-opacity="1.000000" />
<path d="M 83.892578 46.335938 L 83.892578 45.412109 L 90.729980 45.412109 L 90.729980 46.335938 Z " fill="rgb(0, 0, 0)" fill-opacity="1.000000" />
<path d="M 90.892578 46.335938 L 90.892578 45.412109 L 97.729980 45.412109 L 97.729980 46.335938 Z " fill="rgb(0, 0, 0)" fill-opacity="1.000000" />
<path d="M 97.892578 46.335938 L 97.892578 45.412109 L 104.729980 45.412109 L 104.729980 46.335938 Z " fill="rgb(0, 0, 0)" fill-opacity="1.000000" />
<path d="M 104.892578 46.335938 L 104.892578 45.412109 L 111.729980 45.412109 L 111.729980 46.335938 Z " fill="rgb(0, 0, 0)" fill-opacity="1.000000" />
<path d="M 111.892578 46.335938 L 111.892578 45.412109 L 118.729980 45.412109 L 118.729980 46.335938 Z " fill="rgb(0, 0, 0)" fill-opacity="1.000000" />
<path d="M 118.892578 46.335938 L 118.892578 45.412109 L 125.729980 45.412109 L 125.729980 46.335938 Z " fill="rgb(0, 0, 0)" fill-opacity="1.000000" />
<path d="M 125.892578 46.335938 L 125.892578 45.412109 L 132.729980 45.412109 L 132.729980 46.335938 Z " fill="rgb(0, 0, 0)" fill-opacity="1.000000" />
<path d="M 132.892578 46.335938 L 132.892578 45.412109 L 139.729980 45.412109 L 139.729980 46.335938 Z " fill="rgb(0, 0, 0)" fill-opacity="1.000000" />
<path d="M 139.892578 46.335938 L 139.892578 45.412109 L 146.729980 45.412109 L 146.729980 46.335938 Z " fill="rgb(0, 0, 0)" fill-opacity="1.000000" />
<path d="M 146.892578 46.335938 L 146.892578 45.412109 L 153.729980 45.412109 L 153.729980 46.335938 Z " fill="rgb(0, 0, 0)" fill-opacity="1.000000" />
<path d="M 153.892578 46.335938 L 153.892578 45.412109 L 160.729980 45.412109 L 160.729980 46.335938 Z " fill="rgb(0, 0, 0)" fill-opacity="1.000000" />
<path d="M 160.892578 46.335938 L 160.892578 45.412109 L 167.729980 45.412109 L 167.729980 46.335938 Z " fill="rgb(0, 0, 0)" fill-opacity="1.000000" />
<path d="M 167.892578 46.335938 L 167.892578 45.412109 L 174.729980 45.412109 L 174.729980 46.335938 Z " fill="rgb(0, 0, 0)" fill-opacity="1.000000" />
<path d="M 174.892578 46.335938 L 174.892578 45.412109 L 181.729980 45.412109 L 181.729980 46.335938 Z " fill="rgb(0, 0, 0)" fill-opacity="1.000000" />
<path d="M 181.892578 46.335938 L 181.892578 45.412109 L 188.729980 45.412109 L 188.729980 46.335938 Z " fill="rgb(0, 0, 0)" fill-opacity="1.000000" />
<path d="M 188.892578 46.335938 L 188.892578 45.412109 L 195.729980 45.412109 L 195.729980 46.335938 Z " fill="rgb(0, 0, 0)" fill-opacity="1.000000" />
<path d="M 195.892578 46.335938 L 195.892578 45.412109 L 202.729980 45.412109 L 202.729980 46.335938 Z " fill="rgb(0, 0, 0)" fill-opacity="1.000000" />
<path d="M 202.892578 46.335938 L 202.892578 45.412109 L 209.729980 45.412109 L 209.729980 46.335938 Z " fill="rgb(0, 0, 0)" fill-opacity="1.000000" />
<path d="M 209.892578 46.335938 L 209.892578 45.412109 L 216.729980 45.412109 L 216.729980 46.335938 Z " fill="rgb(0, 0, 0)" fill-opacity="1.000000" />
<path d="M 216.892578 46.335938 L 216.892578 45.412109 L 223.729980 45.412109 L 223.729980 46.335938 Z " fill="rgb(0, 0, 0)" fill-opacity="1.000000" />
<path d="M 223.892578 46.335938 L 223.892578 45.412109 L 230.729980 45.412109 L 230.729980 46.335938 Z " fill="rgb(0, 0, 0)" fill-opacity="1.000000" />
<path d="M 230.892578 46.335938 L 230.892578 45.412109 L 237.729980 45.412109 L 237.729980 46.335938 Z " fill="rgb(0, 0, 0)" fill-opacity="1.000000" />
<path d="M 238.032227 49.418945 L 238.032227 42.866211 L 244.590332 46.142578 Z " fill="rgb(0, 0, 0)" fill-opacity="1.000000" />
<path d="M 268.878906 52.319336 L 268.878906 38.300781 L 269.738281 38.300781 L 269.738281 52.319336 Z " fill="rgb(0, 0, 0)" fill-opacity="1.000000" />
<path d="M 350.102051 41.007812 L 351.584473 41.007812 L 354.721191 47.587402 L 354.721191 41.007812 L 355.875977 41.007812 L 355.875977 49.000000 L 354.393555 49.000000 L 351.256836 42.420410 L 351.256836 49.000000 L 350.102051 49.000000 Z " fill="rgb(0, 0, 0)" fill-opacity="1.000000" />
<path d="M 436.878906 52.319336 L 436.878906 38.300781 L 437.738281 38.300781 L 437.738281 52.319336 Z " fill="rgb(0, 0, 0)" fill-opacity="1.000000" />
<path d="M 254.878906 33.335938 L 254.878906 25.300781 L 255.738281 25.300781 L 255.738281 32.412109 L 258.729980 32.412109 L 258.729980 33.335938 Z " fill="rgb(0, 0, 0)" fill-opacity="1.000000" />
<path d="M 258.892578 33.335938 L 258.892578 32.412109 L 265.729980 32.412109 L 265.729980 33.335938 Z " fill="rgb(0, 0, 0)" fill-opacity="1.000000" />
<path d="M 268.878906 39.319336 L 268.878906 33.335938 L 265.892578 33.335938 L 265.892578 32.412109 L 272.729980 32.412109 L 272.729980 33.335938 L 269.738281 33.335938 L 269.738281 39.319336 Z " fill="rgb(0, 0, 0)" fill-opacity="1.000000" />
<path d="M 272.892578 33.335938 L 272.892578 32.412109 L 279.729980 32.412109 L 279.729980 33.335938 Z " fill="rgb(0, 0, 0)" fill-opacity="1.000000" />
<path d="M 279.892578 33.335938 L 279.892578 32.412109 L 286.729980 32.412109 L 286.729980 33.335938 Z " fill="rgb(0, 0, 0)" fill-opacity="1.000000" />
<path d="M 286.892578 33.335938 L 286.892578 32.412109 L 293.729980 32.412109 L 293.729980 33.335938 Z " fill="rgb(0, 0, 0)" fill-opacity="1.000000" />
<path d="M 293.892578 33.335938 L 293.892578 32.412109 L 300.729980 32.412109 L 300.729980 33.335938 Z " fill="rgb(0, 0, 0)" fill-opacity="1.000000" />
<path d="M 300.892578 33.335938 L 300.892578 32.412109 L 307.729980 32.412109 L 307.729980 33.335938 Z " fill="rgb(0, 0, 0)" fill-opacity="1.000000" />
<path d="M 307.892578 33.335938 L 307.892578 32.412109 L 314.729980 32.412109 L 314.729980 33.335938 Z " fill="rgb(0, 0, 0)" fill-opacity="1.000000" />
<path d="M 314.892578 33.335938 L 314.892578 32.412109 L 321.729980 32.412109 L 321.729980 33.335938 Z " fill="rgb(0, 0, 0)" fill-opacity="1.000000" />
<path d="M 321.892578 33.335938 L 321.892578 32.412109 L 328.729980 32.412109 L 328.729980 33.335938 Z " fill="rgb(0, 0, 0)" fill-opacity="1.000000" />
<path d="M 328.892578 33.335938 L 328.892578 32.412109 L 335.729980 32.412109 L 335.729980 33.335938 Z " fill="rgb(0, 0, 0)" fill-opacity="1.000000" />
<path d="M 335.892578 33.335938 L 335.892578 32.412109 L 342.729980 32.412109 L 342.729980 33.335938 Z " fill="rgb(0, 0, 0)" fill-opacity="1.000000" />
<path d="M 342.892578 33.335938 L 342.892578 32.412109 L 349.729980 32.412109 L 349.729980 33.335938 Z " fill="rgb(0, 0, 0)" fill-opacity="1.000000" />
<path d="M 349.892578 33.335938 L 349.892578 32.412109 L 356.729980 32.412109 L 356.729980 33.335938 Z " fill="rgb(0, 0, 0)" fill-opacity="1.000000" />
<path d="M 356.892578 33.335938 L 356.892578 32.412109 L 363.729980 32.412109 L 363.729980 33.335938 Z " fill="rgb(0, 0, 0)" fill-opacity="1.000000" />
<path d="M 363.892578 33.335938 L 363.892578 32.412109 L 370.729980 32.412109 L 370.729980 33.335938 Z " fill="rgb(0, 0, 0)" fill-opacity="1.000000" />
<path d="M 370.892578 33.335938 L 370.892578 32.412109 L 377.729980 32.412109 L 377.729980 33.335938 Z " fill="rgb(0, 0, 0)" fill-opacity="1.000000" />
<path d="M 377.892578 33.335938 L 377.892578 32.412109 L 384.729980 32.412109 L 384.729980 33.335938 Z " fill="rgb(0, 0, 0)" fill-opacity="1.000000" />
<path d="M 384.892578 33.335938 L 384.892578 32.412109 L 391.729980 32.412109 L 391.729980 33.335938 Z " fill="rgb(0, 0, 0)" fill-opacity="1.000000" />
<path d="M 391.892578 33.335938 L 391.892578 32.412109 L 398.729980 32.412109 L 398.729980 33.335938 Z " fill="rgb(0, 0, 0)" fill-opacity="1.000000" />
<path d="M 398.892578 33.335938 L 398.892578 32.412109 L 405.729980 32.412109 L 405.729980 33.335938 Z " fill="rgb(0, 0, 0)" fill-opacity="1.000000" />
<path d="M 405.892578 33.335938 L 405.892578 32.412109 L 412.729980 32.412109 L 412.729980 33.335938 Z " fill="rgb(0, 0, 0)" fill-opacity="1.000000" />
<path d="M 412.892578 33.335938 L 412.892578 32.412109 L 419.729980 32.412109 L 419.729980 33.335938 Z " fill="rgb(0, 0, 0)" fill-opacity="1.000000" />
<path d="M 419.892578 33.335938 L 419.892578 32.412109 L 426.729980 32.412109 L 426.729980 33.335938 Z " fill="rgb(0, 0, 0)" fill-opacity="1.000000" />
<path d="M 426.892578 33.335938 L 426.892578 32.412109 L 433.729980 32.412109 L 433.729980 33.335938 Z " fill="rgb(0, 0, 0)" fill-opacity="1.000000" />
<path d="M 436.878906 39.319336 L 436.878906 33.335938 L 433.892578 33.335938 L 433.892578 32.412109 L 440.729980 32.412109 L 440.729980 33.335938 L 437.738281 33.335938 L 437.738281 39.319336 Z " fill="rgb(0, 0, 0)" fill-opacity="1.000000" />
<path d="M 440.892578 33.335938 L 440.892578 32.412109 L 447.729980 32.412109 L 447.729980 33.335938 Z " fill="rgb(0, 0, 0)" fill-opacity="1.000000" />
<path d="M 447.892578 33.335938 L 447.892578 32.412109 L 450.878906 32.412109 L 450.878906 25.300781 L 451.738281 25.300781 L 451.738281 33.335938 Z " fill="rgb(0, 0, 0)" fill-opacity="1.000000" />
<path d="M 12.645020 19.272461 L 12.645020 23.000000 L 11.651367 23.000000 L 11.651367 19.272461 Q 11.651367 18.461426 11.366699 18.080078 Q 11.082031 17.698730 10.475098 17.698730 Q 9.782227 17.698730 9.408936 18.190186 Q 9.035645 18.681641 9.035645 19.600098 L 9.035645 23.000000 L 8.047363 23.000000 L 8.047363 16.984375 L 9.035645 16.984375 L 9.035645 17.886719 Q 9.298828 17.371094 9.750000 17.105225 Q 10.201172 16.839355 10.818848 16.839355 Q 11.737305 16.839355 12.191162 17.443604 Q 12.645020 18.047852 12.645020 19.272461 Z " fill="rgb(0, 0, 0)" fill-opacity="1.000000" />
<path d="M 19.698730 22.693848 Q 19.301270 22.924805 18.879639 23.040283 Q 18.458008 23.155762 18.017578 23.155762 Q 16.621094 23.155762 15.834229 22.317871 Q 15.047363 21.479980 15.047363 19.997559 Q 15.047363 18.515137 15.834229 17.677246 Q 16.621094 16.839355 18.017578 16.839355 Q 18.452637 16.839355 18.866211 16.952148 Q 19.279785 17.064941 19.698730 17.301270 L 19.698730 18.337891 Q 19.306641 17.988770 18.911865 17.833008 Q 18.517090 17.677246 18.017578 17.677246 Q 17.088379 17.677246 16.588867 18.278809 Q 16.089355 18.880371 16.089355 19.997559 Q 16.089355 21.109375 16.591553 21.713623 Q 17.093750 22.317871 18.017578 22.317871 Q 18.533203 22.317871 18.941406 22.159424 Q 19.349609 22.000977 19.698730 21.667969 Z " fill="rgb(0, 0, 0)" fill-opacity="1.000000" />
<path d="M 24.308594 17.677246 Q 23.556641 17.677246 23.169922 18.262695 Q 22.783203 18.848145 22.783203 19.997559 Q 22.783203 21.141602 23.169922 21.729736 Q 23.556641 22.317871 24.308594 22.317871 Q 25.065918 22.317871 25.452637 21.729736 Q 25.839355 21.141602 25.839355 19.997559 Q 25.839355 18.848145 25.452637 18.262695 Q 25.065918 17.677246 24.308594 17.677246 Z M 24.308594 16.839355 Q 25.560059 16.839355 26.223389 17.650391 Q 26.886719 18.461426 26.886719 19.997559 Q 26.886719 21.539062 26.226074 22.347412 Q 25.565430 23.155762 24.308594 23.155762 Q 23.057129 23.155762 22.396484 22.347412 Q 21.735840 21.539062 21.735840 19.997559 Q 21.735840 18.461426 22.396484 17.650391 Q 23.057129 16.839355 24.308594 16.839355 Z " fill="rgb(0, 0, 0)" fill-opacity="1.000000" />
<path d="M 31.630859 17.596680 Q 31.813477 17.209961 32.095459 17.024658 Q 32.377441 16.839355 32.774902 16.839355 Q 33.500000 16.839355 33.798096 17.400635 Q 34.096191 17.961914 34.096191 19.514160 L 34.096191 23.000000 L 33.193848 23.000000 L 33.193848 19.557129 Q 33.193848 18.284180 33.051514 17.975342 Q 32.909180 17.666504 32.533203 17.666504 Q 32.103516 17.666504 31.945068 17.996826 Q 31.786621 18.327148 31.786621 19.557129 L 31.786621 23.000000 L 30.884277 23.000000 L 30.884277 19.557129 Q 30.884277 18.268066 30.731201 17.967285 Q 30.578125 17.666504 30.180664 17.666504 Q 29.788574 17.666504 29.635498 17.996826 Q 29.482422 18.327148 29.482422 19.557129 L 29.482422 23.000000 L 28.585449 23.000000 L 28.585449 16.984375 L 29.482422 16.984375 L 29.482422 17.500000 Q 29.659668 17.177734 29.925537 17.008545 Q 30.191406 16.839355 30.529785 16.839355 Q 30.937988 16.839355 31.209229 17.027344 Q 31.480469 17.215332 31.630859 17.596680 Z " fill="rgb(0, 0, 0)" fill-opacity="1.000000" />
<path d="M 36.697266 17.005859 L 39.227051 17.005859 L 39.227051 22.231934 L 41.187500 22.231934 L 41.187500 23.000000 L 36.278320 23.000000 L 36.278320 22.231934 L 38.238770 22.231934 L 38.238770 17.773926 L 36.697266 17.773926 Z M 38.238770 14.669434 L 39.227051 14.669434 L 39.227051 15.915527 L 38.238770 15.915527 Z " fill="rgb(0, 0, 0)" fill-opacity="1.000000" />
<path d="M 45.297852 15.276367 L 45.297852 16.984375 L 47.542969 16.984375 L 47.542969 17.752441 L 45.297852 17.752441 L 45.297852 21.018066 Q 45.297852 21.684082 45.550293 21.947266 Q 45.802734 22.210449 46.431152 22.210449 L 47.542969 22.210449 L 47.542969 23.000000 L 46.334473 23.000000 Q 45.222656 23.000000 44.766113 22.554199 Q 44.309570 22.108398 44.309570 21.018066 L 44.309570 17.752441 L 42.703613 17.752441 L 42.703613 16.984375 L 44.309570 16.984375 L 44.309570 15.276367 Z " fill="rgb(0, 0, 0)" fill-opacity="1.000000" />
<path d="M 52.297852 15.276367 L 52.297852 16.984375 L 54.542969 16.984375 L 54.542969 17.752441 L 52.297852 17.752441 L 52.297852 21.018066 Q 52.297852 21.684082 52.550293 21.947266 Q 52.802734 22.210449 53.431152 22.210449 L 54.542969 22.210449 L 54.542969 23.000000 L 53.334473 23.000000 Q 52.222656 23.000000 51.766113 22.554199 Q 51.309570 22.108398 51.309570 21.018066 L 51.309570 17.752441 L 49.703613 17.752441 L 49.703613 16.984375 L 51.309570 16.984375 L 51.309570 15.276367 Z " fill="rgb(0, 0, 0)" fill-opacity="1.000000" />
<path d="M 62.015625 19.498047 L 62.015625 19.981445 L 57.734863 19.981445 L 57.734863 20.013672 Q 57.691895 21.243652 58.204834 21.780762 Q 58.717773 22.317871 59.652344 22.317871 Q 60.125000 22.317871 60.640625 22.167480 Q 61.156250 22.017090 61.741699 21.710938 L 61.741699 22.693848 Q 61.177734 22.924805 60.654053 23.040283 Q 60.130371 23.155762 59.641602 23.155762 Q 58.239746 23.155762 57.450195 22.315186 Q 56.660645 21.474609 56.660645 19.997559 Q 56.660645 18.558105 57.434082 17.698730 Q 58.207520 16.839355 59.496582 16.839355 Q 60.645996 16.839355 61.309326 17.618164 Q 61.972656 18.396973 62.015625 19.498047 Z M 61.027344 19.208008 Q 60.962891 18.584961 60.573486 18.131104 Q 60.184082 17.677246 59.453613 17.677246 Q 58.739258 17.677246 58.277344 18.149902 Q 57.815430 18.622559 57.772461 19.213379 Z " fill="rgb(0, 0, 0)" fill-opacity="1.000000" />
<path d="M 67.608398 17.752441 L 67.608398 14.642578 L 68.596680 14.642578 L 68.596680 23.000000 L 67.608398 23.000000 L 67.608398 22.242676 Q 67.361328 22.688477 66.950439 22.922119 Q 66.539551 23.155762 66.002441 23.155762 Q 64.912109 23.155762 64.286377 22.309814 Q 63.660645 21.463867 63.660645 19.976074 Q 63.660645 18.509766 64.289062 17.674561 Q 64.917480 16.839355 66.002441 16.839355 Q 66.544922 16.839355 66.958496 17.072998 Q 67.372070 17.306641 67.608398 17.752441 Z M 64.702637 19.997559 Q 64.702637 21.146973 65.067871 21.732422 Q 65.433105 22.317871 66.147461 22.317871 Q 66.861816 22.317871 67.235107 21.727051 Q 67.608398 21.136230 67.608398 19.997559 Q 67.608398 18.853516 67.235107 18.265381 Q 66.861816 17.677246 66.147461 17.677246 Q 65.433105 17.677246 65.067871 18.262695 Q 64.702637 18.848145 64.702637 19.997559 Z " fill="rgb(0, 0, 0)" fill-opacity="1.000000" />
<path d="M 83.892578 20.335938 L 83.892578 19.412109 L 90.729980 19.412109 L 90.729980 20.335938 Z " fill="rgb(0, 0, 0)" fill-opacity="1.000000" />
<path d="M 90.892578 20.335938 L 90.892578 19.412109 L 97.729980 19.412109 L 97.729980 20.335938 Z " fill="rgb(0, 0, 0)" fill-opacity="1.000000" />
<path d="M 97.892578 20.335938 L 97.892578 19.412109 L 104.729980 19.412109 L 104.729980 20.335938 Z " fill="rgb(0, 0, 0)" fill-opacity="1.000000" />
<path d="M 104.892578 20.335938 L 104.892578 19.412109 L 111.729980 19.412109 L 111.729980 20.335938 Z " fill="rgb(0, 0, 0)" fill-opacity="1.000000" />
<path d="M 111.892578 20.335938 L 111.892578 19.412109 L 118.729980 19.412109 L 118.729980 20.335938 Z " fill="rgb(0, 0, 0)" fill-opacity="1.000000" />
<path d="M 118.892578 20.335938 L 118.892578 19.412109 L 125.729980 19.412109 L 125.729980 20.335938 Z " fill="rgb(0, 0, 0)" fill-opacity="1.000000" />
<path d="M 125.892578 20.335938 L 125.892578 19.412109 L 132.729980 19.412109 L 132.729980 20.335938 Z " fill="rgb(0, 0, 0)" fill-opacity="1.000000" />
<path d="M 132.892578 20.335938 L 132.892578 19.412109 L 139.729980 19.412109 L 139.729980 20.335938 Z " fill="rgb(0, 0, 0)" fill-opacity="1.000000" />
<path d="M 139.892578 20.335938 L 139.892578 19.412109 L 146.729980 19.412109 L 146.729980 20.335938 Z " fill="rgb(0, 0, 0)" fill-opacity="1.000000" />
<path d="M 146.892578 20.335938 L 146.892578 19.412109 L 153.729980 19.412109 L 153.729980 20.335938 Z " fill="rgb(0, 0, 0)" fill-opacity="1.000000" />
<path d="M 153.892578 20.335938 L 153.892578 19.412109 L 160.729980 19.412109 L 160.729980 20.335938 Z " fill="rgb(0, 0, 0)" fill-opacity="1.000000" />
<path d="M 160.892578 20.335938 L 160.892578 19.412109 L 167.729980 19.412109 L 167.729980 20.335938 Z " fill="rgb(0, 0, 0)" fill-opacity="1.000000" />
<path d="M 167.892578 20.335938 L 167.892578 19.412109 L 174.729980 19.412109 L 174.729980 20.335938 Z " fill="rgb(0, 0, 0)" fill-opacity="1.000000" />
<path d="M 174.892578 20.335938 L 174.892578 19.412109 L 181.729980 19.412109 L 181.729980 20.335938 Z " fill="rgb(0, 0, 0)" fill-opacity="1.000000" />
<path d="M 181.892578 20.335938 L 181.892578 19.412109 L 188.729980 19.412109 L 188.729980 20.335938 Z " fill="rgb(0, 0, 0)" fill-opacity="1.000000" />
<path d="M 188.892578 20.335938 L 188.892578 19.412109 L 195.729980 19.412109 L 195.729980 20.335938 Z " fill="rgb(0, 0, 0)" fill-opacity="1.000000" />
<path d="M 195.892578 20.335938 L 195.892578 19.412109 L 202.729980 19.412109 L 202.729980 20.335938 Z " fill="rgb(0, 0, 0)" fill-opacity="1.000000" />
<path d="M 202.892578 20.335938 L 202.892578 19.412109 L 209.729980 19.412109 L 209.729980 20.335938 Z " fill="rgb(0, 0, 0)" fill-opacity="1.000000" />
<path d="M 209.892578 20.335938 L 209.892578 19.412109 L 216.729980 19.412109 L 216.729980 20.335938 Z " fill="rgb(0, 0, 0)" fill-opacity="1.000000" />
<path d="M 216.892578 20.335938 L 216.892578 19.412109 L 223.729980 19.412109 L 223.729980 20.335938 Z " fill="rgb(0, 0, 0)" fill-opacity="1.000000" />
<path d="M 223.892578 20.335938 L 223.892578 19.412109 L 230.729980 19.412109 L 230.729980 20.335938 Z " fill="rgb(0, 0, 0)" fill-opacity="1.000000" />
<path d="M 230.892578 20.335938 L 230.892578 19.412109 L 237.729980 19.412109 L 237.729980 20.335938 Z " fill="rgb(0, 0, 0)" fill-opacity="1.000000" />
<path d="M 238.032227 23.418945 L 238.032227 16.866211 L 244.590332 20.142578 Z " fill="rgb(0, 0, 0)" fill-opacity="1.000000" />
<path d="M 254.878906 26.319336 L 254.878906 12.300781 L 255.738281 12.300781 L 255.738281 26.319336 Z " fill="rgb(0, 0, 0)" fill-opacity="1.000000" />
<path d="M 323.079590 14.980957 L 327.532227 14.980957 L 327.532227 15.894043 L 325.851074 15.894043 L 325.851074 22.086914 L 327.532227 22.086914 L 327.532227 23.000000 L 323.079590 23.000000 L 323.079590 22.086914 L 324.760742 22.086914 L 324.760742 15.894043 L 323.079590 15.894043 Z " fill="rgb(0, 0, 0)" fill-opacity="1.000000" />
<path d="M 334.645020 19.272461 L 334.645020 23.000000 L 333.651367 23.000000 L 333.651367 19.272461 Q 333.651367 18.461426 333.366699 18.080078 Q 333.082031 17.698730 332.475098 17.698730 Q 331.782227 17.698730 331.408936 18.190186 Q 331.035645 18.681641 331.035645 19.600098 L 331.035645 23.000000 L 330.047363 23.000000 L 330.047363 16.984375 L 331.035645 16.984375 L 331.035645 17.886719 Q 331.298828 17.371094 331.750000 17.105225 Q 332.201172 16.839355 332.818848 16.839355 Q 333.737305 16.839355 334.191162 17.443604 Q 334.645020 18.047852 334.645020 19.272461 Z " fill="rgb(0, 0, 0)" fill-opacity="1.000000" />
<path d="M 341.709473 14.642578 L 341.709473 15.464355 L 340.586914 15.464355 Q 340.055176 15.464355 339.848389 15.681885 Q 339.641602 15.899414 339.641602 16.452637 L 339.641602 16.984375 L 341.709473 16.984375 L 341.709473 17.752441 L 339.641602 17.752441 L 339.641602 23.000000 L 338.653320 23.000000 L 338.653320 17.752441 L 337.047363 17.752441 L 337.047363 16.984375 L 338.653320 16.984375 L 338.653320 16.565430 Q 338.653320 15.577148 339.107178 15.109863 Q 339.561035 14.642578 340.522461 14.642578 Z " fill="rgb(0, 0, 0)" fill-opacity="1.000000" />
<path d="M 344.697266 17.005859 L 347.227051 17.005859 L 347.227051 22.231934 L 349.187500 22.231934 L 349.187500 23.000000 L 344.278320 23.000000 L 344.278320 22.231934 L 346.238770 22.231934 L 346.238770 17.773926 L 344.697266 17.773926 Z M 346.238770 14.669434 L 347.227051 14.669434 L 347.227051 15.915527 L 346.238770 15.915527 Z " fill="rgb(0, 0, 0)" fill-opacity="1.000000" />
<path d="M 355.645020 19.272461 L 355.645020 23.000000 L 354.651367 23.000000 L 354.651367 19.272461 Q 354.651367 18.461426 354.366699 18.080078 Q 354.082031 17.698730 353.475098 17.698730 Q 352.782227 17.698730 352.408936 18.190186 Q 352.035645 18.681641 352.035645 19.600098 L 352.035645 23.000000 L 351.047363 23.000000 L 351.047363 16.984375 L 352.035645 16.984375 L 352.035645 17.886719 Q 352.298828 17.371094 352.750000 17.105225 Q 353.201172 16.839355 353.818848 16.839355 Q 354.737305 16.839355 355.191162 17.443604 Q 355.645020 18.047852 355.645020 19.272461 Z " fill="rgb(0, 0, 0)" fill-opacity="1.000000" />
<path d="M 358.697266 17.005859 L 361.227051 17.005859 L 361.227051 22.231934 L 363.187500 22.231934 L 363.187500 23.000000 L 358.278320 23.000000 L 358.278320 22.231934 L 360.238770 22.231934 L 360.238770 17.773926 L 358.697266 17.773926 Z M 360.238770 14.669434 L 361.227051 14.669434 L 361.227051 15.915527 L 360.238770 15.915527 Z " fill="rgb(0, 0, 0)" fill-opacity="1.000000" />
<path d="M 367.297852 15.276367 L 367.297852 16.984375 L 369.542969 16.984375 L 369.542969 17.752441 L 367.297852 17.752441 L 367.297852 21.018066 Q 367.297852 21.684082 367.550293 21.947266 Q 367.802734 22.210449 368.431152 22.210449 L 369.542969 22.210449 L 369.542969 23.000000 L 368.334473 23.000000 Q 367.222656 23.000000 366.766113 22.554199 Q 366.309570 22.108398 366.309570 21.018066 L 366.309570 17.752441 L 364.703613 17.752441 L 364.703613 16.984375 L 366.309570 16.984375 L 366.309570 15.276367 Z " fill="rgb(0, 0, 0)" fill-opacity="1.000000" />
<path d="M 375.608398 21.066406 Q 375.361328 21.694824 374.979980 22.720703 Q 374.448242 24.138672 374.265625 24.450195 Q 374.018555 24.869141 373.647949 25.078613 Q 373.277344 25.288086 372.783203 25.288086 L 371.988281 25.288086 L 371.988281 24.460938 L 372.573730 24.460938 Q 373.008789 24.460938 373.255859 24.208496 Q 373.502930 23.956055 373.884277 22.903320 L 371.558594 16.984375 L 372.605957 16.984375 L 374.389160 21.689453 L 376.145508 16.984375 L 377.192871 16.984375 Z " fill="rgb(0, 0, 0)" fill-opacity="1.000000" />
<path d="M 450.878906 26.319336 L 450.878906 12.300781 L 451.738281 12.300781 L 451.738281 26.319336 Z " fill="rgb(0, 0, 0)" fill-opacity="1.000000" />
<path d="M 254.878906 13.319336 L 254.878906 6.412109 L 258.729980 6.412109 L 258.729980 7.335938 L 255.738281 7.335938 L 255.738281 13.319336 Z " fill="rgb(0, 0, 0)" fill-opacity="1.000000" />
<path d="M 258.892578 7.335938 L 258.892578 6.412109 L 265.729980 6.412109 L 265.729980 7.335938 Z " fill="rgb(0, 0, 0)" fill-opacity="1.000000" />
<path d="M 265.892578 7.335938 L 265.892578 6.412109 L 272.729980 6.412109 L 272.729980 7.335938 Z " fill="rgb(0, 0, 0)" fill-opacity="1.000000" />
<path d="M 272.892578 7.335938 L 272.892578 6.412109 L 279.729980 6.412109 L 279.729980 7.335938 Z " fill="rgb(0, 0, 0)" fill-opacity="1.000000" />
<path d="M 279.892578 7.335938 L 279.892578 6.412109 L 286.729980 6.412109 L 286.729980 7.335938 Z " fill="rgb(0, 0, 0)" fill-opacity="1.000000" />
<path d="M 286.892578 7.335938 L 286.892578 6.412109 L 293.729980 6.412109 L 293.729980 7.335938 Z " fill="rgb(0, 0, 0)" fill-opacity="1.000000" />
<path d="M 293.892578 7.335938 L 293.892578 6.412109 L 300.729980 6.412109 L 300.729980 7.335938 Z " fill="rgb(0, 0, 0)" fill-opacity="1.000000" />
<path d="M 300.892578 7.335938 L 300.892578 6.412109 L 307.729980 6.412109 L 307.729980 7.335938 Z " fill="rgb(0, 0, 0)" fill-opacity="1.000000" />
<path d="M 307.892578 7.335938 L 307.892578 6.412109 L 314.729980 6.412109 L 314.729980 7.335938 Z " fill="rgb(0, 0, 0)" fill-opacity="1.000000" />
<path d="M 314.892578 7.335938 L 314.892578 6.412109 L 321.729980 6.412109 L 321.729980 7.335938 Z " fill="rgb(0, 0, 0)" fill-opacity="1.000000" />
<path d="M 321.892578 7.335938 L 321.892578 6.412109 L 328.729980 6.412109 L 328.729980 7.335938 Z " fill="rgb(0, 0, 0)" fill-opacity="1.000000" />
<path d="M 328.892578 7.335938 L 328.892578 6.412109 L 335.729980 6.412109 L 335.729980 7.335938 Z " fill="rgb(0, 0, 0)" fill-opacity="1.000000" />
<path d="M 335.892578 7.335938 L 335.892578 6.412109 L 342.729980 6.412109 L 342.729980 7.335938 Z " fill="rgb(0, 0, 0)" fill-opacity="1.000000" />
<path d="M 342.892578 7.335938 L 342.892578 6.412109 L 349.729980 6.412109 L 349.729980 7.335938 Z " fill="rgb(0, 0, 0)" fill-opacity="1.000000" />
<path d="M 349.892578 7.335938 L 349.892578 6.412109 L 356.729980 6.412109 L 356.729980 7.335938 Z " fill="rgb(0, 0, 0)" fill-opacity="1.000000" />
<path d="M 356.892578 7.335938 L 356.892578 6.412109 L 363.729980 6.412109 L 363.729980 7.335938 Z " fill="rgb(0, 0, 0)" fill-opacity="1.000000" />
<path d="M 363.892578 7.335938 L 363.892578 6.412109 L 370.729980 6.412109 L 370.729980 7.335938 Z " fill="rgb(0, 0, 0)" fill-opacity="1.000000" />
<path d="M 370.892578 7.335938 L 370.892578 6.412109 L 377.729980 6.412109 L 377.729980 7.335938 Z " fill="rgb(0, 0, 0)" fill-opacity="1.000000" />
<path d="M 377.892578 7.335938 L 377.892578 6.412109 L 384.729980 6.412109 L 384.729980 7.335938 Z " fill="rgb(0, 0, 0)" fill-opacity="1.000000" />
<path d="M 384.892578 7.335938 L 384.892578 6.412109 L 391.729980 6.412109 L 391.729980 7.335938 Z " fill="rgb(0, 0, 0)" fill-opacity="1.000000" />
<path d="M 391.892578 7.335938 L 391.892578 6.412109 L 398.729980 6.412109 L 398.729980 7.335938 Z " fill="rgb(0, 0, 0)" fill-opacity="1.000000" />
<path d="M 398.892578 7.335938 L 398.892578 6.412109 L 405.729980 6.412109 L 405.729980 7.335938 Z " fill="rgb(0, 0, 0)" fill-opacity="1.000000" />
<path d="M 405.892578 7.335938 L 405.892578 6.412109 L 412.729980 6.412109 L 412.729980 7.335938 Z " fill="rgb(0, 0, 0)" fill-opacity="1.000000" />
<path d="M 412.892578 7.335938 L 412.892578 6.412109 L 419.729980 6.412109 L 419.729980 7.335938 Z " fill="rgb(0, 0, 0)" fill-opacity="1.000000" />
<path d="M 419.892578 7.335938 L 419.892578 6.412109 L 426.729980 6.412109 L 426.729980 7.335938 Z " fill="rgb(0, 0, 0)" fill-opacity="1.000000" />
<path d="M 426.892578 7.335938 L 426.892578 6.412109 L 433.729980 6.412109 L 433.729980 7.335938 Z " fill="rgb(0, 0, 0)" fill-opacity="1.000000" />
<path d="M 433.892578 7.335938 L 433.892578 6.412109 L 440.729980 6.412109 L 440.729980 7.335938 Z " fill="rgb(0, 0, 0)" fill-opacity="1.000000" />
<path d="M 440.892578 7.335938 L 440.892578 6.412109 L 447.729980 6.412109 L 447.729980 7.335938 Z " fill="rgb(0, 0, 0)" fill-opacity="1.000000" />
<path d="M 450.878906 13.319336 L 450.878906 7.335938 L 447.892578 7.335938 L 447.892578 6.412109 L 451.738281 6.412109 L 451.738281 13.319336 Z " fill="rgb(0, 0, 0)" fill-opacity="1.000000" />
</svg>