<svg xmlns="http://www.w3.org/2000/svg" version="1.1" width="456" height="170">
<path d="M 4.592285 53.116211 Q 3.877930 54.340820 3.526123 55.557373 Q 3.174316 56.773926 3.174316 58.009277 Q 3.174316 59.239258 3.526123 60.458496 Q 3.877930 61.677734 4.592285 62.913086 L 3.732910 62.913086 Q 2.921875 61.634766 2.524414 60.423584 Q 2.126953 59.212402 2.126953 58.009277 Q 2.126953 56.811523 2.524414 55.597656 Q 2.921875 54.383789 3.732910 53.116211 Z " fill="rgb(0, 0, 0)" fill-opacity="1.000000" />
<path d="M 8.450195 152.092285 L 10.136719 152.092285 L 10.136719 146.033691 L 8.117188 147.005859 L 8.117188 145.963867 L 10.125977 145.007812 L 11.210938 145.007812 L 11.210938 152.092285 L 12.875977 152.092285 L 12.875977 153.000000 L 8.450195 153.000000 Z " fill="rgb(0, 0, 0)" fill-opacity="1.000000" />
<path d="M 58.878906 163.335938 L 58.878906 155.300781 L 59.738281 155.300781 L 59.738281 162.412109 L 62.729980 162.412109 L 62.729980 163.335938 Z " fill="rgb(0, 0, 0)" fill-opacity="1.000000" />
<path d="M 62.892578 163.335938 L 62.892578 162.412109 L 69.729980 162.412109 L 69.729980 163.335938 Z " fill="rgb(0, 0, 0)" fill-opacity="1.000000" />
<path d="M 69.892578 163.335938 L 69.892578 162.412109 L 76.729980 162.412109 L 76.729980 163.335938 Z " fill="rgb(0, 0, 0)" fill-opacity="1.000000" />
<path d="M 76.892578 163.335938 L 76.892578 162.412109 L 83.729980 162.412109 L 83.729980 163.335938 Z " fill="rgb(0, 0, 0)" fill-opacity="1.000000" />
<path d="M 83.892578 163.335938 L 83.892578 162.412109 L 90.729980 162.412109 L 90.729980 163.335938 Z " fill="rgb(0, 0, 0)" fill-opacity="1.000000" />
<path d="M 90.892578 163.335938 L 90.892578 162.412109 L 97.729980 162.412109 L 97.729980 163.335938 Z " fill="rgb(0, 0, 0)" fill-opacity="1.000000" />
<path d="M 97.892578 163.335938 L 97.892578 162.412109 L 104.729980 162.412109 L 104.729980 163.335938 Z " fill="rgb(0, 0, 0)" fill-opacity="1.000000" />
<path d="M 104.892578 163.335938 L 104.892578 162.412109 L 107.878906 162.412109 L 107.878906 155.300781 L 108.738281 155.300781 L 108.738281 163.335938 Z " fill="rgb(0, 0, 0)" fill-opacity="1.000000" />
<path d="M 135.878906 163.335938 L 135.878906 155.300781 L 136.738281 155.300781 L 136.738281 162.412109 L 139.729980 162.412109 L 139.729980 163.335938 Z " fill="rgb(0, 0, 0)" fill-opacity="1.000000" />
<path d="M 139.892578 163.335938 L 139.892578 162.412109 L 146.729980 162.412109 L 146.729980 163.335938 Z " fill="rgb(0, 0, 0)" fill-opacity="1.000000" />
<path d="M 146.892578 163.335938 L 146.892578 162.412109 L 153.729980 162.412109 L 153.729980 163.335938 Z " fill="rgb(0, 0, 0)" fill-opacity="1.000000" />
<path d="M 153.892578 163.335938 L 153.892578 162.412109 L 160.729980 162.412109 L 160.729980 163.335938 Z " fill="rgb(0, 0, 0)" fill-opacity="1.000000" />
<path d="M 160.892578 163.335938 L 160.892578 162.412109 L 167.729980 162.412109 L 167.729980 163.335938 Z " fill="rgb(0, 0, 0)" fill-opacity="1.000000" />
<path d="M 167.892578 163.335938 L 167.892578 162.412109 L 174.729980 162.412109 L 174.729980 163.335938 Z " fill="rgb(0, 0, 0)" fill-opacity="1.000000" />
<path d="M 174.892578 163.335938 L 174.892578 162.412109 L 181.729980 162.412109 L 181.729980 163.335938 Z " fill="rgb(0, 0, 0)" fill-opacity="1.000000" />
<path d="M 181.892578 163.335938 L 181.892578 162.412109 L 188.729980 162.412109 L 188.729980 163.335938 Z " fill="rgb(0, 0, 0)" fill-opacity="1.000000" />
<path d="M 188.892578 163.335938 L 188.892578 162.412109 L 195.729980 162.412109 L 195.729980 163.335938 Z " fill="rgb(0, 0, 0)" fill-opacity="1.000000" />
<path d="M 195.892578 163.335938 L 195.892578 162.412109 L 202.729980 162.412109 L 202.729980 163.335938 Z " fill="rgb(0, 0, 0)" fill-opacity="1.000000" />
<path d="M 202.892578 163.335938 L 202.892578 162.412109 L 209.729980 162.412109 L 209.729980 163.335938 Z " fill="rgb(0, 0, 0)" fill-opacity="1.000000" />
<path d="M 209.892578 163.335938 L 209.892578 162.412109 L 216.729980 162.412109 L 216.729980 163.335938 Z " fill="rgb(0, 0, 0)" fill-opacity="1.000000" />
<path d="M 216.892578 163.335938 L 216.892578 162.412109 L 223.729980 162.412109 L 223.729980 163.335938 Z " fill="rgb(0, 0, 0)" fill-opacity="1.000000" />
<path d="M 223.892578 163.335938 L 223.892578 162.412109 L 230.729980 162.412109 L 230.729980 163.335938 Z " fill="rgb(0, 0, 0)" fill-opacity="1.000000" />
<path d="M 230.892578 163.335938 L 230.892578 162.412109 L 237.729980 162.412109 L 237.729980 163.335938 Z " fill="rgb(0, 0, 0)" fill-opacity="1.000000" />
<path d="M 237.892578 163.335938 L 237.892578 162.412109 L 244.729980 162.412109 L 244.729980 163.335938 Z " fill="rgb(0, 0, 0)" fill-opacity="1.000000" />
<path d="M 244.892578 163.335938 L 244.892578 162.412109 L 251.729980 162.412109 L 251.729980 163.335938 Z " fill="rgb(0, 0, 0)" fill-opacity="1.000000" />
<path d="M 251.892578 163.335938 L 251.892578 162.412109 L 258.729980 162.412109 L 258.729980 163.335938 Z " fill="rgb(0, 0, 0)" fill-opacity="1.000000" />
<path d="M 258.892578 163.335938 L 258.892578 162.412109 L 265.729980 162.412109 L 265.729980 163.335938 Z " fill="rgb(0, 0, 0)" fill-opacity="1.000000" />
<path d="M 265.892578 163.335938 L 265.892578 162.412109 L 272.729980 162.412109 L 272.729980 163.335938 Z " fill="rgb(0, 0, 0)" fill-opacity="1.000000" />
<path d="M 272.892578 163.335938 L 272.892578 162.412109 L 275.878906 162.412109 L 275.878906 155.300781 L 276.738281 155.300781 L 276.738281 163.335938 Z " fill="rgb(0, 0, 0)" fill-opacity="1.000000" />
<path d="M 21.547852 149.111328 L 27.241211 149.111328 L 27.241211 150.019043 L 21.547852 150.019043 Z " fill="rgb(0, 0, 0)" fill-opacity="1.000000" />
<path d="M 39.114258 150.201660 L 38.877930 148.960938 Q 38.636230 147.693359 37.685547 147.687988 Q 37.159180 147.682617 36.831543 148.278809 Q 36.417969 149.014648 36.417969 149.997559 Q 36.417969 151.179199 36.815430 151.743164 Q 37.229004 152.317871 37.685547 152.317871 Q 38.399902 152.317871 38.786621 151.173828 Z M 37.685547 146.850098 Q 39.350586 146.823242 39.667480 148.558105 L 40.199219 146.984375 L 41.080078 146.984375 L 39.979004 150.244629 L 40.193848 151.420898 Q 40.242188 151.684082 40.430176 151.904297 Q 40.650391 152.162109 40.822266 152.162109 L 41.294922 152.162109 L 41.294922 153.000000 L 40.704102 153.000000 Q 40.199219 153.000000 39.748047 152.548828 Q 39.527832 152.323242 39.436523 151.850586 Q 39.189453 152.436035 38.695312 152.914062 Q 38.453613 153.139648 37.685547 153.134277 Q 36.622070 153.123535 36.009766 152.317871 Q 35.375977 151.479980 35.375977 149.997559 Q 35.375977 148.402344 36.052734 147.677246 Q 36.820801 146.866211 37.685547 146.850098 Z " fill="rgb(0, 0, 0)" fill-opacity="1.000000" />
<path d="M 58.878906 156.319336 L 58.878906 142.300781 L 59.738281 142.300781 L 59.738281 156.319336 Z " fill="rgb(0, 0, 0)" fill-opacity="1.000000" />
<path d="M 107.878906 156.319336 L 107.878906 142.300781 L 108.738281 142.300781 L 108.738281 156.319336 Z " fill="rgb(0, 0, 0)" fill-opacity="1.000000" />
<path d="M 135.878906 156.319336 L 135.878906 142.300781 L 136.738281 142.300781 L 136.738281 156.319336 Z " fill="rgb(0, 0, 0)" fill-opacity="1.000000" />
<path d="M 190.450195 152.092285 L 192.136719 152.092285 L 192.136719 146.033691 L 190.117188 147.005859 L 190.117188 145.963867 L 192.125977 145.007812 L 193.210938 145.007812 L 193.210938 152.092285 L 194.875977 152.092285 L 194.875977 153.000000 L 190.450195 153.000000 Z " fill="rgb(0, 0, 0)" fill-opacity="1.000000" />
<path d="M 203.547852 149.111328 L 209.241211 149.111328 L 209.241211 150.019043 L 203.547852 150.019043 Z " fill="rgb(0, 0, 0)" fill-opacity="1.000000" />
<path d="M 221.114258 150.201660 L 220.877930 148.960938 Q 220.636230 147.693359 219.685547 147.687988 Q 219.159180 147.682617 218.831543 148.278809 Q 218.417969 149.014648 218.417969 149.997559 Q 218.417969 151.179199 218.815430 151.743164 Q 219.229004 152.317871 219.685547 152.317871 Q 220.399902 152.317871 220.786621 151.173828 Z M 219.685547 146.850098 Q 221.350586 146.823242 221.667480 148.558105 L 222.199219 146.984375 L 223.080078 146.984375 L 221.979004 150.244629 L 222.193848 151.420898 Q 222.242188 151.684082 222.430176 151.904297 Q 222.650391 152.162109 222.822266 152.162109 L 223.294922 152.162109 L 223.294922 153.000000 L 222.704102 153.000000 Q 222.199219 153.000000 221.748047 152.548828 Q 221.527832 152.323242 221.436523 151.850586 Q 221.189453 152.436035 220.695312 152.914062 Q 220.453613 153.139648 219.685547 153.134277 Q 218.622070 153.123535 218.009766 152.317871 Q 217.375977 151.479980 217.375977 149.997559 Q 217.375977 148.402344 218.052734 147.677246 Q 218.820801 146.866211 219.685547 146.850098 Z " fill="rgb(0, 0, 0)" fill-opacity="1.000000" />
<path d="M 275.878906 156.319336 L 275.878906 142.300781 L 276.738281 142.300781 L 276.738281 156.319336 Z " fill="rgb(0, 0, 0)" fill-opacity="1.000000" />
<path d="M 58.878906 130.319336 L 58.878906 123.412109 L 62.729980 123.412109 L 62.729980 124.335938 L 59.738281 124.335938 L 59.738281 130.319336 Z " fill="rgb(0, 0, 0)" fill-opacity="1.000000" />
<path d="M 58.878906 143.319336 L 58.878906 129.300781 L 59.738281 129.300781 L 59.738281 143.319336 Z " fill="rgb(0, 0, 0)" fill-opacity="1.000000" />
<path d="M 100.878906 137.335938 L 100.878906 129.300781 L 101.738281 129.300781 L 101.738281 136.412109 L 104.729980 136.412109 L 104.729980 137.335938 Z " fill="rgb(0, 0, 0)" fill-opacity="1.000000" />
<path d="M 105.032227 140.418945 L 108.308594 133.866211 L 111.590332 140.418945 Z " fill="rgb(0, 0, 0)" fill-opacity="1.000000" />
<path d="M 111.892578 137.335938 L 111.892578 136.412109 L 118.729980 136.412109 L 118.729980 137.335938 Z " fill="rgb(0, 0, 0)" fill-opacity="1.000000" />
<path d="M 118.892578 137.335938 L 118.892578 136.412109 L 125.729980 136.412109 L 125.729980 137.335938 Z " fill="rgb(0, 0, 0)" fill-opacity="1.000000" />
<path d="M 125.892578 137.335938 L 125.892578 136.412109 L 132.729980 136.412109 L 132.729980 137.335938 Z " fill="rgb(0, 0, 0)" fill-opacity="1.000000" />
<path d="M 133.032227 140.418945 L 136.308594 133.866211 L 139.590332 140.418945 Z " fill="rgb(0, 0, 0)" fill-opacity="1.000000" />
<path d="M 139.892578 137.335938 L 139.892578 136.412109 L 142.878906 136.412109 L 142.878906 129.300781 L 143.738281 129.300781 L 143.738281 137.335938 Z " fill="rgb(0, 0, 0)" fill-opacity="1.000000" />
<path d="M 275.878906 143.319336 L 275.878906 129.300781 L 276.738281 129.300781 L 276.738281 143.319336 Z " fill="rgb(0, 0, 0)" fill-opacity="1.000000" />
<path d="M 62.892578 124.335938 L 62.892578 123.412109 L 69.729980 123.412109 L 69.729980 124.335938 Z " fill="rgb(0, 0, 0)" fill-opacity="1.000000" />
<path d="M 69.892578 124.335938 L 69.892578 123.412109 L 76.729980 123.412109 L 76.729980 124.335938 Z " fill="rgb(0, 0, 0)" fill-opacity="1.000000" />
<path d="M 76.892578 124.335938 L 76.892578 123.412109 L 83.729980 123.412109 L 83.729980 124.335938 Z " fill="rgb(0, 0, 0)" fill-opacity="1.000000" />
<path d="M 83.892578 124.335938 L 83.892578 123.412109 L 90.729980 123.412109 L 90.729980 124.335938 Z " fill="rgb(0, 0, 0)" fill-opacity="1.000000" />
<path d="M 90.892578 124.335938 L 90.892578 123.412109 L 97.729980 123.412109 L 97.729980 124.335938 Z " fill="rgb(0, 0, 0)" fill-opacity="1.000000" />
<path d="M 100.878906 130.319336 L 100.878906 124.335938 L 97.892578 124.335938 L 97.892578 123.412109 L 100.878906 123.412109 L 100.878906 116.300781 L 101.738281 116.300781 L 101.738281 130.319336 Z " fill="rgb(0, 0, 0)" fill-opacity="1.000000" />
<path d="M 122.308594 118.862793 Q 123.592285 118.862793 124.250244 119.910156 Q 124.908203 120.957520 124.908203 123.009277 Q 124.908203 125.061035 124.250244 126.108398 Q 123.592285 127.155762 122.308594 127.155762 Q 121.024902 127.155762 120.369629 126.108398 Q 119.714355 125.061035 119.714355 123.009277 Q 119.714355 120.957520 120.369629 119.910156 Q 121.024902 118.862793 122.308594 118.862793 Z M 122.308594 126.296387 Q 123.071289 126.296387 123.444580 125.485352 Q 123.817871 124.674316 123.817871 123.009277 Q 123.817871 122.123047 123.710449 121.408691 L 121.153809 125.410156 Q 121.556641 126.296387 122.308594 126.296387 Z M 122.308594 119.722168 Q 121.551270 119.722168 121.177979 120.533203 Q 120.804688 121.344238 120.804688 123.009277 Q 120.804688 123.766602 120.906738 124.427246 L 123.409668 120.436523 Q 123.001465 119.722168 122.308594 119.722168 Z " fill="rgb(0, 0, 0)" fill-opacity="1.000000" />
<path d="M 142.878906 130.319336 L 142.878906 116.300781 L 143.738281 116.300781 L 143.738281 123.412109 L 146.729980 123.412109 L 146.729980 124.335938 L 143.738281 124.335938 L 143.738281 130.319336 Z " fill="rgb(0, 0, 0)" fill-opacity="1.000000" />
<path d="M 146.892578 124.335938 L 146.892578 123.412109 L 153.729980 123.412109 L 153.729980 124.335938 Z " fill="rgb(0, 0, 0)" fill-opacity="1.000000" />
<path d="M 153.892578 124.335938 L 153.892578 123.412109 L 160.729980 123.412109 L 160.729980 124.335938 Z " fill="rgb(0, 0, 0)" fill-opacity="1.000000" />
<path d="M 160.892578 124.335938 L 160.892578 123.412109 L 167.729980 123.412109 L 167.729980 124.335938 Z " fill="rgb(0, 0, 0)" fill-opacity="1.000000" />
<path d="M 167.892578 124.335938 L 167.892578 123.412109 L 174.729980 123.412109 L 174.729980 124.335938 Z " fill="rgb(0, 0, 0)" fill-opacity="1.000000" />
<path d="M 174.892578 124.335938 L 174.892578 123.412109 L 181.729980 123.412109 L 181.729980 124.335938 Z " fill="rgb(0, 0, 0)" fill-opacity="1.000000" />
<path d="M 181.892578 124.335938 L 181.892578 123.412109 L 188.729980 123.412109 L 188.729980 124.335938 Z " fill="rgb(0, 0, 0)" fill-opacity="1.000000" />
<path d="M 188.892578 124.335938 L 188.892578 123.412109 L 195.729980 123.412109 L 195.729980 124.335938 Z " fill="rgb(0, 0, 0)" fill-opacity="1.000000" />
<path d="M 195.892578 124.335938 L 195.892578 123.412109 L 198.878906 123.412109 L 198.878906 116.300781 L 199.738281 116.300781 L 199.738281 124.335938 Z " fill="rgb(0, 0, 0)" fill-opacity="1.000000" />
<path d="M 275.878906 130.319336 L 275.878906 116.300781 L 276.738281 116.300781 L 276.738281 130.319336 Z " fill="rgb(0, 0, 0)" fill-opacity="1.000000" />
<path d="M 100.878906 117.319336 L 100.878906 110.412109 L 104.729980 110.412109 L 104.729980 111.335938 L 101.738281 111.335938 L 101.738281 117.319336 Z " fill="rgb(0, 0, 0)" fill-opacity="1.000000" />
<path d="M 108.308594 114.418945 L 105.032227 107.866211 L 111.590332 107.866211 Z " fill="rgb(0, 0, 0)" fill-opacity="1.000000" />
<path d="M 111.892578 111.335938 L 111.892578 110.412109 L 118.729980 110.412109 L 118.729980 111.335938 Z " fill="rgb(0, 0, 0)" fill-opacity="1.000000" />
<path d="M 122.308594 114.418945 L 119.032227 107.866211 L 125.590332 107.866211 Z " fill="rgb(0, 0, 0)" fill-opacity="1.000000" />
<path d="M 125.892578 111.335938 L 125.892578 110.412109 L 132.729980 110.412109 L 132.729980 111.335938 Z " fill="rgb(0, 0, 0)" fill-opacity="1.000000" />
<path d="M 136.308594 114.418945 L 133.032227 107.866211 L 139.590332 107.866211 Z " fill="rgb(0, 0, 0)" fill-opacity="1.000000" />
<path d="M 142.878906 117.319336 L 142.878906 111.335938 L 139.892578 111.335938 L 139.892578 110.412109 L 143.738281 110.412109 L 143.738281 117.319336 Z " fill="rgb(0, 0, 0)" fill-opacity="1.000000" />
<path d="M 172.114258 111.201660 L 171.877930 109.960938 Q 171.636230 108.693359 170.685547 108.687988 Q 170.159180 108.682617 169.831543 109.278809 Q 169.417969 110.014648 169.417969 110.997559 Q 169.417969 112.179199 169.815430 112.743164 Q 170.229004 113.317871 170.685547 113.317871 Q 171.399902 113.317871 171.786621 112.173828 Z M 170.685547 107.850098 Q 172.350586 107.823242 172.667480 109.558105 L 173.199219 107.984375 L 174.080078 107.984375 L 172.979004 111.244629 L 173.193848 112.420898 Q 173.242188 112.684082 173.430176 112.904297 Q 173.650391 113.162109 173.822266 113.162109 L 174.294922 113.162109 L 174.294922 114.000000 L 173.704102 114.000000 Q 173.199219 114.000000 172.748047 113.548828 Q 172.527832 113.323242 172.436523 112.850586 Q 172.189453 113.436035 171.695312 113.914062 Q 171.453613 114.139648 170.685547 114.134277 Q 169.622070 114.123535 169.009766 113.317871 Q 168.375977 112.479980 168.375977 110.997559 Q 168.375977 109.402344 169.052734 108.677246 Q 169.820801 107.866211 170.685547 107.850098 Z " fill="rgb(0, 0, 0)" fill-opacity="1.000000" />
<path d="M 198.878906 117.319336 L 198.878906 103.300781 L 199.738281 103.300781 L 199.738281 117.319336 Z " fill="rgb(0, 0, 0)" fill-opacity="1.000000" />
<path d="M 275.878906 117.319336 L 275.878906 103.300781 L 276.738281 103.300781 L 276.738281 117.319336 Z " fill="rgb(0, 0, 0)" fill-opacity="1.000000" />
<path d="M 309.450195 113.092285 L 311.136719 113.092285 L 311.136719 107.033691 L 309.117188 108.005859 L 309.117188 106.963867 L 311.125977 106.007812 L 312.210938 106.007812 L 312.210938 113.092285 L 313.875977 113.092285 L 313.875977 114.000000 L 309.450195 114.000000 Z " fill="rgb(0, 0, 0)" fill-opacity="1.000000" />
<path d="M 322.547852 110.111328 L 328.241211 110.111328 L 328.241211 111.019043 L 322.547852 111.019043 Z " fill="rgb(0, 0, 0)" fill-opacity="1.000000" />
<path d="M 340.114258 111.201660 L 339.877930 109.960938 Q 339.636230 108.693359 338.685547 108.687988 Q 338.159180 108.682617 337.831543 109.278809 Q 337.417969 110.014648 337.417969 110.997559 Q 337.417969 112.179199 337.815430 112.743164 Q 338.229004 113.317871 338.685547 113.317871 Q 339.399902 113.317871 339.786621 112.173828 Z M 338.685547 107.850098 Q 340.350586 107.823242 340.667480 109.558105 L 341.199219 107.984375 L 342.080078 107.984375 L 340.979004 111.244629 L 341.193848 112.420898 Q 341.242188 112.684082 341.430176 112.904297 Q 341.650391 113.162109 341.822266 113.162109 L 342.294922 113.162109 L 342.294922 114.000000 L 341.704102 114.000000 Q 341.199219 114.000000 340.748047 113.548828 Q 340.527832 113.323242 340.436523 112.850586 Q 340.189453 113.436035 339.695312 113.914062 Q 339.453613 114.139648 338.685547 114.134277 Q 337.622070 114.123535 337.009766 113.317871 Q 336.375977 112.479980 336.375977 110.997559 Q 336.375977 109.402344 337.052734 108.677246 Q 337.820801 107.866211 338.685547 107.850098 Z " fill="rgb(0, 0, 0)" fill-opacity="1.000000" />
<path d="M 386.450195 113.092285 L 388.136719 113.092285 L 388.136719 107.033691 L 386.117188 108.005859 L 386.117188 106.963867 L 388.125977 106.007812 L 389.210938 106.007812 L 389.210938 113.092285 L 390.875977 113.092285 L 390.875977 114.000000 L 386.450195 114.000000 Z " fill="rgb(0, 0, 0)" fill-opacity="1.000000" />
<path d="M 399.547852 110.111328 L 405.241211 110.111328 L 405.241211 111.019043 L 399.547852 111.019043 Z " fill="rgb(0, 0, 0)" fill-opacity="1.000000" />
<path d="M 417.114258 111.201660 L 416.877930 109.960938 Q 416.636230 108.693359 415.685547 108.687988 Q 415.159180 108.682617 414.831543 109.278809 Q 414.417969 110.014648 414.417969 110.997559 Q 414.417969 112.179199 414.815430 112.743164 Q 415.229004 113.317871 415.685547 113.317871 Q 416.399902 113.317871 416.786621 112.173828 Z M 415.685547 107.850098 Q 417.350586 107.823242 417.667480 109.558105 L 418.199219 107.984375 L 419.080078 107.984375 L 417.979004 111.244629 L 418.193848 112.420898 Q 418.242188 112.684082 418.430176 112.904297 Q 418.650391 113.162109 418.822266 113.162109 L 419.294922 113.162109 L 419.294922 114.000000 L 418.704102 114.000000 Q 418.199219 114.000000 417.748047 113.548828 Q 417.527832 113.323242 417.436523 112.850586 Q 417.189453 113.436035 416.695312 113.914062 Q 416.453613 114.139648 415.685547 114.134277 Q 414.622070 114.123535 414.009766 113.317871 Q 413.375977 112.479980 413.375977 110.997559 Q 413.375977 109.402344 414.052734 108.677246 Q 414.820801 107.866211 415.685547 107.850098 Z " fill="rgb(0, 0, 0)" fill-opacity="1.000000" />
<path d="M 107.878906 104.319336 L 107.878906 90.300781 L 108.738281 90.300781 L 108.738281 104.319336 Z " fill="rgb(0, 0, 0)" fill-opacity="1.000000" />
<path d="M 121.878906 104.319336 L 121.878906 90.300781 L 122.738281 90.300781 L 122.738281 104.319336 Z " fill="rgb(0, 0, 0)" fill-opacity="1.000000" />
<path d="M 135.878906 104.319336 L 135.878906 90.300781 L 136.738281 90.300781 L 136.738281 104.319336 Z " fill="rgb(0, 0, 0)" fill-opacity="1.000000" />
<path d="M 198.878906 104.319336 L 198.878906 90.300781 L 199.738281 90.300781 L 199.738281 104.319336 Z " fill="rgb(0, 0, 0)" fill-opacity="1.000000" />
<path d="M 275.878906 104.319336 L 275.878906 90.300781 L 276.738281 90.300781 L 276.738281 104.319336 Z " fill="rgb(0, 0, 0)" fill-opacity="1.000000" />
<path d="M 303.878906 98.335938 L 303.878906 90.300781 L 304.738281 90.300781 L 304.738281 97.412109 L 307.729980 97.412109 L 307.729980 98.335938 Z " fill="rgb(0, 0, 0)" fill-opacity="1.000000" />
<path d="M 307.892578 98.335938 L 307.892578 97.412109 L 314.729980 97.412109 L 314.729980 98.335938 Z " fill="rgb(0, 0, 0)" fill-opacity="1.000000" />
<path d="M 314.892578 98.335938 L 314.892578 97.412109 L 321.729980 97.412109 L 321.729980 98.335938 Z " fill="rgb(0, 0, 0)" fill-opacity="1.000000" />
<path d="M 321.892578 98.335938 L 321.892578 97.412109 L 328.729980 97.412109 L 328.729980 98.335938 Z " fill="rgb(0, 0, 0)" fill-opacity="1.000000" />
<path d="M 328.892578 98.335938 L 328.892578 97.412109 L 335.729980 97.412109 L 335.729980 98.335938 Z " fill="rgb(0, 0, 0)" fill-opacity="1.000000" />
<path d="M 335.892578 98.335938 L 335.892578 97.412109 L 342.729980 97.412109 L 342.729980 98.335938 Z " fill="rgb(0, 0, 0)" fill-opacity="1.000000" />
<path d="M 342.892578 98.335938 L 342.892578 97.412109 L 349.729980 97.412109 L 349.729980 98.335938 Z " fill="rgb(0, 0, 0)" fill-opacity="1.000000" />
<path d="M 349.892578 98.335938 L 349.892578 97.412109 L 352.878906 97.412109 L 352.878906 90.300781 L 353.738281 90.300781 L 353.738281 98.335938 Z " fill="rgb(0, 0, 0)" fill-opacity="1.000000" />
<path d="M 380.878906 98.335938 L 380.878906 90.300781 L 381.738281 90.300781 L 381.738281 97.412109 L 384.729980 97.412109 L 384.729980 98.335938 Z " fill="rgb(0, 0, 0)" fill-opacity="1.000000" />
<path d="M 384.892578 98.335938 L 384.892578 97.412109 L 391.729980 97.412109 L 391.729980 98.335938 Z " fill="rgb(0, 0, 0)" fill-opacity="1.000000" />
<path d="M 391.892578 98.335938 L 391.892578 97.412109 L 398.729980 97.412109 L 398.729980 98.335938 Z " fill="rgb(0, 0, 0)" fill-opacity="1.000000" />
<path d="M 398.892578 98.335938 L 398.892578 97.412109 L 405.729980 97.412109 L 405.729980 98.335938 Z " fill="rgb(0, 0, 0)" fill-opacity="1.000000" />
<path d="M 405.892578 98.335938 L 405.892578 97.412109 L 412.729980 97.412109 L 412.729980 98.335938 Z " fill="rgb(0, 0, 0)" fill-opacity="1.000000" />
<path d="M 412.892578 98.335938 L 412.892578 97.412109 L 419.729980 97.412109 L 419.729980 98.335938 Z " fill="rgb(0, 0, 0)" fill-opacity="1.000000" />
<path d="M 419.892578 98.335938 L 419.892578 97.412109 L 426.729980 97.412109 L 426.729980 98.335938 Z " fill="rgb(0, 0, 0)" fill-opacity="1.000000" />
<path d="M 426.892578 98.335938 L 426.892578 97.412109 L 429.878906 97.412109 L 429.878906 90.300781 L 430.738281 90.300781 L 430.738281 98.335938 Z " fill="rgb(0, 0, 0)" fill-opacity="1.000000" />
<path d="M 36.181641 70.509766 Q 35.939941 69.833008 35.435059 69.833008 L 35.171875 69.833008 L 35.171875 68.984375 L 35.547852 68.984375 Q 36.589844 68.984375 36.938965 69.929688 L 38.308594 73.608887 L 40.059570 68.984375 L 41.085449 68.984375 L 38.824219 75.000000 L 38.824219 77.288086 L 37.803711 77.288086 L 37.803711 75.000000 Z " fill="rgb(0, 0, 0)" fill-opacity="1.000000" />
<path d="M 88.114258 85.201660 L 87.877930 83.960938 Q 87.636230 82.693359 86.685547 82.687988 Q 86.159180 82.682617 85.831543 83.278809 Q 85.417969 84.014648 85.417969 84.997559 Q 85.417969 86.179199 85.815430 86.743164 Q 86.229004 87.317871 86.685547 87.317871 Q 87.399902 87.317871 87.786621 86.173828 Z M 86.685547 81.850098 Q 88.350586 81.823242 88.667480 83.558105 L 89.199219 81.984375 L 90.080078 81.984375 L 88.979004 85.244629 L 89.193848 86.420898 Q 89.242188 86.684082 89.430176 86.904297 Q 89.650391 87.162109 89.822266 87.162109 L 90.294922 87.162109 L 90.294922 88.000000 L 89.704102 88.000000 Q 89.199219 88.000000 88.748047 87.548828 Q 88.527832 87.323242 88.436523 86.850586 Q 88.189453 87.436035 87.695312 87.914062 Q 87.453613 88.139648 86.685547 88.134277 Q 85.622070 88.123535 85.009766 87.317871 Q 84.375977 86.479980 84.375977 84.997559 Q 84.375977 83.402344 85.052734 82.677246 Q 85.820801 81.866211 86.685547 81.850098 Z " fill="rgb(0, 0, 0)" fill-opacity="1.000000" />
<path d="M 107.878906 91.319336 L 107.878906 77.300781 L 108.738281 77.300781 L 108.738281 91.319336 Z " fill="rgb(0, 0, 0)" fill-opacity="1.000000" />
<path d="M 121.878906 91.319336 L 121.878906 77.300781 L 122.738281 77.300781 L 122.738281 91.319336 Z " fill="rgb(0, 0, 0)" fill-opacity="1.000000" />
<path d="M 135.878906 91.319336 L 135.878906 77.300781 L 136.738281 77.300781 L 136.738281 91.319336 Z " fill="rgb(0, 0, 0)" fill-opacity="1.000000" />
<path d="M 191.878906 85.335938 L 191.878906 77.300781 L 192.738281 77.300781 L 192.738281 84.412109 L 195.729980 84.412109 L 195.729980 85.335938 Z " fill="rgb(0, 0, 0)" fill-opacity="1.000000" />
<path d="M 196.032227 88.418945 L 199.308594 81.866211 L 202.590332 88.418945 Z " fill="rgb(0, 0, 0)" fill-opacity="1.000000" />
<path d="M 202.892578 85.335938 L 202.892578 84.412109 L 209.729980 84.412109 L 209.729980 85.335938 Z " fill="rgb(0, 0, 0)" fill-opacity="1.000000" />
<path d="M 209.892578 85.335938 L 209.892578 84.412109 L 216.729980 84.412109 L 216.729980 85.335938 Z " fill="rgb(0, 0, 0)" fill-opacity="1.000000" />
<path d="M 216.892578 85.335938 L 216.892578 84.412109 L 223.729980 84.412109 L 223.729980 85.335938 Z " fill="rgb(0, 0, 0)" fill-opacity="1.000000" />
<path d="M 223.892578 85.335938 L 223.892578 84.412109 L 230.729980 84.412109 L 230.729980 85.335938 Z " fill="rgb(0, 0, 0)" fill-opacity="1.000000" />
<path d="M 230.892578 85.335938 L 230.892578 84.412109 L 233.878906 84.412109 L 233.878906 77.300781 L 234.738281 77.300781 L 234.738281 85.335938 Z " fill="rgb(0, 0, 0)" fill-opacity="1.000000" />
<path d="M 268.878906 85.335938 L 268.878906 77.300781 L 269.738281 77.300781 L 269.738281 84.412109 L 272.729980 84.412109 L 272.729980 85.335938 Z " fill="rgb(0, 0, 0)" fill-opacity="1.000000" />
<path d="M 275.878906 91.319336 L 275.878906 85.335938 L 272.892578 85.335938 L 272.892578 84.412109 L 279.729980 84.412109 L 279.729980 85.335938 L 276.738281 85.335938 L 276.738281 91.319336 Z " fill="rgb(0, 0, 0)" fill-opacity="1.000000" />
<path d="M 279.892578 85.335938 L 279.892578 84.412109 L 286.729980 84.412109 L 286.729980 85.335938 Z " fill="rgb(0, 0, 0)" fill-opacity="1.000000" />
<path d="M 286.892578 85.335938 L 286.892578 84.412109 L 293.729980 84.412109 L 293.729980 85.335938 Z " fill="rgb(0, 0, 0)" fill-opacity="1.000000" />
<path d="M 293.892578 85.335938 L 293.892578 84.412109 L 300.729980 84.412109 L 300.729980 85.335938 Z " fill="rgb(0, 0, 0)" fill-opacity="1.000000" />
<path d="M 301.032227 88.418945 L 304.308594 81.866211 L 307.590332 88.418945 Z " fill="rgb(0, 0, 0)" fill-opacity="1.000000" />
<path d="M 307.892578 85.335938 L 307.892578 84.412109 L 310.878906 84.412109 L 310.878906 77.300781 L 311.738281 77.300781 L 311.738281 85.335938 Z " fill="rgb(0, 0, 0)" fill-opacity="1.000000" />
<path d="M 345.878906 85.335938 L 345.878906 77.300781 L 346.738281 77.300781 L 346.738281 84.412109 L 349.729980 84.412109 L 349.729980 85.335938 Z " fill="rgb(0, 0, 0)" fill-opacity="1.000000" />
<path d="M 352.878906 91.319336 L 352.878906 85.335938 L 349.892578 85.335938 L 349.892578 84.412109 L 356.729980 84.412109 L 356.729980 85.335938 L 353.738281 85.335938 L 353.738281 91.319336 Z " fill="rgb(0, 0, 0)" fill-opacity="1.000000" />
<path d="M 356.892578 85.335938 L 356.892578 84.412109 L 363.729980 84.412109 L 363.729980 85.335938 Z " fill="rgb(0, 0, 0)" fill-opacity="1.000000" />
<path d="M 363.892578 85.335938 L 363.892578 84.412109 L 370.729980 84.412109 L 370.729980 85.335938 Z " fill="rgb(0, 0, 0)" fill-opacity="1.000000" />
<path d="M 370.892578 85.335938 L 370.892578 84.412109 L 377.729980 84.412109 L 377.729980 85.335938 Z " fill="rgb(0, 0, 0)" fill-opacity="1.000000" />
<path d="M 378.032227 88.418945 L 381.308594 81.866211 L 384.590332 88.418945 Z " fill="rgb(0, 0, 0)" fill-opacity="1.000000" />
<path d="M 384.892578 85.335938 L 384.892578 84.412109 L 387.878906 84.412109 L 387.878906 77.300781 L 388.738281 77.300781 L 388.738281 85.335938 Z " fill="rgb(0, 0, 0)" fill-opacity="1.000000" />
<path d="M 408.878906 85.335938 L 408.878906 77.300781 L 409.738281 77.300781 L 409.738281 84.412109 L 412.729980 84.412109 L 412.729980 85.335938 Z " fill="rgb(254, 255, 254)" fill-opacity="1.000000" />
<path d="M 412.892578 85.335938 L 412.892578 84.412109 L 419.729980 84.412109 L 419.729980 85.335938 Z " fill="rgb(254, 255, 254)" fill-opacity="1.000000" />
<path d="M 419.892578 85.335938 L 419.892578 84.412109 L 426.729980 84.412109 L 426.729980 85.335938 Z " fill="rgb(254, 255, 254)" fill-opacity="1.000000" />
<path d="M 433.892578 85.335938 L 433.892578 84.412109 L 440.729980 84.412109 L 440.729980 85.335938 Z " fill="rgb(254, 255, 254)" fill-opacity="1.000000" />
<path d="M 440.892578 85.335938 L 440.892578 84.412109 L 447.729980 84.412109 L 447.729980 85.335938 Z " fill="rgb(254, 255, 254)" fill-opacity="1.000000" />
<path d="M 447.892578 85.335938 L 447.892578 84.412109 L 450.878906 84.412109 L 450.878906 77.300781 L 451.738281 77.300781 L 451.738281 85.335938 Z " fill="rgb(254, 255, 254)" fill-opacity="1.000000" />
<path d="M 53.592285 66.116211 Q 52.877930 67.340820 52.526123 68.557373 Q 52.174316 69.773926 52.174316 71.009277 Q 52.174316 72.239258 52.526123 73.458496 Q 52.877930 74.677734 53.592285 75.913086 L 52.732910 75.913086 Q 51.921875 74.634766 51.524414 73.423584 Q 51.126953 72.212402 51.126953 71.009277 Q 51.126953 69.811523 51.524414 68.597656 Q 51.921875 67.383789 52.732910 66.116211 Z " fill="rgb(0, 0, 0)" fill-opacity="1.000000" />
<path d="M 57.450195 74.092285 L 59.136719 74.092285 L 59.136719 68.033691 L 57.117188 69.005859 L 57.117188 67.963867 L 59.125977 67.007812 L 60.210938 67.007812 L 60.210938 74.092285 L 61.875977 74.092285 L 61.875977 75.000000 L 57.450195 75.000000 Z " fill="rgb(0, 0, 0)" fill-opacity="1.000000" />
<path d="M 70.547852 71.111328 L 76.241211 71.111328 L 76.241211 72.019043 L 70.547852 72.019043 Z " fill="rgb(0, 0, 0)" fill-opacity="1.000000" />
<path d="M 88.114258 72.201660 L 87.877930 70.960938 Q 87.636230 69.693359 86.685547 69.687988 Q 86.159180 69.682617 85.831543 70.278809 Q 85.417969 71.014648 85.417969 71.997559 Q 85.417969 73.179199 85.815430 73.743164 Q 86.229004 74.317871 86.685547 74.317871 Q 87.399902 74.317871 87.786621 73.173828 Z M 86.685547 68.850098 Q 88.350586 68.823242 88.667480 70.558105 L 89.199219 68.984375 L 90.080078 68.984375 L 88.979004 72.244629 L 89.193848 73.420898 Q 89.242188 73.684082 89.430176 73.904297 Q 89.650391 74.162109 89.822266 74.162109 L 90.294922 74.162109 L 90.294922 75.000000 L 89.704102 75.000000 Q 89.199219 75.000000 88.748047 74.548828 Q 88.527832 74.323242 88.436523 73.850586 Q 88.189453 74.436035 87.695312 74.914062 Q 87.453613 75.139648 86.685547 75.134277 Q 85.622070 75.123535 85.009766 74.317871 Q 84.375977 73.479980 84.375977 71.997559 Q 84.375977 70.402344 85.052734 69.677246 Q 85.820801 68.866211 86.685547 68.850098 Z " fill="rgb(0, 0, 0)" fill-opacity="1.000000" />
<path d="M 92.869141 66.116211 L 93.728516 66.116211 Q 94.539551 67.383789 94.937012 68.597656 Q 95.334473 69.811523 95.334473 71.009277 Q 95.334473 72.217773 94.937012 73.431641 Q 94.539551 74.645508 93.728516 75.913086 L 92.869141 75.913086 Q 93.583496 74.666992 93.935303 73.447754 Q 94.287109 72.228516 94.287109 71.009277 Q 94.287109 69.784668 93.935303 68.565430 Q 93.583496 67.346191 92.869141 66.116211 Z " fill="rgb(0, 0, 0)" fill-opacity="1.000000" />
<path d="M 107.878906 78.319336 L 107.878906 64.300781 L 108.738281 64.300781 L 108.738281 78.319336 Z " fill="rgb(0, 0, 0)" fill-opacity="1.000000" />
<path d="M 121.878906 78.319336 L 121.878906 64.300781 L 122.738281 64.300781 L 122.738281 78.319336 Z " fill="rgb(0, 0, 0)" fill-opacity="1.000000" />
<path d="M 135.878906 78.319336 L 135.878906 64.300781 L 136.738281 64.300781 L 136.738281 78.319336 Z " fill="rgb(0, 0, 0)" fill-opacity="1.000000" />
<path d="M 191.878906 78.319336 L 191.878906 64.300781 L 192.738281 64.300781 L 192.738281 78.319336 Z " fill="rgb(0, 0, 0)" fill-opacity="1.000000" />
<path d="M 211.450195 74.092285 L 213.136719 74.092285 L 213.136719 68.033691 L 211.117188 69.005859 L 211.117188 67.963867 L 213.125977 67.007812 L 214.210938 67.007812 L 214.210938 74.092285 L 215.875977 74.092285 L 215.875977 75.000000 L 211.450195 75.000000 Z " fill="rgb(0, 0, 0)" fill-opacity="1.000000" />
<path d="M 233.878906 78.319336 L 233.878906 64.300781 L 234.738281 64.300781 L 234.738281 78.319336 Z " fill="rgb(0, 0, 0)" fill-opacity="1.000000" />
<path d="M 268.878906 78.319336 L 268.878906 64.300781 L 269.738281 64.300781 L 269.738281 78.319336 Z " fill="rgb(0, 0, 0)" fill-opacity="1.000000" />
<path d="M 289.003418 74.086914 L 292.687988 74.086914 L 292.687988 75.000000 L 287.816406 75.000000 L 287.816406 74.086914 Q 288.820801 73.028809 289.572754 72.217773 Q 290.324707 71.406738 290.609375 71.073730 Q 291.146484 70.418457 291.334473 70.012939 Q 291.522461 69.607422 291.522461 69.183105 Q 291.522461 68.511719 291.127686 68.130371 Q 290.732910 67.749023 290.045410 67.749023 Q 289.556641 67.749023 289.019531 67.926270 Q 288.482422 68.103516 287.880859 68.463379 L 287.880859 67.367676 Q 288.434082 67.104492 288.968506 66.970215 Q 289.502930 66.835938 290.023926 66.835938 Q 291.200195 66.835938 291.917236 67.461670 Q 292.634277 68.087402 292.634277 69.102539 Q 292.634277 69.618164 292.395264 70.133789 Q 292.156250 70.649414 291.619141 71.272461 Q 291.318359 71.621582 290.746338 72.239258 Q 290.174316 72.856934 289.003418 74.086914 Z " fill="rgb(0, 0, 0)" fill-opacity="1.000000" />
<path d="M 310.878906 78.319336 L 310.878906 64.300781 L 311.738281 64.300781 L 311.738281 78.319336 Z " fill="rgb(0, 0, 0)" fill-opacity="1.000000" />
<path d="M 345.878906 78.319336 L 345.878906 64.300781 L 346.738281 64.300781 L 346.738281 78.319336 Z " fill="rgb(0, 0, 0)" fill-opacity="1.000000" />
<path d="M 368.167969 70.708496 Q 368.957520 70.917969 369.376465 71.452393 Q 369.795410 71.986816 369.795410 72.787109 Q 369.795410 73.893555 369.051514 74.524658 Q 368.307617 75.155762 366.991699 75.155762 Q 366.438477 75.155762 365.863770 75.053711 Q 365.289062 74.951660 364.735840 74.758301 L 364.735840 73.678711 Q 365.283691 73.963379 365.815430 74.103027 Q 366.347168 74.242676 366.873535 74.242676 Q 367.765137 74.242676 368.243164 73.839844 Q 368.721191 73.437012 368.721191 72.679688 Q 368.721191 71.981445 368.243164 71.570557 Q 367.765137 71.159668 366.948730 71.159668 L 366.121582 71.159668 L 366.121582 70.268066 L 366.948730 70.268066 Q 367.695312 70.268066 368.114258 69.940430 Q 368.533203 69.612793 368.533203 69.027344 Q 368.533203 68.409668 368.143799 68.079346 Q 367.754395 67.749023 367.034668 67.749023 Q 366.556641 67.749023 366.046387 67.856445 Q 365.536133 67.963867 364.977539 68.178711 L 364.977539 67.179688 Q 365.627441 67.007812 366.135010 66.921875 Q 366.642578 66.835938 367.034668 66.835938 Q 368.205566 66.835938 368.906494 67.424072 Q 369.607422 68.012207 369.607422 68.984375 Q 369.607422 69.645020 369.239502 70.085449 Q 368.871582 70.525879 368.167969 70.708496 Z " fill="rgb(0, 0, 0)" fill-opacity="1.000000" />
<path d="M 387.878906 78.319336 L 387.878906 64.300781 L 388.738281 64.300781 L 388.738281 78.319336 Z " fill="rgb(0, 0, 0)" fill-opacity="1.000000" />
<path d="M 408.878906 78.319336 L 408.878906 64.300781 L 409.738281 64.300781 L 409.738281 78.319336 Z " fill="rgb(254, 255, 254)" fill-opacity="1.000000" />
<path d="M 414.670410 74.978516 Q 413.032227 74.033203 413.032227 72.142578 Q 413.032227 70.251953 414.670410 69.306641 Q 415.486816 68.833984 416.308594 68.833984 Q 417.125000 68.833984 417.946777 69.306641 Q 419.590332 70.251953 419.590332 72.142578 Q 419.590332 74.033203 417.946777 74.978516 Q 417.125000 75.451172 416.308594 75.451172 Q 415.486816 75.451172 414.670410 74.978516 Z " fill="rgb(0, 0, 0)" fill-opacity="1.000000" />
<path d="M 428.670410 74.978516 Q 427.032227 74.033203 427.032227 72.142578 Q 427.032227 70.251953 428.670410 69.306641 Q 429.486816 68.833984 430.308594 68.833984 Q 431.125000 68.833984 431.946777 69.306641 Q 433.590332 70.251953 433.590332 72.142578 Q 433.590332 74.033203 431.946777 74.978516 Q 431.125000 75.451172 430.308594 75.451172 Q 429.486816 75.451172 428.670410 74.978516 Z " fill="rgb(0, 0, 0)" fill-opacity="1.000000" />
<path d="M 442.670410 74.978516 Q 441.032227 74.033203 441.032227 72.142578 Q 441.032227 70.251953 442.670410 69.306641 Q 443.486816 68.833984 444.308594 68.833984 Q 445.125000 68.833984 445.946777 69.306641 Q 447.590332 70.251953 447.590332 72.142578 Q 447.590332 74.033203 445.946777 74.978516 Q 445.125000 75.451172 444.308594 75.451172 Q 443.486816 75.451172 442.670410 74.978516 Z " fill="rgb(0, 0, 0)" fill-opacity="1.000000" />
<path d="M 450.878906 78.319336 L 450.878906 64.300781 L 451.738281 64.300781 L 451.738281 78.319336 Z " fill="rgb(254, 255, 254)" fill-opacity="1.000000" />
<path d="M 8.450195 61.092285 L 10.136719 61.092285 L 10.136719 55.033691 L 8.117188 56.005859 L 8.117188 54.963867 L 10.125977 54.007812 L 11.210938 54.007812 L 11.210938 61.092285 L 12.875977 61.092285 L 12.875977 62.000000 L 8.450195 62.000000 Z " fill="rgb(0, 0, 0)" fill-opacity="1.000000" />
<path d="M 21.547852 58.111328 L 27.241211 58.111328 L 27.241211 59.019043 L 21.547852 59.019043 Z " fill="rgb(0, 0, 0)" fill-opacity="1.000000" />
<path d="M 36.181641 57.509766 Q 35.939941 56.833008 35.435059 56.833008 L 35.171875 56.833008 L 35.171875 55.984375 L 35.547852 55.984375 Q 36.589844 55.984375 36.938965 56.929688 L 38.308594 60.608887 L 40.059570 55.984375 L 41.085449 55.984375 L 38.824219 62.000000 L 38.824219 64.288086 L 37.803711 64.288086 L 37.803711 62.000000 Z " fill="rgb(0, 0, 0)" fill-opacity="1.000000" />
<path d="M 43.869141 53.116211 L 44.728516 53.116211 Q 45.539551 54.383789 45.937012 55.597656 Q 46.334473 56.811523 46.334473 58.009277 Q 46.334473 59.217773 45.937012 60.431641 Q 45.539551 61.645508 44.728516 62.913086 L 43.869141 62.913086 Q 44.583496 61.666992 44.935303 60.447754 Q 45.287109 59.228516 45.287109 58.009277 Q 45.287109 56.784668 44.935303 55.565430 Q 44.583496 54.346191 43.869141 53.116211 Z " fill="rgb(0, 0, 0)" fill-opacity="1.000000" />
<path d="M 53.592285 53.116211 Q 52.877930 54.340820 52.526123 55.557373 Q 52.174316 56.773926 52.174316 58.009277 Q 52.174316 59.239258 52.526123 60.458496 Q 52.877930 61.677734 53.592285 62.913086 L 52.732910 62.913086 Q 51.921875 61.634766 51.524414 60.423584 Q 51.126953 59.212402 51.126953 58.009277 Q 51.126953 56.811523 51.524414 55.597656 Q 51.921875 54.383789 52.732910 53.116211 Z " fill="rgb(0, 0, 0)" fill-opacity="1.000000" />
<path d="M 57.450195 61.092285 L 59.136719 61.092285 L 59.136719 55.033691 L 57.117188 56.005859 L 57.117188 54.963867 L 59.125977 54.007812 L 60.210938 54.007812 L 60.210938 61.092285 L 61.875977 61.092285 L 61.875977 62.000000 L 57.450195 62.000000 Z " fill="rgb(0, 0, 0)" fill-opacity="1.000000" />
<path d="M 70.547852 58.111328 L 76.241211 58.111328 L 76.241211 59.019043 L 70.547852 59.019043 Z " fill="rgb(0, 0, 0)" fill-opacity="1.000000" />
<path d="M 88.114258 59.201660 L 87.877930 57.960938 Q 87.636230 56.693359 86.685547 56.687988 Q 86.159180 56.682617 85.831543 57.278809 Q 85.417969 58.014648 85.417969 58.997559 Q 85.417969 60.179199 85.815430 60.743164 Q 86.229004 61.317871 86.685547 61.317871 Q 87.399902 61.317871 87.786621 60.173828 Z M 86.685547 55.850098 Q 88.350586 55.823242 88.667480 57.558105 L 89.199219 55.984375 L 90.080078 55.984375 L 88.979004 59.244629 L 89.193848 60.420898 Q 89.242188 60.684082 89.430176 60.904297 Q 89.650391 61.162109 89.822266 61.162109 L 90.294922 61.162109 L 90.294922 62.000000 L 89.704102 62.000000 Q 89.199219 62.000000 88.748047 61.548828 Q 88.527832 61.323242 88.436523 60.850586 Q 88.189453 61.436035 87.695312 61.914062 Q 87.453613 62.139648 86.685547 62.134277 Q 85.622070 62.123535 85.009766 61.317871 Q 84.375977 60.479980 84.375977 58.997559 Q 84.375977 57.402344 85.052734 56.677246 Q 85.820801 55.866211 86.685547 55.850098 Z " fill="rgb(0, 0, 0)" fill-opacity="1.000000" />
<path d="M 92.869141 53.116211 L 93.728516 53.116211 Q 94.539551 54.383789 94.937012 55.597656 Q 95.334473 56.811523 95.334473 58.009277 Q 95.334473 59.217773 94.937012 60.431641 Q 94.539551 61.645508 93.728516 62.913086 L 92.869141 62.913086 Q 93.583496 61.666992 93.935303 60.447754 Q 94.287109 59.228516 94.287109 58.009277 Q 94.287109 56.784668 93.935303 55.565430 Q 93.583496 54.346191 92.869141 53.116211 Z " fill="rgb(0, 0, 0)" fill-opacity="1.000000" />
<path d="M 107.878906 65.319336 L 107.878906 51.300781 L 108.738281 51.300781 L 108.738281 65.319336 Z " fill="rgb(0, 0, 0)" fill-opacity="1.000000" />
<path d="M 121.878906 65.319336 L 121.878906 51.300781 L 122.738281 51.300781 L 122.738281 65.319336 Z " fill="rgb(0, 0, 0)" fill-opacity="1.000000" />
<path d="M 135.878906 65.319336 L 135.878906 51.300781 L 136.738281 51.300781 L 136.738281 65.319336 Z " fill="rgb(0, 0, 0)" fill-opacity="1.000000" />
<path d="M 191.878906 65.319336 L 191.878906 58.412109 L 195.729980 58.412109 L 195.729980 59.335938 L 192.738281 59.335938 L 192.738281 65.319336 Z " fill="rgb(0, 0, 0)" fill-opacity="1.000000" />
<path d="M 195.892578 59.335938 L 195.892578 58.412109 L 198.878906 58.412109 L 198.878906 51.300781 L 199.738281 51.300781 L 199.738281 58.412109 L 202.729980 58.412109 L 202.729980 59.335938 Z " fill="rgb(0, 0, 0)" fill-opacity="1.000000" />
<path d="M 202.892578 59.335938 L 202.892578 58.412109 L 209.729980 58.412109 L 209.729980 59.335938 Z " fill="rgb(0, 0, 0)" fill-opacity="1.000000" />
<path d="M 209.892578 59.335938 L 209.892578 58.412109 L 216.729980 58.412109 L 216.729980 59.335938 Z " fill="rgb(0, 0, 0)" fill-opacity="1.000000" />
<path d="M 216.892578 59.335938 L 216.892578 58.412109 L 223.729980 58.412109 L 223.729980 59.335938 Z " fill="rgb(0, 0, 0)" fill-opacity="1.000000" />
<path d="M 223.892578 59.335938 L 223.892578 58.412109 L 226.878906 58.412109 L 226.878906 51.300781 L 227.738281 51.300781 L 227.738281 58.412109 L 230.729980 58.412109 L 230.729980 59.335938 Z " fill="rgb(0, 0, 0)" fill-opacity="1.000000" />
<path d="M 233.878906 65.319336 L 233.878906 59.335938 L 230.892578 59.335938 L 230.892578 58.412109 L 234.738281 58.412109 L 234.738281 65.319336 Z " fill="rgb(0, 0, 0)" fill-opacity="1.000000" />
<path d="M 268.878906 65.319336 L 268.878906 58.412109 L 272.729980 58.412109 L 272.729980 59.335938 L 269.738281 59.335938 L 269.738281 65.319336 Z " fill="rgb(0, 0, 0)" fill-opacity="1.000000" />
<path d="M 276.308594 62.418945 L 273.032227 55.866211 L 279.590332 55.866211 Z " fill="rgb(0, 0, 0)" fill-opacity="1.000000" />
<path d="M 279.892578 59.335938 L 279.892578 58.412109 L 286.729980 58.412109 L 286.729980 59.335938 Z " fill="rgb(0, 0, 0)" fill-opacity="1.000000" />
<path d="M 286.892578 59.335938 L 286.892578 58.412109 L 293.729980 58.412109 L 293.729980 59.335938 Z " fill="rgb(0, 0, 0)" fill-opacity="1.000000" />
<path d="M 293.892578 59.335938 L 293.892578 58.412109 L 300.729980 58.412109 L 300.729980 59.335938 Z " fill="rgb(0, 0, 0)" fill-opacity="1.000000" />
<path d="M 300.892578 59.335938 L 300.892578 58.412109 L 303.878906 58.412109 L 303.878906 51.300781 L 304.738281 51.300781 L 304.738281 58.412109 L 307.729980 58.412109 L 307.729980 59.335938 Z " fill="rgb(0, 0, 0)" fill-opacity="1.000000" />
<path d="M 310.878906 65.319336 L 310.878906 59.335938 L 307.892578 59.335938 L 307.892578 58.412109 L 311.738281 58.412109 L 311.738281 65.319336 Z " fill="rgb(0, 0, 0)" fill-opacity="1.000000" />
<path d="M 345.878906 65.319336 L 345.878906 58.412109 L 349.729980 58.412109 L 349.729980 59.335938 L 346.738281 59.335938 L 346.738281 65.319336 Z " fill="rgb(0, 0, 0)" fill-opacity="1.000000" />
<path d="M 353.308594 62.418945 L 350.032227 55.866211 L 356.590332 55.866211 Z " fill="rgb(0, 0, 0)" fill-opacity="1.000000" />
<path d="M 356.892578 59.335938 L 356.892578 58.412109 L 363.729980 58.412109 L 363.729980 59.335938 Z " fill="rgb(0, 0, 0)" fill-opacity="1.000000" />
<path d="M 363.892578 59.335938 L 363.892578 58.412109 L 370.729980 58.412109 L 370.729980 59.335938 Z " fill="rgb(0, 0, 0)" fill-opacity="1.000000" />
<path d="M 370.892578 59.335938 L 370.892578 58.412109 L 377.729980 58.412109 L 377.729980 59.335938 Z " fill="rgb(0, 0, 0)" fill-opacity="1.000000" />
<path d="M 377.892578 59.335938 L 377.892578 58.412109 L 380.878906 58.412109 L 380.878906 51.300781 L 381.738281 51.300781 L 381.738281 58.412109 L 384.729980 58.412109 L 384.729980 59.335938 Z " fill="rgb(0, 0, 0)" fill-opacity="1.000000" />
<path d="M 387.878906 65.319336 L 387.878906 59.335938 L 384.892578 59.335938 L 384.892578 58.412109 L 388.738281 58.412109 L 388.738281 65.319336 Z " fill="rgb(0, 0, 0)" fill-opacity="1.000000" />
<path d="M 408.878906 65.319336 L 408.878906 58.412109 L 412.729980 58.412109 L 412.729980 59.335938 L 409.738281 59.335938 L 409.738281 65.319336 Z " fill="rgb(254, 255, 254)" fill-opacity="1.000000" />
<path d="M 412.892578 59.335938 L 412.892578 58.412109 L 419.729980 58.412109 L 419.729980 59.335938 Z " fill="rgb(254, 255, 254)" fill-opacity="1.000000" />
<path d="M 419.892578 59.335938 L 419.892578 58.412109 L 426.729980 58.412109 L 426.729980 59.335938 Z " fill="rgb(254, 255, 254)" fill-opacity="1.000000" />
<path d="M 430.308594 62.418945 L 427.032227 55.866211 L 433.590332 55.866211 Z " fill="rgb(0, 0, 0)" fill-opacity="1.000000" />
<path d="M 433.892578 59.335938 L 433.892578 58.412109 L 440.729980 58.412109 L 440.729980 59.335938 Z " fill="rgb(254, 255, 254)" fill-opacity="1.000000" />
<path d="M 440.892578 59.335938 L 440.892578 58.412109 L 447.729980 58.412109 L 447.729980 59.335938 Z " fill="rgb(254, 255, 254)" fill-opacity="1.000000" />
<path d="M 450.878906 65.319336 L 450.878906 59.335938 L 447.892578 59.335938 L 447.892578 58.412109 L 451.738281 58.412109 L 451.738281 65.319336 Z " fill="rgb(254, 255, 254)" fill-opacity="1.000000" />
<path d="M 100.878906 13.319336 L 100.878906 6.412109 L 104.729980 6.412109 L 104.729980 7.335938 L 101.738281 7.335938 L 101.738281 13.319336 Z " fill="rgb(0, 0, 0)" fill-opacity="1.000000" />
<path d="M 100.878906 26.319336 L 100.878906 12.300781 L 101.738281 12.300781 L 101.738281 26.319336 Z " fill="rgb(0, 0, 0)" fill-opacity="1.000000" />
<path d="M 100.878906 33.335938 L 100.878906 25.300781 L 101.738281 25.300781 L 101.738281 32.412109 L 104.729980 32.412109 L 104.729980 33.335938 Z " fill="rgb(0, 0, 0)" fill-opacity="1.000000" />
<path d="M 107.878906 52.319336 L 107.878906 38.300781 L 108.738281 38.300781 L 108.738281 52.319336 Z " fill="rgb(0, 0, 0)" fill-opacity="1.000000" />
<path d="M 121.878906 52.319336 L 121.878906 38.300781 L 122.738281 38.300781 L 122.738281 52.319336 Z " fill="rgb(0, 0, 0)" fill-opacity="1.000000" />
<path d="M 135.878906 52.319336 L 135.878906 38.300781 L 136.738281 38.300781 L 136.738281 52.319336 Z " fill="rgb(0, 0, 0)" fill-opacity="1.000000" />
<path d="M 198.878906 52.319336 L 198.878906 38.300781 L 199.738281 38.300781 L 199.738281 52.319336 Z " fill="rgb(0, 0, 0)" fill-opacity="1.000000" />
<path d="M 226.878906 52.319336 L 226.878906 45.412109 L 230.729980 45.412109 L 230.729980 46.335938 L 227.738281 46.335938 L 227.738281 52.319336 Z " fill="rgb(0, 0, 0)" fill-opacity="1.000000" />
<path d="M 230.892578 46.335938 L 230.892578 45.412109 L 237.729980 45.412109 L 237.729980 46.335938 Z " fill="rgb(0, 0, 0)" fill-opacity="1.000000" />
<path d="M 237.892578 46.335938 L 237.892578 45.412109 L 244.729980 45.412109 L 244.729980 46.335938 Z " fill="rgb(0, 0, 0)" fill-opacity="1.000000" />
<path d="M 244.892578 46.335938 L 244.892578 45.412109 L 251.729980 45.412109 L 251.729980 46.335938 Z " fill="rgb(0, 0, 0)" fill-opacity="1.000000" />
<path d="M 251.892578 46.335938 L 251.892578 45.412109 L 258.729980 45.412109 L 258.729980 46.335938 Z " fill="rgb(0, 0, 0)" fill-opacity="1.000000" />
<path d="M 258.892578 46.335938 L 258.892578 45.412109 L 265.729980 45.412109 L 265.729980 46.335938 Z " fill="rgb(0, 0, 0)" fill-opacity="1.000000" />
<path d="M 265.892578 46.335938 L 265.892578 45.412109 L 272.729980 45.412109 L 272.729980 46.335938 Z " fill="rgb(0, 0, 0)" fill-opacity="1.000000" />
<path d="M 275.878906 52.319336 L 275.878906 46.335938 L 272.892578 46.335938 L 272.892578 45.412109 L 276.738281 45.412109 L 276.738281 52.319336 Z " fill="rgb(0, 0, 0)" fill-opacity="1.000000" />
<path d="M 303.878906 52.319336 L 303.878906 45.412109 L 307.729980 45.412109 L 307.729980 46.335938 L 304.738281 46.335938 L 304.738281 52.319336 Z " fill="rgb(0, 0, 0)" fill-opacity="1.000000" />
<path d="M 307.892578 46.335938 L 307.892578 45.412109 L 314.729980 45.412109 L 314.729980 46.335938 Z " fill="rgb(0, 0, 0)" fill-opacity="1.000000" />
<path d="M 314.892578 46.335938 L 314.892578 45.412109 L 321.729980 45.412109 L 321.729980 46.335938 Z " fill="rgb(0, 0, 0)" fill-opacity="1.000000" />
<path d="M 321.892578 46.335938 L 321.892578 45.412109 L 328.729980 45.412109 L 328.729980 46.335938 Z " fill="rgb(0, 0, 0)" fill-opacity="1.000000" />
<path d="M 328.892578 46.335938 L 328.892578 45.412109 L 335.729980 45.412109 L 335.729980 46.335938 Z " fill="rgb(0, 0, 0)" fill-opacity="1.000000" />
<path d="M 335.892578 46.335938 L 335.892578 45.412109 L 342.729980 45.412109 L 342.729980 46.335938 Z " fill="rgb(0, 0, 0)" fill-opacity="1.000000" />
<path d="M 342.892578 46.335938 L 342.892578 45.412109 L 349.729980 45.412109 L 349.729980 46.335938 Z " fill="rgb(0, 0, 0)" fill-opacity="1.000000" />
<path d="M 352.878906 52.319336 L 352.878906 46.335938 L 349.892578 46.335938 L 349.892578 45.412109 L 353.738281 45.412109 L 353.738281 52.319336 Z " fill="rgb(0, 0, 0)" fill-opacity="1.000000" />
<path d="M 380.878906 52.319336 L 380.878906 45.412109 L 384.729980 45.412109 L 384.729980 46.335938 L 381.738281 46.335938 L 381.738281 52.319336 Z " fill="rgb(0, 0, 0)" fill-opacity="1.000000" />
<path d="M 384.892578 46.335938 L 384.892578 45.412109 L 391.729980 45.412109 L 391.729980 46.335938 Z " fill="rgb(0, 0, 0)" fill-opacity="1.000000" />
<path d="M 391.892578 46.335938 L 391.892578 45.412109 L 398.729980 45.412109 L 398.729980 46.335938 Z " fill="rgb(0, 0, 0)" fill-opacity="1.000000" />
<path d="M 398.892578 46.335938 L 398.892578 45.412109 L 405.729980 45.412109 L 405.729980 46.335938 Z " fill="rgb(0, 0, 0)" fill-opacity="1.000000" />
<path d="M 405.892578 46.335938 L 405.892578 45.412109 L 412.729980 45.412109 L 412.729980 46.335938 Z " fill="rgb(0, 0, 0)" fill-opacity="1.000000" />
<path d="M 412.892578 46.335938 L 412.892578 45.412109 L 419.729980 45.412109 L 419.729980 46.335938 Z " fill="rgb(0, 0, 0)" fill-opacity="1.000000" />
<path d="M 419.892578 46.335938 L 419.892578 45.412109 L 426.729980 45.412109 L 426.729980 46.335938 Z " fill="rgb(0, 0, 0)" fill-opacity="1.000000" />
<path d="M 429.878906 52.319336 L 429.878906 46.335938 L 426.892578 46.335938 L 426.892578 45.412109 L 430.738281 45.412109 L 430.738281 52.319336 Z " fill="rgb(0, 0, 0)" fill-opacity="1.000000" />
<path d="M 107.878906 39.319336 L 107.878906 33.335938 L 104.892578 33.335938 L 104.892578 32.412109 L 111.729980 32.412109 L 111.729980 33.335938 L 108.738281 33.335938 L 108.738281 39.319336 Z " fill="rgb(0, 0, 0)" fill-opacity="1.000000" />
<path d="M 111.892578 33.335938 L 111.892578 32.412109 L 118.729980 32.412109 L 118.729980 33.335938 Z " fill="rgb(0, 0, 0)" fill-opacity="1.000000" />
<path d="M 121.878906 39.319336 L 121.878906 33.335938 L 118.892578 33.335938 L 118.892578 32.412109 L 125.729980 32.412109 L 125.729980 33.335938 L 122.738281 33.335938 L 122.738281 39.319336 Z " fill="rgb(0, 0, 0)" fill-opacity="1.000000" />
<path d="M 125.892578 33.335938 L 125.892578 32.412109 L 132.729980 32.412109 L 132.729980 33.335938 Z " fill="rgb(0, 0, 0)" fill-opacity="1.000000" />
<path d="M 135.878906 39.319336 L 135.878906 33.335938 L 132.892578 33.335938 L 132.892578 32.412109 L 139.729980 32.412109 L 139.729980 33.335938 L 136.738281 33.335938 L 136.738281 39.319336 Z " fill="rgb(0, 0, 0)" fill-opacity="1.000000" />
<path d="M 139.892578 33.335938 L 139.892578 32.412109 L 142.878906 32.412109 L 142.878906 25.300781 L 143.738281 25.300781 L 143.738281 33.335938 Z " fill="rgb(0, 0, 0)" fill-opacity="1.000000" />
<path d="M 198.878906 39.319336 L 198.878906 25.300781 L 199.738281 25.300781 L 199.738281 39.319336 Z " fill="rgb(0, 0, 0)" fill-opacity="1.000000" />
<path d="M 249.114258 33.201660 L 248.877930 31.960938 Q 248.636230 30.693359 247.685547 30.687988 Q 247.159180 30.682617 246.831543 31.278809 Q 246.417969 32.014648 246.417969 32.997559 Q 246.417969 34.179199 246.815430 34.743164 Q 247.229004 35.317871 247.685547 35.317871 Q 248.399902 35.317871 248.786621 34.173828 Z M 247.685547 29.850098 Q 249.350586 29.823242 249.667480 31.558105 L 250.199219 29.984375 L 251.080078 29.984375 L 249.979004 33.244629 L 250.193848 34.420898 Q 250.242188 34.684082 250.430176 34.904297 Q 250.650391 35.162109 250.822266 35.162109 L 251.294922 35.162109 L 251.294922 36.000000 L 250.704102 36.000000 Q 250.199219 36.000000 249.748047 35.548828 Q 249.527832 35.323242 249.436523 34.850586 Q 249.189453 35.436035 248.695312 35.914062 Q 248.453613 36.139648 247.685547 36.134277 Q 246.622070 36.123535 246.009766 35.317871 Q 245.375977 34.479980 245.375977 32.997559 Q 245.375977 31.402344 246.052734 30.677246 Q 246.820801 29.866211 247.685547 29.850098 Z " fill="rgb(0, 0, 0)" fill-opacity="1.000000" />
<path d="M 326.114258 33.201660 L 325.877930 31.960938 Q 325.636230 30.693359 324.685547 30.687988 Q 324.159180 30.682617 323.831543 31.278809 Q 323.417969 32.014648 323.417969 32.997559 Q 323.417969 34.179199 323.815430 34.743164 Q 324.229004 35.317871 324.685547 35.317871 Q 325.399902 35.317871 325.786621 34.173828 Z M 324.685547 29.850098 Q 326.350586 29.823242 326.667480 31.558105 L 327.199219 29.984375 L 328.080078 29.984375 L 326.979004 33.244629 L 327.193848 34.420898 Q 327.242188 34.684082 327.430176 34.904297 Q 327.650391 35.162109 327.822266 35.162109 L 328.294922 35.162109 L 328.294922 36.000000 L 327.704102 36.000000 Q 327.199219 36.000000 326.748047 35.548828 Q 326.527832 35.323242 326.436523 34.850586 Q 326.189453 35.436035 325.695312 35.914062 Q 325.453613 36.139648 324.685547 36.134277 Q 323.622070 36.123535 323.009766 35.317871 Q 322.375977 34.479980 322.375977 32.997559 Q 322.375977 31.402344 323.052734 30.677246 Q 323.820801 29.866211 324.685547 29.850098 Z " fill="rgb(0, 0, 0)" fill-opacity="1.000000" />
<path d="M 403.114258 33.201660 L 402.877930 31.960938 Q 402.636230 30.693359 401.685547 30.687988 Q 401.159180 30.682617 400.831543 31.278809 Q 400.417969 32.014648 400.417969 32.997559 Q 400.417969 34.179199 400.815430 34.743164 Q 401.229004 35.317871 401.685547 35.317871 Q 402.399902 35.317871 402.786621 34.173828 Z M 401.685547 29.850098 Q 403.350586 29.823242 403.667480 31.558105 L 404.199219 29.984375 L 405.080078 29.984375 L 403.979004 33.244629 L 404.193848 34.420898 Q 404.242188 34.684082 404.430176 34.904297 Q 404.650391 35.162109 404.822266 35.162109 L 405.294922 35.162109 L 405.294922 36.000000 L 404.704102 36.000000 Q 404.199219 36.000000 403.748047 35.548828 Q 403.527832 35.323242 403.436523 34.850586 Q 403.189453 35.436035 402.695312 35.914062 Q 402.453613 36.139648 401.685547 36.134277 Q 400.622070 36.123535 400.009766 35.317871 Q 399.375977 34.479980 399.375977 32.997559 Q 399.375977 31.402344 400.052734 30.677246 Q 400.820801 29.866211 401.685547 29.850098 Z " fill="rgb(0, 0, 0)" fill-opacity="1.000000" />
<path d="M 115.308594 14.862793 Q 116.592285 14.862793 117.250244 15.910156 Q 117.908203 16.957520 117.908203 19.009277 Q 117.908203 21.061035 117.250244 22.108398 Q 116.592285 23.155762 115.308594 23.155762 Q 114.024902 23.155762 113.369629 22.108398 Q 112.714355 21.061035 112.714355 19.009277 Q 112.714355 16.957520 113.369629 15.910156 Q 114.024902 14.862793 115.308594 14.862793 Z M 115.308594 22.296387 Q 116.071289 22.296387 116.444580 21.485352 Q 116.817871 20.674316 116.817871 19.009277 Q 116.817871 18.123047 116.710449 17.408691 L 114.153809 21.410156 Q 114.556641 22.296387 115.308594 22.296387 Z M 115.308594 15.722168 Q 114.551270 15.722168 114.177979 16.533203 Q 113.804688 17.344238 113.804688 19.009277 Q 113.804688 19.766602 113.906738 20.427246 L 116.409668 16.436523 Q 116.001465 15.722168 115.308594 15.722168 Z " fill="rgb(0, 0, 0)" fill-opacity="1.000000" />
<path d="M 122.985352 14.631836 L 122.985352 17.978027 L 121.782227 17.978027 L 121.782227 14.631836 Z " fill="rgb(0, 0, 0)" fill-opacity="1.000000" />
<path d="M 140.032227 20.142578 L 146.590332 16.866211 L 146.590332 23.418945 Z " fill="rgb(0, 0, 0)" fill-opacity="1.000000" />
<path d="M 146.892578 20.335938 L 146.892578 19.412109 L 153.729980 19.412109 L 153.729980 20.335938 Z " fill="rgb(0, 0, 0)" fill-opacity="1.000000" />
<path d="M 153.892578 20.335938 L 153.892578 19.412109 L 160.729980 19.412109 L 160.729980 20.335938 Z " fill="rgb(0, 0, 0)" fill-opacity="1.000000" />
<path d="M 160.892578 20.335938 L 160.892578 19.412109 L 167.729980 19.412109 L 167.729980 20.335938 Z " fill="rgb(0, 0, 0)" fill-opacity="1.000000" />
<path d="M 167.892578 20.335938 L 167.892578 19.412109 L 174.729980 19.412109 L 174.729980 20.335938 Z " fill="rgb(0, 0, 0)" fill-opacity="1.000000" />
<path d="M 174.892578 20.335938 L 174.892578 19.412109 L 181.729980 19.412109 L 181.729980 20.335938 Z " fill="rgb(0, 0, 0)" fill-opacity="1.000000" />
<path d="M 181.892578 20.335938 L 181.892578 19.412109 L 188.729980 19.412109 L 188.729980 20.335938 Z " fill="rgb(0, 0, 0)" fill-opacity="1.000000" />
<path d="M 188.892578 20.335938 L 188.892578 19.412109 L 195.729980 19.412109 L 195.729980 20.335938 Z " fill="rgb(0, 0, 0)" fill-opacity="1.000000" />
<path d="M 198.878906 26.319336 L 198.878906 20.335938 L 195.892578 20.335938 L 195.892578 19.412109 L 199.738281 19.412109 L 199.738281 26.319336 Z " fill="rgb(0, 0, 0)" fill-opacity="1.000000" />
<path d="M 104.892578 7.335938 L 104.892578 6.412109 L 111.729980 6.412109 L 111.729980 7.335938 Z " fill="rgb(0, 0, 0)" fill-opacity="1.000000" />
<path d="M 111.892578 7.335938 L 111.892578 6.412109 L 118.729980 6.412109 L 118.729980 7.335938 Z " fill="rgb(0, 0, 0)" fill-opacity="1.000000" />
<path d="M 118.892578 7.335938 L 118.892578 6.412109 L 125.729980 6.412109 L 125.729980 7.335938 Z " fill="rgb(0, 0, 0)" fill-opacity="1.000000" />
<path d="M 125.892578 7.335938 L 125.892578 6.412109 L 132.729980 6.412109 L 132.729980 7.335938 Z " fill="rgb(0, 0, 0)" fill-opacity="1.000000" />
<path d="M 132.892578 7.335938 L 132.892578 6.412109 L 139.729980 6.412109 L 139.729980 7.335938 Z " fill="rgb(0, 0, 0)" fill-opacity="1.000000" />
<path d="M 142.878906 13.319336 L 142.878906 7.335938 L 139.892578 7.335938 L 139.892578 6.412109 L 143.738281 6.412109 L 143.738281 13.319336 Z " fill="rgb(0, 0, 0)" fill-opacity="1.000000" />
<path d="M 155.450195 9.092285 L 157.136719 9.092285 L 157.136719 3.033691 L 155.117188 4.005859 L 155.117188 2.963867 L 157.125977 2.007812 L 158.210938 2.007812 L 158.210938 9.092285 L 159.875977 9.092285 L 159.875977 10.000000 L 155.450195 10.000000 Z " fill="rgb(0, 0, 0)" fill-opacity="1.000000" />
<path d="M 168.547852 6.111328 L 174.241211 6.111328 L 174.241211 7.019043 L 168.547852 7.019043 Z " fill="rgb(0, 0, 0)" fill-opacity="1.000000" />
<path d="M 186.114258 7.201660 L 185.877930 5.960938 Q 185.636230 4.693359 184.685547 4.687988 Q 184.159180 4.682617 183.831543 5.278809 Q 183.417969 6.014648 183.417969 6.997559 Q 183.417969 8.179199 183.815430 8.743164 Q 184.229004 9.317871 184.685547 9.317871 Q 185.399902 9.317871 185.786621 8.173828 Z M 184.685547 3.850098 Q 186.350586 3.823242 186.667480 5.558105 L 187.199219 3.984375 L 188.080078 3.984375 L 186.979004 7.244629 L 187.193848 8.420898 Q 187.242188 8.684082 187.430176 8.904297 Q 187.650391 9.162109 187.822266 9.162109 L 188.294922 9.162109 L 188.294922 10.000000 L 187.704102 10.000000 Q 187.199219 10.000000 186.748047 9.548828 Q 186.527832 9.323242 186.436523 8.850586 Q 186.189453 9.436035 185.695312 9.914062 Q 185.453613 10.139648 184.685547 10.134277 Q 183.622070 10.123535 183.009766 9.317871 Q 182.375977 8.479980 182.375977 6.997559 Q 182.375977 5.402344 183.052734 4.677246 Q 183.820801 3.866211 184.685547 3.850098 Z " fill="rgb(0, 0, 0)" fill-opacity="1.000000" />
</svg>