<svg xmlns="http://www.w3.org/2000/svg" version="1.1" width="456" height="92">
<path d="M -0.107422 46.335938 L -0.107422 45.412109 L 6.729980 45.412109 L 6.729980 46.335938 Z " fill="rgb(0, 0, 0)" fill-opacity="1.000000" />
<path d="M 6.892578 46.335938 L 6.892578 45.412109 L 13.729980 45.412109 L 13.729980 46.335938 Z " fill="rgb(0, 0, 0)" fill-opacity="1.000000" />
<path d="M 13.892578 46.335938 L 13.892578 45.412109 L 20.729980 45.412109 L 20.729980 46.335938 Z " fill="rgb(0, 0, 0)" fill-opacity="1.000000" />
<path d="M 23.878906 65.319336 L 23.878906 51.300781 L 24.738281 51.300781 L 24.738281 65.319336 Z " fill="rgb(0, 0, 0)" fill-opacity="1.000000" />
<path d="M 23.878906 72.335938 L 23.878906 64.300781 L 24.738281 64.300781 L 24.738281 71.412109 L 27.729980 71.412109 L 27.729980 72.335938 Z " fill="rgb(0, 0, 0)" fill-opacity="1.000000" />
<path d="M 51.878906 85.335938 L 51.878906 77.300781 L 52.738281 77.300781 L 52.738281 84.412109 L 55.729980 84.412109 L 55.729980 85.335938 Z " fill="rgb(0, 0, 0)" fill-opacity="1.000000" />
<path d="M 55.892578 85.335938 L 55.892578 84.412109 L 62.729980 84.412109 L 62.729980 85.335938 Z " fill="rgb(0, 0, 0)" fill-opacity="1.000000" />
<path d="M 62.892578 85.335938 L 62.892578 84.412109 L 69.729980 84.412109 L 69.729980 85.335938 Z " fill="rgb(0, 0, 0)" fill-opacity="1.000000" />
<path d="M 69.892578 85.335938 L 69.892578 84.412109 L 76.729980 84.412109 L 76.729980 85.335938 Z " fill="rgb(0, 0, 0)" fill-opacity="1.000000" />
<path d="M 76.892578 85.335938 L 76.892578 84.412109 L 83.729980 84.412109 L 83.729980 85.335938 Z " fill="rgb(0, 0, 0)" fill-opacity="1.000000" />
<path d="M 83.892578 85.335938 L 83.892578 84.412109 L 90.729980 84.412109 L 90.729980 85.335938 Z " fill="rgb(0, 0, 0)" fill-opacity="1.000000" />
<path d="M 90.892578 85.335938 L 90.892578 84.412109 L 97.729980 84.412109 L 97.729980 85.335938 Z " fill="rgb(0, 0, 0)" fill-opacity="1.000000" />
<path d="M 97.892578 85.335938 L 97.892578 84.412109 L 104.729980 84.412109 L 104.729980 85.335938 Z " fill="rgb(0, 0, 0)" fill-opacity="1.000000" />
<path d="M 104.892578 85.335938 L 104.892578 84.412109 L 111.729980 84.412109 L 111.729980 85.335938 Z " fill="rgb(0, 0, 0)" fill-opacity="1.000000" />
<path d="M 111.892578 85.335938 L 111.892578 84.412109 L 118.729980 84.412109 L 118.729980 85.335938 Z " fill="rgb(0, 0, 0)" fill-opacity="1.000000" />
<path d="M 118.892578 85.335938 L 118.892578 84.412109 L 125.729980 84.412109 L 125.729980 85.335938 Z " fill="rgb(0, 0, 0)" fill-opacity="1.000000" />
<path d="M 125.892578 85.335938 L 125.892578 84.412109 L 132.729980 84.412109 L 132.729980 85.335938 Z " fill="rgb(0, 0, 0)" fill-opacity="1.000000" />
<path d="M 132.892578 85.335938 L 132.892578 84.412109 L 139.729980 84.412109 L 139.729980 85.335938 Z " fill="rgb(0, 0, 0)" fill-opacity="1.000000" />
<path d="M 139.892578 85.335938 L 139.892578 84.412109 L 146.729980 84.412109 L 146.729980 85.335938 Z " fill="rgb(0, 0, 0)" fill-opacity="1.000000" />
<path d="M 146.892578 85.335938 L 146.892578 84.412109 L 153.729980 84.412109 L 153.729980 85.335938 Z " fill="rgb(0, 0, 0)" fill-opacity="1.000000" />
<path d="M 153.892578 85.335938 L 153.892578 84.412109 L 156.878906 84.412109 L 156.878906 77.300781 L 157.738281 77.300781 L 157.738281 85.335938 Z " fill="rgb(0, 0, 0)" fill-opacity="1.000000" />
<path d="M 198.878906 85.335938 L 198.878906 77.300781 L 199.738281 77.300781 L 199.738281 84.412109 L 202.729980 84.412109 L 202.729980 85.335938 Z " fill="rgb(0, 0, 0)" fill-opacity="1.000000" />
<path d="M 202.892578 85.335938 L 202.892578 84.412109 L 209.729980 84.412109 L 209.729980 85.335938 Z " fill="rgb(0, 0, 0)" fill-opacity="1.000000" />
<path d="M 209.892578 85.335938 L 209.892578 84.412109 L 216.729980 84.412109 L 216.729980 85.335938 Z " fill="rgb(0, 0, 0)" fill-opacity="1.000000" />
<path d="M 216.892578 85.335938 L 216.892578 84.412109 L 223.729980 84.412109 L 223.729980 85.335938 Z " fill="rgb(0, 0, 0)" fill-opacity="1.000000" />
<path d="M 223.892578 85.335938 L 223.892578 84.412109 L 230.729980 84.412109 L 230.729980 85.335938 Z " fill="rgb(0, 0, 0)" fill-opacity="1.000000" />
<path d="M 230.892578 85.335938 L 230.892578 84.412109 L 237.729980 84.412109 L 237.729980 85.335938 Z " fill="rgb(0, 0, 0)" fill-opacity="1.000000" />
<path d="M 237.892578 85.335938 L 237.892578 84.412109 L 244.729980 84.412109 L 244.729980 85.335938 Z " fill="rgb(0, 0, 0)" fill-opacity="1.000000" />
<path d="M 244.892578 85.335938 L 244.892578 84.412109 L 251.729980 84.412109 L 251.729980 85.335938 Z " fill="rgb(0, 0, 0)" fill-opacity="1.000000" />
<path d="M 251.892578 85.335938 L 251.892578 84.412109 L 258.729980 84.412109 L 258.729980 85.335938 Z " fill="rgb(0, 0, 0)" fill-opacity="1.000000" />
<path d="M 258.892578 85.335938 L 258.892578 84.412109 L 265.729980 84.412109 L 265.729980 85.335938 Z " fill="rgb(0, 0, 0)" fill-opacity="1.000000" />
<path d="M 265.892578 85.335938 L 265.892578 84.412109 L 272.729980 84.412109 L 272.729980 85.335938 Z " fill="rgb(0, 0, 0)" fill-opacity="1.000000" />
<path d="M 272.892578 85.335938 L 272.892578 84.412109 L 279.729980 84.412109 L 279.729980 85.335938 Z " fill="rgb(0, 0, 0)" fill-opacity="1.000000" />
<path d="M 279.892578 85.335938 L 279.892578 84.412109 L 286.729980 84.412109 L 286.729980 85.335938 Z " fill="rgb(0, 0, 0)" fill-opacity="1.000000" />
<path d="M 286.892578 85.335938 L 286.892578 84.412109 L 293.729980 84.412109 L 293.729980 85.335938 Z " fill="rgb(0, 0, 0)" fill-opacity="1.000000" />
<path d="M 293.892578 85.335938 L 293.892578 84.412109 L 300.729980 84.412109 L 300.729980 85.335938 Z " fill="rgb(0, 0, 0)" fill-opacity="1.000000" />
<path d="M 300.892578 85.335938 L 300.892578 84.412109 L 303.878906 84.412109 L 303.878906 77.300781 L 304.738281 77.300781 L 304.738281 85.335938 Z " fill="rgb(0, 0, 0)" fill-opacity="1.000000" />
<path d="M 345.878906 85.335938 L 345.878906 77.300781 L 346.738281 77.300781 L 346.738281 84.412109 L 349.729980 84.412109 L 349.729980 85.335938 Z " fill="rgb(0, 0, 0)" fill-opacity="1.000000" />
<path d="M 349.892578 85.335938 L 349.892578 84.412109 L 356.729980 84.412109 L 356.729980 85.335938 Z " fill="rgb(0, 0, 0)" fill-opacity="1.000000" />
<path d="M 356.892578 85.335938 L 356.892578 84.412109 L 363.729980 84.412109 L 363.729980 85.335938 Z " fill="rgb(0, 0, 0)" fill-opacity="1.000000" />
<path d="M 363.892578 85.335938 L 363.892578 84.412109 L 370.729980 84.412109 L 370.729980 85.335938 Z " fill="rgb(0, 0, 0)" fill-opacity="1.000000" />
<path d="M 370.892578 85.335938 L 370.892578 84.412109 L 377.729980 84.412109 L 377.729980 85.335938 Z " fill="rgb(0, 0, 0)" fill-opacity="1.000000" />
<path d="M 377.892578 85.335938 L 377.892578 84.412109 L 384.729980 84.412109 L 384.729980 85.335938 Z " fill="rgb(0, 0, 0)" fill-opacity="1.000000" />
<path d="M 384.892578 85.335938 L 384.892578 84.412109 L 391.729980 84.412109 L 391.729980 85.335938 Z " fill="rgb(0, 0, 0)" fill-opacity="1.000000" />
<path d="M 391.892578 85.335938 L 391.892578 84.412109 L 398.729980 84.412109 L 398.729980 85.335938 Z " fill="rgb(0, 0, 0)" fill-opacity="1.000000" />
<path d="M 398.892578 85.335938 L 398.892578 84.412109 L 405.729980 84.412109 L 405.729980 85.335938 Z " fill="rgb(0, 0, 0)" fill-opacity="1.000000" />
<path d="M 405.892578 85.335938 L 405.892578 84.412109 L 412.729980 84.412109 L 412.729980 85.335938 Z " fill="rgb(0, 0, 0)" fill-opacity="1.000000" />
<path d="M 412.892578 85.335938 L 412.892578 84.412109 L 419.729980 84.412109 L 419.729980 85.335938 Z " fill="rgb(0, 0, 0)" fill-opacity="1.000000" />
<path d="M 419.892578 85.335938 L 419.892578 84.412109 L 426.729980 84.412109 L 426.729980 85.335938 Z " fill="rgb(0, 0, 0)" fill-opacity="1.000000" />
<path d="M 426.892578 85.335938 L 426.892578 84.412109 L 433.729980 84.412109 L 433.729980 85.335938 Z " fill="rgb(0, 0, 0)" fill-opacity="1.000000" />
<path d="M 433.892578 85.335938 L 433.892578 84.412109 L 440.729980 84.412109 L 440.729980 85.335938 Z " fill="rgb(0, 0, 0)" fill-opacity="1.000000" />
<path d="M 440.892578 85.335938 L 440.892578 84.412109 L 447.729980 84.412109 L 447.729980 85.335938 Z " fill="rgb(0, 0, 0)" fill-opacity="1.000000" />
<path d="M 447.892578 85.335938 L 447.892578 84.412109 L 450.878906 84.412109 L 450.878906 77.300781 L 451.738281 77.300781 L 451.738281 85.335938 Z " fill="rgb(0, 0, 0)" fill-opacity="1.000000" />
<path d="M 27.892578 72.335938 L 27.892578 71.412109 L 34.729980 71.412109 L 34.729980 72.335938 Z " fill="rgb(0, 0, 0)" fill-opacity="1.000000" />
<path d="M 34.892578 72.335938 L 34.892578 71.412109 L 41.729980 71.412109 L 41.729980 72.335938 Z " fill="rgb(0, 0, 0)" fill-opacity="1.000000" />
<path d="M 41.892578 72.335938 L 41.892578 71.412109 L 48.729980 71.412109 L 48.729980 72.335938 Z " fill="rgb(0, 0, 0)" fill-opacity="1.000000" />
<path d="M 49.032227 75.418945 L 49.032227 68.866211 L 55.590332 72.142578 Z " fill="rgb(0, 0, 0)" fill-opacity="1.000000" />
<path d="M 71.981934 70.955566 L 71.981934 74.108398 L 73.265625 74.108398 Q 74.210938 74.108398 74.613770 73.778076 Q 75.016602 73.447754 75.016602 72.690430 Q 75.016602 71.691406 74.592285 71.323486 Q 74.167969 70.955566 73.265625 70.955566 Z M 71.981934 67.872559 L 71.981934 70.074707 L 73.244141 70.074707 Q 74.028320 70.074707 74.380127 69.773926 Q 74.731934 69.473145 74.731934 69.016602 Q 74.731934 68.409668 74.385498 68.141113 Q 74.039062 67.872559 73.244141 67.872559 Z M 70.891602 66.980957 L 73.265625 66.980957 Q 74.495605 66.980957 75.161621 67.512695 Q 75.827637 68.044434 75.827637 69.016602 Q 75.827637 69.537598 75.475830 69.961914 Q 75.124023 70.386230 74.420410 70.493652 Q 75.209961 70.611816 75.658447 71.167725 Q 76.106934 71.723633 76.106934 72.797852 Q 76.106934 73.888184 75.392578 74.444092 Q 74.678223 75.000000 73.265625 75.000000 L 70.891602 75.000000 Z " fill="rgb(0, 0, 0)" fill-opacity="1.000000" />
<path d="M 80.861816 72.824707 Q 80.861816 73.490723 81.106201 73.829102 Q 81.350586 74.167480 81.828613 74.167480 L 82.983398 74.167480 L 82.983398 75.000000 L 81.731934 75.000000 Q 80.845703 75.000000 80.359619 74.433350 Q 79.873535 73.866699 79.873535 72.824707 L 79.873535 67.383789 L 78.289062 67.383789 L 78.289062 66.610352 L 80.861816 66.610352 Z " fill="rgb(0, 0, 0)" fill-opacity="1.000000" />
<path d="M 87.308594 69.677246 Q 86.556641 69.677246 86.169922 70.262695 Q 85.783203 70.848145 85.783203 71.997559 Q 85.783203 73.141602 86.169922 73.729736 Q 86.556641 74.317871 87.308594 74.317871 Q 88.065918 74.317871 88.452637 73.729736 Q 88.839355 73.141602 88.839355 71.997559 Q 88.839355 70.848145 88.452637 70.262695 Q 88.065918 69.677246 87.308594 69.677246 Z M 87.308594 68.839355 Q 88.560059 68.839355 89.223389 69.650391 Q 89.886719 70.461426 89.886719 71.997559 Q 89.886719 73.539062 89.226074 74.347412 Q 88.565430 75.155762 87.308594 75.155762 Q 86.057129 75.155762 85.396484 74.347412 Q 84.735840 73.539062 84.735840 71.997559 Q 84.735840 70.461426 85.396484 69.650391 Q 86.057129 68.839355 87.308594 68.839355 Z " fill="rgb(0, 0, 0)" fill-opacity="1.000000" />
<path d="M 96.698730 74.693848 Q 96.301270 74.924805 95.879639 75.040283 Q 95.458008 75.155762 95.017578 75.155762 Q 93.621094 75.155762 92.834229 74.317871 Q 92.047363 73.479980 92.047363 71.997559 Q 92.047363 70.515137 92.834229 69.677246 Q 93.621094 68.839355 95.017578 68.839355 Q 95.452637 68.839355 95.866211 68.952148 Q 96.279785 69.064941 96.698730 69.301270 L 96.698730 70.337891 Q 96.306641 69.988770 95.911865 69.833008 Q 95.517090 69.677246 95.017578 69.677246 Q 94.088379 69.677246 93.588867 70.278809 Q 93.089355 70.880371 93.089355 71.997559 Q 93.089355 73.109375 93.591553 73.713623 Q 94.093750 74.317871 95.017578 74.317871 Q 95.533203 74.317871 95.941406 74.159424 Q 96.349609 74.000977 96.698730 73.667969 Z " fill="rgb(0, 0, 0)" fill-opacity="1.000000" />
<path d="M 99.267578 66.642578 L 100.288086 66.642578 L 100.288086 71.481934 L 102.882324 68.984375 L 104.085449 68.984375 L 101.716797 71.250977 L 104.456055 75.000000 L 103.247559 75.000000 L 101.023926 71.895508 L 100.288086 72.588379 L 100.288086 75.000000 L 99.267578 75.000000 Z " fill="rgb(0, 0, 0)" fill-opacity="1.000000" />
<path d="M 113.267578 66.642578 L 114.288086 66.642578 L 114.288086 71.481934 L 116.882324 68.984375 L 118.085449 68.984375 L 115.716797 71.250977 L 118.456055 75.000000 L 117.247559 75.000000 L 115.023926 71.895508 L 114.288086 72.588379 L 114.288086 75.000000 L 113.267578 75.000000 Z " fill="rgb(0, 0, 0)" fill-opacity="1.000000" />
<path d="M 122.867188 68.672852 L 122.867188 71.052246 L 125.257324 71.052246 L 125.257324 71.959961 L 122.867188 71.959961 L 122.867188 74.339355 L 121.964844 74.339355 L 121.964844 71.959961 L 119.580078 71.959961 L 119.580078 71.052246 L 121.964844 71.052246 L 121.964844 68.672852 Z " fill="rgb(0, 0, 0)" fill-opacity="1.000000" />
<path d="M 127.450195 74.092285 L 129.136719 74.092285 L 129.136719 68.033691 L 127.117188 69.005859 L 127.117188 67.963867 L 129.125977 67.007812 L 130.210938 67.007812 L 130.210938 74.092285 L 131.875977 74.092285 L 131.875977 75.000000 L 127.450195 75.000000 Z " fill="rgb(0, 0, 0)" fill-opacity="1.000000" />
<path d="M 136.985352 66.631836 L 136.985352 69.978027 L 135.782227 69.978027 L 135.782227 66.631836 Z " fill="rgb(0, 0, 0)" fill-opacity="1.000000" />
<path d="M 156.878906 78.319336 L 156.878906 64.300781 L 157.738281 64.300781 L 157.738281 71.412109 L 160.729980 71.412109 L 160.729980 72.335938 L 157.738281 72.335938 L 157.738281 78.319336 Z " fill="rgb(0, 0, 0)" fill-opacity="1.000000" />
<path d="M 160.892578 72.335938 L 160.892578 71.412109 L 167.729980 71.412109 L 167.729980 72.335938 Z " fill="rgb(0, 0, 0)" fill-opacity="1.000000" />
<path d="M 167.892578 72.335938 L 167.892578 71.412109 L 174.729980 71.412109 L 174.729980 72.335938 Z " fill="rgb(0, 0, 0)" fill-opacity="1.000000" />
<path d="M 174.892578 72.335938 L 174.892578 71.412109 L 181.729980 71.412109 L 181.729980 72.335938 Z " fill="rgb(0, 0, 0)" fill-opacity="1.000000" />
<path d="M 181.892578 72.335938 L 181.892578 71.412109 L 188.729980 71.412109 L 188.729980 72.335938 Z " fill="rgb(0, 0, 0)" fill-opacity="1.000000" />
<path d="M 188.892578 72.335938 L 188.892578 71.412109 L 195.729980 71.412109 L 195.729980 72.335938 Z " fill="rgb(0, 0, 0)" fill-opacity="1.000000" />
<path d="M 196.032227 75.418945 L 196.032227 68.866211 L 202.590332 72.142578 Z " fill="rgb(0, 0, 0)" fill-opacity="1.000000" />
<path d="M 218.981934 70.955566 L 218.981934 74.108398 L 220.265625 74.108398 Q 221.210938 74.108398 221.613770 73.778076 Q 222.016602 73.447754 222.016602 72.690430 Q 222.016602 71.691406 221.592285 71.323486 Q 221.167969 70.955566 220.265625 70.955566 Z M 218.981934 67.872559 L 218.981934 70.074707 L 220.244141 70.074707 Q 221.028320 70.074707 221.380127 69.773926 Q 221.731934 69.473145 221.731934 69.016602 Q 221.731934 68.409668 221.385498 68.141113 Q 221.039062 67.872559 220.244141 67.872559 Z M 217.891602 66.980957 L 220.265625 66.980957 Q 221.495605 66.980957 222.161621 67.512695 Q 222.827637 68.044434 222.827637 69.016602 Q 222.827637 69.537598 222.475830 69.961914 Q 222.124023 70.386230 221.420410 70.493652 Q 222.209961 70.611816 222.658447 71.167725 Q 223.106934 71.723633 223.106934 72.797852 Q 223.106934 73.888184 222.392578 74.444092 Q 221.678223 75.000000 220.265625 75.000000 L 217.891602 75.000000 Z " fill="rgb(0, 0, 0)" fill-opacity="1.000000" />
<path d="M 227.861816 72.824707 Q 227.861816 73.490723 228.106201 73.829102 Q 228.350586 74.167480 228.828613 74.167480 L 229.983398 74.167480 L 229.983398 75.000000 L 228.731934 75.000000 Q 227.845703 75.000000 227.359619 74.433350 Q 226.873535 73.866699 226.873535 72.824707 L 226.873535 67.383789 L 225.289062 67.383789 L 225.289062 66.610352 L 227.861816 66.610352 Z " fill="rgb(0, 0, 0)" fill-opacity="1.000000" />
<path d="M 234.308594 69.677246 Q 233.556641 69.677246 233.169922 70.262695 Q 232.783203 70.848145 232.783203 71.997559 Q 232.783203 73.141602 233.169922 73.729736 Q 233.556641 74.317871 234.308594 74.317871 Q 235.065918 74.317871 235.452637 73.729736 Q 235.839355 73.141602 235.839355 71.997559 Q 235.839355 70.848145 235.452637 70.262695 Q 235.065918 69.677246 234.308594 69.677246 Z M 234.308594 68.839355 Q 235.560059 68.839355 236.223389 69.650391 Q 236.886719 70.461426 236.886719 71.997559 Q 236.886719 73.539062 236.226074 74.347412 Q 235.565430 75.155762 234.308594 75.155762 Q 233.057129 75.155762 232.396484 74.347412 Q 231.735840 73.539062 231.735840 71.997559 Q 231.735840 70.461426 232.396484 69.650391 Q 233.057129 68.839355 234.308594 68.839355 Z " fill="rgb(0, 0, 0)" fill-opacity="1.000000" />
<path d="M 243.698730 74.693848 Q 243.301270 74.924805 242.879639 75.040283 Q 242.458008 75.155762 242.017578 75.155762 Q 240.621094 75.155762 239.834229 74.317871 Q 239.047363 73.479980 239.047363 71.997559 Q 239.047363 70.515137 239.834229 69.677246 Q 240.621094 68.839355 242.017578 68.839355 Q 242.452637 68.839355 242.866211 68.952148 Q 243.279785 69.064941 243.698730 69.301270 L 243.698730 70.337891 Q 243.306641 69.988770 242.911865 69.833008 Q 242.517090 69.677246 242.017578 69.677246 Q 241.088379 69.677246 240.588867 70.278809 Q 240.089355 70.880371 240.089355 71.997559 Q 240.089355 73.109375 240.591553 73.713623 Q 241.093750 74.317871 242.017578 74.317871 Q 242.533203 74.317871 242.941406 74.159424 Q 243.349609 74.000977 243.698730 73.667969 Z " fill="rgb(0, 0, 0)" fill-opacity="1.000000" />
<path d="M 246.267578 66.642578 L 247.288086 66.642578 L 247.288086 71.481934 L 249.882324 68.984375 L 251.085449 68.984375 L 248.716797 71.250977 L 251.456055 75.000000 L 250.247559 75.000000 L 248.023926 71.895508 L 247.288086 72.588379 L 247.288086 75.000000 L 246.267578 75.000000 Z " fill="rgb(0, 0, 0)" fill-opacity="1.000000" />
<path d="M 260.267578 66.642578 L 261.288086 66.642578 L 261.288086 71.481934 L 263.882324 68.984375 L 265.085449 68.984375 L 262.716797 71.250977 L 265.456055 75.000000 L 264.247559 75.000000 L 262.023926 71.895508 L 261.288086 72.588379 L 261.288086 75.000000 L 260.267578 75.000000 Z " fill="rgb(0, 0, 0)" fill-opacity="1.000000" />
<path d="M 269.867188 68.672852 L 269.867188 71.052246 L 272.257324 71.052246 L 272.257324 71.959961 L 269.867188 71.959961 L 269.867188 74.339355 L 268.964844 74.339355 L 268.964844 71.959961 L 266.580078 71.959961 L 266.580078 71.052246 L 268.964844 71.052246 L 268.964844 68.672852 Z " fill="rgb(0, 0, 0)" fill-opacity="1.000000" />
<path d="M 275.003418 74.086914 L 278.687988 74.086914 L 278.687988 75.000000 L 273.816406 75.000000 L 273.816406 74.086914 Q 274.820801 73.028809 275.572754 72.217773 Q 276.324707 71.406738 276.609375 71.073730 Q 277.146484 70.418457 277.334473 70.012939 Q 277.522461 69.607422 277.522461 69.183105 Q 277.522461 68.511719 277.127686 68.130371 Q 276.732910 67.749023 276.045410 67.749023 Q 275.556641 67.749023 275.019531 67.926270 Q 274.482422 68.103516 273.880859 68.463379 L 273.880859 67.367676 Q 274.434082 67.104492 274.968506 66.970215 Q 275.502930 66.835938 276.023926 66.835938 Q 277.200195 66.835938 277.917236 67.461670 Q 278.634277 68.087402 278.634277 69.102539 Q 278.634277 69.618164 278.395264 70.133789 Q 278.156250 70.649414 277.619141 71.272461 Q 277.318359 71.621582 276.746338 72.239258 Q 276.174316 72.856934 275.003418 74.086914 Z " fill="rgb(0, 0, 0)" fill-opacity="1.000000" />
<path d="M 283.985352 66.631836 L 283.985352 69.978027 L 282.782227 69.978027 L 282.782227 66.631836 Z " fill="rgb(0, 0, 0)" fill-opacity="1.000000" />
<path d="M 303.878906 78.319336 L 303.878906 64.300781 L 304.738281 64.300781 L 304.738281 71.412109 L 307.729980 71.412109 L 307.729980 72.335938 L 304.738281 72.335938 L 304.738281 78.319336 Z " fill="rgb(0, 0, 0)" fill-opacity="1.000000" />
<path d="M 307.892578 72.335938 L 307.892578 71.412109 L 314.729980 71.412109 L 314.729980 72.335938 Z " fill="rgb(0, 0, 0)" fill-opacity="1.000000" />
<path d="M 314.892578 72.335938 L 314.892578 71.412109 L 321.729980 71.412109 L 321.729980 72.335938 Z " fill="rgb(0, 0, 0)" fill-opacity="1.000000" />
<path d="M 321.892578 72.335938 L 321.892578 71.412109 L 328.729980 71.412109 L 328.729980 72.335938 Z " fill="rgb(0, 0, 0)" fill-opacity="1.000000" />
<path d="M 328.892578 72.335938 L 328.892578 71.412109 L 335.729980 71.412109 L 335.729980 72.335938 Z " fill="rgb(0, 0, 0)" fill-opacity="1.000000" />
<path d="M 335.892578 72.335938 L 335.892578 71.412109 L 342.729980 71.412109 L 342.729980 72.335938 Z " fill="rgb(0, 0, 0)" fill-opacity="1.000000" />
<path d="M 343.032227 75.418945 L 343.032227 68.866211 L 349.590332 72.142578 Z " fill="rgb(0, 0, 0)" fill-opacity="1.000000" />
<path d="M 365.981934 70.955566 L 365.981934 74.108398 L 367.265625 74.108398 Q 368.210938 74.108398 368.613770 73.778076 Q 369.016602 73.447754 369.016602 72.690430 Q 369.016602 71.691406 368.592285 71.323486 Q 368.167969 70.955566 367.265625 70.955566 Z M 365.981934 67.872559 L 365.981934 70.074707 L 367.244141 70.074707 Q 368.028320 70.074707 368.380127 69.773926 Q 368.731934 69.473145 368.731934 69.016602 Q 368.731934 68.409668 368.385498 68.141113 Q 368.039062 67.872559 367.244141 67.872559 Z M 364.891602 66.980957 L 367.265625 66.980957 Q 368.495605 66.980957 369.161621 67.512695 Q 369.827637 68.044434 369.827637 69.016602 Q 369.827637 69.537598 369.475830 69.961914 Q 369.124023 70.386230 368.420410 70.493652 Q 369.209961 70.611816 369.658447 71.167725 Q 370.106934 71.723633 370.106934 72.797852 Q 370.106934 73.888184 369.392578 74.444092 Q 368.678223 75.000000 367.265625 75.000000 L 364.891602 75.000000 Z " fill="rgb(0, 0, 0)" fill-opacity="1.000000" />
<path d="M 374.861816 72.824707 Q 374.861816 73.490723 375.106201 73.829102 Q 375.350586 74.167480 375.828613 74.167480 L 376.983398 74.167480 L 376.983398 75.000000 L 375.731934 75.000000 Q 374.845703 75.000000 374.359619 74.433350 Q 373.873535 73.866699 373.873535 72.824707 L 373.873535 67.383789 L 372.289062 67.383789 L 372.289062 66.610352 L 374.861816 66.610352 Z " fill="rgb(0, 0, 0)" fill-opacity="1.000000" />
<path d="M 381.308594 69.677246 Q 380.556641 69.677246 380.169922 70.262695 Q 379.783203 70.848145 379.783203 71.997559 Q 379.783203 73.141602 380.169922 73.729736 Q 380.556641 74.317871 381.308594 74.317871 Q 382.065918 74.317871 382.452637 73.729736 Q 382.839355 73.141602 382.839355 71.997559 Q 382.839355 70.848145 382.452637 70.262695 Q 382.065918 69.677246 381.308594 69.677246 Z M 381.308594 68.839355 Q 382.560059 68.839355 383.223389 69.650391 Q 383.886719 70.461426 383.886719 71.997559 Q 383.886719 73.539062 383.226074 74.347412 Q 382.565430 75.155762 381.308594 75.155762 Q 380.057129 75.155762 379.396484 74.347412 Q 378.735840 73.539062 378.735840 71.997559 Q 378.735840 70.461426 379.396484 69.650391 Q 380.057129 68.839355 381.308594 68.839355 Z " fill="rgb(0, 0, 0)" fill-opacity="1.000000" />
<path d="M 390.698730 74.693848 Q 390.301270 74.924805 389.879639 75.040283 Q 389.458008 75.155762 389.017578 75.155762 Q 387.621094 75.155762 386.834229 74.317871 Q 386.047363 73.479980 386.047363 71.997559 Q 386.047363 70.515137 386.834229 69.677246 Q 387.621094 68.839355 389.017578 68.839355 Q 389.452637 68.839355 389.866211 68.952148 Q 390.279785 69.064941 390.698730 69.301270 L 390.698730 70.337891 Q 390.306641 69.988770 389.911865 69.833008 Q 389.517090 69.677246 389.017578 69.677246 Q 388.088379 69.677246 387.588867 70.278809 Q 387.089355 70.880371 387.089355 71.997559 Q 387.089355 73.109375 387.591553 73.713623 Q 388.093750 74.317871 389.017578 74.317871 Q 389.533203 74.317871 389.941406 74.159424 Q 390.349609 74.000977 390.698730 73.667969 Z " fill="rgb(0, 0, 0)" fill-opacity="1.000000" />
<path d="M 393.267578 66.642578 L 394.288086 66.642578 L 394.288086 71.481934 L 396.882324 68.984375 L 398.085449 68.984375 L 395.716797 71.250977 L 398.456055 75.000000 L 397.247559 75.000000 L 395.023926 71.895508 L 394.288086 72.588379 L 394.288086 75.000000 L 393.267578 75.000000 Z " fill="rgb(0, 0, 0)" fill-opacity="1.000000" />
<path d="M 407.267578 66.642578 L 408.288086 66.642578 L 408.288086 71.481934 L 410.882324 68.984375 L 412.085449 68.984375 L 409.716797 71.250977 L 412.456055 75.000000 L 411.247559 75.000000 L 409.023926 71.895508 L 408.288086 72.588379 L 408.288086 75.000000 L 407.267578 75.000000 Z " fill="rgb(0, 0, 0)" fill-opacity="1.000000" />
<path d="M 416.867188 68.672852 L 416.867188 71.052246 L 419.257324 71.052246 L 419.257324 71.959961 L 416.867188 71.959961 L 416.867188 74.339355 L 415.964844 74.339355 L 415.964844 71.959961 L 413.580078 71.959961 L 413.580078 71.052246 L 415.964844 71.052246 L 415.964844 68.672852 Z " fill="rgb(0, 0, 0)" fill-opacity="1.000000" />
<path d="M 424.167969 70.708496 Q 424.957520 70.917969 425.376465 71.452393 Q 425.795410 71.986816 425.795410 72.787109 Q 425.795410 73.893555 425.051514 74.524658 Q 424.307617 75.155762 422.991699 75.155762 Q 422.438477 75.155762 421.863770 75.053711 Q 421.289062 74.951660 420.735840 74.758301 L 420.735840 73.678711 Q 421.283691 73.963379 421.815430 74.103027 Q 422.347168 74.242676 422.873535 74.242676 Q 423.765137 74.242676 424.243164 73.839844 Q 424.721191 73.437012 424.721191 72.679688 Q 424.721191 71.981445 424.243164 71.570557 Q 423.765137 71.159668 422.948730 71.159668 L 422.121582 71.159668 L 422.121582 70.268066 L 422.948730 70.268066 Q 423.695312 70.268066 424.114258 69.940430 Q 424.533203 69.612793 424.533203 69.027344 Q 424.533203 68.409668 424.143799 68.079346 Q 423.754395 67.749023 423.034668 67.749023 Q 422.556641 67.749023 422.046387 67.856445 Q 421.536133 67.963867 420.977539 68.178711 L 420.977539 67.179688 Q 421.627441 67.007812 422.135010 66.921875 Q 422.642578 66.835938 423.034668 66.835938 Q 424.205566 66.835938 424.906494 67.424072 Q 425.607422 68.012207 425.607422 68.984375 Q 425.607422 69.645020 425.239502 70.085449 Q 424.871582 70.525879 424.167969 70.708496 Z " fill="rgb(0, 0, 0)" fill-opacity="1.000000" />
<path d="M 430.985352 66.631836 L 430.985352 69.978027 L 429.782227 69.978027 L 429.782227 66.631836 Z " fill="rgb(0, 0, 0)" fill-opacity="1.000000" />
<path d="M 450.878906 78.319336 L 450.878906 64.300781 L 451.738281 64.300781 L 451.738281 78.319336 Z " fill="rgb(0, 0, 0)" fill-opacity="1.000000" />
<path d="M 51.878906 65.319336 L 51.878906 58.412109 L 55.729980 58.412109 L 55.729980 59.335938 L 52.738281 59.335938 L 52.738281 65.319336 Z " fill="rgb(0, 0, 0)" fill-opacity="1.000000" />
<path d="M 55.892578 59.335938 L 55.892578 58.412109 L 62.729980 58.412109 L 62.729980 59.335938 Z " fill="rgb(0, 0, 0)" fill-opacity="1.000000" />
<path d="M 62.892578 59.335938 L 62.892578 58.412109 L 69.729980 58.412109 L 69.729980 59.335938 Z " fill="rgb(0, 0, 0)" fill-opacity="1.000000" />
<path d="M 69.892578 59.335938 L 69.892578 58.412109 L 76.729980 58.412109 L 76.729980 59.335938 Z " fill="rgb(0, 0, 0)" fill-opacity="1.000000" />
<path d="M 76.892578 59.335938 L 76.892578 58.412109 L 83.729980 58.412109 L 83.729980 59.335938 Z " fill="rgb(0, 0, 0)" fill-opacity="1.000000" />
<path d="M 83.892578 59.335938 L 83.892578 58.412109 L 90.729980 58.412109 L 90.729980 59.335938 Z " fill="rgb(0, 0, 0)" fill-opacity="1.000000" />
<path d="M 90.892578 59.335938 L 90.892578 58.412109 L 97.729980 58.412109 L 97.729980 59.335938 Z " fill="rgb(0, 0, 0)" fill-opacity="1.000000" />
<path d="M 97.892578 59.335938 L 97.892578 58.412109 L 104.729980 58.412109 L 104.729980 59.335938 Z " fill="rgb(0, 0, 0)" fill-opacity="1.000000" />
<path d="M 104.892578 59.335938 L 104.892578 58.412109 L 111.729980 58.412109 L 111.729980 59.335938 Z " fill="rgb(0, 0, 0)" fill-opacity="1.000000" />
<path d="M 111.892578 59.335938 L 111.892578 58.412109 L 118.729980 58.412109 L 118.729980 59.335938 Z " fill="rgb(0, 0, 0)" fill-opacity="1.000000" />
<path d="M 118.892578 59.335938 L 118.892578 58.412109 L 125.729980 58.412109 L 125.729980 59.335938 Z " fill="rgb(0, 0, 0)" fill-opacity="1.000000" />
<path d="M 125.892578 59.335938 L 125.892578 58.412109 L 132.729980 58.412109 L 132.729980 59.335938 Z " fill="rgb(0, 0, 0)" fill-opacity="1.000000" />
<path d="M 132.892578 59.335938 L 132.892578 58.412109 L 139.729980 58.412109 L 139.729980 59.335938 Z " fill="rgb(0, 0, 0)" fill-opacity="1.000000" />
<path d="M 139.892578 59.335938 L 139.892578 58.412109 L 146.729980 58.412109 L 146.729980 59.335938 Z " fill="rgb(0, 0, 0)" fill-opacity="1.000000" />
<path d="M 146.892578 59.335938 L 146.892578 58.412109 L 153.729980 58.412109 L 153.729980 59.335938 Z " fill="rgb(0, 0, 0)" fill-opacity="1.000000" />
<path d="M 156.878906 65.319336 L 156.878906 59.335938 L 153.892578 59.335938 L 153.892578 58.412109 L 157.738281 58.412109 L 157.738281 65.319336 Z " fill="rgb(0, 0, 0)" fill-opacity="1.000000" />
<path d="M 198.878906 65.319336 L 198.878906 58.412109 L 202.729980 58.412109 L 202.729980 59.335938 L 199.738281 59.335938 L 199.738281 65.319336 Z " fill="rgb(0, 0, 0)" fill-opacity="1.000000" />
<path d="M 202.892578 59.335938 L 202.892578 58.412109 L 209.729980 58.412109 L 209.729980 59.335938 Z " fill="rgb(0, 0, 0)" fill-opacity="1.000000" />
<path d="M 209.892578 59.335938 L 209.892578 58.412109 L 216.729980 58.412109 L 216.729980 59.335938 Z " fill="rgb(0, 0, 0)" fill-opacity="1.000000" />
<path d="M 216.892578 59.335938 L 216.892578 58.412109 L 223.729980 58.412109 L 223.729980 59.335938 Z " fill="rgb(0, 0, 0)" fill-opacity="1.000000" />
<path d="M 223.892578 59.335938 L 223.892578 58.412109 L 230.729980 58.412109 L 230.729980 59.335938 Z " fill="rgb(0, 0, 0)" fill-opacity="1.000000" />
<path d="M 230.892578 59.335938 L 230.892578 58.412109 L 237.729980 58.412109 L 237.729980 59.335938 Z " fill="rgb(0, 0, 0)" fill-opacity="1.000000" />
<path d="M 237.892578 59.335938 L 237.892578 58.412109 L 244.729980 58.412109 L 244.729980 59.335938 Z " fill="rgb(0, 0, 0)" fill-opacity="1.000000" />
<path d="M 244.892578 59.335938 L 244.892578 58.412109 L 251.729980 58.412109 L 251.729980 59.335938 Z " fill="rgb(0, 0, 0)" fill-opacity="1.000000" />
<path d="M 251.892578 59.335938 L 251.892578 58.412109 L 258.729980 58.412109 L 258.729980 59.335938 Z " fill="rgb(0, 0, 0)" fill-opacity="1.000000" />
<path d="M 258.892578 59.335938 L 258.892578 58.412109 L 265.729980 58.412109 L 265.729980 59.335938 Z " fill="rgb(0, 0, 0)" fill-opacity="1.000000" />
<path d="M 265.892578 59.335938 L 265.892578 58.412109 L 272.729980 58.412109 L 272.729980 59.335938 Z " fill="rgb(0, 0, 0)" fill-opacity="1.000000" />
<path d="M 272.892578 59.335938 L 272.892578 58.412109 L 279.729980 58.412109 L 279.729980 59.335938 Z " fill="rgb(0, 0, 0)" fill-opacity="1.000000" />
<path d="M 279.892578 59.335938 L 279.892578 58.412109 L 286.729980 58.412109 L 286.729980 59.335938 Z " fill="rgb(0, 0, 0)" fill-opacity="1.000000" />
<path d="M 286.892578 59.335938 L 286.892578 58.412109 L 293.729980 58.412109 L 293.729980 59.335938 Z " fill="rgb(0, 0, 0)" fill-opacity="1.000000" />
<path d="M 293.892578 59.335938 L 293.892578 58.412109 L 300.729980 58.412109 L 300.729980 59.335938 Z " fill="rgb(0, 0, 0)" fill-opacity="1.000000" />
<path d="M 303.878906 65.319336 L 303.878906 59.335938 L 300.892578 59.335938 L 300.892578 58.412109 L 304.738281 58.412109 L 304.738281 65.319336 Z " fill="rgb(0, 0, 0)" fill-opacity="1.000000" />
<path d="M 345.878906 65.319336 L 345.878906 58.412109 L 349.729980 58.412109 L 349.729980 59.335938 L 346.738281 59.335938 L 346.738281 65.319336 Z " fill="rgb(0, 0, 0)" fill-opacity="1.000000" />
<path d="M 349.892578 59.335938 L 349.892578 58.412109 L 356.729980 58.412109 L 356.729980 59.335938 Z " fill="rgb(0, 0, 0)" fill-opacity="1.000000" />
<path d="M 356.892578 59.335938 L 356.892578 58.412109 L 363.729980 58.412109 L 363.729980 59.335938 Z " fill="rgb(0, 0, 0)" fill-opacity="1.000000" />
<path d="M 363.892578 59.335938 L 363.892578 58.412109 L 370.729980 58.412109 L 370.729980 59.335938 Z " fill="rgb(0, 0, 0)" fill-opacity="1.000000" />
<path d="M 370.892578 59.335938 L 370.892578 58.412109 L 377.729980 58.412109 L 377.729980 59.335938 Z " fill="rgb(0, 0, 0)" fill-opacity="1.000000" />
<path d="M 377.892578 59.335938 L 377.892578 58.412109 L 384.729980 58.412109 L 384.729980 59.335938 Z " fill="rgb(0, 0, 0)" fill-opacity="1.000000" />
<path d="M 384.892578 59.335938 L 384.892578 58.412109 L 391.729980 58.412109 L 391.729980 59.335938 Z " fill="rgb(0, 0, 0)" fill-opacity="1.000000" />
<path d="M 391.892578 59.335938 L 391.892578 58.412109 L 398.729980 58.412109 L 398.729980 59.335938 Z " fill="rgb(0, 0, 0)" fill-opacity="1.000000" />
<path d="M 398.892578 59.335938 L 398.892578 58.412109 L 405.729980 58.412109 L 405.729980 59.335938 Z " fill="rgb(0, 0, 0)" fill-opacity="1.000000" />
<path d="M 405.892578 59.335938 L 405.892578 58.412109 L 412.729980 58.412109 L 412.729980 59.335938 Z " fill="rgb(0, 0, 0)" fill-opacity="1.000000" />
<path d="M 412.892578 59.335938 L 412.892578 58.412109 L 419.729980 58.412109 L 419.729980 59.335938 Z " fill="rgb(0, 0, 0)" fill-opacity="1.000000" />
<path d="M 419.892578 59.335938 L 419.892578 58.412109 L 426.729980 58.412109 L 426.729980 59.335938 Z " fill="rgb(0, 0, 0)" fill-opacity="1.000000" />
<path d="M 426.892578 59.335938 L 426.892578 58.412109 L 433.729980 58.412109 L 433.729980 59.335938 Z " fill="rgb(0, 0, 0)" fill-opacity="1.000000" />
<path d="M 433.892578 59.335938 L 433.892578 58.412109 L 440.729980 58.412109 L 440.729980 59.335938 Z " fill="rgb(0, 0, 0)" fill-opacity="1.000000" />
<path d="M 440.892578 59.335938 L 440.892578 58.412109 L 447.729980 58.412109 L 447.729980 59.335938 Z " fill="rgb(0, 0, 0)" fill-opacity="1.000000" />
<path d="M 450.878906 65.319336 L 450.878906 59.335938 L 447.892578 59.335938 L 447.892578 58.412109 L 451.738281 58.412109 L 451.738281 65.319336 Z " fill="rgb(0, 0, 0)" fill-opacity="1.000000" />
<path d="M 23.878906 52.319336 L 23.878906 46.335938 L 20.892578 46.335938 L 20.892578 45.412109 L 23.878906 45.412109 L 23.878906 38.300781 L 24.738281 38.300781 L 24.738281 52.319336 Z " fill="rgb(0, 0, 0)" fill-opacity="1.000000" />
<path d="M 23.878906 26.319336 L 23.878906 19.412109 L 27.729980 19.412109 L 27.729980 20.335938 L 24.738281 20.335938 L 24.738281 26.319336 Z " fill="rgb(0, 0, 0)" fill-opacity="1.000000" />
<path d="M 23.878906 39.319336 L 23.878906 25.300781 L 24.738281 25.300781 L 24.738281 39.319336 Z " fill="rgb(0, 0, 0)" fill-opacity="1.000000" />
<path d="M 51.878906 33.335938 L 51.878906 25.300781 L 52.738281 25.300781 L 52.738281 32.412109 L 55.729980 32.412109 L 55.729980 33.335938 Z " fill="rgb(0, 0, 0)" fill-opacity="1.000000" />
<path d="M 55.892578 33.335938 L 55.892578 32.412109 L 62.729980 32.412109 L 62.729980 33.335938 Z " fill="rgb(0, 0, 0)" fill-opacity="1.000000" />
<path d="M 62.892578 33.335938 L 62.892578 32.412109 L 69.729980 32.412109 L 69.729980 33.335938 Z " fill="rgb(0, 0, 0)" fill-opacity="1.000000" />
<path d="M 69.892578 33.335938 L 69.892578 32.412109 L 76.729980 32.412109 L 76.729980 33.335938 Z " fill="rgb(0, 0, 0)" fill-opacity="1.000000" />
<path d="M 76.892578 33.335938 L 76.892578 32.412109 L 83.729980 32.412109 L 83.729980 33.335938 Z " fill="rgb(0, 0, 0)" fill-opacity="1.000000" />
<path d="M 83.892578 33.335938 L 83.892578 32.412109 L 90.729980 32.412109 L 90.729980 33.335938 Z " fill="rgb(0, 0, 0)" fill-opacity="1.000000" />
<path d="M 90.892578 33.335938 L 90.892578 32.412109 L 97.729980 32.412109 L 97.729980 33.335938 Z " fill="rgb(0, 0, 0)" fill-opacity="1.000000" />
<path d="M 97.892578 33.335938 L 97.892578 32.412109 L 104.729980 32.412109 L 104.729980 33.335938 Z " fill="rgb(0, 0, 0)" fill-opacity="1.000000" />
<path d="M 104.892578 33.335938 L 104.892578 32.412109 L 111.729980 32.412109 L 111.729980 33.335938 Z " fill="rgb(0, 0, 0)" fill-opacity="1.000000" />
<path d="M 111.892578 33.335938 L 111.892578 32.412109 L 118.729980 32.412109 L 118.729980 33.335938 Z " fill="rgb(0, 0, 0)" fill-opacity="1.000000" />
<path d="M 118.892578 33.335938 L 118.892578 32.412109 L 125.729980 32.412109 L 125.729980 33.335938 Z " fill="rgb(0, 0, 0)" fill-opacity="1.000000" />
<path d="M 125.892578 33.335938 L 125.892578 32.412109 L 132.729980 32.412109 L 132.729980 33.335938 Z " fill="rgb(0, 0, 0)" fill-opacity="1.000000" />
<path d="M 132.892578 33.335938 L 132.892578 32.412109 L 139.729980 32.412109 L 139.729980 33.335938 Z " fill="rgb(0, 0, 0)" fill-opacity="1.000000" />
<path d="M 139.892578 33.335938 L 139.892578 32.412109 L 146.729980 32.412109 L 146.729980 33.335938 Z " fill="rgb(0, 0, 0)" fill-opacity="1.000000" />
<path d="M 146.892578 33.335938 L 146.892578 32.412109 L 153.729980 32.412109 L 153.729980 33.335938 Z " fill="rgb(0, 0, 0)" fill-opacity="1.000000" />
<path d="M 153.892578 33.335938 L 153.892578 32.412109 L 156.878906 32.412109 L 156.878906 25.300781 L 157.738281 25.300781 L 157.738281 33.335938 Z " fill="rgb(0, 0, 0)" fill-opacity="1.000000" />
<path d="M 198.878906 33.335938 L 198.878906 25.300781 L 199.738281 25.300781 L 199.738281 32.412109 L 202.729980 32.412109 L 202.729980 33.335938 Z " fill="rgb(0, 0, 0)" fill-opacity="1.000000" />
<path d="M 202.892578 33.335938 L 202.892578 32.412109 L 209.729980 32.412109 L 209.729980 33.335938 Z " fill="rgb(0, 0, 0)" fill-opacity="1.000000" />
<path d="M 209.892578 33.335938 L 209.892578 32.412109 L 216.729980 32.412109 L 216.729980 33.335938 Z " fill="rgb(0, 0, 0)" fill-opacity="1.000000" />
<path d="M 216.892578 33.335938 L 216.892578 32.412109 L 223.729980 32.412109 L 223.729980 33.335938 Z " fill="rgb(0, 0, 0)" fill-opacity="1.000000" />
<path d="M 223.892578 33.335938 L 223.892578 32.412109 L 230.729980 32.412109 L 230.729980 33.335938 Z " fill="rgb(0, 0, 0)" fill-opacity="1.000000" />
<path d="M 230.892578 33.335938 L 230.892578 32.412109 L 237.729980 32.412109 L 237.729980 33.335938 Z " fill="rgb(0, 0, 0)" fill-opacity="1.000000" />
<path d="M 237.892578 33.335938 L 237.892578 32.412109 L 244.729980 32.412109 L 244.729980 33.335938 Z " fill="rgb(0, 0, 0)" fill-opacity="1.000000" />
<path d="M 244.892578 33.335938 L 244.892578 32.412109 L 251.729980 32.412109 L 251.729980 33.335938 Z " fill="rgb(0, 0, 0)" fill-opacity="1.000000" />
<path d="M 251.892578 33.335938 L 251.892578 32.412109 L 258.729980 32.412109 L 258.729980 33.335938 Z " fill="rgb(0, 0, 0)" fill-opacity="1.000000" />
<path d="M 258.892578 33.335938 L 258.892578 32.412109 L 265.729980 32.412109 L 265.729980 33.335938 Z " fill="rgb(0, 0, 0)" fill-opacity="1.000000" />
<path d="M 265.892578 33.335938 L 265.892578 32.412109 L 272.729980 32.412109 L 272.729980 33.335938 Z " fill="rgb(0, 0, 0)" fill-opacity="1.000000" />
<path d="M 272.892578 33.335938 L 272.892578 32.412109 L 279.729980 32.412109 L 279.729980 33.335938 Z " fill="rgb(0, 0, 0)" fill-opacity="1.000000" />
<path d="M 279.892578 33.335938 L 279.892578 32.412109 L 286.729980 32.412109 L 286.729980 33.335938 Z " fill="rgb(0, 0, 0)" fill-opacity="1.000000" />
<path d="M 286.892578 33.335938 L 286.892578 32.412109 L 293.729980 32.412109 L 293.729980 33.335938 Z " fill="rgb(0, 0, 0)" fill-opacity="1.000000" />
<path d="M 293.892578 33.335938 L 293.892578 32.412109 L 300.729980 32.412109 L 300.729980 33.335938 Z " fill="rgb(0, 0, 0)" fill-opacity="1.000000" />
<path d="M 300.892578 33.335938 L 300.892578 32.412109 L 303.878906 32.412109 L 303.878906 25.300781 L 304.738281 25.300781 L 304.738281 33.335938 Z " fill="rgb(0, 0, 0)" fill-opacity="1.000000" />
<path d="M 27.892578 20.335938 L 27.892578 19.412109 L 34.729980 19.412109 L 34.729980 20.335938 Z " fill="rgb(0, 0, 0)" fill-opacity="1.000000" />
<path d="M 34.892578 20.335938 L 34.892578 19.412109 L 41.729980 19.412109 L 41.729980 20.335938 Z " fill="rgb(0, 0, 0)" fill-opacity="1.000000" />
<path d="M 41.892578 20.335938 L 41.892578 19.412109 L 48.729980 19.412109 L 48.729980 20.335938 Z " fill="rgb(0, 0, 0)" fill-opacity="1.000000" />
<path d="M 49.032227 23.418945 L 49.032227 16.866211 L 55.590332 20.142578 Z " fill="rgb(0, 0, 0)" fill-opacity="1.000000" />
<path d="M 71.981934 18.955566 L 71.981934 22.108398 L 73.265625 22.108398 Q 74.210938 22.108398 74.613770 21.778076 Q 75.016602 21.447754 75.016602 20.690430 Q 75.016602 19.691406 74.592285 19.323486 Q 74.167969 18.955566 73.265625 18.955566 Z M 71.981934 15.872559 L 71.981934 18.074707 L 73.244141 18.074707 Q 74.028320 18.074707 74.380127 17.773926 Q 74.731934 17.473145 74.731934 17.016602 Q 74.731934 16.409668 74.385498 16.141113 Q 74.039062 15.872559 73.244141 15.872559 Z M 70.891602 14.980957 L 73.265625 14.980957 Q 74.495605 14.980957 75.161621 15.512695 Q 75.827637 16.044434 75.827637 17.016602 Q 75.827637 17.537598 75.475830 17.961914 Q 75.124023 18.386230 74.420410 18.493652 Q 75.209961 18.611816 75.658447 19.167725 Q 76.106934 19.723633 76.106934 20.797852 Q 76.106934 21.888184 75.392578 22.444092 Q 74.678223 23.000000 73.265625 23.000000 L 70.891602 23.000000 Z " fill="rgb(0, 0, 0)" fill-opacity="1.000000" />
<path d="M 80.861816 20.824707 Q 80.861816 21.490723 81.106201 21.829102 Q 81.350586 22.167480 81.828613 22.167480 L 82.983398 22.167480 L 82.983398 23.000000 L 81.731934 23.000000 Q 80.845703 23.000000 80.359619 22.433350 Q 79.873535 21.866699 79.873535 20.824707 L 79.873535 15.383789 L 78.289062 15.383789 L 78.289062 14.610352 L 80.861816 14.610352 Z " fill="rgb(0, 0, 0)" fill-opacity="1.000000" />
<path d="M 87.308594 17.677246 Q 86.556641 17.677246 86.169922 18.262695 Q 85.783203 18.848145 85.783203 19.997559 Q 85.783203 21.141602 86.169922 21.729736 Q 86.556641 22.317871 87.308594 22.317871 Q 88.065918 22.317871 88.452637 21.729736 Q 88.839355 21.141602 88.839355 19.997559 Q 88.839355 18.848145 88.452637 18.262695 Q 88.065918 17.677246 87.308594 17.677246 Z M 87.308594 16.839355 Q 88.560059 16.839355 89.223389 17.650391 Q 89.886719 18.461426 89.886719 19.997559 Q 89.886719 21.539062 89.226074 22.347412 Q 88.565430 23.155762 87.308594 23.155762 Q 86.057129 23.155762 85.396484 22.347412 Q 84.735840 21.539062 84.735840 19.997559 Q 84.735840 18.461426 85.396484 17.650391 Q 86.057129 16.839355 87.308594 16.839355 Z " fill="rgb(0, 0, 0)" fill-opacity="1.000000" />
<path d="M 96.698730 22.693848 Q 96.301270 22.924805 95.879639 23.040283 Q 95.458008 23.155762 95.017578 23.155762 Q 93.621094 23.155762 92.834229 22.317871 Q 92.047363 21.479980 92.047363 19.997559 Q 92.047363 18.515137 92.834229 17.677246 Q 93.621094 16.839355 95.017578 16.839355 Q 95.452637 16.839355 95.866211 16.952148 Q 96.279785 17.064941 96.698730 17.301270 L 96.698730 18.337891 Q 96.306641 17.988770 95.911865 17.833008 Q 95.517090 17.677246 95.017578 17.677246 Q 94.088379 17.677246 93.588867 18.278809 Q 93.089355 18.880371 93.089355 19.997559 Q 93.089355 21.109375 93.591553 21.713623 Q 94.093750 22.317871 95.017578 22.317871 Q 95.533203 22.317871 95.941406 22.159424 Q 96.349609 22.000977 96.698730 21.667969 Z " fill="rgb(0, 0, 0)" fill-opacity="1.000000" />
<path d="M 99.267578 14.642578 L 100.288086 14.642578 L 100.288086 19.481934 L 102.882324 16.984375 L 104.085449 16.984375 L 101.716797 19.250977 L 104.456055 23.000000 L 103.247559 23.000000 L 101.023926 19.895508 L 100.288086 20.588379 L 100.288086 23.000000 L 99.267578 23.000000 Z " fill="rgb(0, 0, 0)" fill-opacity="1.000000" />
<path d="M 113.267578 14.642578 L 114.288086 14.642578 L 114.288086 19.481934 L 116.882324 16.984375 L 118.085449 16.984375 L 115.716797 19.250977 L 118.456055 23.000000 L 117.247559 23.000000 L 115.023926 19.895508 L 114.288086 20.588379 L 114.288086 23.000000 L 113.267578 23.000000 Z " fill="rgb(0, 0, 0)" fill-opacity="1.000000" />
<path d="M 122.867188 16.672852 L 122.867188 19.052246 L 125.257324 19.052246 L 125.257324 19.959961 L 122.867188 19.959961 L 122.867188 22.339355 L 121.964844 22.339355 L 121.964844 19.959961 L 119.580078 19.959961 L 119.580078 19.052246 L 121.964844 19.052246 L 121.964844 16.672852 Z " fill="rgb(0, 0, 0)" fill-opacity="1.000000" />
<path d="M 127.450195 22.092285 L 129.136719 22.092285 L 129.136719 16.033691 L 127.117188 17.005859 L 127.117188 15.963867 L 129.125977 15.007812 L 130.210938 15.007812 L 130.210938 22.092285 L 131.875977 22.092285 L 131.875977 23.000000 L 127.450195 23.000000 Z " fill="rgb(0, 0, 0)" fill-opacity="1.000000" />
<path d="M 156.878906 26.319336 L 156.878906 12.300781 L 157.738281 12.300781 L 157.738281 19.412109 L 160.729980 19.412109 L 160.729980 20.335938 L 157.738281 20.335938 L 157.738281 26.319336 Z " fill="rgb(0, 0, 0)" fill-opacity="1.000000" />
<path d="M 160.892578 20.335938 L 160.892578 19.412109 L 167.729980 19.412109 L 167.729980 20.335938 Z " fill="rgb(0, 0, 0)" fill-opacity="1.000000" />
<path d="M 167.892578 20.335938 L 167.892578 19.412109 L 174.729980 19.412109 L 174.729980 20.335938 Z " fill="rgb(0, 0, 0)" fill-opacity="1.000000" />
<path d="M 174.892578 20.335938 L 174.892578 19.412109 L 181.729980 19.412109 L 181.729980 20.335938 Z " fill="rgb(0, 0, 0)" fill-opacity="1.000000" />
<path d="M 181.892578 20.335938 L 181.892578 19.412109 L 188.729980 19.412109 L 188.729980 20.335938 Z " fill="rgb(0, 0, 0)" fill-opacity="1.000000" />
<path d="M 188.892578 20.335938 L 188.892578 19.412109 L 195.729980 19.412109 L 195.729980 20.335938 Z " fill="rgb(0, 0, 0)" fill-opacity="1.000000" />
<path d="M 196.032227 23.418945 L 196.032227 16.866211 L 202.590332 20.142578 Z " fill="rgb(0, 0, 0)" fill-opacity="1.000000" />
<path d="M 218.981934 18.955566 L 218.981934 22.108398 L 220.265625 22.108398 Q 221.210938 22.108398 221.613770 21.778076 Q 222.016602 21.447754 222.016602 20.690430 Q 222.016602 19.691406 221.592285 19.323486 Q 221.167969 18.955566 220.265625 18.955566 Z M 218.981934 15.872559 L 218.981934 18.074707 L 220.244141 18.074707 Q 221.028320 18.074707 221.380127 17.773926 Q 221.731934 17.473145 221.731934 17.016602 Q 221.731934 16.409668 221.385498 16.141113 Q 221.039062 15.872559 220.244141 15.872559 Z M 217.891602 14.980957 L 220.265625 14.980957 Q 221.495605 14.980957 222.161621 15.512695 Q 222.827637 16.044434 222.827637 17.016602 Q 222.827637 17.537598 222.475830 17.961914 Q 222.124023 18.386230 221.420410 18.493652 Q 222.209961 18.611816 222.658447 19.167725 Q 223.106934 19.723633 223.106934 20.797852 Q 223.106934 21.888184 222.392578 22.444092 Q 221.678223 23.000000 220.265625 23.000000 L 217.891602 23.000000 Z " fill="rgb(0, 0, 0)" fill-opacity="1.000000" />
<path d="M 227.861816 20.824707 Q 227.861816 21.490723 228.106201 21.829102 Q 228.350586 22.167480 228.828613 22.167480 L 229.983398 22.167480 L 229.983398 23.000000 L 228.731934 23.000000 Q 227.845703 23.000000 227.359619 22.433350 Q 226.873535 21.866699 226.873535 20.824707 L 226.873535 15.383789 L 225.289062 15.383789 L 225.289062 14.610352 L 227.861816 14.610352 Z " fill="rgb(0, 0, 0)" fill-opacity="1.000000" />
<path d="M 234.308594 17.677246 Q 233.556641 17.677246 233.169922 18.262695 Q 232.783203 18.848145 232.783203 19.997559 Q 232.783203 21.141602 233.169922 21.729736 Q 233.556641 22.317871 234.308594 22.317871 Q 235.065918 22.317871 235.452637 21.729736 Q 235.839355 21.141602 235.839355 19.997559 Q 235.839355 18.848145 235.452637 18.262695 Q 235.065918 17.677246 234.308594 17.677246 Z M 234.308594 16.839355 Q 235.560059 16.839355 236.223389 17.650391 Q 236.886719 18.461426 236.886719 19.997559 Q 236.886719 21.539062 236.226074 22.347412 Q 235.565430 23.155762 234.308594 23.155762 Q 233.057129 23.155762 232.396484 22.347412 Q 231.735840 21.539062 231.735840 19.997559 Q 231.735840 18.461426 232.396484 17.650391 Q 233.057129 16.839355 234.308594 16.839355 Z " fill="rgb(0, 0, 0)" fill-opacity="1.000000" />
<path d="M 243.698730 22.693848 Q 243.301270 22.924805 242.879639 23.040283 Q 242.458008 23.155762 242.017578 23.155762 Q 240.621094 23.155762 239.834229 22.317871 Q 239.047363 21.479980 239.047363 19.997559 Q 239.047363 18.515137 239.834229 17.677246 Q 240.621094 16.839355 242.017578 16.839355 Q 242.452637 16.839355 242.866211 16.952148 Q 243.279785 17.064941 243.698730 17.301270 L 243.698730 18.337891 Q 243.306641 17.988770 242.911865 17.833008 Q 242.517090 17.677246 242.017578 17.677246 Q 241.088379 17.677246 240.588867 18.278809 Q 240.089355 18.880371 240.089355 19.997559 Q 240.089355 21.109375 240.591553 21.713623 Q 241.093750 22.317871 242.017578 22.317871 Q 242.533203 22.317871 242.941406 22.159424 Q 243.349609 22.000977 243.698730 21.667969 Z " fill="rgb(0, 0, 0)" fill-opacity="1.000000" />
<path d="M 246.267578 14.642578 L 247.288086 14.642578 L 247.288086 19.481934 L 249.882324 16.984375 L 251.085449 16.984375 L 248.716797 19.250977 L 251.456055 23.000000 L 250.247559 23.000000 L 248.023926 19.895508 L 247.288086 20.588379 L 247.288086 23.000000 L 246.267578 23.000000 Z " fill="rgb(0, 0, 0)" fill-opacity="1.000000" />
<path d="M 260.267578 14.642578 L 261.288086 14.642578 L 261.288086 19.481934 L 263.882324 16.984375 L 265.085449 16.984375 L 262.716797 19.250977 L 265.456055 23.000000 L 264.247559 23.000000 L 262.023926 19.895508 L 261.288086 20.588379 L 261.288086 23.000000 L 260.267578 23.000000 Z " fill="rgb(0, 0, 0)" fill-opacity="1.000000" />
<path d="M 269.867188 16.672852 L 269.867188 19.052246 L 272.257324 19.052246 L 272.257324 19.959961 L 269.867188 19.959961 L 269.867188 22.339355 L 268.964844 22.339355 L 268.964844 19.959961 L 266.580078 19.959961 L 266.580078 19.052246 L 268.964844 19.052246 L 268.964844 16.672852 Z " fill="rgb(0, 0, 0)" fill-opacity="1.000000" />
<path d="M 275.003418 22.086914 L 278.687988 22.086914 L 278.687988 23.000000 L 273.816406 23.000000 L 273.816406 22.086914 Q 274.820801 21.028809 275.572754 20.217773 Q 276.324707 19.406738 276.609375 19.073730 Q 277.146484 18.418457 277.334473 18.012939 Q 277.522461 17.607422 277.522461 17.183105 Q 277.522461 16.511719 277.127686 16.130371 Q 276.732910 15.749023 276.045410 15.749023 Q 275.556641 15.749023 275.019531 15.926270 Q 274.482422 16.103516 273.880859 16.463379 L 273.880859 15.367676 Q 274.434082 15.104492 274.968506 14.970215 Q 275.502930 14.835938 276.023926 14.835938 Q 277.200195 14.835938 277.917236 15.461670 Q 278.634277 16.087402 278.634277 17.102539 Q 278.634277 17.618164 278.395264 18.133789 Q 278.156250 18.649414 277.619141 19.272461 Q 277.318359 19.621582 276.746338 20.239258 Q 276.174316 20.856934 275.003418 22.086914 Z " fill="rgb(0, 0, 0)" fill-opacity="1.000000" />
<path d="M 303.878906 26.319336 L 303.878906 12.300781 L 304.738281 12.300781 L 304.738281 26.319336 Z " fill="rgb(0, 0, 0)" fill-opacity="1.000000" />
<path d="M 51.878906 13.319336 L 51.878906 6.412109 L 55.729980 6.412109 L 55.729980 7.335938 L 52.738281 7.335938 L 52.738281 13.319336 Z " fill="rgb(0, 0, 0)" fill-opacity="1.000000" />
<path d="M 55.892578 7.335938 L 55.892578 6.412109 L 62.729980 6.412109 L 62.729980 7.335938 Z " fill="rgb(0, 0, 0)" fill-opacity="1.000000" />
<path d="M 62.892578 7.335938 L 62.892578 6.412109 L 69.729980 6.412109 L 69.729980 7.335938 Z " fill="rgb(0, 0, 0)" fill-opacity="1.000000" />
<path d="M 69.892578 7.335938 L 69.892578 6.412109 L 76.729980 6.412109 L 76.729980 7.335938 Z " fill="rgb(0, 0, 0)" fill-opacity="1.000000" />
<path d="M 76.892578 7.335938 L 76.892578 6.412109 L 83.729980 6.412109 L 83.729980 7.335938 Z " fill="rgb(0, 0, 0)" fill-opacity="1.000000" />
<path d="M 83.892578 7.335938 L 83.892578 6.412109 L 90.729980 6.412109 L 90.729980 7.335938 Z " fill="rgb(0, 0, 0)" fill-opacity="1.000000" />
<path d="M 90.892578 7.335938 L 90.892578 6.412109 L 97.729980 6.412109 L 97.729980 7.335938 Z " fill="rgb(0, 0, 0)" fill-opacity="1.000000" />
<path d="M 97.892578 7.335938 L 97.892578 6.412109 L 104.729980 6.412109 L 104.729980 7.335938 Z " fill="rgb(0, 0, 0)" fill-opacity="1.000000" />
<path d="M 104.892578 7.335938 L 104.892578 6.412109 L 111.729980 6.412109 L 111.729980 7.335938 Z " fill="rgb(0, 0, 0)" fill-opacity="1.000000" />
<path d="M 111.892578 7.335938 L 111.892578 6.412109 L 118.729980 6.412109 L 118.729980 7.335938 Z " fill="rgb(0, 0, 0)" fill-opacity="1.000000" />
<path d="M 118.892578 7.335938 L 118.892578 6.412109 L 125.729980 6.412109 L 125.729980 7.335938 Z " fill="rgb(0, 0, 0)" fill-opacity="1.000000" />
<path d="M 125.892578 7.335938 L 125.892578 6.412109 L 132.729980 6.412109 L 132.729980 7.335938 Z " fill="rgb(0, 0, 0)" fill-opacity="1.000000" />
<path d="M 132.892578 7.335938 L 132.892578 6.412109 L 139.729980 6.412109 L 139.729980 7.335938 Z " fill="rgb(0, 0, 0)" fill-opacity="1.000000" />
<path d="M 139.892578 7.335938 L 139.892578 6.412109 L 146.729980 6.412109 L 146.729980 7.335938 Z " fill="rgb(0, 0, 0)" fill-opacity="1.000000" />
<path d="M 146.892578 7.335938 L 146.892578 6.412109 L 153.729980 6.412109 L 153.729980 7.335938 Z " fill="rgb(0, 0, 0)" fill-opacity="1.000000" />
<path d="M 156.878906 13.319336 L 156.878906 7.335938 L 153.892578 7.335938 L 153.892578 6.412109 L 157.738281 6.412109 L 157.738281 13.319336 Z " fill="rgb(0, 0, 0)" fill-opacity="1.000000" />
<path d="M 198.878906 13.319336 L 198.878906 6.412109 L 202.729980 6.412109 L 202.729980 7.335938 L 199.738281 7.335938 L 199.738281 13.319336 Z " fill="rgb(0, 0, 0)" fill-opacity="1.000000" />
<path d="M 202.892578 7.335938 L 202.892578 6.412109 L 209.729980 6.412109 L 209.729980 7.335938 Z " fill="rgb(0, 0, 0)" fill-opacity="1.000000" />
<path d="M 209.892578 7.335938 L 209.892578 6.412109 L 216.729980 6.412109 L 216.729980 7.335938 Z " fill="rgb(0, 0, 0)" fill-opacity="1.000000" />
<path d="M 216.892578 7.335938 L 216.892578 6.412109 L 223.729980 6.412109 L 223.729980 7.335938 Z " fill="rgb(0, 0, 0)" fill-opacity="1.000000" />
<path d="M 223.892578 7.335938 L 223.892578 6.412109 L 230.729980 6.412109 L 230.729980 7.335938 Z " fill="rgb(0, 0, 0)" fill-opacity="1.000000" />
<path d="M 230.892578 7.335938 L 230.892578 6.412109 L 237.729980 6.412109 L 237.729980 7.335938 Z " fill="rgb(0, 0, 0)" fill-opacity="1.000000" />
<path d="M 237.892578 7.335938 L 237.892578 6.412109 L 244.729980 6.412109 L 244.729980 7.335938 Z " fill="rgb(0, 0, 0)" fill-opacity="1.000000" />
<path d="M 244.892578 7.335938 L 244.892578 6.412109 L 251.729980 6.412109 L 251.729980 7.335938 Z " fill="rgb(0, 0, 0)" fill-opacity="1.000000" />
<path d="M 251.892578 7.335938 L 251.892578 6.412109 L 258.729980 6.412109 L 258.729980 7.335938 Z " fill="rgb(0, 0, 0)" fill-opacity="1.000000" />
<path d="M 258.892578 7.335938 L 258.892578 6.412109 L 265.729980 6.412109 L 265.729980 7.335938 Z " fill="rgb(0, 0, 0)" fill-opacity="1.000000" />
<path d="M 265.892578 7.335938 L 265.892578 6.412109 L 272.729980 6.412109 L 272.729980 7.335938 Z " fill="rgb(0, 0, 0)" fill-opacity="1.000000" />
<path d="M 272.892578 7.335938 L 272.892578 6.412109 L 279.729980 6.412109 L 279.729980 7.335938 Z " fill="rgb(0, 0, 0)" fill-opacity="1.000000" />
<path d="M 279.892578 7.335938 L 279.892578 6.412109 L 286.729980 6.412109 L 286.729980 7.335938 Z " fill="rgb(0, 0, 0)" fill-opacity="1.000000" />
<path d="M 286.892578 7.335938 L 286.892578 6.412109 L 293.729980 6.412109 L 293.729980 7.335938 Z " fill="rgb(0, 0, 0)" fill-opacity="1.000000" />
<path d="M 293.892578 7.335938 L 293.892578 6.412109 L 300.729980 6.412109 L 300.729980 7.335938 Z " fill="rgb(0, 0, 0)" fill-opacity="1.000000" />
<path d="M 303.878906 13.319336 L 303.878906 7.335938 L 300.892578 7.335938 L 300.892578 6.412109 L 304.738281 6.412109 L 304.738281 13.319336 Z " fill="rgb(0, 0, 0)" fill-opacity="1.000000" />
</svg>