<svg xmlns="http://www.w3.org/2000/svg" version="1.1" width="295" height="144">
<path d="M 2.878906 52.319336 L 2.878906 45.412109 L 6.729980 45.412109 L 6.729980 46.335938 L 3.738281 46.335938 L 3.738281 52.319336 Z " fill="rgb(0, 0, 0)" fill-opacity="1.000000" />
<path d="M 2.878906 65.319336 L 2.878906 51.300781 L 3.738281 51.300781 L 3.738281 65.319336 Z " fill="rgb(0, 0, 0)" fill-opacity="1.000000" />
<path d="M 2.878906 78.319336 L 2.878906 64.300781 L 3.738281 64.300781 L 3.738281 78.319336 Z " fill="rgb(0, 0, 0)" fill-opacity="1.000000" />
<path d="M 2.878906 91.319336 L 2.878906 77.300781 L 3.738281 77.300781 L 3.738281 91.319336 Z " fill="rgb(0, 0, 0)" fill-opacity="1.000000" />
<path d="M 2.878906 98.335938 L 2.878906 90.300781 L 3.738281 90.300781 L 3.738281 97.412109 L 6.729980 97.412109 L 6.729980 98.335938 Z " fill="rgb(0, 0, 0)" fill-opacity="1.000000" />
<path d="M 37.878906 117.319336 L 37.878906 103.300781 L 38.738281 103.300781 L 38.738281 117.319336 Z " fill="rgb(0, 0, 0)" fill-opacity="1.000000" />
<path d="M 37.878906 124.335938 L 37.878906 116.300781 L 38.738281 116.300781 L 38.738281 123.412109 L 41.729980 123.412109 L 41.729980 124.335938 Z " fill="rgb(0, 0, 0)" fill-opacity="1.000000" />
<path d="M 42.102051 132.007812 L 43.584473 132.007812 L 46.721191 138.587402 L 46.721191 132.007812 L 47.875977 132.007812 L 47.875977 140.000000 L 46.393555 140.000000 L 43.256836 133.420410 L 43.256836 140.000000 L 42.102051 140.000000 Z " fill="rgb(0, 0, 0)" fill-opacity="1.000000" />
<path d="M 52.308594 134.677246 Q 51.556641 134.677246 51.169922 135.262695 Q 50.783203 135.848145 50.783203 136.997559 Q 50.783203 138.141602 51.169922 138.729736 Q 51.556641 139.317871 52.308594 139.317871 Q 53.065918 139.317871 53.452637 138.729736 Q 53.839355 138.141602 53.839355 136.997559 Q 53.839355 135.848145 53.452637 135.262695 Q 53.065918 134.677246 52.308594 134.677246 Z M 52.308594 133.839355 Q 53.560059 133.839355 54.223389 134.650391 Q 54.886719 135.461426 54.886719 136.997559 Q 54.886719 138.539062 54.226074 139.347412 Q 53.565430 140.155762 52.308594 140.155762 Q 51.057129 140.155762 50.396484 139.347412 Q 49.735840 138.539062 49.735840 136.997559 Q 49.735840 135.461426 50.396484 134.650391 Q 51.057129 133.839355 52.308594 133.839355 Z " fill="rgb(0, 0, 0)" fill-opacity="1.000000" />
<path d="M 59.297852 132.276367 L 59.297852 133.984375 L 61.542969 133.984375 L 61.542969 134.752441 L 59.297852 134.752441 L 59.297852 138.018066 Q 59.297852 138.684082 59.550293 138.947266 Q 59.802734 139.210449 60.431152 139.210449 L 61.542969 139.210449 L 61.542969 140.000000 L 60.334473 140.000000 Q 59.222656 140.000000 58.766113 139.554199 Q 58.309570 139.108398 58.309570 138.018066 L 58.309570 134.752441 L 56.703613 134.752441 L 56.703613 133.984375 L 58.309570 133.984375 L 58.309570 132.276367 Z " fill="rgb(0, 0, 0)" fill-opacity="1.000000" />
<path d="M 73.770508 136.976074 L 73.442871 136.976074 Q 72.578125 136.976074 72.140381 137.279541 Q 71.702637 137.583008 71.702637 138.184570 Q 71.702637 138.727051 72.030273 139.027832 Q 72.357910 139.328613 72.937988 139.328613 Q 73.754395 139.328613 74.221680 138.761963 Q 74.688965 138.195312 74.694336 137.196289 L 74.694336 136.976074 Z M 75.687988 136.567871 L 75.687988 140.000000 L 74.694336 140.000000 L 74.694336 139.108398 Q 74.377441 139.645508 73.896729 139.900635 Q 73.416016 140.155762 72.728516 140.155762 Q 71.810059 140.155762 71.262207 139.637451 Q 70.714355 139.119141 70.714355 138.249023 Q 70.714355 137.244629 71.388428 136.723633 Q 72.062500 136.202637 73.367676 136.202637 L 74.694336 136.202637 L 74.694336 136.046875 Q 74.688965 135.327148 74.329102 135.002197 Q 73.969238 134.677246 73.179688 134.677246 Q 72.674805 134.677246 72.159180 134.822266 Q 71.643555 134.967285 71.154785 135.246582 L 71.154785 134.258301 Q 71.702637 134.048828 72.204834 133.944092 Q 72.707031 133.839355 73.179688 133.839355 Q 73.926270 133.839355 74.455322 134.059570 Q 74.984375 134.279785 75.312012 134.720215 Q 75.516113 134.988770 75.602051 135.383545 Q 75.687988 135.778320 75.687988 136.567871 Z " fill="rgb(0, 0, 0)" fill-opacity="1.000000" />
<path d="M 85.783203 137.019043 Q 85.783203 138.168457 86.145752 138.753906 Q 86.508301 139.339355 87.222656 139.339355 Q 87.937012 139.339355 88.304932 138.751221 Q 88.672852 138.163086 88.672852 137.019043 Q 88.672852 135.875000 88.304932 135.286865 Q 87.937012 134.698730 87.222656 134.698730 Q 86.508301 134.698730 86.145752 135.284180 Q 85.783203 135.869629 85.783203 137.019043 Z M 88.672852 139.253418 Q 88.431152 139.699219 88.020264 139.938232 Q 87.609375 140.177246 87.066895 140.177246 Q 85.987305 140.177246 85.361572 139.342041 Q 84.735840 138.506836 84.735840 137.040527 Q 84.735840 135.547363 85.358887 134.704102 Q 85.981934 133.860840 87.066895 133.860840 Q 87.604004 133.860840 88.014893 134.094482 Q 88.425781 134.328125 88.672852 134.773926 L 88.672852 134.005859 L 89.666504 134.005859 L 89.666504 142.309570 L 88.672852 142.309570 Z " fill="rgb(0, 0, 0)" fill-opacity="1.000000" />
<path d="M 92.047363 137.722656 L 92.047363 133.995117 L 93.035645 133.995117 L 93.035645 137.722656 Q 93.035645 138.533691 93.322998 138.915039 Q 93.610352 139.296387 94.211914 139.296387 Q 94.910156 139.296387 95.280762 138.804932 Q 95.651367 138.313477 95.651367 137.395020 L 95.651367 133.995117 L 96.645020 133.995117 L 96.645020 140.000000 L 95.651367 140.000000 L 95.651367 139.097656 Q 95.388184 139.618652 94.934326 139.887207 Q 94.480469 140.155762 93.873535 140.155762 Q 92.949707 140.155762 92.498535 139.551514 Q 92.047363 138.947266 92.047363 137.722656 Z " fill="rgb(0, 0, 0)" fill-opacity="1.000000" />
<path d="M 101.308594 134.677246 Q 100.556641 134.677246 100.169922 135.262695 Q 99.783203 135.848145 99.783203 136.997559 Q 99.783203 138.141602 100.169922 138.729736 Q 100.556641 139.317871 101.308594 139.317871 Q 102.065918 139.317871 102.452637 138.729736 Q 102.839355 138.141602 102.839355 136.997559 Q 102.839355 135.848145 102.452637 135.262695 Q 102.065918 134.677246 101.308594 134.677246 Z M 101.308594 133.839355 Q 102.560059 133.839355 103.223389 134.650391 Q 103.886719 135.461426 103.886719 136.997559 Q 103.886719 138.539062 103.226074 139.347412 Q 102.565430 140.155762 101.308594 140.155762 Q 100.057129 140.155762 99.396484 139.347412 Q 98.735840 138.539062 98.735840 136.997559 Q 98.735840 135.461426 99.396484 134.650391 Q 100.057129 133.839355 101.308594 133.839355 Z " fill="rgb(0, 0, 0)" fill-opacity="1.000000" />
<path d="M 111.203613 135.225098 Q 110.886719 134.978027 110.559082 134.865234 Q 110.231445 134.752441 109.839355 134.752441 Q 108.915527 134.752441 108.426758 135.332520 Q 107.937988 135.912598 107.937988 137.008301 L 107.937988 140.000000 L 106.944336 140.000000 L 106.944336 133.984375 L 107.937988 133.984375 L 107.937988 135.160645 Q 108.185059 134.521484 108.697998 134.180420 Q 109.210938 133.839355 109.914551 133.839355 Q 110.279785 133.839355 110.596680 133.930664 Q 110.913574 134.021973 111.203613 134.215332 Z " fill="rgb(0, 0, 0)" fill-opacity="1.000000" />
<path d="M 113.047363 137.722656 L 113.047363 133.995117 L 114.035645 133.995117 L 114.035645 137.722656 Q 114.035645 138.533691 114.322998 138.915039 Q 114.610352 139.296387 115.211914 139.296387 Q 115.910156 139.296387 116.280762 138.804932 Q 116.651367 138.313477 116.651367 137.395020 L 116.651367 133.995117 L 117.645020 133.995117 L 117.645020 140.000000 L 116.651367 140.000000 L 116.651367 139.097656 Q 116.388184 139.618652 115.934326 139.887207 Q 115.480469 140.155762 114.873535 140.155762 Q 113.949707 140.155762 113.498535 139.551514 Q 113.047363 138.947266 113.047363 137.722656 Z " fill="rgb(0, 0, 0)" fill-opacity="1.000000" />
<path d="M 122.630859 134.596680 Q 122.813477 134.209961 123.095459 134.024658 Q 123.377441 133.839355 123.774902 133.839355 Q 124.500000 133.839355 124.798096 134.400635 Q 125.096191 134.961914 125.096191 136.514160 L 125.096191 140.000000 L 124.193848 140.000000 L 124.193848 136.557129 Q 124.193848 135.284180 124.051514 134.975342 Q 123.909180 134.666504 123.533203 134.666504 Q 123.103516 134.666504 122.945068 134.996826 Q 122.786621 135.327148 122.786621 136.557129 L 122.786621 140.000000 L 121.884277 140.000000 L 121.884277 136.557129 Q 121.884277 135.268066 121.731201 134.967285 Q 121.578125 134.666504 121.180664 134.666504 Q 120.788574 134.666504 120.635498 134.996826 Q 120.482422 135.327148 120.482422 136.557129 L 120.482422 140.000000 L 119.585449 140.000000 L 119.585449 133.984375 L 120.482422 133.984375 L 120.482422 134.500000 Q 120.659668 134.177734 120.925537 134.008545 Q 121.191406 133.839355 121.529785 133.839355 Q 121.937988 133.839355 122.209229 134.027344 Q 122.480469 134.215332 122.630859 134.596680 Z " fill="rgb(0, 0, 0)" fill-opacity="1.000000" />
<path d="M 41.892578 124.335938 L 41.892578 123.412109 L 48.729980 123.412109 L 48.729980 124.335938 Z " fill="rgb(0, 0, 0)" fill-opacity="1.000000" />
<path d="M 48.892578 124.335938 L 48.892578 123.412109 L 55.729980 123.412109 L 55.729980 124.335938 Z " fill="rgb(0, 0, 0)" fill-opacity="1.000000" />
<path d="M 55.892578 124.335938 L 55.892578 123.412109 L 62.729980 123.412109 L 62.729980 124.335938 Z " fill="rgb(0, 0, 0)" fill-opacity="1.000000" />
<path d="M 62.892578 124.335938 L 62.892578 123.412109 L 69.729980 123.412109 L 69.729980 124.335938 Z " fill="rgb(0, 0, 0)" fill-opacity="1.000000" />
<path d="M 69.892578 124.335938 L 69.892578 123.412109 L 76.729980 123.412109 L 76.729980 124.335938 Z " fill="rgb(0, 0, 0)" fill-opacity="1.000000" />
<path d="M 76.892578 124.335938 L 76.892578 123.412109 L 83.729980 123.412109 L 83.729980 124.335938 Z " fill="rgb(0, 0, 0)" fill-opacity="1.000000" />
<path d="M 83.892578 124.335938 L 83.892578 123.412109 L 90.729980 123.412109 L 90.729980 124.335938 Z " fill="rgb(0, 0, 0)" fill-opacity="1.000000" />
<path d="M 90.892578 124.335938 L 90.892578 123.412109 L 97.729980 123.412109 L 97.729980 124.335938 Z " fill="rgb(0, 0, 0)" fill-opacity="1.000000" />
<path d="M 97.892578 124.335938 L 97.892578 123.412109 L 104.729980 123.412109 L 104.729980 124.335938 Z " fill="rgb(0, 0, 0)" fill-opacity="1.000000" />
<path d="M 104.892578 124.335938 L 104.892578 123.412109 L 111.729980 123.412109 L 111.729980 124.335938 Z " fill="rgb(0, 0, 0)" fill-opacity="1.000000" />
<path d="M 111.892578 124.335938 L 111.892578 123.412109 L 118.729980 123.412109 L 118.729980 124.335938 Z " fill="rgb(0, 0, 0)" fill-opacity="1.000000" />
<path d="M 118.892578 124.335938 L 118.892578 123.412109 L 125.729980 123.412109 L 125.729980 124.335938 Z " fill="rgb(0, 0, 0)" fill-opacity="1.000000" />
<path d="M 125.892578 124.335938 L 125.892578 123.412109 L 132.729980 123.412109 L 132.729980 124.335938 Z " fill="rgb(0, 0, 0)" fill-opacity="1.000000" />
<path d="M 132.892578 124.335938 L 132.892578 123.412109 L 135.878906 123.412109 L 135.878906 116.300781 L 136.738281 116.300781 L 136.738281 124.335938 Z " fill="rgb(0, 0, 0)" fill-opacity="1.000000" />
<path d="M 135.878906 117.319336 L 135.878906 103.300781 L 136.738281 103.300781 L 136.738281 117.319336 Z " fill="rgb(0, 0, 0)" fill-opacity="1.000000" />
<path d="M 6.892578 98.335938 L 6.892578 97.412109 L 13.729980 97.412109 L 13.729980 98.335938 Z " fill="rgb(0, 0, 0)" fill-opacity="1.000000" />
<path d="M 13.892578 98.335938 L 13.892578 97.412109 L 20.729980 97.412109 L 20.729980 98.335938 Z " fill="rgb(0, 0, 0)" fill-opacity="1.000000" />
<path d="M 20.892578 98.335938 L 20.892578 97.412109 L 27.729980 97.412109 L 27.729980 98.335938 Z " fill="rgb(0, 0, 0)" fill-opacity="1.000000" />
<path d="M 27.892578 98.335938 L 27.892578 97.412109 L 34.729980 97.412109 L 34.729980 98.335938 Z " fill="rgb(0, 0, 0)" fill-opacity="1.000000" />
<path d="M 34.892578 98.335938 L 34.892578 97.412109 L 41.729980 97.412109 L 41.729980 98.335938 Z " fill="rgb(0, 0, 0)" fill-opacity="1.000000" />
<path d="M 41.892578 98.335938 L 41.892578 97.412109 L 48.729980 97.412109 L 48.729980 98.335938 Z " fill="rgb(0, 0, 0)" fill-opacity="1.000000" />
<path d="M 48.892578 98.335938 L 48.892578 97.412109 L 51.878906 97.412109 L 51.878906 90.300781 L 52.738281 90.300781 L 52.738281 98.335938 Z " fill="rgb(0, 0, 0)" fill-opacity="1.000000" />
<path d="M 121.878906 98.335938 L 121.878906 90.300781 L 122.738281 90.300781 L 122.738281 97.412109 L 125.729980 97.412109 L 125.729980 98.335938 Z " fill="rgb(0, 0, 0)" fill-opacity="1.000000" />
<path d="M 125.892578 98.335938 L 125.892578 97.412109 L 132.729980 97.412109 L 132.729980 98.335938 Z " fill="rgb(0, 0, 0)" fill-opacity="1.000000" />
<path d="M 132.892578 98.335938 L 132.892578 97.412109 L 139.729980 97.412109 L 139.729980 98.335938 Z " fill="rgb(0, 0, 0)" fill-opacity="1.000000" />
<path d="M 139.892578 98.335938 L 139.892578 97.412109 L 146.729980 97.412109 L 146.729980 98.335938 Z " fill="rgb(0, 0, 0)" fill-opacity="1.000000" />
<path d="M 146.892578 98.335938 L 146.892578 97.412109 L 153.729980 97.412109 L 153.729980 98.335938 Z " fill="rgb(0, 0, 0)" fill-opacity="1.000000" />
<path d="M 153.892578 98.335938 L 153.892578 97.412109 L 160.729980 97.412109 L 160.729980 98.335938 Z " fill="rgb(0, 0, 0)" fill-opacity="1.000000" />
<path d="M 160.892578 98.335938 L 160.892578 97.412109 L 167.729980 97.412109 L 167.729980 98.335938 Z " fill="rgb(0, 0, 0)" fill-opacity="1.000000" />
<path d="M 167.892578 98.335938 L 167.892578 97.412109 L 170.878906 97.412109 L 170.878906 90.300781 L 171.738281 90.300781 L 171.738281 98.335938 Z " fill="rgb(0, 0, 0)" fill-opacity="1.000000" />
<path d="M 240.878906 98.335938 L 240.878906 90.300781 L 241.738281 90.300781 L 241.738281 97.412109 L 244.729980 97.412109 L 244.729980 98.335938 Z " fill="rgb(0, 0, 0)" fill-opacity="1.000000" />
<path d="M 244.892578 98.335938 L 244.892578 97.412109 L 251.729980 97.412109 L 251.729980 98.335938 Z " fill="rgb(0, 0, 0)" fill-opacity="1.000000" />
<path d="M 251.892578 98.335938 L 251.892578 97.412109 L 258.729980 97.412109 L 258.729980 98.335938 Z " fill="rgb(0, 0, 0)" fill-opacity="1.000000" />
<path d="M 258.892578 98.335938 L 258.892578 97.412109 L 265.729980 97.412109 L 265.729980 98.335938 Z " fill="rgb(0, 0, 0)" fill-opacity="1.000000" />
<path d="M 265.892578 98.335938 L 265.892578 97.412109 L 272.729980 97.412109 L 272.729980 98.335938 Z " fill="rgb(0, 0, 0)" fill-opacity="1.000000" />
<path d="M 272.892578 98.335938 L 272.892578 97.412109 L 279.729980 97.412109 L 279.729980 98.335938 Z " fill="rgb(0, 0, 0)" fill-opacity="1.000000" />
<path d="M 279.892578 98.335938 L 279.892578 97.412109 L 286.729980 97.412109 L 286.729980 98.335938 Z " fill="rgb(0, 0, 0)" fill-opacity="1.000000" />
<path d="M 286.892578 98.335938 L 286.892578 97.412109 L 289.878906 97.412109 L 289.878906 90.300781 L 290.738281 90.300781 L 290.738281 98.335938 Z " fill="rgb(0, 0, 0)" fill-opacity="1.000000" />
<path d="M 26.645020 71.272461 L 26.645020 75.000000 L 25.651367 75.000000 L 25.651367 71.272461 Q 25.651367 70.461426 25.366699 70.080078 Q 25.082031 69.698730 24.475098 69.698730 Q 23.782227 69.698730 23.408936 70.190186 Q 23.035645 70.681641 23.035645 71.600098 L 23.035645 75.000000 L 22.047363 75.000000 L 22.047363 68.984375 L 23.035645 68.984375 L 23.035645 69.886719 Q 23.298828 69.371094 23.750000 69.105225 Q 24.201172 68.839355 24.818848 68.839355 Q 25.737305 68.839355 26.191162 69.443604 Q 26.645020 70.047852 26.645020 71.272461 Z " fill="rgb(0, 0, 0)" fill-opacity="1.000000" />
<path d="M 51.878906 91.319336 L 51.878906 77.300781 L 52.738281 77.300781 L 52.738281 91.319336 Z " fill="rgb(0, 0, 0)" fill-opacity="1.000000" />
<path d="M 121.878906 91.319336 L 121.878906 77.300781 L 122.738281 77.300781 L 122.738281 91.319336 Z " fill="rgb(0, 0, 0)" fill-opacity="1.000000" />
<path d="M 168.032227 85.142578 L 174.590332 81.866211 L 174.590332 88.418945 Z " fill="rgb(0, 0, 0)" fill-opacity="1.000000" />
<path d="M 174.892578 85.335938 L 174.892578 84.412109 L 181.729980 84.412109 L 181.729980 85.335938 Z " fill="rgb(0, 0, 0)" fill-opacity="1.000000" />
<path d="M 181.892578 85.335938 L 181.892578 84.412109 L 188.729980 84.412109 L 188.729980 85.335938 Z " fill="rgb(0, 0, 0)" fill-opacity="1.000000" />
<path d="M 188.892578 85.335938 L 188.892578 84.412109 L 195.729980 84.412109 L 195.729980 85.335938 Z " fill="rgb(0, 0, 0)" fill-opacity="1.000000" />
<path d="M 195.892578 85.335938 L 195.892578 84.412109 L 202.729980 84.412109 L 202.729980 85.335938 Z " fill="rgb(0, 0, 0)" fill-opacity="1.000000" />
<path d="M 202.892578 85.335938 L 202.892578 84.412109 L 209.729980 84.412109 L 209.729980 85.335938 Z " fill="rgb(0, 0, 0)" fill-opacity="1.000000" />
<path d="M 209.892578 85.335938 L 209.892578 84.412109 L 216.729980 84.412109 L 216.729980 85.335938 Z " fill="rgb(0, 0, 0)" fill-opacity="1.000000" />
<path d="M 216.892578 85.335938 L 216.892578 84.412109 L 223.729980 84.412109 L 223.729980 85.335938 Z " fill="rgb(0, 0, 0)" fill-opacity="1.000000" />
<path d="M 223.892578 85.335938 L 223.892578 84.412109 L 230.729980 84.412109 L 230.729980 85.335938 Z " fill="rgb(0, 0, 0)" fill-opacity="1.000000" />
<path d="M 230.892578 85.335938 L 230.892578 84.412109 L 237.729980 84.412109 L 237.729980 85.335938 Z " fill="rgb(0, 0, 0)" fill-opacity="1.000000" />
<path d="M 240.878906 91.319336 L 240.878906 85.335938 L 237.892578 85.335938 L 237.892578 84.412109 L 240.878906 84.412109 L 240.878906 77.300781 L 241.738281 77.300781 L 241.738281 91.319336 Z " fill="rgb(0, 0, 0)" fill-opacity="1.000000" />
<path d="M 289.878906 91.319336 L 289.878906 77.300781 L 290.738281 77.300781 L 290.738281 91.319336 Z " fill="rgb(0, 0, 0)" fill-opacity="1.000000" />
<path d="M 29.450195 74.092285 L 31.136719 74.092285 L 31.136719 68.033691 L 29.117188 69.005859 L 29.117188 67.963867 L 31.125977 67.007812 L 32.210938 67.007812 L 32.210938 74.092285 L 33.875977 74.092285 L 33.875977 75.000000 L 29.450195 75.000000 Z " fill="rgb(0, 0, 0)" fill-opacity="1.000000" />
<path d="M 51.878906 78.319336 L 51.878906 64.300781 L 52.738281 64.300781 L 52.738281 71.412109 L 55.729980 71.412109 L 55.729980 72.335938 L 52.738281 72.335938 L 52.738281 78.319336 Z " fill="rgb(0, 0, 0)" fill-opacity="1.000000" />
<path d="M 55.892578 72.335938 L 55.892578 71.412109 L 62.729980 71.412109 L 62.729980 72.335938 Z " fill="rgb(0, 0, 0)" fill-opacity="1.000000" />
<path d="M 62.892578 72.335938 L 62.892578 71.412109 L 69.729980 71.412109 L 69.729980 72.335938 Z " fill="rgb(0, 0, 0)" fill-opacity="1.000000" />
<path d="M 69.892578 72.335938 L 69.892578 71.412109 L 76.729980 71.412109 L 76.729980 72.335938 Z " fill="rgb(0, 0, 0)" fill-opacity="1.000000" />
<path d="M 76.892578 72.335938 L 76.892578 71.412109 L 83.729980 71.412109 L 83.729980 72.335938 Z " fill="rgb(0, 0, 0)" fill-opacity="1.000000" />
<path d="M 83.892578 72.335938 L 83.892578 71.412109 L 90.729980 71.412109 L 90.729980 72.335938 Z " fill="rgb(0, 0, 0)" fill-opacity="1.000000" />
<path d="M 90.892578 72.335938 L 90.892578 71.412109 L 97.729980 71.412109 L 97.729980 72.335938 Z " fill="rgb(0, 0, 0)" fill-opacity="1.000000" />
<path d="M 97.892578 72.335938 L 97.892578 71.412109 L 104.729980 71.412109 L 104.729980 72.335938 Z " fill="rgb(0, 0, 0)" fill-opacity="1.000000" />
<path d="M 104.892578 72.335938 L 104.892578 71.412109 L 111.729980 71.412109 L 111.729980 72.335938 Z " fill="rgb(0, 0, 0)" fill-opacity="1.000000" />
<path d="M 111.892578 72.335938 L 111.892578 71.412109 L 118.729980 71.412109 L 118.729980 72.335938 Z " fill="rgb(0, 0, 0)" fill-opacity="1.000000" />
<path d="M 119.032227 75.418945 L 119.032227 68.866211 L 125.590332 72.142578 Z " fill="rgb(0, 0, 0)" fill-opacity="1.000000" />
<path d="M 145.645020 71.272461 L 145.645020 75.000000 L 144.651367 75.000000 L 144.651367 71.272461 Q 144.651367 70.461426 144.366699 70.080078 Q 144.082031 69.698730 143.475098 69.698730 Q 142.782227 69.698730 142.408936 70.190186 Q 142.035645 70.681641 142.035645 71.600098 L 142.035645 75.000000 L 141.047363 75.000000 L 141.047363 68.984375 L 142.035645 68.984375 L 142.035645 69.886719 Q 142.298828 69.371094 142.750000 69.105225 Q 143.201172 68.839355 143.818848 68.839355 Q 144.737305 68.839355 145.191162 69.443604 Q 145.645020 70.047852 145.645020 71.272461 Z " fill="rgb(0, 0, 0)" fill-opacity="1.000000" />
<path d="M 149.003418 74.086914 L 152.687988 74.086914 L 152.687988 75.000000 L 147.816406 75.000000 L 147.816406 74.086914 Q 148.820801 73.028809 149.572754 72.217773 Q 150.324707 71.406738 150.609375 71.073730 Q 151.146484 70.418457 151.334473 70.012939 Q 151.522461 69.607422 151.522461 69.183105 Q 151.522461 68.511719 151.127686 68.130371 Q 150.732910 67.749023 150.045410 67.749023 Q 149.556641 67.749023 149.019531 67.926270 Q 148.482422 68.103516 147.880859 68.463379 L 147.880859 67.367676 Q 148.434082 67.104492 148.968506 66.970215 Q 149.502930 66.835938 150.023926 66.835938 Q 151.200195 66.835938 151.917236 67.461670 Q 152.634277 68.087402 152.634277 69.102539 Q 152.634277 69.618164 152.395264 70.133789 Q 152.156250 70.649414 151.619141 71.272461 Q 151.318359 71.621582 150.746338 72.239258 Q 150.174316 72.856934 149.003418 74.086914 Z " fill="rgb(0, 0, 0)" fill-opacity="1.000000" />
<path d="M 170.878906 78.319336 L 170.878906 64.300781 L 171.738281 64.300781 L 171.738281 78.319336 Z " fill="rgb(0, 0, 0)" fill-opacity="1.000000" />
<path d="M 240.878906 78.319336 L 240.878906 64.300781 L 241.738281 64.300781 L 241.738281 78.319336 Z " fill="rgb(0, 0, 0)" fill-opacity="1.000000" />
<path d="M 264.645020 71.272461 L 264.645020 75.000000 L 263.651367 75.000000 L 263.651367 71.272461 Q 263.651367 70.461426 263.366699 70.080078 Q 263.082031 69.698730 262.475098 69.698730 Q 261.782227 69.698730 261.408936 70.190186 Q 261.035645 70.681641 261.035645 71.600098 L 261.035645 75.000000 L 260.047363 75.000000 L 260.047363 68.984375 L 261.035645 68.984375 L 261.035645 69.886719 Q 261.298828 69.371094 261.750000 69.105225 Q 262.201172 68.839355 262.818848 68.839355 Q 263.737305 68.839355 264.191162 69.443604 Q 264.645020 70.047852 264.645020 71.272461 Z " fill="rgb(0, 0, 0)" fill-opacity="1.000000" />
<path d="M 270.167969 70.708496 Q 270.957520 70.917969 271.376465 71.452393 Q 271.795410 71.986816 271.795410 72.787109 Q 271.795410 73.893555 271.051514 74.524658 Q 270.307617 75.155762 268.991699 75.155762 Q 268.438477 75.155762 267.863770 75.053711 Q 267.289062 74.951660 266.735840 74.758301 L 266.735840 73.678711 Q 267.283691 73.963379 267.815430 74.103027 Q 268.347168 74.242676 268.873535 74.242676 Q 269.765137 74.242676 270.243164 73.839844 Q 270.721191 73.437012 270.721191 72.679688 Q 270.721191 71.981445 270.243164 71.570557 Q 269.765137 71.159668 268.948730 71.159668 L 268.121582 71.159668 L 268.121582 70.268066 L 268.948730 70.268066 Q 269.695312 70.268066 270.114258 69.940430 Q 270.533203 69.612793 270.533203 69.027344 Q 270.533203 68.409668 270.143799 68.079346 Q 269.754395 67.749023 269.034668 67.749023 Q 268.556641 67.749023 268.046387 67.856445 Q 267.536133 67.963867 266.977539 68.178711 L 266.977539 67.179688 Q 267.627441 67.007812 268.135010 66.921875 Q 268.642578 66.835938 269.034668 66.835938 Q 270.205566 66.835938 270.906494 67.424072 Q 271.607422 68.012207 271.607422 68.984375 Q 271.607422 69.645020 271.239502 70.085449 Q 270.871582 70.525879 270.167969 70.708496 Z " fill="rgb(0, 0, 0)" fill-opacity="1.000000" />
<path d="M 289.878906 78.319336 L 289.878906 64.300781 L 290.738281 64.300781 L 290.738281 78.319336 Z " fill="rgb(0, 0, 0)" fill-opacity="1.000000" />
<path d="M 51.878906 65.319336 L 51.878906 51.300781 L 52.738281 51.300781 L 52.738281 65.319336 Z " fill="rgb(0, 0, 0)" fill-opacity="1.000000" />
<path d="M 121.878906 65.319336 L 121.878906 51.300781 L 122.738281 51.300781 L 122.738281 65.319336 Z " fill="rgb(0, 0, 0)" fill-opacity="1.000000" />
<path d="M 170.878906 65.319336 L 170.878906 51.300781 L 171.738281 51.300781 L 171.738281 58.412109 L 174.729980 58.412109 L 174.729980 59.335938 L 171.738281 59.335938 L 171.738281 65.319336 Z " fill="rgb(0, 0, 0)" fill-opacity="1.000000" />
<path d="M 174.892578 59.335938 L 174.892578 58.412109 L 181.729980 58.412109 L 181.729980 59.335938 Z " fill="rgb(0, 0, 0)" fill-opacity="1.000000" />
<path d="M 181.892578 59.335938 L 181.892578 58.412109 L 188.729980 58.412109 L 188.729980 59.335938 Z " fill="rgb(0, 0, 0)" fill-opacity="1.000000" />
<path d="M 188.892578 59.335938 L 188.892578 58.412109 L 195.729980 58.412109 L 195.729980 59.335938 Z " fill="rgb(0, 0, 0)" fill-opacity="1.000000" />
<path d="M 195.892578 59.335938 L 195.892578 58.412109 L 202.729980 58.412109 L 202.729980 59.335938 Z " fill="rgb(0, 0, 0)" fill-opacity="1.000000" />
<path d="M 202.892578 59.335938 L 202.892578 58.412109 L 209.729980 58.412109 L 209.729980 59.335938 Z " fill="rgb(0, 0, 0)" fill-opacity="1.000000" />
<path d="M 209.892578 59.335938 L 209.892578 58.412109 L 216.729980 58.412109 L 216.729980 59.335938 Z " fill="rgb(0, 0, 0)" fill-opacity="1.000000" />
<path d="M 216.892578 59.335938 L 216.892578 58.412109 L 223.729980 58.412109 L 223.729980 59.335938 Z " fill="rgb(0, 0, 0)" fill-opacity="1.000000" />
<path d="M 223.892578 59.335938 L 223.892578 58.412109 L 230.729980 58.412109 L 230.729980 59.335938 Z " fill="rgb(0, 0, 0)" fill-opacity="1.000000" />
<path d="M 230.892578 59.335938 L 230.892578 58.412109 L 237.729980 58.412109 L 237.729980 59.335938 Z " fill="rgb(0, 0, 0)" fill-opacity="1.000000" />
<path d="M 238.032227 62.418945 L 238.032227 55.866211 L 244.590332 59.142578 Z " fill="rgb(0, 0, 0)" fill-opacity="1.000000" />
<path d="M 289.878906 65.319336 L 289.878906 51.300781 L 290.738281 51.300781 L 290.738281 65.319336 Z " fill="rgb(0, 0, 0)" fill-opacity="1.000000" />
<path d="M 6.892578 46.335938 L 6.892578 45.412109 L 13.729980 45.412109 L 13.729980 46.335938 Z " fill="rgb(0, 0, 0)" fill-opacity="1.000000" />
<path d="M 13.892578 46.335938 L 13.892578 45.412109 L 20.729980 45.412109 L 20.729980 46.335938 Z " fill="rgb(0, 0, 0)" fill-opacity="1.000000" />
<path d="M 20.892578 46.335938 L 20.892578 45.412109 L 27.729980 45.412109 L 27.729980 46.335938 Z " fill="rgb(0, 0, 0)" fill-opacity="1.000000" />
<path d="M 27.892578 46.335938 L 27.892578 45.412109 L 34.729980 45.412109 L 34.729980 46.335938 Z " fill="rgb(0, 0, 0)" fill-opacity="1.000000" />
<path d="M 34.892578 46.335938 L 34.892578 45.412109 L 41.729980 45.412109 L 41.729980 46.335938 Z " fill="rgb(0, 0, 0)" fill-opacity="1.000000" />
<path d="M 41.892578 46.335938 L 41.892578 45.412109 L 48.729980 45.412109 L 48.729980 46.335938 Z " fill="rgb(0, 0, 0)" fill-opacity="1.000000" />
<path d="M 51.878906 52.319336 L 51.878906 46.335938 L 48.892578 46.335938 L 48.892578 45.412109 L 52.738281 45.412109 L 52.738281 52.319336 Z " fill="rgb(0, 0, 0)" fill-opacity="1.000000" />
<path d="M 121.878906 52.319336 L 121.878906 45.412109 L 125.729980 45.412109 L 125.729980 46.335938 L 122.738281 46.335938 L 122.738281 52.319336 Z " fill="rgb(0, 0, 0)" fill-opacity="1.000000" />
<path d="M 125.892578 46.335938 L 125.892578 45.412109 L 132.729980 45.412109 L 132.729980 46.335938 Z " fill="rgb(0, 0, 0)" fill-opacity="1.000000" />
<path d="M 132.892578 46.335938 L 132.892578 45.412109 L 139.729980 45.412109 L 139.729980 46.335938 Z " fill="rgb(0, 0, 0)" fill-opacity="1.000000" />
<path d="M 139.892578 46.335938 L 139.892578 45.412109 L 146.729980 45.412109 L 146.729980 46.335938 Z " fill="rgb(0, 0, 0)" fill-opacity="1.000000" />
<path d="M 146.892578 46.335938 L 146.892578 45.412109 L 153.729980 45.412109 L 153.729980 46.335938 Z " fill="rgb(0, 0, 0)" fill-opacity="1.000000" />
<path d="M 153.892578 46.335938 L 153.892578 45.412109 L 160.729980 45.412109 L 160.729980 46.335938 Z " fill="rgb(0, 0, 0)" fill-opacity="1.000000" />
<path d="M 160.892578 46.335938 L 160.892578 45.412109 L 167.729980 45.412109 L 167.729980 46.335938 Z " fill="rgb(0, 0, 0)" fill-opacity="1.000000" />
<path d="M 170.878906 52.319336 L 170.878906 46.335938 L 167.892578 46.335938 L 167.892578 45.412109 L 171.738281 45.412109 L 171.738281 52.319336 Z " fill="rgb(0, 0, 0)" fill-opacity="1.000000" />
<path d="M 240.878906 52.319336 L 240.878906 45.412109 L 244.729980 45.412109 L 244.729980 46.335938 L 241.738281 46.335938 L 241.738281 52.319336 Z " fill="rgb(0, 0, 0)" fill-opacity="1.000000" />
<path d="M 244.892578 46.335938 L 244.892578 45.412109 L 251.729980 45.412109 L 251.729980 46.335938 Z " fill="rgb(0, 0, 0)" fill-opacity="1.000000" />
<path d="M 251.892578 46.335938 L 251.892578 45.412109 L 258.729980 45.412109 L 258.729980 46.335938 Z " fill="rgb(0, 0, 0)" fill-opacity="1.000000" />
<path d="M 258.892578 46.335938 L 258.892578 45.412109 L 265.729980 45.412109 L 265.729980 46.335938 Z " fill="rgb(0, 0, 0)" fill-opacity="1.000000" />
<path d="M 265.892578 46.335938 L 265.892578 45.412109 L 272.729980 45.412109 L 272.729980 46.335938 Z " fill="rgb(0, 0, 0)" fill-opacity="1.000000" />
<path d="M 272.892578 46.335938 L 272.892578 45.412109 L 279.729980 45.412109 L 279.729980 46.335938 Z " fill="rgb(0, 0, 0)" fill-opacity="1.000000" />
<path d="M 279.892578 46.335938 L 279.892578 45.412109 L 286.729980 45.412109 L 286.729980 46.335938 Z " fill="rgb(0, 0, 0)" fill-opacity="1.000000" />
<path d="M 289.878906 52.319336 L 289.878906 46.335938 L 286.892578 46.335938 L 286.892578 45.412109 L 290.738281 45.412109 L 290.738281 52.319336 Z " fill="rgb(0, 0, 0)" fill-opacity="1.000000" />
<path d="M 156.878906 26.319336 L 156.878906 19.412109 L 160.729980 19.412109 L 160.729980 20.335938 L 157.738281 20.335938 L 157.738281 26.319336 Z " fill="rgb(0, 0, 0)" fill-opacity="1.000000" />
<path d="M 156.878906 39.319336 L 156.878906 25.300781 L 157.738281 25.300781 L 157.738281 39.319336 Z " fill="rgb(0, 0, 0)" fill-opacity="1.000000" />
<path d="M 254.878906 39.319336 L 254.878906 25.300781 L 255.738281 25.300781 L 255.738281 39.319336 Z " fill="rgb(0, 0, 0)" fill-opacity="1.000000" />
<path d="M 160.892578 20.335938 L 160.892578 19.412109 L 167.729980 19.412109 L 167.729980 20.335938 Z " fill="rgb(0, 0, 0)" fill-opacity="1.000000" />
<path d="M 167.892578 20.335938 L 167.892578 19.412109 L 174.729980 19.412109 L 174.729980 20.335938 Z " fill="rgb(0, 0, 0)" fill-opacity="1.000000" />
<path d="M 174.892578 20.335938 L 174.892578 19.412109 L 181.729980 19.412109 L 181.729980 20.335938 Z " fill="rgb(0, 0, 0)" fill-opacity="1.000000" />
<path d="M 181.892578 20.335938 L 181.892578 19.412109 L 188.729980 19.412109 L 188.729980 20.335938 Z " fill="rgb(0, 0, 0)" fill-opacity="1.000000" />
<path d="M 188.892578 20.335938 L 188.892578 19.412109 L 195.729980 19.412109 L 195.729980 20.335938 Z " fill="rgb(0, 0, 0)" fill-opacity="1.000000" />
<path d="M 195.892578 20.335938 L 195.892578 19.412109 L 202.729980 19.412109 L 202.729980 20.335938 Z " fill="rgb(0, 0, 0)" fill-opacity="1.000000" />
<path d="M 202.892578 20.335938 L 202.892578 19.412109 L 209.729980 19.412109 L 209.729980 20.335938 Z " fill="rgb(0, 0, 0)" fill-opacity="1.000000" />
<path d="M 209.892578 20.335938 L 209.892578 19.412109 L 216.729980 19.412109 L 216.729980 20.335938 Z " fill="rgb(0, 0, 0)" fill-opacity="1.000000" />
<path d="M 216.892578 20.335938 L 216.892578 19.412109 L 223.729980 19.412109 L 223.729980 20.335938 Z " fill="rgb(0, 0, 0)" fill-opacity="1.000000" />
<path d="M 223.892578 20.335938 L 223.892578 19.412109 L 230.729980 19.412109 L 230.729980 20.335938 Z " fill="rgb(0, 0, 0)" fill-opacity="1.000000" />
<path d="M 230.892578 20.335938 L 230.892578 19.412109 L 237.729980 19.412109 L 237.729980 20.335938 Z " fill="rgb(0, 0, 0)" fill-opacity="1.000000" />
<path d="M 237.892578 20.335938 L 237.892578 19.412109 L 244.729980 19.412109 L 244.729980 20.335938 Z " fill="rgb(0, 0, 0)" fill-opacity="1.000000" />
<path d="M 244.892578 20.335938 L 244.892578 19.412109 L 251.729980 19.412109 L 251.729980 20.335938 Z " fill="rgb(0, 0, 0)" fill-opacity="1.000000" />
<path d="M 254.878906 26.319336 L 254.878906 20.335938 L 251.892578 20.335938 L 251.892578 19.412109 L 255.738281 19.412109 L 255.738281 26.319336 Z " fill="rgb(0, 0, 0)" fill-opacity="1.000000" />
<path d="M 178.308594 2.937012 L 177.164551 7.040527 L 179.452637 7.040527 Z M 177.653320 1.980957 L 178.969238 1.980957 L 181.423828 10.000000 L 180.301270 10.000000 L 179.710449 7.910645 L 176.901367 7.910645 L 176.321289 10.000000 L 175.198730 10.000000 Z " fill="rgb(0, 0, 0)" fill-opacity="1.000000" />
<path d="M 190.783203 7.019043 Q 190.783203 8.168457 191.145752 8.753906 Q 191.508301 9.339355 192.222656 9.339355 Q 192.937012 9.339355 193.304932 8.751221 Q 193.672852 8.163086 193.672852 7.019043 Q 193.672852 5.875000 193.304932 5.286865 Q 192.937012 4.698730 192.222656 4.698730 Q 191.508301 4.698730 191.145752 5.284180 Q 190.783203 5.869629 190.783203 7.019043 Z M 193.672852 9.253418 Q 193.431152 9.699219 193.020264 9.938232 Q 192.609375 10.177246 192.066895 10.177246 Q 190.987305 10.177246 190.361572 9.342041 Q 189.735840 8.506836 189.735840 7.040527 Q 189.735840 5.547363 190.358887 4.704102 Q 190.981934 3.860840 192.066895 3.860840 Q 192.604004 3.860840 193.014893 4.094482 Q 193.425781 4.328125 193.672852 4.773926 L 193.672852 4.005859 L 194.666504 4.005859 L 194.666504 12.309570 L 193.672852 12.309570 Z " fill="rgb(0, 0, 0)" fill-opacity="1.000000" />
<path d="M 197.047363 7.722656 L 197.047363 3.995117 L 198.035645 3.995117 L 198.035645 7.722656 Q 198.035645 8.533691 198.322998 8.915039 Q 198.610352 9.296387 199.211914 9.296387 Q 199.910156 9.296387 200.280762 8.804932 Q 200.651367 8.313477 200.651367 7.395020 L 200.651367 3.995117 L 201.645020 3.995117 L 201.645020 10.000000 L 200.651367 10.000000 L 200.651367 9.097656 Q 200.388184 9.618652 199.934326 9.887207 Q 199.480469 10.155762 198.873535 10.155762 Q 197.949707 10.155762 197.498535 9.551514 Q 197.047363 8.947266 197.047363 7.722656 Z " fill="rgb(0, 0, 0)" fill-opacity="1.000000" />
<path d="M 206.308594 4.677246 Q 205.556641 4.677246 205.169922 5.262695 Q 204.783203 5.848145 204.783203 6.997559 Q 204.783203 8.141602 205.169922 8.729736 Q 205.556641 9.317871 206.308594 9.317871 Q 207.065918 9.317871 207.452637 8.729736 Q 207.839355 8.141602 207.839355 6.997559 Q 207.839355 5.848145 207.452637 5.262695 Q 207.065918 4.677246 206.308594 4.677246 Z M 206.308594 3.839355 Q 207.560059 3.839355 208.223389 4.650391 Q 208.886719 5.461426 208.886719 6.997559 Q 208.886719 8.539062 208.226074 9.347412 Q 207.565430 10.155762 206.308594 10.155762 Q 205.057129 10.155762 204.396484 9.347412 Q 203.735840 8.539062 203.735840 6.997559 Q 203.735840 5.461426 204.396484 4.650391 Q 205.057129 3.839355 206.308594 3.839355 Z " fill="rgb(0, 0, 0)" fill-opacity="1.000000" />
<path d="M 216.203613 5.225098 Q 215.886719 4.978027 215.559082 4.865234 Q 215.231445 4.752441 214.839355 4.752441 Q 213.915527 4.752441 213.426758 5.332520 Q 212.937988 5.912598 212.937988 7.008301 L 212.937988 10.000000 L 211.944336 10.000000 L 211.944336 3.984375 L 212.937988 3.984375 L 212.937988 5.160645 Q 213.185059 4.521484 213.697998 4.180420 Q 214.210938 3.839355 214.914551 3.839355 Q 215.279785 3.839355 215.596680 3.930664 Q 215.913574 4.021973 216.203613 4.215332 Z " fill="rgb(0, 0, 0)" fill-opacity="1.000000" />
<path d="M 218.047363 7.722656 L 218.047363 3.995117 L 219.035645 3.995117 L 219.035645 7.722656 Q 219.035645 8.533691 219.322998 8.915039 Q 219.610352 9.296387 220.211914 9.296387 Q 220.910156 9.296387 221.280762 8.804932 Q 221.651367 8.313477 221.651367 7.395020 L 221.651367 3.995117 L 222.645020 3.995117 L 222.645020 10.000000 L 221.651367 10.000000 L 221.651367 9.097656 Q 221.388184 9.618652 220.934326 9.887207 Q 220.480469 10.155762 219.873535 10.155762 Q 218.949707 10.155762 218.498535 9.551514 Q 218.047363 8.947266 218.047363 7.722656 Z " fill="rgb(0, 0, 0)" fill-opacity="1.000000" />
<path d="M 227.630859 4.596680 Q 227.813477 4.209961 228.095459 4.024658 Q 228.377441 3.839355 228.774902 3.839355 Q 229.500000 3.839355 229.798096 4.400635 Q 230.096191 4.961914 230.096191 6.514160 L 230.096191 10.000000 L 229.193848 10.000000 L 229.193848 6.557129 Q 229.193848 5.284180 229.051514 4.975342 Q 228.909180 4.666504 228.533203 4.666504 Q 228.103516 4.666504 227.945068 4.996826 Q 227.786621 5.327148 227.786621 6.557129 L 227.786621 10.000000 L 226.884277 10.000000 L 226.884277 6.557129 Q 226.884277 5.268066 226.731201 4.967285 Q 226.578125 4.666504 226.180664 4.666504 Q 225.788574 4.666504 225.635498 4.996826 Q 225.482422 5.327148 225.482422 6.557129 L 225.482422 10.000000 L 224.585449 10.000000 L 224.585449 3.984375 L 225.482422 3.984375 L 225.482422 4.500000 Q 225.659668 4.177734 225.925537 4.008545 Q 226.191406 3.839355 226.529785 3.839355 Q 226.937988 3.839355 227.209229 4.027344 Q 227.480469 4.215332 227.630859 4.596680 Z " fill="rgb(0, 0, 0)" fill-opacity="1.000000" />
</svg>