<svg xmlns="http://www.w3.org/2000/svg" version="1.1" width="456" height="92">
<path d="M -0.107422 46.335938 L -0.107422 45.412109 L 6.729980 45.412109 L 6.729980 46.335938 Z " fill="rgb(0, 0, 0)" fill-opacity="1.000000" />
<path d="M 6.892578 46.335938 L 6.892578 45.412109 L 13.729980 45.412109 L 13.729980 46.335938 Z " fill="rgb(0, 0, 0)" fill-opacity="1.000000" />
<path d="M 13.892578 46.335938 L 13.892578 45.412109 L 20.729980 45.412109 L 20.729980 46.335938 Z " fill="rgb(0, 0, 0)" fill-opacity="1.000000" />
<path d="M 20.892578 46.335938 L 20.892578 45.412109 L 27.729980 45.412109 L 27.729980 46.335938 Z " fill="rgb(0, 0, 0)" fill-opacity="1.000000" />
<path d="M 27.892578 46.335938 L 27.892578 45.412109 L 34.729980 45.412109 L 34.729980 46.335938 Z " fill="rgb(0, 0, 0)" fill-opacity="1.000000" />
<path d="M 37.878906 59.335938 L 37.878906 51.300781 L 38.738281 51.300781 L 38.738281 58.412109 L 41.729980 58.412109 L 41.729980 59.335938 Z " fill="rgb(0, 0, 0)" fill-opacity="1.000000" />
<path d="M 317.878906 72.335938 L 317.878906 64.300781 L 318.738281 64.300781 L 318.738281 71.412109 L 321.729980 71.412109 L 321.729980 72.335938 Z " fill="rgb(0, 0, 0)" fill-opacity="1.000000" />
<path d="M 345.878906 85.335938 L 345.878906 77.300781 L 346.738281 77.300781 L 346.738281 84.412109 L 349.729980 84.412109 L 349.729980 85.335938 Z " fill="rgb(0, 0, 0)" fill-opacity="1.000000" />
<path d="M 349.892578 85.335938 L 349.892578 84.412109 L 356.729980 84.412109 L 356.729980 85.335938 Z " fill="rgb(0, 0, 0)" fill-opacity="1.000000" />
<path d="M 356.892578 85.335938 L 356.892578 84.412109 L 363.729980 84.412109 L 363.729980 85.335938 Z " fill="rgb(0, 0, 0)" fill-opacity="1.000000" />
<path d="M 363.892578 85.335938 L 363.892578 84.412109 L 370.729980 84.412109 L 370.729980 85.335938 Z " fill="rgb(0, 0, 0)" fill-opacity="1.000000" />
<path d="M 370.892578 85.335938 L 370.892578 84.412109 L 377.729980 84.412109 L 377.729980 85.335938 Z " fill="rgb(0, 0, 0)" fill-opacity="1.000000" />
<path d="M 377.892578 85.335938 L 377.892578 84.412109 L 384.729980 84.412109 L 384.729980 85.335938 Z " fill="rgb(0, 0, 0)" fill-opacity="1.000000" />
<path d="M 384.892578 85.335938 L 384.892578 84.412109 L 391.729980 84.412109 L 391.729980 85.335938 Z " fill="rgb(0, 0, 0)" fill-opacity="1.000000" />
<path d="M 391.892578 85.335938 L 391.892578 84.412109 L 398.729980 84.412109 L 398.729980 85.335938 Z " fill="rgb(0, 0, 0)" fill-opacity="1.000000" />
<path d="M 398.892578 85.335938 L 398.892578 84.412109 L 405.729980 84.412109 L 405.729980 85.335938 Z " fill="rgb(0, 0, 0)" fill-opacity="1.000000" />
<path d="M 405.892578 85.335938 L 405.892578 84.412109 L 412.729980 84.412109 L 412.729980 85.335938 Z " fill="rgb(0, 0, 0)" fill-opacity="1.000000" />
<path d="M 412.892578 85.335938 L 412.892578 84.412109 L 419.729980 84.412109 L 419.729980 85.335938 Z " fill="rgb(0, 0, 0)" fill-opacity="1.000000" />
<path d="M 419.892578 85.335938 L 419.892578 84.412109 L 426.729980 84.412109 L 426.729980 85.335938 Z " fill="rgb(0, 0, 0)" fill-opacity="1.000000" />
<path d="M 426.892578 85.335938 L 426.892578 84.412109 L 433.729980 84.412109 L 433.729980 85.335938 Z " fill="rgb(0, 0, 0)" fill-opacity="1.000000" />
<path d="M 433.892578 85.335938 L 433.892578 84.412109 L 440.729980 84.412109 L 440.729980 85.335938 Z " fill="rgb(0, 0, 0)" fill-opacity="1.000000" />
<path d="M 440.892578 85.335938 L 440.892578 84.412109 L 447.729980 84.412109 L 447.729980 85.335938 Z " fill="rgb(0, 0, 0)" fill-opacity="1.000000" />
<path d="M 447.892578 85.335938 L 447.892578 84.412109 L 450.878906 84.412109 L 450.878906 77.300781 L 451.738281 77.300781 L 451.738281 85.335938 Z " fill="rgb(0, 0, 0)" fill-opacity="1.000000" />
<path d="M 321.892578 72.335938 L 321.892578 71.412109 L 328.729980 71.412109 L 328.729980 72.335938 Z " fill="rgb(0, 0, 0)" fill-opacity="1.000000" />
<path d="M 328.892578 72.335938 L 328.892578 71.412109 L 335.729980 71.412109 L 335.729980 72.335938 Z " fill="rgb(0, 0, 0)" fill-opacity="1.000000" />
<path d="M 335.892578 72.335938 L 335.892578 71.412109 L 342.729980 71.412109 L 342.729980 72.335938 Z " fill="rgb(0, 0, 0)" fill-opacity="1.000000" />
<path d="M 343.032227 75.418945 L 343.032227 68.866211 L 349.590332 72.142578 Z " fill="rgb(0, 0, 0)" fill-opacity="1.000000" />
<path d="M 365.981934 70.955566 L 365.981934 74.108398 L 367.265625 74.108398 Q 368.210938 74.108398 368.613770 73.778076 Q 369.016602 73.447754 369.016602 72.690430 Q 369.016602 71.691406 368.592285 71.323486 Q 368.167969 70.955566 367.265625 70.955566 Z M 365.981934 67.872559 L 365.981934 70.074707 L 367.244141 70.074707 Q 368.028320 70.074707 368.380127 69.773926 Q 368.731934 69.473145 368.731934 69.016602 Q 368.731934 68.409668 368.385498 68.141113 Q 368.039062 67.872559 367.244141 67.872559 Z M 364.891602 66.980957 L 367.265625 66.980957 Q 368.495605 66.980957 369.161621 67.512695 Q 369.827637 68.044434 369.827637 69.016602 Q 369.827637 69.537598 369.475830 69.961914 Q 369.124023 70.386230 368.420410 70.493652 Q 369.209961 70.611816 369.658447 71.167725 Q 370.106934 71.723633 370.106934 72.797852 Q 370.106934 73.888184 369.392578 74.444092 Q 368.678223 75.000000 367.265625 75.000000 L 364.891602 75.000000 Z " fill="rgb(0, 0, 0)" fill-opacity="1.000000" />
<path d="M 374.861816 72.824707 Q 374.861816 73.490723 375.106201 73.829102 Q 375.350586 74.167480 375.828613 74.167480 L 376.983398 74.167480 L 376.983398 75.000000 L 375.731934 75.000000 Q 374.845703 75.000000 374.359619 74.433350 Q 373.873535 73.866699 373.873535 72.824707 L 373.873535 67.383789 L 372.289062 67.383789 L 372.289062 66.610352 L 374.861816 66.610352 Z " fill="rgb(0, 0, 0)" fill-opacity="1.000000" />
<path d="M 381.308594 69.677246 Q 380.556641 69.677246 380.169922 70.262695 Q 379.783203 70.848145 379.783203 71.997559 Q 379.783203 73.141602 380.169922 73.729736 Q 380.556641 74.317871 381.308594 74.317871 Q 382.065918 74.317871 382.452637 73.729736 Q 382.839355 73.141602 382.839355 71.997559 Q 382.839355 70.848145 382.452637 70.262695 Q 382.065918 69.677246 381.308594 69.677246 Z M 381.308594 68.839355 Q 382.560059 68.839355 383.223389 69.650391 Q 383.886719 70.461426 383.886719 71.997559 Q 383.886719 73.539062 383.226074 74.347412 Q 382.565430 75.155762 381.308594 75.155762 Q 380.057129 75.155762 379.396484 74.347412 Q 378.735840 73.539062 378.735840 71.997559 Q 378.735840 70.461426 379.396484 69.650391 Q 380.057129 68.839355 381.308594 68.839355 Z " fill="rgb(0, 0, 0)" fill-opacity="1.000000" />
<path d="M 390.698730 74.693848 Q 390.301270 74.924805 389.879639 75.040283 Q 389.458008 75.155762 389.017578 75.155762 Q 387.621094 75.155762 386.834229 74.317871 Q 386.047363 73.479980 386.047363 71.997559 Q 386.047363 70.515137 386.834229 69.677246 Q 387.621094 68.839355 389.017578 68.839355 Q 389.452637 68.839355 389.866211 68.952148 Q 390.279785 69.064941 390.698730 69.301270 L 390.698730 70.337891 Q 390.306641 69.988770 389.911865 69.833008 Q 389.517090 69.677246 389.017578 69.677246 Q 388.088379 69.677246 387.588867 70.278809 Q 387.089355 70.880371 387.089355 71.997559 Q 387.089355 73.109375 387.591553 73.713623 Q 388.093750 74.317871 389.017578 74.317871 Q 389.533203 74.317871 389.941406 74.159424 Q 390.349609 74.000977 390.698730 73.667969 Z " fill="rgb(0, 0, 0)" fill-opacity="1.000000" />
<path d="M 393.267578 66.642578 L 394.288086 66.642578 L 394.288086 71.481934 L 396.882324 68.984375 L 398.085449 68.984375 L 395.716797 71.250977 L 398.456055 75.000000 L 397.247559 75.000000 L 395.023926 71.895508 L 394.288086 72.588379 L 394.288086 75.000000 L 393.267578 75.000000 Z " fill="rgb(0, 0, 0)" fill-opacity="1.000000" />
<path d="M 407.267578 66.642578 L 408.288086 66.642578 L 408.288086 71.481934 L 410.882324 68.984375 L 412.085449 68.984375 L 409.716797 71.250977 L 412.456055 75.000000 L 411.247559 75.000000 L 409.023926 71.895508 L 408.288086 72.588379 L 408.288086 75.000000 L 407.267578 75.000000 Z " fill="rgb(0, 0, 0)" fill-opacity="1.000000" />
<path d="M 416.867188 68.672852 L 416.867188 71.052246 L 419.257324 71.052246 L 419.257324 71.959961 L 416.867188 71.959961 L 416.867188 74.339355 L 415.964844 74.339355 L 415.964844 71.959961 L 413.580078 71.959961 L 413.580078 71.052246 L 415.964844 71.052246 L 415.964844 68.672852 Z " fill="rgb(0, 0, 0)" fill-opacity="1.000000" />
<path d="M 421.450195 74.092285 L 423.136719 74.092285 L 423.136719 68.033691 L 421.117188 69.005859 L 421.117188 67.963867 L 423.125977 67.007812 L 424.210938 67.007812 L 424.210938 74.092285 L 425.875977 74.092285 L 425.875977 75.000000 L 421.450195 75.000000 Z " fill="rgb(0, 0, 0)" fill-opacity="1.000000" />
<path d="M 430.985352 66.631836 L 430.985352 69.978027 L 429.782227 69.978027 L 429.782227 66.631836 Z " fill="rgb(0, 0, 0)" fill-opacity="1.000000" />
<path d="M 450.878906 78.319336 L 450.878906 64.300781 L 451.738281 64.300781 L 451.738281 78.319336 Z " fill="rgb(0, 0, 0)" fill-opacity="1.000000" />
<path d="M 41.892578 59.335938 L 41.892578 58.412109 L 48.729980 58.412109 L 48.729980 59.335938 Z " fill="rgb(0, 0, 0)" fill-opacity="1.000000" />
<path d="M 48.892578 59.335938 L 48.892578 58.412109 L 55.729980 58.412109 L 55.729980 59.335938 Z " fill="rgb(0, 0, 0)" fill-opacity="1.000000" />
<path d="M 55.892578 59.335938 L 55.892578 58.412109 L 62.729980 58.412109 L 62.729980 59.335938 Z " fill="rgb(0, 0, 0)" fill-opacity="1.000000" />
<path d="M 62.892578 59.335938 L 62.892578 58.412109 L 69.729980 58.412109 L 69.729980 59.335938 Z " fill="rgb(0, 0, 0)" fill-opacity="1.000000" />
<path d="M 69.892578 59.335938 L 69.892578 58.412109 L 76.729980 58.412109 L 76.729980 59.335938 Z " fill="rgb(0, 0, 0)" fill-opacity="1.000000" />
<path d="M 76.892578 59.335938 L 76.892578 58.412109 L 83.729980 58.412109 L 83.729980 59.335938 Z " fill="rgb(0, 0, 0)" fill-opacity="1.000000" />
<path d="M 83.892578 59.335938 L 83.892578 58.412109 L 90.729980 58.412109 L 90.729980 59.335938 Z " fill="rgb(0, 0, 0)" fill-opacity="1.000000" />
<path d="M 90.892578 59.335938 L 90.892578 58.412109 L 97.729980 58.412109 L 97.729980 59.335938 Z " fill="rgb(0, 0, 0)" fill-opacity="1.000000" />
<path d="M 97.892578 59.335938 L 97.892578 58.412109 L 104.729980 58.412109 L 104.729980 59.335938 Z " fill="rgb(0, 0, 0)" fill-opacity="1.000000" />
<path d="M 104.892578 59.335938 L 104.892578 58.412109 L 111.729980 58.412109 L 111.729980 59.335938 Z " fill="rgb(0, 0, 0)" fill-opacity="1.000000" />
<path d="M 111.892578 59.335938 L 111.892578 58.412109 L 118.729980 58.412109 L 118.729980 59.335938 Z " fill="rgb(0, 0, 0)" fill-opacity="1.000000" />
<path d="M 118.892578 59.335938 L 118.892578 58.412109 L 125.729980 58.412109 L 125.729980 59.335938 Z " fill="rgb(0, 0, 0)" fill-opacity="1.000000" />
<path d="M 125.892578 59.335938 L 125.892578 58.412109 L 132.729980 58.412109 L 132.729980 59.335938 Z " fill="rgb(0, 0, 0)" fill-opacity="1.000000" />
<path d="M 132.892578 59.335938 L 132.892578 58.412109 L 139.729980 58.412109 L 139.729980 59.335938 Z " fill="rgb(0, 0, 0)" fill-opacity="1.000000" />
<path d="M 139.892578 59.335938 L 139.892578 58.412109 L 142.878906 58.412109 L 142.878906 51.300781 L 143.738281 51.300781 L 143.738281 59.335938 Z " fill="rgb(0, 0, 0)" fill-opacity="1.000000" />
<path d="M 184.878906 59.335938 L 184.878906 51.300781 L 185.738281 51.300781 L 185.738281 58.412109 L 188.729980 58.412109 L 188.729980 59.335938 Z " fill="rgb(0, 0, 0)" fill-opacity="1.000000" />
<path d="M 188.892578 59.335938 L 188.892578 58.412109 L 195.729980 58.412109 L 195.729980 59.335938 Z " fill="rgb(0, 0, 0)" fill-opacity="1.000000" />
<path d="M 195.892578 59.335938 L 195.892578 58.412109 L 202.729980 58.412109 L 202.729980 59.335938 Z " fill="rgb(0, 0, 0)" fill-opacity="1.000000" />
<path d="M 202.892578 59.335938 L 202.892578 58.412109 L 209.729980 58.412109 L 209.729980 59.335938 Z " fill="rgb(0, 0, 0)" fill-opacity="1.000000" />
<path d="M 209.892578 59.335938 L 209.892578 58.412109 L 216.729980 58.412109 L 216.729980 59.335938 Z " fill="rgb(0, 0, 0)" fill-opacity="1.000000" />
<path d="M 216.892578 59.335938 L 216.892578 58.412109 L 223.729980 58.412109 L 223.729980 59.335938 Z " fill="rgb(0, 0, 0)" fill-opacity="1.000000" />
<path d="M 223.892578 59.335938 L 223.892578 58.412109 L 230.729980 58.412109 L 230.729980 59.335938 Z " fill="rgb(0, 0, 0)" fill-opacity="1.000000" />
<path d="M 230.892578 59.335938 L 230.892578 58.412109 L 237.729980 58.412109 L 237.729980 59.335938 Z " fill="rgb(0, 0, 0)" fill-opacity="1.000000" />
<path d="M 237.892578 59.335938 L 237.892578 58.412109 L 244.729980 58.412109 L 244.729980 59.335938 Z " fill="rgb(0, 0, 0)" fill-opacity="1.000000" />
<path d="M 244.892578 59.335938 L 244.892578 58.412109 L 251.729980 58.412109 L 251.729980 59.335938 Z " fill="rgb(0, 0, 0)" fill-opacity="1.000000" />
<path d="M 251.892578 59.335938 L 251.892578 58.412109 L 258.729980 58.412109 L 258.729980 59.335938 Z " fill="rgb(0, 0, 0)" fill-opacity="1.000000" />
<path d="M 258.892578 59.335938 L 258.892578 58.412109 L 265.729980 58.412109 L 265.729980 59.335938 Z " fill="rgb(0, 0, 0)" fill-opacity="1.000000" />
<path d="M 265.892578 59.335938 L 265.892578 58.412109 L 272.729980 58.412109 L 272.729980 59.335938 Z " fill="rgb(0, 0, 0)" fill-opacity="1.000000" />
<path d="M 272.892578 59.335938 L 272.892578 58.412109 L 279.729980 58.412109 L 279.729980 59.335938 Z " fill="rgb(0, 0, 0)" fill-opacity="1.000000" />
<path d="M 279.892578 59.335938 L 279.892578 58.412109 L 286.729980 58.412109 L 286.729980 59.335938 Z " fill="rgb(0, 0, 0)" fill-opacity="1.000000" />
<path d="M 286.892578 59.335938 L 286.892578 58.412109 L 289.878906 58.412109 L 289.878906 51.300781 L 290.738281 51.300781 L 290.738281 59.335938 Z " fill="rgb(0, 0, 0)" fill-opacity="1.000000" />
<path d="M 317.878906 65.319336 L 317.878906 51.300781 L 318.738281 51.300781 L 318.738281 65.319336 Z " fill="rgb(0, 0, 0)" fill-opacity="1.000000" />
<path d="M 345.878906 65.319336 L 345.878906 58.412109 L 349.729980 58.412109 L 349.729980 59.335938 L 346.738281 59.335938 L 346.738281 65.319336 Z " fill="rgb(0, 0, 0)" fill-opacity="1.000000" />
<path d="M 349.892578 59.335938 L 349.892578 58.412109 L 356.729980 58.412109 L 356.729980 59.335938 Z " fill="rgb(0, 0, 0)" fill-opacity="1.000000" />
<path d="M 356.892578 59.335938 L 356.892578 58.412109 L 363.729980 58.412109 L 363.729980 59.335938 Z " fill="rgb(0, 0, 0)" fill-opacity="1.000000" />
<path d="M 363.892578 59.335938 L 363.892578 58.412109 L 370.729980 58.412109 L 370.729980 59.335938 Z " fill="rgb(0, 0, 0)" fill-opacity="1.000000" />
<path d="M 370.892578 59.335938 L 370.892578 58.412109 L 377.729980 58.412109 L 377.729980 59.335938 Z " fill="rgb(0, 0, 0)" fill-opacity="1.000000" />
<path d="M 377.892578 59.335938 L 377.892578 58.412109 L 384.729980 58.412109 L 384.729980 59.335938 Z " fill="rgb(0, 0, 0)" fill-opacity="1.000000" />
<path d="M 384.892578 59.335938 L 384.892578 58.412109 L 391.729980 58.412109 L 391.729980 59.335938 Z " fill="rgb(0, 0, 0)" fill-opacity="1.000000" />
<path d="M 391.892578 59.335938 L 391.892578 58.412109 L 398.729980 58.412109 L 398.729980 59.335938 Z " fill="rgb(0, 0, 0)" fill-opacity="1.000000" />
<path d="M 398.892578 59.335938 L 398.892578 58.412109 L 405.729980 58.412109 L 405.729980 59.335938 Z " fill="rgb(0, 0, 0)" fill-opacity="1.000000" />
<path d="M 405.892578 59.335938 L 405.892578 58.412109 L 412.729980 58.412109 L 412.729980 59.335938 Z " fill="rgb(0, 0, 0)" fill-opacity="1.000000" />
<path d="M 412.892578 59.335938 L 412.892578 58.412109 L 419.729980 58.412109 L 419.729980 59.335938 Z " fill="rgb(0, 0, 0)" fill-opacity="1.000000" />
<path d="M 419.892578 59.335938 L 419.892578 58.412109 L 426.729980 58.412109 L 426.729980 59.335938 Z " fill="rgb(0, 0, 0)" fill-opacity="1.000000" />
<path d="M 426.892578 59.335938 L 426.892578 58.412109 L 433.729980 58.412109 L 433.729980 59.335938 Z " fill="rgb(0, 0, 0)" fill-opacity="1.000000" />
<path d="M 433.892578 59.335938 L 433.892578 58.412109 L 440.729980 58.412109 L 440.729980 59.335938 Z " fill="rgb(0, 0, 0)" fill-opacity="1.000000" />
<path d="M 440.892578 59.335938 L 440.892578 58.412109 L 447.729980 58.412109 L 447.729980 59.335938 Z " fill="rgb(0, 0, 0)" fill-opacity="1.000000" />
<path d="M 450.878906 65.319336 L 450.878906 59.335938 L 447.892578 59.335938 L 447.892578 58.412109 L 451.738281 58.412109 L 451.738281 65.319336 Z " fill="rgb(0, 0, 0)" fill-opacity="1.000000" />
<path d="M 35.032227 49.418945 L 35.032227 42.866211 L 41.590332 46.142578 Z " fill="rgb(0, 0, 0)" fill-opacity="1.000000" />
<path d="M 142.878906 52.319336 L 142.878906 38.300781 L 143.738281 38.300781 L 143.738281 45.412109 L 146.729980 45.412109 L 146.729980 46.335938 L 143.738281 46.335938 L 143.738281 52.319336 Z " fill="rgb(0, 0, 0)" fill-opacity="1.000000" />
<path d="M 146.892578 46.335938 L 146.892578 45.412109 L 153.729980 45.412109 L 153.729980 46.335938 Z " fill="rgb(0, 0, 0)" fill-opacity="1.000000" />
<path d="M 153.892578 46.335938 L 153.892578 45.412109 L 160.729980 45.412109 L 160.729980 46.335938 Z " fill="rgb(0, 0, 0)" fill-opacity="1.000000" />
<path d="M 160.892578 46.335938 L 160.892578 45.412109 L 167.729980 45.412109 L 167.729980 46.335938 Z " fill="rgb(0, 0, 0)" fill-opacity="1.000000" />
<path d="M 167.892578 46.335938 L 167.892578 45.412109 L 174.729980 45.412109 L 174.729980 46.335938 Z " fill="rgb(0, 0, 0)" fill-opacity="1.000000" />
<path d="M 174.892578 46.335938 L 174.892578 45.412109 L 181.729980 45.412109 L 181.729980 46.335938 Z " fill="rgb(0, 0, 0)" fill-opacity="1.000000" />
<path d="M 182.032227 49.418945 L 182.032227 42.866211 L 188.590332 46.142578 Z " fill="rgb(0, 0, 0)" fill-opacity="1.000000" />
<path d="M 211.981934 44.955566 L 211.981934 48.108398 L 213.265625 48.108398 Q 214.210938 48.108398 214.613770 47.778076 Q 215.016602 47.447754 215.016602 46.690430 Q 215.016602 45.691406 214.592285 45.323486 Q 214.167969 44.955566 213.265625 44.955566 Z M 211.981934 41.872559 L 211.981934 44.074707 L 213.244141 44.074707 Q 214.028320 44.074707 214.380127 43.773926 Q 214.731934 43.473145 214.731934 43.016602 Q 214.731934 42.409668 214.385498 42.141113 Q 214.039062 41.872559 213.244141 41.872559 Z M 210.891602 40.980957 L 213.265625 40.980957 Q 214.495605 40.980957 215.161621 41.512695 Q 215.827637 42.044434 215.827637 43.016602 Q 215.827637 43.537598 215.475830 43.961914 Q 215.124023 44.386230 214.420410 44.493652 Q 215.209961 44.611816 215.658447 45.167725 Q 216.106934 45.723633 216.106934 46.797852 Q 216.106934 47.888184 215.392578 48.444092 Q 214.678223 49.000000 213.265625 49.000000 L 210.891602 49.000000 Z " fill="rgb(0, 0, 0)" fill-opacity="1.000000" />
<path d="M 220.861816 46.824707 Q 220.861816 47.490723 221.106201 47.829102 Q 221.350586 48.167480 221.828613 48.167480 L 222.983398 48.167480 L 222.983398 49.000000 L 221.731934 49.000000 Q 220.845703 49.000000 220.359619 48.433350 Q 219.873535 47.866699 219.873535 46.824707 L 219.873535 41.383789 L 218.289062 41.383789 L 218.289062 40.610352 L 220.861816 40.610352 Z " fill="rgb(0, 0, 0)" fill-opacity="1.000000" />
<path d="M 227.308594 43.677246 Q 226.556641 43.677246 226.169922 44.262695 Q 225.783203 44.848145 225.783203 45.997559 Q 225.783203 47.141602 226.169922 47.729736 Q 226.556641 48.317871 227.308594 48.317871 Q 228.065918 48.317871 228.452637 47.729736 Q 228.839355 47.141602 228.839355 45.997559 Q 228.839355 44.848145 228.452637 44.262695 Q 228.065918 43.677246 227.308594 43.677246 Z M 227.308594 42.839355 Q 228.560059 42.839355 229.223389 43.650391 Q 229.886719 44.461426 229.886719 45.997559 Q 229.886719 47.539062 229.226074 48.347412 Q 228.565430 49.155762 227.308594 49.155762 Q 226.057129 49.155762 225.396484 48.347412 Q 224.735840 47.539062 224.735840 45.997559 Q 224.735840 44.461426 225.396484 43.650391 Q 226.057129 42.839355 227.308594 42.839355 Z " fill="rgb(0, 0, 0)" fill-opacity="1.000000" />
<path d="M 236.698730 48.693848 Q 236.301270 48.924805 235.879639 49.040283 Q 235.458008 49.155762 235.017578 49.155762 Q 233.621094 49.155762 232.834229 48.317871 Q 232.047363 47.479980 232.047363 45.997559 Q 232.047363 44.515137 232.834229 43.677246 Q 233.621094 42.839355 235.017578 42.839355 Q 235.452637 42.839355 235.866211 42.952148 Q 236.279785 43.064941 236.698730 43.301270 L 236.698730 44.337891 Q 236.306641 43.988770 235.911865 43.833008 Q 235.517090 43.677246 235.017578 43.677246 Q 234.088379 43.677246 233.588867 44.278809 Q 233.089355 44.880371 233.089355 45.997559 Q 233.089355 47.109375 233.591553 47.713623 Q 234.093750 48.317871 235.017578 48.317871 Q 235.533203 48.317871 235.941406 48.159424 Q 236.349609 48.000977 236.698730 47.667969 Z " fill="rgb(0, 0, 0)" fill-opacity="1.000000" />
<path d="M 239.267578 40.642578 L 240.288086 40.642578 L 240.288086 45.481934 L 242.882324 42.984375 L 244.085449 42.984375 L 241.716797 45.250977 L 244.456055 49.000000 L 243.247559 49.000000 L 241.023926 45.895508 L 240.288086 46.588379 L 240.288086 49.000000 L 239.267578 49.000000 Z " fill="rgb(0, 0, 0)" fill-opacity="1.000000" />
<path d="M 253.267578 40.642578 L 254.288086 40.642578 L 254.288086 45.481934 L 256.882324 42.984375 L 258.085449 42.984375 L 255.716797 45.250977 L 258.456055 49.000000 L 257.247559 49.000000 L 255.023926 45.895508 L 254.288086 46.588379 L 254.288086 49.000000 L 253.267578 49.000000 Z " fill="rgb(0, 0, 0)" fill-opacity="1.000000" />
<path d="M 289.878906 52.319336 L 289.878906 38.300781 L 290.738281 38.300781 L 290.738281 45.412109 L 293.729980 45.412109 L 293.729980 46.335938 L 290.738281 46.335938 L 290.738281 52.319336 Z " fill="rgb(0, 0, 0)" fill-opacity="1.000000" />
<path d="M 293.892578 46.335938 L 293.892578 45.412109 L 300.729980 45.412109 L 300.729980 46.335938 Z " fill="rgb(0, 0, 0)" fill-opacity="1.000000" />
<path d="M 300.892578 46.335938 L 300.892578 45.412109 L 307.729980 45.412109 L 307.729980 46.335938 Z " fill="rgb(0, 0, 0)" fill-opacity="1.000000" />
<path d="M 307.892578 46.335938 L 307.892578 45.412109 L 314.729980 45.412109 L 314.729980 46.335938 Z " fill="rgb(0, 0, 0)" fill-opacity="1.000000" />
<path d="M 317.878906 52.319336 L 317.878906 46.335938 L 314.892578 46.335938 L 314.892578 45.412109 L 317.878906 45.412109 L 317.878906 38.300781 L 318.738281 38.300781 L 318.738281 52.319336 Z " fill="rgb(0, 0, 0)" fill-opacity="1.000000" />
<path d="M 37.878906 39.319336 L 37.878906 32.412109 L 41.729980 32.412109 L 41.729980 33.335938 L 38.738281 33.335938 L 38.738281 39.319336 Z " fill="rgb(0, 0, 0)" fill-opacity="1.000000" />
<path d="M 41.892578 33.335938 L 41.892578 32.412109 L 48.729980 32.412109 L 48.729980 33.335938 Z " fill="rgb(0, 0, 0)" fill-opacity="1.000000" />
<path d="M 48.892578 33.335938 L 48.892578 32.412109 L 55.729980 32.412109 L 55.729980 33.335938 Z " fill="rgb(0, 0, 0)" fill-opacity="1.000000" />
<path d="M 55.892578 33.335938 L 55.892578 32.412109 L 62.729980 32.412109 L 62.729980 33.335938 Z " fill="rgb(0, 0, 0)" fill-opacity="1.000000" />
<path d="M 62.892578 33.335938 L 62.892578 32.412109 L 69.729980 32.412109 L 69.729980 33.335938 Z " fill="rgb(0, 0, 0)" fill-opacity="1.000000" />
<path d="M 69.892578 33.335938 L 69.892578 32.412109 L 76.729980 32.412109 L 76.729980 33.335938 Z " fill="rgb(0, 0, 0)" fill-opacity="1.000000" />
<path d="M 76.892578 33.335938 L 76.892578 32.412109 L 83.729980 32.412109 L 83.729980 33.335938 Z " fill="rgb(0, 0, 0)" fill-opacity="1.000000" />
<path d="M 83.892578 33.335938 L 83.892578 32.412109 L 90.729980 32.412109 L 90.729980 33.335938 Z " fill="rgb(0, 0, 0)" fill-opacity="1.000000" />
<path d="M 90.892578 33.335938 L 90.892578 32.412109 L 97.729980 32.412109 L 97.729980 33.335938 Z " fill="rgb(0, 0, 0)" fill-opacity="1.000000" />
<path d="M 97.892578 33.335938 L 97.892578 32.412109 L 104.729980 32.412109 L 104.729980 33.335938 Z " fill="rgb(0, 0, 0)" fill-opacity="1.000000" />
<path d="M 104.892578 33.335938 L 104.892578 32.412109 L 111.729980 32.412109 L 111.729980 33.335938 Z " fill="rgb(0, 0, 0)" fill-opacity="1.000000" />
<path d="M 111.892578 33.335938 L 111.892578 32.412109 L 118.729980 32.412109 L 118.729980 33.335938 Z " fill="rgb(0, 0, 0)" fill-opacity="1.000000" />
<path d="M 118.892578 33.335938 L 118.892578 32.412109 L 125.729980 32.412109 L 125.729980 33.335938 Z " fill="rgb(0, 0, 0)" fill-opacity="1.000000" />
<path d="M 125.892578 33.335938 L 125.892578 32.412109 L 132.729980 32.412109 L 132.729980 33.335938 Z " fill="rgb(0, 0, 0)" fill-opacity="1.000000" />
<path d="M 132.892578 33.335938 L 132.892578 32.412109 L 139.729980 32.412109 L 139.729980 33.335938 Z " fill="rgb(0, 0, 0)" fill-opacity="1.000000" />
<path d="M 142.878906 39.319336 L 142.878906 33.335938 L 139.892578 33.335938 L 139.892578 32.412109 L 143.738281 32.412109 L 143.738281 39.319336 Z " fill="rgb(0, 0, 0)" fill-opacity="1.000000" />
<path d="M 184.878906 39.319336 L 184.878906 32.412109 L 188.729980 32.412109 L 188.729980 33.335938 L 185.738281 33.335938 L 185.738281 39.319336 Z " fill="rgb(0, 0, 0)" fill-opacity="1.000000" />
<path d="M 188.892578 33.335938 L 188.892578 32.412109 L 195.729980 32.412109 L 195.729980 33.335938 Z " fill="rgb(0, 0, 0)" fill-opacity="1.000000" />
<path d="M 195.892578 33.335938 L 195.892578 32.412109 L 202.729980 32.412109 L 202.729980 33.335938 Z " fill="rgb(0, 0, 0)" fill-opacity="1.000000" />
<path d="M 202.892578 33.335938 L 202.892578 32.412109 L 209.729980 32.412109 L 209.729980 33.335938 Z " fill="rgb(0, 0, 0)" fill-opacity="1.000000" />
<path d="M 209.892578 33.335938 L 209.892578 32.412109 L 216.729980 32.412109 L 216.729980 33.335938 Z " fill="rgb(0, 0, 0)" fill-opacity="1.000000" />
<path d="M 216.892578 33.335938 L 216.892578 32.412109 L 223.729980 32.412109 L 223.729980 33.335938 Z " fill="rgb(0, 0, 0)" fill-opacity="1.000000" />
<path d="M 223.892578 33.335938 L 223.892578 32.412109 L 230.729980 32.412109 L 230.729980 33.335938 Z " fill="rgb(0, 0, 0)" fill-opacity="1.000000" />
<path d="M 230.892578 33.335938 L 230.892578 32.412109 L 237.729980 32.412109 L 237.729980 33.335938 Z " fill="rgb(0, 0, 0)" fill-opacity="1.000000" />
<path d="M 237.892578 33.335938 L 237.892578 32.412109 L 244.729980 32.412109 L 244.729980 33.335938 Z " fill="rgb(0, 0, 0)" fill-opacity="1.000000" />
<path d="M 244.892578 33.335938 L 244.892578 32.412109 L 251.729980 32.412109 L 251.729980 33.335938 Z " fill="rgb(0, 0, 0)" fill-opacity="1.000000" />
<path d="M 251.892578 33.335938 L 251.892578 32.412109 L 258.729980 32.412109 L 258.729980 33.335938 Z " fill="rgb(0, 0, 0)" fill-opacity="1.000000" />
<path d="M 258.892578 33.335938 L 258.892578 32.412109 L 265.729980 32.412109 L 265.729980 33.335938 Z " fill="rgb(0, 0, 0)" fill-opacity="1.000000" />
<path d="M 265.892578 33.335938 L 265.892578 32.412109 L 272.729980 32.412109 L 272.729980 33.335938 Z " fill="rgb(0, 0, 0)" fill-opacity="1.000000" />
<path d="M 272.892578 33.335938 L 272.892578 32.412109 L 279.729980 32.412109 L 279.729980 33.335938 Z " fill="rgb(0, 0, 0)" fill-opacity="1.000000" />
<path d="M 279.892578 33.335938 L 279.892578 32.412109 L 286.729980 32.412109 L 286.729980 33.335938 Z " fill="rgb(0, 0, 0)" fill-opacity="1.000000" />
<path d="M 289.878906 39.319336 L 289.878906 33.335938 L 286.892578 33.335938 L 286.892578 32.412109 L 290.738281 32.412109 L 290.738281 39.319336 Z " fill="rgb(0, 0, 0)" fill-opacity="1.000000" />
<path d="M 317.878906 39.319336 L 317.878906 25.300781 L 318.738281 25.300781 L 318.738281 39.319336 Z " fill="rgb(0, 0, 0)" fill-opacity="1.000000" />
<path d="M 345.878906 33.335938 L 345.878906 25.300781 L 346.738281 25.300781 L 346.738281 32.412109 L 349.729980 32.412109 L 349.729980 33.335938 Z " fill="rgb(0, 0, 0)" fill-opacity="1.000000" />
<path d="M 349.892578 33.335938 L 349.892578 32.412109 L 356.729980 32.412109 L 356.729980 33.335938 Z " fill="rgb(0, 0, 0)" fill-opacity="1.000000" />
<path d="M 356.892578 33.335938 L 356.892578 32.412109 L 363.729980 32.412109 L 363.729980 33.335938 Z " fill="rgb(0, 0, 0)" fill-opacity="1.000000" />
<path d="M 363.892578 33.335938 L 363.892578 32.412109 L 370.729980 32.412109 L 370.729980 33.335938 Z " fill="rgb(0, 0, 0)" fill-opacity="1.000000" />
<path d="M 370.892578 33.335938 L 370.892578 32.412109 L 377.729980 32.412109 L 377.729980 33.335938 Z " fill="rgb(0, 0, 0)" fill-opacity="1.000000" />
<path d="M 377.892578 33.335938 L 377.892578 32.412109 L 384.729980 32.412109 L 384.729980 33.335938 Z " fill="rgb(0, 0, 0)" fill-opacity="1.000000" />
<path d="M 384.892578 33.335938 L 384.892578 32.412109 L 391.729980 32.412109 L 391.729980 33.335938 Z " fill="rgb(0, 0, 0)" fill-opacity="1.000000" />
<path d="M 391.892578 33.335938 L 391.892578 32.412109 L 398.729980 32.412109 L 398.729980 33.335938 Z " fill="rgb(0, 0, 0)" fill-opacity="1.000000" />
<path d="M 398.892578 33.335938 L 398.892578 32.412109 L 405.729980 32.412109 L 405.729980 33.335938 Z " fill="rgb(0, 0, 0)" fill-opacity="1.000000" />
<path d="M 405.892578 33.335938 L 405.892578 32.412109 L 412.729980 32.412109 L 412.729980 33.335938 Z " fill="rgb(0, 0, 0)" fill-opacity="1.000000" />
<path d="M 412.892578 33.335938 L 412.892578 32.412109 L 419.729980 32.412109 L 419.729980 33.335938 Z " fill="rgb(0, 0, 0)" fill-opacity="1.000000" />
<path d="M 419.892578 33.335938 L 419.892578 32.412109 L 426.729980 32.412109 L 426.729980 33.335938 Z " fill="rgb(0, 0, 0)" fill-opacity="1.000000" />
<path d="M 426.892578 33.335938 L 426.892578 32.412109 L 433.729980 32.412109 L 433.729980 33.335938 Z " fill="rgb(0, 0, 0)" fill-opacity="1.000000" />
<path d="M 433.892578 33.335938 L 433.892578 32.412109 L 440.729980 32.412109 L 440.729980 33.335938 Z " fill="rgb(0, 0, 0)" fill-opacity="1.000000" />
<path d="M 440.892578 33.335938 L 440.892578 32.412109 L 447.729980 32.412109 L 447.729980 33.335938 Z " fill="rgb(0, 0, 0)" fill-opacity="1.000000" />
<path d="M 447.892578 33.335938 L 447.892578 32.412109 L 450.878906 32.412109 L 450.878906 25.300781 L 451.738281 25.300781 L 451.738281 33.335938 Z " fill="rgb(0, 0, 0)" fill-opacity="1.000000" />
<path d="M 317.878906 26.319336 L 317.878906 19.412109 L 321.729980 19.412109 L 321.729980 20.335938 L 318.738281 20.335938 L 318.738281 26.319336 Z " fill="rgb(0, 0, 0)" fill-opacity="1.000000" />
<path d="M 321.892578 20.335938 L 321.892578 19.412109 L 328.729980 19.412109 L 328.729980 20.335938 Z " fill="rgb(0, 0, 0)" fill-opacity="1.000000" />
<path d="M 328.892578 20.335938 L 328.892578 19.412109 L 335.729980 19.412109 L 335.729980 20.335938 Z " fill="rgb(0, 0, 0)" fill-opacity="1.000000" />
<path d="M 335.892578 20.335938 L 335.892578 19.412109 L 342.729980 19.412109 L 342.729980 20.335938 Z " fill="rgb(0, 0, 0)" fill-opacity="1.000000" />
<path d="M 343.032227 23.418945 L 343.032227 16.866211 L 349.590332 20.142578 Z " fill="rgb(0, 0, 0)" fill-opacity="1.000000" />
<path d="M 365.981934 18.955566 L 365.981934 22.108398 L 367.265625 22.108398 Q 368.210938 22.108398 368.613770 21.778076 Q 369.016602 21.447754 369.016602 20.690430 Q 369.016602 19.691406 368.592285 19.323486 Q 368.167969 18.955566 367.265625 18.955566 Z M 365.981934 15.872559 L 365.981934 18.074707 L 367.244141 18.074707 Q 368.028320 18.074707 368.380127 17.773926 Q 368.731934 17.473145 368.731934 17.016602 Q 368.731934 16.409668 368.385498 16.141113 Q 368.039062 15.872559 367.244141 15.872559 Z M 364.891602 14.980957 L 367.265625 14.980957 Q 368.495605 14.980957 369.161621 15.512695 Q 369.827637 16.044434 369.827637 17.016602 Q 369.827637 17.537598 369.475830 17.961914 Q 369.124023 18.386230 368.420410 18.493652 Q 369.209961 18.611816 369.658447 19.167725 Q 370.106934 19.723633 370.106934 20.797852 Q 370.106934 21.888184 369.392578 22.444092 Q 368.678223 23.000000 367.265625 23.000000 L 364.891602 23.000000 Z " fill="rgb(0, 0, 0)" fill-opacity="1.000000" />
<path d="M 374.861816 20.824707 Q 374.861816 21.490723 375.106201 21.829102 Q 375.350586 22.167480 375.828613 22.167480 L 376.983398 22.167480 L 376.983398 23.000000 L 375.731934 23.000000 Q 374.845703 23.000000 374.359619 22.433350 Q 373.873535 21.866699 373.873535 20.824707 L 373.873535 15.383789 L 372.289062 15.383789 L 372.289062 14.610352 L 374.861816 14.610352 Z " fill="rgb(0, 0, 0)" fill-opacity="1.000000" />
<path d="M 381.308594 17.677246 Q 380.556641 17.677246 380.169922 18.262695 Q 379.783203 18.848145 379.783203 19.997559 Q 379.783203 21.141602 380.169922 21.729736 Q 380.556641 22.317871 381.308594 22.317871 Q 382.065918 22.317871 382.452637 21.729736 Q 382.839355 21.141602 382.839355 19.997559 Q 382.839355 18.848145 382.452637 18.262695 Q 382.065918 17.677246 381.308594 17.677246 Z M 381.308594 16.839355 Q 382.560059 16.839355 383.223389 17.650391 Q 383.886719 18.461426 383.886719 19.997559 Q 383.886719 21.539062 383.226074 22.347412 Q 382.565430 23.155762 381.308594 23.155762 Q 380.057129 23.155762 379.396484 22.347412 Q 378.735840 21.539062 378.735840 19.997559 Q 378.735840 18.461426 379.396484 17.650391 Q 380.057129 16.839355 381.308594 16.839355 Z " fill="rgb(0, 0, 0)" fill-opacity="1.000000" />
<path d="M 390.698730 22.693848 Q 390.301270 22.924805 389.879639 23.040283 Q 389.458008 23.155762 389.017578 23.155762 Q 387.621094 23.155762 386.834229 22.317871 Q 386.047363 21.479980 386.047363 19.997559 Q 386.047363 18.515137 386.834229 17.677246 Q 387.621094 16.839355 389.017578 16.839355 Q 389.452637 16.839355 389.866211 16.952148 Q 390.279785 17.064941 390.698730 17.301270 L 390.698730 18.337891 Q 390.306641 17.988770 389.911865 17.833008 Q 389.517090 17.677246 389.017578 17.677246 Q 388.088379 17.677246 387.588867 18.278809 Q 387.089355 18.880371 387.089355 19.997559 Q 387.089355 21.109375 387.591553 21.713623 Q 388.093750 22.317871 389.017578 22.317871 Q 389.533203 22.317871 389.941406 22.159424 Q 390.349609 22.000977 390.698730 21.667969 Z " fill="rgb(0, 0, 0)" fill-opacity="1.000000" />
<path d="M 393.267578 14.642578 L 394.288086 14.642578 L 394.288086 19.481934 L 396.882324 16.984375 L 398.085449 16.984375 L 395.716797 19.250977 L 398.456055 23.000000 L 397.247559 23.000000 L 395.023926 19.895508 L 394.288086 20.588379 L 394.288086 23.000000 L 393.267578 23.000000 Z " fill="rgb(0, 0, 0)" fill-opacity="1.000000" />
<path d="M 407.267578 14.642578 L 408.288086 14.642578 L 408.288086 19.481934 L 410.882324 16.984375 L 412.085449 16.984375 L 409.716797 19.250977 L 412.456055 23.000000 L 411.247559 23.000000 L 409.023926 19.895508 L 408.288086 20.588379 L 408.288086 23.000000 L 407.267578 23.000000 Z " fill="rgb(0, 0, 0)" fill-opacity="1.000000" />
<path d="M 416.867188 16.672852 L 416.867188 19.052246 L 419.257324 19.052246 L 419.257324 19.959961 L 416.867188 19.959961 L 416.867188 22.339355 L 415.964844 22.339355 L 415.964844 19.959961 L 413.580078 19.959961 L 413.580078 19.052246 L 415.964844 19.052246 L 415.964844 16.672852 Z " fill="rgb(0, 0, 0)" fill-opacity="1.000000" />
<path d="M 421.450195 22.092285 L 423.136719 22.092285 L 423.136719 16.033691 L 421.117188 17.005859 L 421.117188 15.963867 L 423.125977 15.007812 L 424.210938 15.007812 L 424.210938 22.092285 L 425.875977 22.092285 L 425.875977 23.000000 L 421.450195 23.000000 Z " fill="rgb(0, 0, 0)" fill-opacity="1.000000" />
<path d="M 450.878906 26.319336 L 450.878906 12.300781 L 451.738281 12.300781 L 451.738281 26.319336 Z " fill="rgb(0, 0, 0)" fill-opacity="1.000000" />
<path d="M 345.878906 13.319336 L 345.878906 6.412109 L 349.729980 6.412109 L 349.729980 7.335938 L 346.738281 7.335938 L 346.738281 13.319336 Z " fill="rgb(0, 0, 0)" fill-opacity="1.000000" />
<path d="M 349.892578 7.335938 L 349.892578 6.412109 L 356.729980 6.412109 L 356.729980 7.335938 Z " fill="rgb(0, 0, 0)" fill-opacity="1.000000" />
<path d="M 356.892578 7.335938 L 356.892578 6.412109 L 363.729980 6.412109 L 363.729980 7.335938 Z " fill="rgb(0, 0, 0)" fill-opacity="1.000000" />
<path d="M 363.892578 7.335938 L 363.892578 6.412109 L 370.729980 6.412109 L 370.729980 7.335938 Z " fill="rgb(0, 0, 0)" fill-opacity="1.000000" />
<path d="M 370.892578 7.335938 L 370.892578 6.412109 L 377.729980 6.412109 L 377.729980 7.335938 Z " fill="rgb(0, 0, 0)" fill-opacity="1.000000" />
<path d="M 377.892578 7.335938 L 377.892578 6.412109 L 384.729980 6.412109 L 384.729980 7.335938 Z " fill="rgb(0, 0, 0)" fill-opacity="1.000000" />
<path d="M 384.892578 7.335938 L 384.892578 6.412109 L 391.729980 6.412109 L 391.729980 7.335938 Z " fill="rgb(0, 0, 0)" fill-opacity="1.000000" />
<path d="M 391.892578 7.335938 L 391.892578 6.412109 L 398.729980 6.412109 L 398.729980 7.335938 Z " fill="rgb(0, 0, 0)" fill-opacity="1.000000" />
<path d="M 398.892578 7.335938 L 398.892578 6.412109 L 405.729980 6.412109 L 405.729980 7.335938 Z " fill="rgb(0, 0, 0)" fill-opacity="1.000000" />
<path d="M 405.892578 7.335938 L 405.892578 6.412109 L 412.729980 6.412109 L 412.729980 7.335938 Z " fill="rgb(0, 0, 0)" fill-opacity="1.000000" />
<path d="M 412.892578 7.335938 L 412.892578 6.412109 L 419.729980 6.412109 L 419.729980 7.335938 Z " fill="rgb(0, 0, 0)" fill-opacity="1.000000" />
<path d="M 419.892578 7.335938 L 419.892578 6.412109 L 426.729980 6.412109 L 426.729980 7.335938 Z " fill="rgb(0, 0, 0)" fill-opacity="1.000000" />
<path d="M 426.892578 7.335938 L 426.892578 6.412109 L 433.729980 6.412109 L 433.729980 7.335938 Z " fill="rgb(0, 0, 0)" fill-opacity="1.000000" />
<path d="M 433.892578 7.335938 L 433.892578 6.412109 L 440.729980 6.412109 L 440.729980 7.335938 Z " fill="rgb(0, 0, 0)" fill-opacity="1.000000" />
<path d="M 440.892578 7.335938 L 440.892578 6.412109 L 447.729980 6.412109 L 447.729980 7.335938 Z " fill="rgb(0, 0, 0)" fill-opacity="1.000000" />
<path d="M 450.878906 13.319336 L 450.878906 7.335938 L 447.892578 7.335938 L 447.892578 6.412109 L 451.738281 6.412109 L 451.738281 13.319336 Z " fill="rgb(0, 0, 0)" fill-opacity="1.000000" />
</svg>