<svg xmlns="http://www.w3.org/2000/svg" version="1.1" width="456" height="118">
<path d="M 2.878906 39.319336 L 2.878906 32.412109 L 6.729980 32.412109 L 6.729980 33.335938 L 3.738281 33.335938 L 3.738281 39.319336 Z " fill="rgb(0, 0, 0)" fill-opacity="1.000000" />
<path d="M 2.878906 52.319336 L 2.878906 38.300781 L 3.738281 38.300781 L 3.738281 52.319336 Z " fill="rgb(0, 0, 0)" fill-opacity="1.000000" />
<path d="M 2.878906 59.335938 L 2.878906 51.300781 L 3.738281 51.300781 L 3.738281 58.412109 L 6.729980 58.412109 L 6.729980 59.335938 Z " fill="rgb(0, 0, 0)" fill-opacity="1.000000" />
<path d="M 50.450195 113.092285 L 52.136719 113.092285 L 52.136719 107.033691 L 50.117188 108.005859 L 50.117188 106.963867 L 52.125977 106.007812 L 53.210938 106.007812 L 53.210938 113.092285 L 54.875977 113.092285 L 54.875977 114.000000 L 50.450195 114.000000 Z " fill="rgb(0, 0, 0)" fill-opacity="1.000000" />
<path d="M 60.592285 105.116211 Q 59.877930 106.340820 59.526123 107.557373 Q 59.174316 108.773926 59.174316 110.009277 Q 59.174316 111.239258 59.526123 112.458496 Q 59.877930 113.677734 60.592285 114.913086 L 59.732910 114.913086 Q 58.921875 113.634766 58.524414 112.423584 Q 58.126953 111.212402 58.126953 110.009277 Q 58.126953 108.811523 58.524414 107.597656 Q 58.921875 106.383789 59.732910 105.116211 Z " fill="rgb(0, 0, 0)" fill-opacity="1.000000" />
<path d="M 66.770508 110.976074 L 66.442871 110.976074 Q 65.578125 110.976074 65.140381 111.279541 Q 64.702637 111.583008 64.702637 112.184570 Q 64.702637 112.727051 65.030273 113.027832 Q 65.357910 113.328613 65.937988 113.328613 Q 66.754395 113.328613 67.221680 112.761963 Q 67.688965 112.195312 67.694336 111.196289 L 67.694336 110.976074 Z M 68.687988 110.567871 L 68.687988 114.000000 L 67.694336 114.000000 L 67.694336 113.108398 Q 67.377441 113.645508 66.896729 113.900635 Q 66.416016 114.155762 65.728516 114.155762 Q 64.810059 114.155762 64.262207 113.637451 Q 63.714355 113.119141 63.714355 112.249023 Q 63.714355 111.244629 64.388428 110.723633 Q 65.062500 110.202637 66.367676 110.202637 L 67.694336 110.202637 L 67.694336 110.046875 Q 67.688965 109.327148 67.329102 109.002197 Q 66.969238 108.677246 66.179688 108.677246 Q 65.674805 108.677246 65.159180 108.822266 Q 64.643555 108.967285 64.154785 109.246582 L 64.154785 108.258301 Q 64.702637 108.048828 65.204834 107.944092 Q 65.707031 107.839355 66.179688 107.839355 Q 66.926270 107.839355 67.455322 108.059570 Q 67.984375 108.279785 68.312012 108.720215 Q 68.516113 108.988770 68.602051 109.383545 Q 68.687988 109.778320 68.687988 110.567871 Z " fill="rgb(0, 0, 0)" fill-opacity="1.000000" />
<path d="M 71.869141 105.116211 L 72.728516 105.116211 Q 73.539551 106.383789 73.937012 107.597656 Q 74.334473 108.811523 74.334473 110.009277 Q 74.334473 111.217773 73.937012 112.431641 Q 73.539551 113.645508 72.728516 114.913086 L 71.869141 114.913086 Q 72.583496 113.666992 72.935303 112.447754 Q 73.287109 111.228516 73.287109 110.009277 Q 73.287109 108.784668 72.935303 107.565430 Q 72.583496 106.346191 71.869141 105.116211 Z " fill="rgb(0, 0, 0)" fill-opacity="1.000000" />
<path d="M 211.450195 113.092285 L 213.136719 113.092285 L 213.136719 107.033691 L 211.117188 108.005859 L 211.117188 106.963867 L 213.125977 106.007812 L 214.210938 106.007812 L 214.210938 113.092285 L 215.875977 113.092285 L 215.875977 114.000000 L 211.450195 114.000000 Z " fill="rgb(0, 0, 0)" fill-opacity="1.000000" />
<path d="M 221.592285 105.116211 Q 220.877930 106.340820 220.526123 107.557373 Q 220.174316 108.773926 220.174316 110.009277 Q 220.174316 111.239258 220.526123 112.458496 Q 220.877930 113.677734 221.592285 114.913086 L 220.732910 114.913086 Q 219.921875 113.634766 219.524414 112.423584 Q 219.126953 111.212402 219.126953 110.009277 Q 219.126953 108.811523 219.524414 107.597656 Q 219.921875 106.383789 220.732910 105.116211 Z " fill="rgb(0, 0, 0)" fill-opacity="1.000000" />
<path d="M 228.930664 110.997559 Q 228.930664 109.848145 228.565430 109.262695 Q 228.200195 108.677246 227.485840 108.677246 Q 226.766113 108.677246 226.395508 109.265381 Q 226.024902 109.853516 226.024902 110.997559 Q 226.024902 112.136230 226.395508 112.727051 Q 226.766113 113.317871 227.485840 113.317871 Q 228.200195 113.317871 228.565430 112.732422 Q 228.930664 112.146973 228.930664 110.997559 Z M 226.024902 108.752441 Q 226.261230 108.312012 226.677490 108.075684 Q 227.093750 107.839355 227.641602 107.839355 Q 228.726562 107.839355 229.349609 108.674561 Q 229.972656 109.509766 229.972656 110.976074 Q 229.972656 112.463867 229.346924 113.309814 Q 228.721191 114.155762 227.630859 114.155762 Q 227.093750 114.155762 226.682861 113.922119 Q 226.271973 113.688477 226.024902 113.242676 L 226.024902 114.000000 L 225.036621 114.000000 L 225.036621 105.642578 L 226.024902 105.642578 Z " fill="rgb(0, 0, 0)" fill-opacity="1.000000" />
<path d="M 232.869141 105.116211 L 233.728516 105.116211 Q 234.539551 106.383789 234.937012 107.597656 Q 235.334473 108.811523 235.334473 110.009277 Q 235.334473 111.217773 234.937012 112.431641 Q 234.539551 113.645508 233.728516 114.913086 L 232.869141 114.913086 Q 233.583496 113.666992 233.935303 112.447754 Q 234.287109 111.228516 234.287109 110.009277 Q 234.287109 108.784668 233.935303 107.565430 Q 233.583496 106.346191 232.869141 105.116211 Z " fill="rgb(0, 0, 0)" fill-opacity="1.000000" />
<path d="M 372.450195 113.092285 L 374.136719 113.092285 L 374.136719 107.033691 L 372.117188 108.005859 L 372.117188 106.963867 L 374.125977 106.007812 L 375.210938 106.007812 L 375.210938 113.092285 L 376.875977 113.092285 L 376.875977 114.000000 L 372.450195 114.000000 Z " fill="rgb(0, 0, 0)" fill-opacity="1.000000" />
<path d="M 382.592285 105.116211 Q 381.877930 106.340820 381.526123 107.557373 Q 381.174316 108.773926 381.174316 110.009277 Q 381.174316 111.239258 381.526123 112.458496 Q 381.877930 113.677734 382.592285 114.913086 L 381.732910 114.913086 Q 380.921875 113.634766 380.524414 112.423584 Q 380.126953 111.212402 380.126953 110.009277 Q 380.126953 108.811523 380.524414 107.597656 Q 380.921875 106.383789 381.732910 105.116211 Z " fill="rgb(0, 0, 0)" fill-opacity="1.000000" />
<path d="M 390.698730 113.693848 Q 390.301270 113.924805 389.879639 114.040283 Q 389.458008 114.155762 389.017578 114.155762 Q 387.621094 114.155762 386.834229 113.317871 Q 386.047363 112.479980 386.047363 110.997559 Q 386.047363 109.515137 386.834229 108.677246 Q 387.621094 107.839355 389.017578 107.839355 Q 389.452637 107.839355 389.866211 107.952148 Q 390.279785 108.064941 390.698730 108.301270 L 390.698730 109.337891 Q 390.306641 108.988770 389.911865 108.833008 Q 389.517090 108.677246 389.017578 108.677246 Q 388.088379 108.677246 387.588867 109.278809 Q 387.089355 109.880371 387.089355 110.997559 Q 387.089355 112.109375 387.591553 112.713623 Q 388.093750 113.317871 389.017578 113.317871 Q 389.533203 113.317871 389.941406 113.159424 Q 390.349609 113.000977 390.698730 112.667969 Z " fill="rgb(0, 0, 0)" fill-opacity="1.000000" />
<path d="M 393.869141 105.116211 L 394.728516 105.116211 Q 395.539551 106.383789 395.937012 107.597656 Q 396.334473 108.811523 396.334473 110.009277 Q 396.334473 111.217773 395.937012 112.431641 Q 395.539551 113.645508 394.728516 114.913086 L 393.869141 114.913086 Q 394.583496 113.666992 394.935303 112.447754 Q 395.287109 111.228516 395.287109 110.009277 Q 395.287109 108.784668 394.935303 107.565430 Q 394.583496 106.346191 393.869141 105.116211 Z " fill="rgb(0, 0, 0)" fill-opacity="1.000000" />
<path d="M 37.878906 72.335938 L 37.878906 64.300781 L 38.738281 64.300781 L 38.738281 71.412109 L 41.729980 71.412109 L 41.729980 72.335938 Z " fill="rgb(0, 0, 0)" fill-opacity="1.000000" />
<path d="M 51.878906 85.335938 L 51.878906 77.300781 L 52.738281 77.300781 L 52.738281 84.412109 L 55.729980 84.412109 L 55.729980 85.335938 Z " fill="rgb(0, 0, 0)" fill-opacity="1.000000" />
<path d="M 55.892578 85.335938 L 55.892578 84.412109 L 62.729980 84.412109 L 62.729980 85.335938 Z " fill="rgb(0, 0, 0)" fill-opacity="1.000000" />
<path d="M 62.892578 85.335938 L 62.892578 84.412109 L 69.729980 84.412109 L 69.729980 85.335938 Z " fill="rgb(0, 0, 0)" fill-opacity="1.000000" />
<path d="M 69.892578 85.335938 L 69.892578 84.412109 L 76.729980 84.412109 L 76.729980 85.335938 Z " fill="rgb(0, 0, 0)" fill-opacity="1.000000" />
<path d="M 76.892578 85.335938 L 76.892578 84.412109 L 79.878906 84.412109 L 79.878906 77.300781 L 80.738281 77.300781 L 80.738281 85.335938 Z " fill="rgb(0, 0, 0)" fill-opacity="1.000000" />
<path d="M 212.878906 85.335938 L 212.878906 77.300781 L 213.738281 77.300781 L 213.738281 84.412109 L 216.729980 84.412109 L 216.729980 85.335938 Z " fill="rgb(0, 0, 0)" fill-opacity="1.000000" />
<path d="M 216.892578 85.335938 L 216.892578 84.412109 L 223.729980 84.412109 L 223.729980 85.335938 Z " fill="rgb(0, 0, 0)" fill-opacity="1.000000" />
<path d="M 223.892578 85.335938 L 223.892578 84.412109 L 230.729980 84.412109 L 230.729980 85.335938 Z " fill="rgb(0, 0, 0)" fill-opacity="1.000000" />
<path d="M 230.892578 85.335938 L 230.892578 84.412109 L 237.729980 84.412109 L 237.729980 85.335938 Z " fill="rgb(0, 0, 0)" fill-opacity="1.000000" />
<path d="M 237.892578 85.335938 L 237.892578 84.412109 L 240.878906 84.412109 L 240.878906 77.300781 L 241.738281 77.300781 L 241.738281 85.335938 Z " fill="rgb(0, 0, 0)" fill-opacity="1.000000" />
<path d="M 373.878906 85.335938 L 373.878906 77.300781 L 374.738281 77.300781 L 374.738281 84.412109 L 377.729980 84.412109 L 377.729980 85.335938 Z " fill="rgb(0, 0, 0)" fill-opacity="1.000000" />
<path d="M 377.892578 85.335938 L 377.892578 84.412109 L 384.729980 84.412109 L 384.729980 85.335938 Z " fill="rgb(0, 0, 0)" fill-opacity="1.000000" />
<path d="M 384.892578 85.335938 L 384.892578 84.412109 L 391.729980 84.412109 L 391.729980 85.335938 Z " fill="rgb(0, 0, 0)" fill-opacity="1.000000" />
<path d="M 391.892578 85.335938 L 391.892578 84.412109 L 398.729980 84.412109 L 398.729980 85.335938 Z " fill="rgb(0, 0, 0)" fill-opacity="1.000000" />
<path d="M 398.892578 85.335938 L 398.892578 84.412109 L 401.878906 84.412109 L 401.878906 77.300781 L 402.738281 77.300781 L 402.738281 85.335938 Z " fill="rgb(0, 0, 0)" fill-opacity="1.000000" />
<path d="M 422.878906 85.335938 L 422.878906 77.300781 L 423.738281 77.300781 L 423.738281 84.412109 L 426.729980 84.412109 L 426.729980 85.335938 Z " fill="rgb(0, 0, 0)" fill-opacity="1.000000" />
<path d="M 426.892578 85.335938 L 426.892578 84.412109 L 433.729980 84.412109 L 433.729980 85.335938 Z " fill="rgb(0, 0, 0)" fill-opacity="1.000000" />
<path d="M 433.892578 85.335938 L 433.892578 84.412109 L 440.729980 84.412109 L 440.729980 85.335938 Z " fill="rgb(0, 0, 0)" fill-opacity="1.000000" />
<path d="M 440.892578 85.335938 L 440.892578 84.412109 L 447.729980 84.412109 L 447.729980 85.335938 Z " fill="rgb(0, 0, 0)" fill-opacity="1.000000" />
<path d="M 447.892578 85.335938 L 447.892578 84.412109 L 450.878906 84.412109 L 450.878906 77.300781 L 451.738281 77.300781 L 451.738281 85.335938 Z " fill="rgb(0, 0, 0)" fill-opacity="1.000000" />
<path d="M 41.892578 72.335938 L 41.892578 71.412109 L 48.729980 71.412109 L 48.729980 72.335938 Z " fill="rgb(0, 0, 0)" fill-opacity="1.000000" />
<path d="M 49.032227 75.418945 L 49.032227 68.866211 L 55.590332 72.142578 Z " fill="rgb(0, 0, 0)" fill-opacity="1.000000" />
<path d="M 79.878906 78.319336 L 79.878906 64.300781 L 80.738281 64.300781 L 80.738281 78.319336 Z " fill="rgb(0, 0, 0)" fill-opacity="1.000000" />
<path d="M 198.878906 72.335938 L 198.878906 64.300781 L 199.738281 64.300781 L 199.738281 71.412109 L 202.729980 71.412109 L 202.729980 72.335938 Z " fill="rgb(0, 0, 0)" fill-opacity="1.000000" />
<path d="M 202.892578 72.335938 L 202.892578 71.412109 L 209.729980 71.412109 L 209.729980 72.335938 Z " fill="rgb(0, 0, 0)" fill-opacity="1.000000" />
<path d="M 210.032227 75.418945 L 210.032227 68.866211 L 216.590332 72.142578 Z " fill="rgb(0, 0, 0)" fill-opacity="1.000000" />
<path d="M 240.878906 78.319336 L 240.878906 64.300781 L 241.738281 64.300781 L 241.738281 78.319336 Z " fill="rgb(0, 0, 0)" fill-opacity="1.000000" />
<path d="M 359.878906 72.335938 L 359.878906 64.300781 L 360.738281 64.300781 L 360.738281 71.412109 L 363.729980 71.412109 L 363.729980 72.335938 Z " fill="rgb(0, 0, 0)" fill-opacity="1.000000" />
<path d="M 363.892578 72.335938 L 363.892578 71.412109 L 370.729980 71.412109 L 370.729980 72.335938 Z " fill="rgb(0, 0, 0)" fill-opacity="1.000000" />
<path d="M 371.032227 75.418945 L 371.032227 68.866211 L 377.590332 72.142578 Z " fill="rgb(0, 0, 0)" fill-opacity="1.000000" />
<path d="M 401.878906 78.319336 L 401.878906 64.300781 L 402.738281 64.300781 L 402.738281 71.412109 L 405.729980 71.412109 L 405.729980 72.335938 L 402.738281 72.335938 L 402.738281 78.319336 Z " fill="rgb(0, 0, 0)" fill-opacity="1.000000" />
<path d="M 405.892578 72.335938 L 405.892578 71.412109 L 412.729980 71.412109 L 412.729980 72.335938 Z " fill="rgb(0, 0, 0)" fill-opacity="1.000000" />
<path d="M 412.892578 72.335938 L 412.892578 71.412109 L 419.729980 71.412109 L 419.729980 72.335938 Z " fill="rgb(0, 0, 0)" fill-opacity="1.000000" />
<path d="M 420.032227 75.418945 L 420.032227 68.866211 L 426.590332 72.142578 Z " fill="rgb(0, 0, 0)" fill-opacity="1.000000" />
<path d="M 450.878906 78.319336 L 450.878906 64.300781 L 451.738281 64.300781 L 451.738281 78.319336 Z " fill="rgb(0, 0, 0)" fill-opacity="1.000000" />
<path d="M 6.892578 59.335938 L 6.892578 58.412109 L 13.729980 58.412109 L 13.729980 59.335938 Z " fill="rgb(0, 0, 0)" fill-opacity="1.000000" />
<path d="M 13.892578 59.335938 L 13.892578 58.412109 L 20.729980 58.412109 L 20.729980 59.335938 Z " fill="rgb(0, 0, 0)" fill-opacity="1.000000" />
<path d="M 20.892578 59.335938 L 20.892578 58.412109 L 27.729980 58.412109 L 27.729980 59.335938 Z " fill="rgb(0, 0, 0)" fill-opacity="1.000000" />
<path d="M 27.892578 59.335938 L 27.892578 58.412109 L 30.878906 58.412109 L 30.878906 51.300781 L 31.738281 51.300781 L 31.738281 59.335938 Z " fill="rgb(0, 0, 0)" fill-opacity="1.000000" />
<path d="M 37.878906 65.319336 L 37.878906 51.300781 L 38.738281 51.300781 L 38.738281 65.319336 Z " fill="rgb(0, 0, 0)" fill-opacity="1.000000" />
<path d="M 51.878906 65.319336 L 51.878906 58.412109 L 55.729980 58.412109 L 55.729980 59.335938 L 52.738281 59.335938 L 52.738281 65.319336 Z " fill="rgb(0, 0, 0)" fill-opacity="1.000000" />
<path d="M 55.892578 59.335938 L 55.892578 58.412109 L 62.729980 58.412109 L 62.729980 59.335938 Z " fill="rgb(0, 0, 0)" fill-opacity="1.000000" />
<path d="M 62.892578 59.335938 L 62.892578 58.412109 L 69.729980 58.412109 L 69.729980 59.335938 Z " fill="rgb(0, 0, 0)" fill-opacity="1.000000" />
<path d="M 69.892578 59.335938 L 69.892578 58.412109 L 76.729980 58.412109 L 76.729980 59.335938 Z " fill="rgb(0, 0, 0)" fill-opacity="1.000000" />
<path d="M 79.878906 65.319336 L 79.878906 59.335938 L 76.892578 59.335938 L 76.892578 58.412109 L 80.738281 58.412109 L 80.738281 65.319336 Z " fill="rgb(0, 0, 0)" fill-opacity="1.000000" />
<path d="M 163.878906 59.335938 L 163.878906 51.300781 L 164.738281 51.300781 L 164.738281 58.412109 L 167.729980 58.412109 L 167.729980 59.335938 Z " fill="rgb(0, 0, 0)" fill-opacity="1.000000" />
<path d="M 167.892578 59.335938 L 167.892578 58.412109 L 174.729980 58.412109 L 174.729980 59.335938 Z " fill="rgb(0, 0, 0)" fill-opacity="1.000000" />
<path d="M 174.892578 59.335938 L 174.892578 58.412109 L 181.729980 58.412109 L 181.729980 59.335938 Z " fill="rgb(0, 0, 0)" fill-opacity="1.000000" />
<path d="M 181.892578 59.335938 L 181.892578 58.412109 L 188.729980 58.412109 L 188.729980 59.335938 Z " fill="rgb(0, 0, 0)" fill-opacity="1.000000" />
<path d="M 188.892578 59.335938 L 188.892578 58.412109 L 191.878906 58.412109 L 191.878906 51.300781 L 192.738281 51.300781 L 192.738281 59.335938 Z " fill="rgb(0, 0, 0)" fill-opacity="1.000000" />
<path d="M 198.878906 65.319336 L 198.878906 51.300781 L 199.738281 51.300781 L 199.738281 65.319336 Z " fill="rgb(0, 0, 0)" fill-opacity="1.000000" />
<path d="M 212.878906 65.319336 L 212.878906 58.412109 L 216.729980 58.412109 L 216.729980 59.335938 L 213.738281 59.335938 L 213.738281 65.319336 Z " fill="rgb(0, 0, 0)" fill-opacity="1.000000" />
<path d="M 216.892578 59.335938 L 216.892578 58.412109 L 223.729980 58.412109 L 223.729980 59.335938 Z " fill="rgb(0, 0, 0)" fill-opacity="1.000000" />
<path d="M 223.892578 59.335938 L 223.892578 58.412109 L 230.729980 58.412109 L 230.729980 59.335938 Z " fill="rgb(0, 0, 0)" fill-opacity="1.000000" />
<path d="M 230.892578 59.335938 L 230.892578 58.412109 L 237.729980 58.412109 L 237.729980 59.335938 Z " fill="rgb(0, 0, 0)" fill-opacity="1.000000" />
<path d="M 240.878906 65.319336 L 240.878906 59.335938 L 237.892578 59.335938 L 237.892578 58.412109 L 241.738281 58.412109 L 241.738281 65.319336 Z " fill="rgb(0, 0, 0)" fill-opacity="1.000000" />
<path d="M 324.878906 59.335938 L 324.878906 51.300781 L 325.738281 51.300781 L 325.738281 58.412109 L 328.729980 58.412109 L 328.729980 59.335938 Z " fill="rgb(0, 0, 0)" fill-opacity="1.000000" />
<path d="M 328.892578 59.335938 L 328.892578 58.412109 L 335.729980 58.412109 L 335.729980 59.335938 Z " fill="rgb(0, 0, 0)" fill-opacity="1.000000" />
<path d="M 335.892578 59.335938 L 335.892578 58.412109 L 342.729980 58.412109 L 342.729980 59.335938 Z " fill="rgb(0, 0, 0)" fill-opacity="1.000000" />
<path d="M 342.892578 59.335938 L 342.892578 58.412109 L 349.729980 58.412109 L 349.729980 59.335938 Z " fill="rgb(0, 0, 0)" fill-opacity="1.000000" />
<path d="M 349.892578 59.335938 L 349.892578 58.412109 L 352.878906 58.412109 L 352.878906 51.300781 L 353.738281 51.300781 L 353.738281 59.335938 Z " fill="rgb(0, 0, 0)" fill-opacity="1.000000" />
<path d="M 359.878906 65.319336 L 359.878906 51.300781 L 360.738281 51.300781 L 360.738281 65.319336 Z " fill="rgb(0, 0, 0)" fill-opacity="1.000000" />
<path d="M 373.878906 65.319336 L 373.878906 58.412109 L 377.729980 58.412109 L 377.729980 59.335938 L 374.738281 59.335938 L 374.738281 65.319336 Z " fill="rgb(0, 0, 0)" fill-opacity="1.000000" />
<path d="M 377.892578 59.335938 L 377.892578 58.412109 L 384.729980 58.412109 L 384.729980 59.335938 Z " fill="rgb(0, 0, 0)" fill-opacity="1.000000" />
<path d="M 384.892578 59.335938 L 384.892578 58.412109 L 391.729980 58.412109 L 391.729980 59.335938 Z " fill="rgb(0, 0, 0)" fill-opacity="1.000000" />
<path d="M 391.892578 59.335938 L 391.892578 58.412109 L 398.729980 58.412109 L 398.729980 59.335938 Z " fill="rgb(0, 0, 0)" fill-opacity="1.000000" />
<path d="M 401.878906 65.319336 L 401.878906 59.335938 L 398.892578 59.335938 L 398.892578 58.412109 L 402.738281 58.412109 L 402.738281 65.319336 Z " fill="rgb(0, 0, 0)" fill-opacity="1.000000" />
<path d="M 422.878906 65.319336 L 422.878906 58.412109 L 426.729980 58.412109 L 426.729980 59.335938 L 423.738281 59.335938 L 423.738281 65.319336 Z " fill="rgb(0, 0, 0)" fill-opacity="1.000000" />
<path d="M 426.892578 59.335938 L 426.892578 58.412109 L 433.729980 58.412109 L 433.729980 59.335938 Z " fill="rgb(0, 0, 0)" fill-opacity="1.000000" />
<path d="M 433.892578 59.335938 L 433.892578 58.412109 L 440.729980 58.412109 L 440.729980 59.335938 Z " fill="rgb(0, 0, 0)" fill-opacity="1.000000" />
<path d="M 440.892578 59.335938 L 440.892578 58.412109 L 447.729980 58.412109 L 447.729980 59.335938 Z " fill="rgb(0, 0, 0)" fill-opacity="1.000000" />
<path d="M 450.878906 65.319336 L 450.878906 59.335938 L 447.892578 59.335938 L 447.892578 58.412109 L 451.738281 58.412109 L 451.738281 65.319336 Z " fill="rgb(0, 0, 0)" fill-opacity="1.000000" />
<path d="M 30.878906 52.319336 L 30.878906 38.300781 L 31.738281 38.300781 L 31.738281 45.412109 L 34.729980 45.412109 L 34.729980 46.335938 L 31.738281 46.335938 L 31.738281 52.319336 Z " fill="rgb(0, 0, 0)" fill-opacity="1.000000" />
<path d="M 37.878906 52.319336 L 37.878906 46.335938 L 34.892578 46.335938 L 34.892578 45.412109 L 37.878906 45.412109 L 37.878906 38.300781 L 38.738281 38.300781 L 38.738281 52.319336 Z " fill="rgb(0, 0, 0)" fill-opacity="1.000000" />
<path d="M 163.878906 52.319336 L 163.878906 38.300781 L 164.738281 38.300781 L 164.738281 52.319336 Z " fill="rgb(0, 0, 0)" fill-opacity="1.000000" />
<path d="M 191.878906 52.319336 L 191.878906 38.300781 L 192.738281 38.300781 L 192.738281 45.412109 L 195.729980 45.412109 L 195.729980 46.335938 L 192.738281 46.335938 L 192.738281 52.319336 Z " fill="rgb(0, 0, 0)" fill-opacity="1.000000" />
<path d="M 198.878906 52.319336 L 198.878906 46.335938 L 195.892578 46.335938 L 195.892578 45.412109 L 198.878906 45.412109 L 198.878906 38.300781 L 199.738281 38.300781 L 199.738281 52.319336 Z " fill="rgb(0, 0, 0)" fill-opacity="1.000000" />
<path d="M 324.878906 52.319336 L 324.878906 38.300781 L 325.738281 38.300781 L 325.738281 52.319336 Z " fill="rgb(0, 0, 0)" fill-opacity="1.000000" />
<path d="M 352.878906 52.319336 L 352.878906 38.300781 L 353.738281 38.300781 L 353.738281 45.412109 L 356.729980 45.412109 L 356.729980 46.335938 L 353.738281 46.335938 L 353.738281 52.319336 Z " fill="rgb(0, 0, 0)" fill-opacity="1.000000" />
<path d="M 359.878906 52.319336 L 359.878906 46.335938 L 356.892578 46.335938 L 356.892578 45.412109 L 359.878906 45.412109 L 359.878906 38.300781 L 360.738281 38.300781 L 360.738281 52.319336 Z " fill="rgb(0, 0, 0)" fill-opacity="1.000000" />
<path d="M 6.892578 33.335938 L 6.892578 32.412109 L 13.729980 32.412109 L 13.729980 33.335938 Z " fill="rgb(0, 0, 0)" fill-opacity="1.000000" />
<path d="M 13.892578 33.335938 L 13.892578 32.412109 L 20.729980 32.412109 L 20.729980 33.335938 Z " fill="rgb(0, 0, 0)" fill-opacity="1.000000" />
<path d="M 20.892578 33.335938 L 20.892578 32.412109 L 27.729980 32.412109 L 27.729980 33.335938 Z " fill="rgb(0, 0, 0)" fill-opacity="1.000000" />
<path d="M 30.878906 39.319336 L 30.878906 33.335938 L 27.892578 33.335938 L 27.892578 32.412109 L 31.738281 32.412109 L 31.738281 39.319336 Z " fill="rgb(0, 0, 0)" fill-opacity="1.000000" />
<path d="M 37.878906 39.319336 L 37.878906 25.300781 L 38.738281 25.300781 L 38.738281 39.319336 Z " fill="rgb(0, 0, 0)" fill-opacity="1.000000" />
<path d="M 51.878906 33.335938 L 51.878906 25.300781 L 52.738281 25.300781 L 52.738281 32.412109 L 55.729980 32.412109 L 55.729980 33.335938 Z " fill="rgb(0, 0, 0)" fill-opacity="1.000000" />
<path d="M 62.892578 33.335938 L 62.892578 32.412109 L 69.729980 32.412109 L 69.729980 33.335938 Z " fill="rgb(0, 0, 0)" fill-opacity="1.000000" />
<path d="M 76.892578 33.335938 L 76.892578 32.412109 L 79.878906 32.412109 L 79.878906 25.300781 L 80.738281 25.300781 L 80.738281 33.335938 Z " fill="rgb(0, 0, 0)" fill-opacity="1.000000" />
<path d="M 100.878906 33.335938 L 100.878906 25.300781 L 101.738281 25.300781 L 101.738281 32.412109 L 104.729980 32.412109 L 104.729980 33.335938 Z " fill="rgb(0, 0, 0)" fill-opacity="1.000000" />
<path d="M 111.892578 33.335938 L 111.892578 32.412109 L 118.729980 32.412109 L 118.729980 33.335938 Z " fill="rgb(0, 0, 0)" fill-opacity="1.000000" />
<path d="M 125.892578 33.335938 L 125.892578 32.412109 L 128.878906 32.412109 L 128.878906 25.300781 L 129.738281 25.300781 L 129.738281 33.335938 Z " fill="rgb(0, 0, 0)" fill-opacity="1.000000" />
<path d="M 163.878906 39.319336 L 163.878906 32.412109 L 167.729980 32.412109 L 167.729980 33.335938 L 164.738281 33.335938 L 164.738281 39.319336 Z " fill="rgb(0, 0, 0)" fill-opacity="1.000000" />
<path d="M 167.892578 33.335938 L 167.892578 32.412109 L 174.729980 32.412109 L 174.729980 33.335938 Z " fill="rgb(0, 0, 0)" fill-opacity="1.000000" />
<path d="M 174.892578 33.335938 L 174.892578 32.412109 L 181.729980 32.412109 L 181.729980 33.335938 Z " fill="rgb(0, 0, 0)" fill-opacity="1.000000" />
<path d="M 181.892578 33.335938 L 181.892578 32.412109 L 188.729980 32.412109 L 188.729980 33.335938 Z " fill="rgb(0, 0, 0)" fill-opacity="1.000000" />
<path d="M 191.878906 39.319336 L 191.878906 33.335938 L 188.892578 33.335938 L 188.892578 32.412109 L 192.738281 32.412109 L 192.738281 39.319336 Z " fill="rgb(0, 0, 0)" fill-opacity="1.000000" />
<path d="M 198.878906 39.319336 L 198.878906 25.300781 L 199.738281 25.300781 L 199.738281 39.319336 Z " fill="rgb(0, 0, 0)" fill-opacity="1.000000" />
<path d="M 212.878906 33.335938 L 212.878906 25.300781 L 213.738281 25.300781 L 213.738281 32.412109 L 216.729980 32.412109 L 216.729980 33.335938 Z " fill="rgb(0, 0, 0)" fill-opacity="1.000000" />
<path d="M 223.892578 33.335938 L 223.892578 32.412109 L 230.729980 32.412109 L 230.729980 33.335938 Z " fill="rgb(0, 0, 0)" fill-opacity="1.000000" />
<path d="M 237.892578 33.335938 L 237.892578 32.412109 L 240.878906 32.412109 L 240.878906 25.300781 L 241.738281 25.300781 L 241.738281 33.335938 Z " fill="rgb(0, 0, 0)" fill-opacity="1.000000" />
<path d="M 261.878906 33.335938 L 261.878906 25.300781 L 262.738281 25.300781 L 262.738281 32.412109 L 265.729980 32.412109 L 265.729980 33.335938 Z " fill="rgb(0, 0, 0)" fill-opacity="1.000000" />
<path d="M 265.892578 33.335938 L 265.892578 32.412109 L 272.729980 32.412109 L 272.729980 33.335938 Z " fill="rgb(0, 0, 0)" fill-opacity="1.000000" />
<path d="M 272.892578 33.335938 L 272.892578 32.412109 L 279.729980 32.412109 L 279.729980 33.335938 Z " fill="rgb(0, 0, 0)" fill-opacity="1.000000" />
<path d="M 279.892578 33.335938 L 279.892578 32.412109 L 286.729980 32.412109 L 286.729980 33.335938 Z " fill="rgb(0, 0, 0)" fill-opacity="1.000000" />
<path d="M 286.892578 33.335938 L 286.892578 32.412109 L 289.878906 32.412109 L 289.878906 25.300781 L 290.738281 25.300781 L 290.738281 33.335938 Z " fill="rgb(0, 0, 0)" fill-opacity="1.000000" />
<path d="M 324.878906 39.319336 L 324.878906 32.412109 L 328.729980 32.412109 L 328.729980 33.335938 L 325.738281 33.335938 L 325.738281 39.319336 Z " fill="rgb(0, 0, 0)" fill-opacity="1.000000" />
<path d="M 328.892578 33.335938 L 328.892578 32.412109 L 335.729980 32.412109 L 335.729980 33.335938 Z " fill="rgb(0, 0, 0)" fill-opacity="1.000000" />
<path d="M 335.892578 33.335938 L 335.892578 32.412109 L 342.729980 32.412109 L 342.729980 33.335938 Z " fill="rgb(0, 0, 0)" fill-opacity="1.000000" />
<path d="M 342.892578 33.335938 L 342.892578 32.412109 L 349.729980 32.412109 L 349.729980 33.335938 Z " fill="rgb(0, 0, 0)" fill-opacity="1.000000" />
<path d="M 352.878906 39.319336 L 352.878906 33.335938 L 349.892578 33.335938 L 349.892578 32.412109 L 353.738281 32.412109 L 353.738281 39.319336 Z " fill="rgb(0, 0, 0)" fill-opacity="1.000000" />
<path d="M 359.878906 39.319336 L 359.878906 25.300781 L 360.738281 25.300781 L 360.738281 39.319336 Z " fill="rgb(0, 0, 0)" fill-opacity="1.000000" />
<path d="M 373.878906 33.335938 L 373.878906 25.300781 L 374.738281 25.300781 L 374.738281 32.412109 L 377.729980 32.412109 L 377.729980 33.335938 Z " fill="rgb(0, 0, 0)" fill-opacity="1.000000" />
<path d="M 384.892578 33.335938 L 384.892578 32.412109 L 391.729980 32.412109 L 391.729980 33.335938 Z " fill="rgb(0, 0, 0)" fill-opacity="1.000000" />
<path d="M 398.892578 33.335938 L 398.892578 32.412109 L 401.878906 32.412109 L 401.878906 25.300781 L 402.738281 25.300781 L 402.738281 33.335938 Z " fill="rgb(0, 0, 0)" fill-opacity="1.000000" />
<path d="M 37.878906 26.319336 L 37.878906 19.412109 L 41.729980 19.412109 L 41.729980 20.335938 L 38.738281 20.335938 L 38.738281 26.319336 Z " fill="rgb(0, 0, 0)" fill-opacity="1.000000" />
<path d="M 41.892578 20.335938 L 41.892578 19.412109 L 48.729980 19.412109 L 48.729980 20.335938 Z " fill="rgb(0, 0, 0)" fill-opacity="1.000000" />
<path d="M 49.032227 23.418945 L 49.032227 16.866211 L 55.590332 20.142578 Z " fill="rgb(0, 0, 0)" fill-opacity="1.000000" />
<path d="M 76.892578 20.335938 L 76.892578 19.412109 L 83.729980 19.412109 L 83.729980 20.335938 Z " fill="rgb(0, 0, 0)" fill-opacity="1.000000" />
<path d="M 83.892578 20.335938 L 83.892578 19.412109 L 90.729980 19.412109 L 90.729980 20.335938 Z " fill="rgb(0, 0, 0)" fill-opacity="1.000000" />
<path d="M 90.892578 20.335938 L 90.892578 19.412109 L 97.729980 19.412109 L 97.729980 20.335938 Z " fill="rgb(0, 0, 0)" fill-opacity="1.000000" />
<path d="M 98.032227 23.418945 L 98.032227 16.866211 L 104.590332 20.142578 Z " fill="rgb(0, 0, 0)" fill-opacity="1.000000" />
<path d="M 198.878906 26.319336 L 198.878906 19.412109 L 202.729980 19.412109 L 202.729980 20.335938 L 199.738281 20.335938 L 199.738281 26.319336 Z " fill="rgb(0, 0, 0)" fill-opacity="1.000000" />
<path d="M 202.892578 20.335938 L 202.892578 19.412109 L 209.729980 19.412109 L 209.729980 20.335938 Z " fill="rgb(0, 0, 0)" fill-opacity="1.000000" />
<path d="M 210.032227 23.418945 L 210.032227 16.866211 L 216.590332 20.142578 Z " fill="rgb(0, 0, 0)" fill-opacity="1.000000" />
<path d="M 237.892578 20.335938 L 237.892578 19.412109 L 244.729980 19.412109 L 244.729980 20.335938 Z " fill="rgb(0, 0, 0)" fill-opacity="1.000000" />
<path d="M 244.892578 20.335938 L 244.892578 19.412109 L 251.729980 19.412109 L 251.729980 20.335938 Z " fill="rgb(0, 0, 0)" fill-opacity="1.000000" />
<path d="M 251.892578 20.335938 L 251.892578 19.412109 L 258.729980 19.412109 L 258.729980 20.335938 Z " fill="rgb(0, 0, 0)" fill-opacity="1.000000" />
<path d="M 259.032227 23.418945 L 259.032227 16.866211 L 265.590332 20.142578 Z " fill="rgb(0, 0, 0)" fill-opacity="1.000000" />
<path d="M 289.878906 26.319336 L 289.878906 12.300781 L 290.738281 12.300781 L 290.738281 26.319336 Z " fill="rgb(0, 0, 0)" fill-opacity="1.000000" />
<path d="M 359.878906 26.319336 L 359.878906 19.412109 L 363.729980 19.412109 L 363.729980 20.335938 L 360.738281 20.335938 L 360.738281 26.319336 Z " fill="rgb(0, 0, 0)" fill-opacity="1.000000" />
<path d="M 363.892578 20.335938 L 363.892578 19.412109 L 370.729980 19.412109 L 370.729980 20.335938 Z " fill="rgb(0, 0, 0)" fill-opacity="1.000000" />
<path d="M 371.032227 23.418945 L 371.032227 16.866211 L 377.590332 20.142578 Z " fill="rgb(0, 0, 0)" fill-opacity="1.000000" />
<path d="M 51.878906 13.319336 L 51.878906 6.412109 L 55.729980 6.412109 L 55.729980 7.335938 L 52.738281 7.335938 L 52.738281 13.319336 Z " fill="rgb(0, 0, 0)" fill-opacity="1.000000" />
<path d="M 62.892578 7.335938 L 62.892578 6.412109 L 69.729980 6.412109 L 69.729980 7.335938 Z " fill="rgb(0, 0, 0)" fill-opacity="1.000000" />
<path d="M 79.878906 13.319336 L 79.878906 7.335938 L 76.892578 7.335938 L 76.892578 6.412109 L 80.738281 6.412109 L 80.738281 13.319336 Z " fill="rgb(0, 0, 0)" fill-opacity="1.000000" />
<path d="M 100.878906 13.319336 L 100.878906 6.412109 L 104.729980 6.412109 L 104.729980 7.335938 L 101.738281 7.335938 L 101.738281 13.319336 Z " fill="rgb(0, 0, 0)" fill-opacity="1.000000" />
<path d="M 111.892578 7.335938 L 111.892578 6.412109 L 118.729980 6.412109 L 118.729980 7.335938 Z " fill="rgb(0, 0, 0)" fill-opacity="1.000000" />
<path d="M 128.878906 13.319336 L 128.878906 7.335938 L 125.892578 7.335938 L 125.892578 6.412109 L 129.738281 6.412109 L 129.738281 13.319336 Z " fill="rgb(0, 0, 0)" fill-opacity="1.000000" />
<path d="M 212.878906 13.319336 L 212.878906 6.412109 L 216.729980 6.412109 L 216.729980 7.335938 L 213.738281 7.335938 L 213.738281 13.319336 Z " fill="rgb(0, 0, 0)" fill-opacity="1.000000" />
<path d="M 223.892578 7.335938 L 223.892578 6.412109 L 230.729980 6.412109 L 230.729980 7.335938 Z " fill="rgb(0, 0, 0)" fill-opacity="1.000000" />
<path d="M 240.878906 13.319336 L 240.878906 7.335938 L 237.892578 7.335938 L 237.892578 6.412109 L 241.738281 6.412109 L 241.738281 13.319336 Z " fill="rgb(0, 0, 0)" fill-opacity="1.000000" />
<path d="M 261.878906 13.319336 L 261.878906 6.412109 L 265.729980 6.412109 L 265.729980 7.335938 L 262.738281 7.335938 L 262.738281 13.319336 Z " fill="rgb(0, 0, 0)" fill-opacity="1.000000" />
<path d="M 265.892578 7.335938 L 265.892578 6.412109 L 272.729980 6.412109 L 272.729980 7.335938 Z " fill="rgb(0, 0, 0)" fill-opacity="1.000000" />
<path d="M 272.892578 7.335938 L 272.892578 6.412109 L 279.729980 6.412109 L 279.729980 7.335938 Z " fill="rgb(0, 0, 0)" fill-opacity="1.000000" />
<path d="M 279.892578 7.335938 L 279.892578 6.412109 L 286.729980 6.412109 L 286.729980 7.335938 Z " fill="rgb(0, 0, 0)" fill-opacity="1.000000" />
<path d="M 289.878906 13.319336 L 289.878906 7.335938 L 286.892578 7.335938 L 286.892578 6.412109 L 290.738281 6.412109 L 290.738281 13.319336 Z " fill="rgb(0, 0, 0)" fill-opacity="1.000000" />
<path d="M 373.878906 13.319336 L 373.878906 6.412109 L 377.729980 6.412109 L 377.729980 7.335938 L 374.738281 7.335938 L 374.738281 13.319336 Z " fill="rgb(0, 0, 0)" fill-opacity="1.000000" />
<path d="M 384.892578 7.335938 L 384.892578 6.412109 L 391.729980 6.412109 L 391.729980 7.335938 Z " fill="rgb(0, 0, 0)" fill-opacity="1.000000" />
<path d="M 401.878906 13.319336 L 401.878906 7.335938 L 398.892578 7.335938 L 398.892578 6.412109 L 402.738281 6.412109 L 402.738281 13.319336 Z " fill="rgb(0, 0, 0)" fill-opacity="1.000000" />
</svg>